<svg class="main-svg" xmlns="http://www.w3.org/2000/svg" xmlns:xlink="http://www.w3.org/1999/xlink" width="700" height="500" style="" viewBox="0 0 700 500"><rect x="0" y="0" width="700" height="500" style="fill: rgb(255, 255, 255); fill-opacity: 1;"/><defs id="defs-95bafc"><g class="clips"><clipPath id="clip95bafcxyplot" class="plotclip"><rect width="520" height="320"/></clipPath><clipPath class="axesclip" id="clip95bafcx"><rect x="80" y="0" width="520" height="500"/></clipPath><clipPath class="axesclip" id="clip95bafcy"><rect x="0" y="100" width="700" height="320"/></clipPath><clipPath class="axesclip" id="clip95bafcxy"><rect x="80" y="100" width="520" height="320"/></clipPath></g><g class="gradients"/><g class="patterns"/></defs><g class="bglayer"/><g class="layer-below"><g class="imagelayer"/><g class="shapelayer"/></g><g class="cartesianlayer"><g class="subplot xy"><g class="layer-subplot"><g class="shapelayer"/><g class="imagelayer"/></g><g class="gridlayer"><g class="x"/><g class="y"/></g><g class="zerolinelayer"/><path class="xlines-below"/><path class="ylines-below"/><g class="overlines-below"/><g class="xaxislayer-below"/><g class="yaxislayer-below"/><g class="overaxes-below"/><g class="plot" transform="translate(80,100)" clip-path="url(#clip95bafcxyplot)"><g class="violinlayer mlayer"><g class="trace violins" style="opacity: 1;"><path class="violin" d="M133.42,302.85Q135.22,298.02 136.44,295.68C137.71,293.24 139.27,290.85 140.96,288.51C142.74,286.06 144.81,283.68 146.91,281.33C149.08,278.9 151.49,276.55 153.79,274.16C156.1,271.77 158.54,269.42 160.75,266.99C162.9,264.63 165.03,262.27 166.88,259.82C168.65,257.48 170.27,255.09 171.65,252.65C172.98,250.31 174.06,247.9 175.05,245.48C176.02,243.12 176.75,240.71 177.53,238.31C178.3,235.93 178.96,233.53 179.7,231.14C180.45,228.74 181.19,226.35 182,223.96C182.81,221.56 183.69,219.18 184.57,216.79C185.45,214.4 186.39,212.01 187.28,209.62C188.16,207.23 189.09,204.85 189.88,202.45C190.67,200.07 191.43,197.68 192.02,195.28C192.6,192.9 193.11,190.51 193.39,188.11C193.67,185.73 193.8,183.33 193.7,180.94C193.6,178.55 193.29,176.14 192.81,173.77C192.32,171.36 191.6,168.97 190.78,166.6C189.94,164.18 188.9,161.79 187.83,159.42C186.74,157.01 185.51,154.63 184.29,152.25C183.06,149.85 181.76,147.47 180.46,145.08C179.16,142.69 177.84,140.3 176.5,137.91C175.15,135.51 173.8,133.12 172.4,130.74C170.99,128.34 169.56,125.95 168.06,123.57C166.55,121.17 164.98,118.78 163.37,116.4C161.74,114 160.02,111.61 158.31,109.23C156.59,106.83 154.79,104.45 153.06,102.05C151.34,99.66 149.58,97.29 147.96,94.88C146.37,92.51 144.8,90.13 143.41,87.71C142.05,85.35 140.79,82.96 139.7,80.54C138.64,78.18 137.72,75.78 136.94,73.37C136.17,71 135.56,68.6 135.02,66.2C134.49,63.82 134.09,61.42 133.72,59.03C133.35,56.64 133.07,54.25 132.79,51.86C132.51,49.47 132.28,47.07 132.05,44.68C131.82,42.29 131.62,39.9 131.43,37.51C131.24,35.12 131.08,32.73 130.93,30.34C130.78,27.95 130.66,25.56 130.55,23.17Q130.44,20.78 130.29,16L129.71,16Q129.56,20.78 129.45,23.17C129.34,25.56 129.22,27.95 129.07,30.34C128.92,32.73 128.76,35.12 128.57,37.51C128.38,39.9 128.18,42.29 127.95,44.68C127.72,47.07 127.49,49.47 127.21,51.86C126.93,54.25 126.65,56.64 126.28,59.03C125.91,61.42 125.51,63.82 124.98,66.2C124.44,68.6 123.83,71 123.06,73.37C122.28,75.78 121.36,78.18 120.3,80.54C119.21,82.96 117.95,85.35 116.59,87.71C115.2,90.13 113.63,92.51 112.04,94.88C110.42,97.29 108.66,99.66 106.94,102.05C105.21,104.45 103.41,106.83 101.69,109.23C99.98,111.61 98.26,114 96.63,116.4C95.02,118.78 93.45,121.17 91.94,123.57C90.44,125.95 89.01,128.34 87.6,130.74C86.2,133.12 84.85,135.51 83.5,137.91C82.16,140.3 80.84,142.69 79.54,145.08C78.24,147.47 76.94,149.85 75.71,152.25C74.49,154.63 73.26,157.01 72.17,159.42C71.1,161.79 70.06,164.18 69.22,166.6C68.4,168.97 67.68,171.36 67.19,173.77C66.71,176.14 66.4,178.55 66.3,180.94C66.2,183.33 66.33,185.73 66.61,188.11C66.89,190.51 67.4,192.9 67.98,195.28C68.57,197.68 69.33,200.07 70.12,202.45C70.91,204.85 71.84,207.23 72.72,209.62C73.61,212.01 74.55,214.4 75.43,216.79C76.31,219.18 77.19,221.56 78,223.96C78.81,226.35 79.55,228.74 80.3,231.14C81.04,233.53 81.7,235.93 82.47,238.31C83.25,240.71 83.98,243.12 84.95,245.48C85.94,247.9 87.02,250.31 88.35,252.65C89.73,255.09 91.35,257.48 93.12,259.82C94.97,262.27 97.1,264.63 99.25,266.99C101.46,269.42 103.9,271.77 106.21,274.16C108.51,276.55 110.92,278.9 113.09,281.33C115.19,283.68 117.26,286.06 119.04,288.51C120.73,290.85 122.29,293.24 123.56,295.68Q124.78,298.02 126.58,302.85Z" style="vector-effect: non-scaling-stroke; stroke-width: 2px; stroke: rgb(31, 119, 180); stroke-opacity: 1; fill: rgb(31, 119, 180); fill-opacity: 0.5;"/><path class="box" d="M114.08,183.74H145.93M114.08,227.73H145.93V150.48H114.08ZM130,227.73V259.66M130,150.48V59.19" style="vector-effect: non-scaling-stroke; stroke-width: 2px; stroke: rgb(31, 119, 180); stroke-opacity: 1; fill: rgb(31, 119, 180); fill-opacity: 0.5;"/><path class="mean" d="M114.08,186.2H145.93" style="fill: none; vector-effect: non-scaling-stroke; stroke-width: 2px; stroke-dasharray: 4px, 2px; stroke: rgb(31, 119, 180); stroke-opacity: 1;"/><g class="points"/></g><g class="trace violins" style="opacity: 1;"><path class="violin" d="M394.15,304Q396.32,299.1 397.77,296.74C399.3,294.25 401.17,291.84 403.19,289.49C405.34,286.99 407.84,284.6 410.37,282.23C413,279.76 415.92,277.39 418.71,274.98C421.52,272.56 424.49,270.18 427.18,267.72C429.78,265.34 432.39,262.97 434.61,260.47C436.7,258.12 438.64,255.71 440.2,253.21C441.67,250.86 442.84,248.41 443.81,245.95C444.74,243.57 445.33,241.13 445.94,238.7C446.54,236.29 446.93,233.86 447.44,231.44C447.95,229.02 448.43,226.6 448.99,224.19C449.55,221.77 450.2,219.35 450.8,216.93C451.39,214.51 452.08,212.11 452.56,209.68C453.04,207.27 453.51,204.85 453.7,202.42C453.89,200.01 453.91,197.58 453.69,195.17C453.47,192.74 452.98,190.31 452.37,187.91C451.75,185.47 450.86,183.05 449.97,180.65C449.07,178.22 448,175.82 447.02,173.4C446.04,170.98 445,168.57 444.07,166.14C443.15,163.73 442.27,161.32 441.45,158.89C440.64,156.48 439.92,154.05 439.18,151.63C438.44,149.21 437.77,146.79 437,144.38C436.22,141.95 435.44,139.52 434.52,137.12C433.58,134.68 432.56,132.26 431.41,129.86C430.24,127.42 428.93,125.01 427.55,122.61C426.14,120.17 424.6,117.76 423.05,115.35C421.48,112.92 419.82,110.52 418.19,108.1C416.56,105.68 414.88,103.27 413.29,100.84C411.71,98.43 410.14,96.03 408.68,93.59C407.24,91.19 405.84,88.77 404.56,86.33C403.3,83.93 402.11,81.52 401.03,79.08C399.96,76.68 398.98,74.25 398.09,71.82C397.21,69.41 396.41,66.99 395.7,64.56C394.99,62.15 394.38,59.74 393.83,57.31C393.29,54.9 392.82,52.47 392.42,50.05C392.02,47.64 391.7,45.22 391.43,42.8C391.16,40.38 390.95,37.96 390.78,35.54Q390.61,33.12 390.4,28.29L389.6,28.29Q389.39,33.12 389.22,35.54C389.05,37.96 388.84,40.38 388.57,42.8C388.3,45.22 387.98,47.64 387.58,50.05C387.18,52.47 386.71,54.9 386.17,57.31C385.62,59.74 385.01,62.15 384.3,64.56C383.59,66.99 382.79,69.41 381.91,71.82C381.02,74.25 380.04,76.68 378.97,79.08C377.89,81.52 376.7,83.93 375.44,86.33C374.16,88.77 372.76,91.19 371.32,93.59C369.86,96.03 368.29,98.43 366.71,100.84C365.12,103.27 363.44,105.68 361.81,108.1C360.18,110.52 358.52,112.92 356.95,115.35C355.4,117.76 353.86,120.17 352.45,122.61C351.07,125.01 349.76,127.42 348.59,129.86C347.44,132.26 346.42,134.68 345.48,137.12C344.56,139.52 343.78,141.95 343,144.38C342.23,146.79 341.56,149.21 340.82,151.63C340.08,154.05 339.36,156.48 338.55,158.89C337.73,161.32 336.85,163.73 335.93,166.14C335,168.57 333.96,170.98 332.98,173.4C332,175.82 330.93,178.22 330.03,180.65C329.14,183.05 328.25,185.47 327.63,187.91C327.02,190.31 326.53,192.74 326.31,195.17C326.09,197.58 326.11,200.01 326.3,202.42C326.49,204.85 326.96,207.27 327.44,209.68C327.92,212.11 328.61,214.51 329.2,216.93C329.8,219.35 330.45,221.77 331.01,224.19C331.57,226.6 332.05,229.02 332.56,231.44C333.07,233.86 333.46,236.29 334.06,238.7C334.67,241.13 335.26,243.57 336.19,245.95C337.16,248.41 338.33,250.86 339.8,253.21C341.36,255.71 343.3,258.12 345.39,260.47C347.61,262.97 350.22,265.34 352.82,267.72C355.51,270.18 358.48,272.56 361.29,274.98C364.08,277.39 367,279.76 369.63,282.23C372.16,284.6 374.66,286.99 376.81,289.49C378.83,291.84 380.7,294.25 382.23,296.74Q383.68,299.1 385.85,304Z" style="vector-effect: non-scaling-stroke; stroke-width: 2px; stroke: rgb(255, 127, 14); stroke-opacity: 1; fill: rgb(255, 127, 14); fill-opacity: 0.5;"/><path class="box" d="M374.08,195.8H405.93M374.08,231.32H405.93V149.29H374.08ZM390,231.32V259.66M390,149.29V72.62" style="vector-effect: non-scaling-stroke; stroke-width: 2px; stroke: rgb(255, 127, 14); stroke-opacity: 1; fill: rgb(255, 127, 14); fill-opacity: 0.5;"/><path class="mean" d="M374.08,190.3H405.93" style="fill: none; vector-effect: non-scaling-stroke; stroke-width: 2px; stroke-dasharray: 4px, 2px; stroke: rgb(255, 127, 14); stroke-opacity: 1;"/><g class="points"/></g></g></g><g class="overplot"/><path class="xlines-above crisp" d="M79,420.5H600" style="fill: none; stroke-width: 1px; stroke: rgb(36, 36, 36); stroke-opacity: 1;"/><path class="ylines-above crisp" d="M79.5,100V420" style="fill: none; stroke-width: 1px; stroke: rgb(36, 36, 36); stroke-opacity: 1;"/><g class="overlines-above"/><g class="xaxislayer-above"><path class="xtick ticks crisp" d="M0,421v5" transform="translate(210,0)" style="stroke: rgb(68, 68, 68); stroke-opacity: 1; stroke-width: 1px;"/><path class="xtick ticks crisp" d="M0,421v5" transform="translate(470,0)" style="stroke: rgb(68, 68, 68); stroke-opacity: 1; stroke-width: 1px;"/><g class="xtick"><text text-anchor="middle" x="0" y="440.4" transform="translate(210,0)" style="font-family: 'Open Sans', verdana, arial, sans-serif; font-size: 12px; fill: rgb(36, 36, 36); fill-opacity: 1; white-space: pre; opacity: 1;">Ab6</text></g><g class="xtick"><text text-anchor="middle" x="0" y="440.4" transform="translate(470,0)" style="font-family: 'Open Sans', verdana, arial, sans-serif; font-size: 12px; fill: rgb(36, 36, 36); fill-opacity: 1; white-space: pre; opacity: 1;">Ab24</text></g></g><g class="yaxislayer-above"><path class="ytick ticks crisp" d="M79,0h-5" transform="translate(0,382.32)" style="stroke: rgb(68, 68, 68); stroke-opacity: 1; stroke-width: 1px;"/><path class="ytick ticks crisp" d="M79,0h-5" transform="translate(0,342.94)" style="stroke: rgb(68, 68, 68); stroke-opacity: 1; stroke-width: 1px;"/><path class="ytick ticks crisp" d="M79,0h-5" transform="translate(0,303.56)" style="stroke: rgb(68, 68, 68); stroke-opacity: 1; stroke-width: 1px;"/><path class="ytick ticks crisp" d="M79,0h-5" transform="translate(0,264.18)" style="stroke: rgb(68, 68, 68); stroke-opacity: 1; stroke-width: 1px;"/><path class="ytick ticks crisp" d="M79,0h-5" transform="translate(0,224.81)" style="stroke: rgb(68, 68, 68); stroke-opacity: 1; stroke-width: 1px;"/><path class="ytick ticks crisp" d="M79,0h-5" transform="translate(0,185.43)" style="stroke: rgb(68, 68, 68); stroke-opacity: 1; stroke-width: 1px;"/><path class="ytick ticks crisp" d="M79,0h-5" transform="translate(0,146.05)" style="stroke: rgb(68, 68, 68); stroke-opacity: 1; stroke-width: 1px;"/><path class="ytick ticks crisp" d="M79,0h-5" transform="translate(0,106.67)" style="stroke: rgb(68, 68, 68); stroke-opacity: 1; stroke-width: 1px;"/><g class="ytick"><text text-anchor="end" x="71.6" y="4.199999999999999" transform="translate(0,382.32)" style="font-family: 'Open Sans', verdana, arial, sans-serif; font-size: 12px; fill: rgb(36, 36, 36); fill-opacity: 1; white-space: pre; opacity: 1;">0</text></g><g class="ytick"><text text-anchor="end" x="71.6" y="4.199999999999999" style="font-family: 'Open Sans', verdana, arial, sans-serif; font-size: 12px; fill: rgb(36, 36, 36); fill-opacity: 1; white-space: pre; opacity: 1;" transform="translate(0,342.94)">0.5</text></g><g class="ytick"><text text-anchor="end" x="71.6" y="4.199999999999999" style="font-family: 'Open Sans', verdana, arial, sans-serif; font-size: 12px; fill: rgb(36, 36, 36); fill-opacity: 1; white-space: pre; opacity: 1;" transform="translate(0,303.56)">1</text></g><g class="ytick"><text text-anchor="end" x="71.6" y="4.199999999999999" style="font-family: 'Open Sans', verdana, arial, sans-serif; font-size: 12px; fill: rgb(36, 36, 36); fill-opacity: 1; white-space: pre; opacity: 1;" transform="translate(0,264.18)">1.5</text></g><g class="ytick"><text text-anchor="end" x="71.6" y="4.199999999999999" style="font-family: 'Open Sans', verdana, arial, sans-serif; font-size: 12px; fill: rgb(36, 36, 36); fill-opacity: 1; white-space: pre; opacity: 1;" transform="translate(0,224.81)">2</text></g><g class="ytick"><text text-anchor="end" x="71.6" y="4.199999999999999" style="font-family: 'Open Sans', verdana, arial, sans-serif; font-size: 12px; fill: rgb(36, 36, 36); fill-opacity: 1; white-space: pre; opacity: 1;" transform="translate(0,185.43)">2.5</text></g><g class="ytick"><text text-anchor="end" x="71.6" y="4.199999999999999" style="font-family: 'Open Sans', verdana, arial, sans-serif; font-size: 12px; fill: rgb(36, 36, 36); fill-opacity: 1; white-space: pre; opacity: 1;" transform="translate(0,146.05)">3</text></g><g class="ytick"><text text-anchor="end" x="71.6" y="4.199999999999999" style="font-family: 'Open Sans', verdana, arial, sans-serif; font-size: 12px; fill: rgb(36, 36, 36); fill-opacity: 1; white-space: pre; opacity: 1;" transform="translate(0,106.67)">3.5</text></g></g><g class="overaxes-above"/></g></g><g class="polarlayer"/><g class="ternarylayer"/><g class="geolayer"/><g class="funnelarealayer"/><g class="pielayer"/><g class="iciclelayer"/><g class="treemaplayer"/><g class="sunburstlayer"/><g class="glimages"/><defs id="topdefs-95bafc"><g class="clips"/><clipPath id="legend95bafc"><rect width="78" height="48" x="0" y="0"/></clipPath></defs><g class="layer-above"><g class="imagelayer"/><g class="shapelayer"/></g><g class="infolayer"><g class="legend" pointer-events="all" transform="translate(610.4,100)"><rect class="bg" shape-rendering="crispEdges" width="78" height="48" x="0" y="0" style="stroke: rgb(68, 68, 68); stroke-opacity: 1; fill: rgb(255, 255, 255); fill-opacity: 1; stroke-width: 0px;"/><g class="scrollbox" transform="" clip-path="url(#legend95bafc)"><g class="groups"><g class="traces" transform="translate(0,14.5)" style="opacity: 1;"><text class="legendtext" text-anchor="start" x="40" y="4.680000000000001" style="font-family: 'Open Sans', verdana, arial, sans-serif; font-size: 12px; fill: rgb(36, 36, 36); fill-opacity: 1; white-space: pre;">Ab6</text><g class="layers" style="opacity: 1;"><g class="legendfill"/><g class="legendlines"/><g class="legendsymbols"><g class="legendpoints"><path class="legendbox" d="M6,6H-6V-6H6Z" transform="translate(20,0)" style="stroke-width: 2px; fill: rgb(31, 119, 180); fill-opacity: 0.5; stroke: rgb(31, 119, 180); stroke-opacity: 1;"/></g></g></g><rect class="legendtoggle" x="0" y="-9.5" width="72.3125" height="19" style="fill: rgb(0, 0, 0); fill-opacity: 0;"/></g><g class="traces" transform="translate(0,33.5)" style="opacity: 1;"><text class="legendtext" text-anchor="start" x="40" y="4.680000000000001" style="font-family: 'Open Sans', verdana, arial, sans-serif; font-size: 12px; fill: rgb(36, 36, 36); fill-opacity: 1; white-space: pre;">Ab24</text><g class="layers" style="opacity: 1;"><g class="legendfill"/><g class="legendlines"/><g class="legendsymbols"><g class="legendpoints"><path class="legendbox" d="M6,6H-6V-6H6Z" transform="translate(20,0)" style="stroke-width: 2px; fill: rgb(255, 127, 14); fill-opacity: 0.5; stroke: rgb(255, 127, 14); stroke-opacity: 1;"/></g></g></g><rect class="legendtoggle" x="0" y="-9.5" width="72.3125" height="19" style="fill: rgb(0, 0, 0); fill-opacity: 0;"/></g></g></g><rect class="scrollbar" rx="20" ry="3" width="0" height="0" x="0" y="0" style="fill: rgb(128, 139, 164); fill-opacity: 1;"/></g><g class="g-gtitle"><text class="gtitle" x="35" y="50" text-anchor="start" dy="0em" style="font-family: 'Open Sans', verdana, arial, sans-serif; font-size: 17px; fill: rgb(36, 36, 36); opacity: 1; font-weight: normal; white-space: pre;">Distribution of complex log abundances</text></g><g class="g-xtitle"/><g class="g-ytitle"/></g></svg>