<svg class="main-svg" xmlns="http://www.w3.org/2000/svg" xmlns:xlink="http://www.w3.org/1999/xlink" width="700" height="500" style="" viewBox="0 0 700 500"><rect x="0" y="0" width="700" height="500" style="fill: rgb(255, 255, 255); fill-opacity: 1;"/><defs id="defs-d36e9b"><g class="clips"><clipPath id="clipd36e9bxyplot" class="plotclip"><rect width="506" height="320"/></clipPath><clipPath class="axesclip" id="clipd36e9bx"><rect x="80" y="0" width="506" height="500"/></clipPath><clipPath class="axesclip" id="clipd36e9by"><rect x="0" y="100" width="700" height="320"/></clipPath><clipPath class="axesclip" id="clipd36e9bxy"><rect x="80" y="100" width="506" height="320"/></clipPath></g><g class="gradients"/><g class="patterns"/></defs><g class="bglayer"/><g class="layer-below"><g class="imagelayer"/><g class="shapelayer"/></g><g class="cartesianlayer"><g class="subplot xy"><g class="layer-subplot"><g class="shapelayer"/><g class="imagelayer"/></g><g class="gridlayer"><g class="x"/><g class="y"/></g><g class="zerolinelayer"/><path class="xlines-below"/><path class="ylines-below"/><g class="overlines-below"/><g class="xaxislayer-below"/><g class="yaxislayer-below"/><g class="overaxes-below"/><g class="plot" transform="translate(80,100)" clip-path="url(#clipd36e9bxyplot)"><g class="violinlayer mlayer"><g class="trace violins" style="opacity: 1;"><path class="violin" d="M127.02,265.68Q127.32,262.65 127.57,261.14C127.82,259.62 128.11,258.1 128.51,256.6C128.91,255.08 129.38,253.55 129.97,252.06C130.57,250.53 131.29,249.01 132.11,247.52C132.96,245.98 133.93,244.46 135,242.98C136.12,241.43 137.37,239.92 138.7,238.44C140.08,236.89 141.59,235.39 143.15,233.9C144.76,232.36 146.49,230.86 148.22,229.36C149.99,227.83 151.84,226.33 153.65,224.82C155.47,223.31 157.33,221.81 159.11,220.29C160.86,218.79 162.61,217.29 164.26,215.75C165.86,214.26 167.42,212.75 168.86,211.21C170.24,209.73 171.55,208.22 172.73,206.67C173.86,205.19 174.91,203.67 175.81,202.13C176.68,200.65 177.43,199.13 178.06,197.59C178.67,196.1 179.14,194.57 179.55,193.05C179.95,191.55 180.21,190.03 180.5,188.51C180.79,187 180.99,185.48 181.31,183.97C181.63,182.45 181.97,180.93 182.43,179.43C182.89,177.9 183.48,176.39 184.08,174.89C184.69,173.37 185.46,171.87 186.08,170.35C186.7,168.84 187.4,167.34 187.8,165.81C188.19,164.32 188.51,162.78 188.49,161.27C188.47,159.75 188.15,158.21 187.65,156.73C187.12,155.18 186.23,153.67 185.31,152.19C184.34,150.63 183.11,149.14 181.91,147.65C180.68,146.12 179.34,144.62 178.03,143.11C176.71,141.59 175.37,140.08 174.04,138.57C172.71,137.06 171.38,135.54 170.03,134.03C168.67,132.51 167.3,131 165.9,129.49C164.49,127.97 163.04,126.46 161.6,124.95C160.15,123.43 158.66,121.93 157.22,120.41C155.79,118.9 154.35,117.4 152.99,115.87C151.66,114.37 150.35,112.86 149.13,111.33C147.94,109.83 146.81,108.32 145.73,106.79C144.68,105.29 143.7,103.77 142.74,102.25C141.79,100.75 140.9,99.23 140.01,97.71C139.12,96.2 138.25,94.69 137.4,93.17C136.55,91.66 135.71,90.15 134.9,88.63C134.1,87.13 133.31,85.62 132.59,84.1C131.88,82.6 131.21,81.09 130.63,79.56C130.06,78.06 129.54,76.54 129.12,75.02C128.7,73.52 128.37,72 128.1,70.48C127.84,68.97 127.66,67.46 127.53,65.94C127.4,64.43 127.34,62.91 127.31,61.4C127.28,59.89 127.31,58.37 127.33,56.86C127.35,55.35 127.4,53.83 127.44,52.32C127.48,50.81 127.53,49.29 127.56,47.78C127.59,46.27 127.6,44.75 127.6,43.24C127.6,41.73 127.57,40.21 127.53,38.7C127.49,37.19 127.43,35.67 127.37,34.16C127.31,32.65 127.23,31.13 127.16,29.62C127.09,28.11 127.02,26.59 126.95,25.08C126.89,23.57 126.82,22.05 126.77,20.54Q126.72,19.03 126.65,16L126.35,16Q126.28,19.03 126.23,20.54C126.18,22.05 126.11,23.57 126.05,25.08C125.98,26.59 125.91,28.11 125.84,29.62C125.77,31.13 125.69,32.65 125.63,34.16C125.57,35.67 125.51,37.19 125.47,38.7C125.43,40.21 125.4,41.73 125.4,43.24C125.4,44.75 125.41,46.27 125.44,47.78C125.47,49.29 125.52,50.81 125.56,52.32C125.6,53.83 125.65,55.35 125.67,56.86C125.69,58.37 125.72,59.89 125.69,61.4C125.66,62.91 125.6,64.43 125.47,65.94C125.34,67.46 125.16,68.97 124.9,70.48C124.63,72 124.3,73.52 123.88,75.02C123.46,76.54 122.94,78.06 122.37,79.56C121.79,81.09 121.12,82.6 120.41,84.1C119.69,85.62 118.9,87.13 118.1,88.63C117.29,90.15 116.45,91.66 115.6,93.17C114.75,94.69 113.88,96.2 112.99,97.71C112.1,99.23 111.21,100.75 110.26,102.25C109.3,103.77 108.32,105.29 107.27,106.79C106.19,108.32 105.06,109.83 103.87,111.33C102.65,112.86 101.34,114.37 100.01,115.87C98.65,117.4 97.21,118.9 95.78,120.41C94.34,121.93 92.85,123.43 91.4,124.95C89.96,126.46 88.51,127.97 87.1,129.49C85.7,131 84.33,132.51 82.97,134.03C81.62,135.54 80.29,137.06 78.96,138.57C77.63,140.08 76.29,141.59 74.97,143.11C73.66,144.62 72.32,146.12 71.09,147.65C69.89,149.14 68.66,150.63 67.69,152.19C66.77,153.67 65.88,155.18 65.35,156.73C64.85,158.21 64.54,159.75 64.52,161.27C64.5,162.78 64.81,164.32 65.2,165.81C65.6,167.35 66.3,168.84 66.92,170.35C67.54,171.87 68.31,173.37 68.92,174.89C69.52,176.39 70.11,177.9 70.57,179.43C71.03,180.93 71.37,182.45 71.69,183.97C72.01,185.48 72.21,187 72.5,188.51C72.79,190.03 73.05,191.55 73.45,193.05C73.86,194.57 74.33,196.1 74.94,197.59C75.57,199.13 76.32,200.65 77.19,202.13C78.09,203.67 79.14,205.19 80.27,206.67C81.45,208.22 82.76,209.73 84.14,211.21C85.58,212.75 87.14,214.26 88.74,215.75C90.39,217.29 92.14,218.79 93.89,220.29C95.67,221.81 97.53,223.31 99.35,224.82C101.16,226.33 103.01,227.83 104.78,229.36C106.51,230.86 108.24,232.36 109.85,233.9C111.41,235.39 112.92,236.89 114.3,238.44C115.63,239.92 116.88,241.43 118,242.98C119.07,244.46 120.04,245.98 120.89,247.52C121.71,249.01 122.43,250.53 123.03,252.06C123.62,253.55 124.09,255.08 124.49,256.6C124.89,258.1 125.18,259.62 125.43,261.14Q125.68,262.65 125.98,265.68Z" style="vector-effect: non-scaling-stroke; stroke-width: 2px; stroke: rgb(31, 119, 180); stroke-opacity: 1; fill: rgb(31, 119, 180); fill-opacity: 0.5;"/><path class="box" d="M111,165.37H142M111,195.78H142V143.7H111ZM126.5,195.78V238.29M126.5,143.7V91.19" style="vector-effect: non-scaling-stroke; stroke-width: 2px; stroke: rgb(31, 119, 180); stroke-opacity: 1; fill: rgb(31, 119, 180); fill-opacity: 0.5;"/><path class="mean" d="M111,167.77H142" style="fill: none; vector-effect: non-scaling-stroke; stroke-width: 2px; stroke-dasharray: 4px, 2px; stroke: rgb(31, 119, 180); stroke-opacity: 1;"/><g class="points"><path class="point" transform="translate(126.5,43.39)" d="M3,0A3,3 0 1,1 0,-3A3,3 0 0,1 3,0Z" style="opacity: 1; stroke-width: 0px; fill: rgb(31, 119, 180); fill-opacity: 1;"/></g></g><g class="trace violins" style="opacity: 1;"><path class="violin" d="M379.67,304Q379.77,301.03 379.85,299.54C379.94,298.05 380.04,296.56 380.18,295.08C380.33,293.59 380.49,292.11 380.72,290.63C380.95,289.14 381.22,287.65 381.56,286.17C381.9,284.68 382.3,283.19 382.78,281.71C383.27,280.21 383.82,278.72 384.47,277.25C385.13,275.75 385.88,274.26 386.73,272.8C387.61,271.29 388.59,269.8 389.68,268.34C390.82,266.82 392.07,265.33 393.43,263.88C394.86,262.35 396.42,260.87 398.06,259.42C399.79,257.9 401.65,256.42 403.57,254.96C405.56,253.44 407.68,251.98 409.81,250.51C411.99,249.01 414.27,247.54 416.51,246.05C418.75,244.56 421.05,243.1 423.24,241.59C425.37,240.12 427.51,238.66 429.46,237.13C431.31,235.68 433.12,234.23 434.67,232.68C436.1,231.25 437.45,229.77 438.48,228.22C439.43,226.79 440.22,225.28 440.72,223.76C441.2,222.31 441.42,220.79 441.48,219.3C441.54,217.82 441.34,216.32 441.09,214.84C440.83,213.35 440.39,211.87 439.95,210.39C439.51,208.9 438.97,207.41 438.45,205.93C437.93,204.44 437.37,202.96 436.84,201.47C436.31,199.98 435.79,198.5 435.26,197.01C434.73,195.52 434.22,194.03 433.68,192.55C433.14,191.06 432.61,189.58 432.03,188.1C431.44,186.61 430.83,185.12 430.17,183.64C429.5,182.14 428.79,180.66 428.04,179.18C427.28,177.68 426.46,176.2 425.64,174.72C424.81,173.23 423.93,171.76 423.08,170.27C422.23,168.79 421.36,167.3 420.54,165.81C419.73,164.33 418.93,162.85 418.2,161.35C417.48,159.87 416.8,158.39 416.17,156.89C415.55,155.41 415,153.92 414.47,152.43C413.94,150.95 413.48,149.47 413,147.98C412.52,146.5 412.09,145 411.61,143.52C411.13,142.03 410.66,140.54 410.11,139.06C409.55,137.56 408.96,136.07 408.28,134.6C407.59,133.1 406.82,131.62 405.99,130.15C405.14,128.65 404.19,127.17 403.23,125.69C402.26,124.19 401.2,122.72 400.18,121.23C399.17,119.74 398.11,118.27 397.14,116.77C396.18,115.29 395.23,113.81 394.37,112.31C393.53,110.84 392.74,109.36 392.02,107.86C391.31,106.39 390.69,104.89 390.09,103.4C389.5,101.92 388.96,100.43 388.43,98.94C387.9,97.46 387.42,95.97 386.93,94.48C386.45,93 385.97,91.52 385.52,90.03C385.07,88.55 384.62,87.06 384.21,85.57C383.81,84.09 383.43,82.6 383.09,81.11C382.76,79.63 382.45,78.14 382.2,76.65C381.95,75.17 381.75,73.68 381.58,72.19C381.41,70.71 381.28,69.23 381.17,67.74C381.06,66.26 380.98,64.77 380.9,63.28C380.82,61.79 380.75,60.31 380.67,58.82C380.6,57.33 380.52,55.85 380.45,54.36C380.37,52.87 380.29,51.39 380.22,49.9C380.15,48.42 380.08,46.93 380.01,45.45C379.94,43.96 379.87,42.48 379.82,40.99C379.77,39.5 379.73,38.02 379.69,36.53Q379.65,35.04 379.6,32.07L379.4,32.07Q379.35,35.04 379.31,36.53C379.27,38.02 379.23,39.5 379.18,40.99C379.13,42.48 379.06,43.96 378.99,45.45C378.92,46.93 378.85,48.42 378.78,49.9C378.71,51.39 378.63,52.87 378.55,54.36C378.48,55.85 378.4,57.33 378.33,58.82C378.25,60.31 378.18,61.79 378.1,63.28C378.02,64.77 377.94,66.26 377.83,67.74C377.72,69.23 377.59,70.71 377.42,72.19C377.25,73.68 377.05,75.17 376.8,76.65C376.55,78.14 376.24,79.63 375.91,81.11C375.57,82.6 375.19,84.09 374.79,85.57C374.38,87.06 373.93,88.55 373.48,90.03C373.03,91.52 372.55,93 372.07,94.48C371.58,95.97 371.1,97.46 370.57,98.94C370.04,100.43 369.5,101.92 368.91,103.4C368.31,104.89 367.69,106.39 366.98,107.86C366.26,109.36 365.47,110.84 364.63,112.31C363.77,113.81 362.82,115.29 361.86,116.77C360.89,118.27 359.83,119.74 358.82,121.23C357.8,122.72 356.74,124.19 355.77,125.69C354.81,127.17 353.86,128.65 353.01,130.15C352.18,131.62 351.41,133.1 350.72,134.6C350.04,136.07 349.45,137.56 348.89,139.06C348.34,140.54 347.87,142.03 347.39,143.52C346.91,145 346.48,146.5 346,147.98C345.52,149.47 345.06,150.95 344.53,152.43C344,153.92 343.45,155.41 342.83,156.89C342.2,158.39 341.52,159.87 340.8,161.35C340.07,162.85 339.27,164.33 338.46,165.81C337.64,167.3 336.77,168.79 335.92,170.27C335.07,171.76 334.19,173.23 333.36,174.72C332.54,176.2 331.72,177.68 330.96,179.18C330.21,180.66 329.5,182.14 328.83,183.64C328.17,185.12 327.56,186.61 326.97,188.1C326.39,189.58 325.86,191.06 325.32,192.55C324.78,194.03 324.27,195.52 323.74,197.01C323.21,198.5 322.69,199.98 322.16,201.47C321.63,202.96 321.07,204.44 320.55,205.93C320.03,207.41 319.49,208.9 319.05,210.39C318.61,211.87 318.17,213.35 317.91,214.84C317.66,216.32 317.46,217.82 317.52,219.3C317.58,220.79 317.8,222.31 318.28,223.76C318.78,225.28 319.57,226.79 320.52,228.22C321.55,229.77 322.9,231.25 324.33,232.68C325.88,234.23 327.69,235.68 329.54,237.13C331.49,238.66 333.63,240.12 335.76,241.59C337.95,243.1 340.25,244.56 342.49,246.05C344.73,247.54 347.01,249.01 349.19,250.51C351.32,251.98 353.44,253.44 355.43,254.96C357.35,256.42 359.21,257.9 360.94,259.42C362.58,260.87 364.14,262.35 365.57,263.88C366.93,265.33 368.18,266.82 369.32,268.34C370.41,269.8 371.39,271.29 372.27,272.8C373.12,274.26 373.87,275.75 374.53,277.25C375.18,278.72 375.73,280.21 376.22,281.71C376.7,283.19 377.1,284.68 377.44,286.17C377.78,287.65 378.05,289.14 378.28,290.63C378.51,292.11 378.67,293.59 378.82,295.08C378.96,296.56 379.06,298.05 379.15,299.54Q379.23,301.03 379.33,304Z" style="vector-effect: non-scaling-stroke; stroke-width: 2px; stroke: rgb(255, 127, 14); stroke-opacity: 1; fill: rgb(255, 127, 14); fill-opacity: 0.5;"/><path class="box" d="M364,195.88H395M364,224.91H395V161.34H364ZM379.5,224.91V276.85M379.5,161.34V88.06" style="vector-effect: non-scaling-stroke; stroke-width: 2px; stroke: rgb(255, 127, 14); stroke-opacity: 1; fill: rgb(255, 127, 14); fill-opacity: 0.5;"/><path class="mean" d="M364,191.15H395" style="fill: none; vector-effect: non-scaling-stroke; stroke-width: 2px; stroke-dasharray: 4px, 2px; stroke: rgb(255, 127, 14); stroke-opacity: 1;"/><g class="points"><path class="point" transform="translate(379.5,65.57)" d="M3,0A3,3 0 1,1 0,-3A3,3 0 0,1 3,0Z" style="opacity: 1; stroke-width: 0px; fill: rgb(255, 127, 14); fill-opacity: 1;"/><path class="point" transform="translate(379.5,59.22)" d="M3,0A3,3 0 1,1 0,-3A3,3 0 0,1 3,0Z" style="opacity: 1; stroke-width: 0px; fill: rgb(255, 127, 14); fill-opacity: 1;"/></g></g></g></g><g class="overplot"/><path class="xlines-above crisp" d="M79,420.5H586" style="fill: none; stroke-width: 1px; stroke: rgb(36, 36, 36); stroke-opacity: 1;"/><path class="ylines-above crisp" d="M79.5,100V420" style="fill: none; stroke-width: 1px; stroke: rgb(36, 36, 36); stroke-opacity: 1;"/><g class="overlines-above"/><g class="xaxislayer-above"><path class="xtick ticks crisp" d="M0,421v5" transform="translate(206.5,0)" style="stroke: rgb(68, 68, 68); stroke-opacity: 1; stroke-width: 1px;"/><path class="xtick ticks crisp" d="M0,421v5" transform="translate(459.5,0)" style="stroke: rgb(68, 68, 68); stroke-opacity: 1; stroke-width: 1px;"/><g class="xtick"><text text-anchor="middle" x="0" y="440.4" transform="translate(206.5,0)" style="font-family: 'Open Sans', verdana, arial, sans-serif; font-size: 12px; fill: rgb(36, 36, 36); fill-opacity: 1; white-space: pre; opacity: 1;">Treated</text></g><g class="xtick"><text text-anchor="middle" x="0" y="440.4" transform="translate(459.5,0)" style="font-family: 'Open Sans', verdana, arial, sans-serif; font-size: 12px; fill: rgb(36, 36, 36); fill-opacity: 1; white-space: pre; opacity: 1;">Control</text></g></g><g class="yaxislayer-above"><path class="ytick ticks crisp" d="M79,0h-5" transform="translate(0,414.37)" style="stroke: rgb(68, 68, 68); stroke-opacity: 1; stroke-width: 1px;"/><path class="ytick ticks crisp" d="M79,0h-5" transform="translate(0,366.07)" style="stroke: rgb(68, 68, 68); stroke-opacity: 1; stroke-width: 1px;"/><path class="ytick ticks crisp" d="M79,0h-5" transform="translate(0,317.78)" style="stroke: rgb(68, 68, 68); stroke-opacity: 1; stroke-width: 1px;"/><path class="ytick ticks crisp" d="M79,0h-5" transform="translate(0,269.48)" style="stroke: rgb(68, 68, 68); stroke-opacity: 1; stroke-width: 1px;"/><path class="ytick ticks crisp" d="M79,0h-5" transform="translate(0,221.19)" style="stroke: rgb(68, 68, 68); stroke-opacity: 1; stroke-width: 1px;"/><path class="ytick ticks crisp" d="M79,0h-5" transform="translate(0,172.89)" style="stroke: rgb(68, 68, 68); stroke-opacity: 1; stroke-width: 1px;"/><path class="ytick ticks crisp" d="M79,0h-5" transform="translate(0,124.6)" style="stroke: rgb(68, 68, 68); stroke-opacity: 1; stroke-width: 1px;"/><g class="ytick"><text text-anchor="end" x="71.6" y="4.199999999999999" transform="translate(0,414.37)" style="font-family: 'Open Sans', verdana, arial, sans-serif; font-size: 12px; fill: rgb(36, 36, 36); fill-opacity: 1; white-space: pre; opacity: 1;">−2</text></g><g class="ytick"><text text-anchor="end" x="71.6" y="4.199999999999999" style="font-family: 'Open Sans', verdana, arial, sans-serif; font-size: 12px; fill: rgb(36, 36, 36); fill-opacity: 1; white-space: pre; opacity: 1;" transform="translate(0,366.07)">0</text></g><g class="ytick"><text text-anchor="end" x="71.6" y="4.199999999999999" style="font-family: 'Open Sans', verdana, arial, sans-serif; font-size: 12px; fill: rgb(36, 36, 36); fill-opacity: 1; white-space: pre; opacity: 1;" transform="translate(0,317.78)">2</text></g><g class="ytick"><text text-anchor="end" x="71.6" y="4.199999999999999" style="font-family: 'Open Sans', verdana, arial, sans-serif; font-size: 12px; fill: rgb(36, 36, 36); fill-opacity: 1; white-space: pre; opacity: 1;" transform="translate(0,269.48)">4</text></g><g class="ytick"><text text-anchor="end" x="71.6" y="4.199999999999999" style="font-family: 'Open Sans', verdana, arial, sans-serif; font-size: 12px; fill: rgb(36, 36, 36); fill-opacity: 1; white-space: pre; opacity: 1;" transform="translate(0,221.19)">6</text></g><g class="ytick"><text text-anchor="end" x="71.6" y="4.199999999999999" style="font-family: 'Open Sans', verdana, arial, sans-serif; font-size: 12px; fill: rgb(36, 36, 36); fill-opacity: 1; white-space: pre; opacity: 1;" transform="translate(0,172.89)">8</text></g><g class="ytick"><text text-anchor="end" x="71.6" y="4.199999999999999" style="font-family: 'Open Sans', verdana, arial, sans-serif; font-size: 12px; fill: rgb(36, 36, 36); fill-opacity: 1; white-space: pre; opacity: 1;" transform="translate(0,124.6)">10</text></g></g><g class="overaxes-above"/></g></g><g class="polarlayer"/><g class="ternarylayer"/><g class="geolayer"/><g class="funnelarealayer"/><g class="pielayer"/><g class="iciclelayer"/><g class="treemaplayer"/><g class="sunburstlayer"/><g class="glimages"/><defs id="topdefs-d36e9b"><g class="clips"/><clipPath id="legendd36e9b"><rect width="92" height="48" x="0" y="0"/></clipPath></defs><g class="layer-above"><g class="imagelayer"/><g class="shapelayer"/></g><g class="infolayer"><g class="legend" pointer-events="all" transform="translate(596.12,100)"><rect class="bg" shape-rendering="crispEdges" width="92" height="48" x="0" y="0" style="stroke: rgb(68, 68, 68); stroke-opacity: 1; fill: rgb(255, 255, 255); fill-opacity: 1; stroke-width: 0px;"/><g class="scrollbox" transform="" clip-path="url(#legendd36e9b)"><g class="groups"><g class="traces" transform="translate(0,14.5)" style="opacity: 1;"><text class="legendtext" text-anchor="start" x="40" y="4.680000000000001" style="font-family: 'Open Sans', verdana, arial, sans-serif; font-size: 12px; fill: rgb(36, 36, 36); fill-opacity: 1; white-space: pre;">Treated</text><g class="layers" style="opacity: 1;"><g class="legendfill"/><g class="legendlines"/><g class="legendsymbols"><g class="legendpoints"><path class="legendbox" d="M6,6H-6V-6H6Z" transform="translate(20,0)" style="stroke-width: 2px; fill: rgb(31, 119, 180); fill-opacity: 0.5; stroke: rgb(31, 119, 180); stroke-opacity: 1;"/></g></g></g><rect class="legendtoggle" x="0" y="-9.5" width="86.0625" height="19" style="fill: rgb(0, 0, 0); fill-opacity: 0;"/></g><g class="traces" transform="translate(0,33.5)" style="opacity: 1;"><text class="legendtext" text-anchor="start" x="40" y="4.680000000000001" style="font-family: 'Open Sans', verdana, arial, sans-serif; font-size: 12px; fill: rgb(36, 36, 36); fill-opacity: 1; white-space: pre;">Control</text><g class="layers" style="opacity: 1;"><g class="legendfill"/><g class="legendlines"/><g class="legendsymbols"><g class="legendpoints"><path class="legendbox" d="M6,6H-6V-6H6Z" transform="translate(20,0)" style="stroke-width: 2px; fill: rgb(255, 127, 14); fill-opacity: 0.5; stroke: rgb(255, 127, 14); stroke-opacity: 1;"/></g></g></g><rect class="legendtoggle" x="0" y="-9.5" width="86.0625" height="19" style="fill: rgb(0, 0, 0); fill-opacity: 0;"/></g></g></g><rect class="scrollbar" rx="20" ry="3" width="0" height="0" x="0" y="0" style="fill: rgb(128, 139, 164); fill-opacity: 1;"/></g><g class="g-gtitle"><text class="gtitle" x="35" y="50" text-anchor="start" dy="0em" style="font-family: 'Open Sans', verdana, arial, sans-serif; font-size: 17px; fill: rgb(36, 36, 36); opacity: 1; font-weight: normal; white-space: pre;">Distribution of protein log abundances</text></g><g class="g-xtitle"/><g class="g-ytitle"/></g></svg>