<svg class="main-svg" xmlns="http://www.w3.org/2000/svg" xmlns:xlink="http://www.w3.org/1999/xlink" width="700" height="500" style="" viewBox="0 0 700 500"><rect x="0" y="0" width="700" height="500" style="fill: rgb(255, 255, 255); fill-opacity: 1;"/><defs id="defs-23a82b"><g class="clips"><clipPath id="clip23a82bxyplot" class="plotclip"><rect width="506" height="208"/></clipPath><clipPath id="clip23a82bxy2plot" class="plotclip"><rect width="506" height="80"/></clipPath><clipPath class="axesclip" id="clip23a82bx"><rect x="80" y="0" width="506" height="500"/></clipPath><clipPath class="axesclip" id="clip23a82by"><rect x="0" y="100" width="700" height="208"/></clipPath><clipPath class="axesclip" id="clip23a82bxy"><rect x="80" y="100" width="506" height="208"/></clipPath><clipPath class="axesclip" id="clip23a82by2"><rect x="0" y="340" width="700" height="80"/></clipPath><clipPath class="axesclip" id="clip23a82bxy2"><rect x="80" y="340" width="506" height="80"/></clipPath></g><g class="gradients"/><g class="patterns"/></defs><g class="bglayer"/><g class="layer-below"><g class="imagelayer"/><g class="shapelayer"/></g><g class="cartesianlayer"><g class="subplot xy"><g class="layer-subplot"><g class="shapelayer"/><g class="imagelayer"/></g><g class="gridlayer"><g class="x"/><g class="y"/></g><g class="zerolinelayer"/><path class="xlines-below"/><path class="ylines-below"/><g class="overlines-below"/><g class="xaxislayer-below"/><g class="yaxislayer-below"/><g class="overaxes-below"/><g class="plot" transform="translate(80,100)" clip-path="url(#clip23a82bxyplot)"><g class="barlayer mlayer"><g class="trace bars" style="opacity: 0.7;"><g class="points"><g class="point"><path d="M29.05,197.78V24.9H148.29V197.78Z" style="vector-effect: non-scaling-stroke; opacity: 1; stroke-width: 0.6px; fill: rgb(31, 119, 180); fill-opacity: 1; stroke: rgb(255, 255, 255); stroke-opacity: 1;"/></g><g class="point"><path d="M0,0Z" style="vector-effect: non-scaling-stroke; opacity: 1; stroke-width: 0px; fill: rgb(31, 119, 180); fill-opacity: 1; stroke: rgb(255, 255, 255); stroke-opacity: 1;"/></g><g class="point"><path d="M0,0Z" style="vector-effect: non-scaling-stroke; opacity: 1; stroke-width: 0px; fill: rgb(31, 119, 180); fill-opacity: 1; stroke: rgb(255, 255, 255); stroke-opacity: 1;"/></g><g class="point"><path d="M386.76,197.78V187.31H506V197.78Z" style="vector-effect: non-scaling-stroke; opacity: 1; stroke-width: 0.6px; fill: rgb(31, 119, 180); fill-opacity: 1; stroke: rgb(255, 255, 255); stroke-opacity: 1;"/></g></g></g><g class="trace bars" style="opacity: 0.7;"><g class="points"><g class="point"><path d="M29.05,197.78V31.09H148.29V197.78Z" style="vector-effect: non-scaling-stroke; opacity: 1; stroke-width: 0.6px; fill: rgb(255, 127, 14); fill-opacity: 1; stroke: rgb(255, 255, 255); stroke-opacity: 1;"/></g><g class="point"><path d="M148.29,197.78V189.45H267.52V197.78Z" style="vector-effect: non-scaling-stroke; opacity: 1; stroke-width: 0.6px; fill: rgb(255, 127, 14); fill-opacity: 1; stroke: rgb(255, 255, 255); stroke-opacity: 1;"/></g><g class="point"><path d="M267.52,197.78V193.62H386.76V197.78Z" style="vector-effect: non-scaling-stroke; opacity: 1; stroke-width: 0.6px; fill: rgb(255, 127, 14); fill-opacity: 1; stroke: rgb(255, 255, 255); stroke-opacity: 1;"/></g><g class="point"><path d="M386.76,197.78V193.62H506V197.78Z" style="vector-effect: non-scaling-stroke; opacity: 1; stroke-width: 0.6px; fill: rgb(255, 127, 14); fill-opacity: 1; stroke: rgb(255, 255, 255); stroke-opacity: 1;"/></g></g></g></g><g class="scatterlayer mlayer"><g class="trace scatter trace9d4bac" style="stroke-miterlimit: 2; opacity: 1;"><g class="fills"/><g class="errorbars"/><g class="lines"><path class="js-line" d="M29.05,69.29L38.9,52.46L39.66,51.33L46.48,42.59L47.24,41.78L53.3,36.62L54.06,36.15L59.37,33.91L60.12,33.75L64.67,33.63L65.43,33.75L69.98,35.28L70.73,35.67L76.04,39.43L76.8,40.11L82.86,46.69L83.62,47.65L91.2,58.61L91.95,59.82L102.56,78.43L103.32,79.83L129.85,128.15L130.61,129.38L140.46,144.24L141.22,145.29L151.83,158.46L152.59,159.29L161.68,168.31L162.44,168.98L172.29,176.66L173.05,177.17L183.66,183.42L184.42,183.8L195.79,188.63L196.54,188.9L209.43,192.58L210.18,192.75L224.58,195.23L225.34,195.32L242.02,196.79L242.77,196.83L270.82,197.58L271.57,197.58L312.5,196.86L313.26,196.82L337.51,194.8L338.27,194.71L361,191.3L361.76,191.17L393.59,186.48L394.35,186.42L407.24,185.88" style="vector-effect: non-scaling-stroke; fill: none; stroke: rgb(31, 119, 180); stroke-opacity: 1; stroke-width: 2px; opacity: 1;"/></g><g class="points"/><g class="text"/></g><g class="trace scatter tracece6186" style="stroke-miterlimit: 2; opacity: 1;"><g class="fills"/><g class="errorbars"/><g class="lines"><path class="js-line" d="M29.05,53.51L38.06,32.98L38.82,31.49L45.58,20.12L46.33,19.1L51.59,13.48L52.34,12.91L56.84,10.69L57.59,10.54L61.35,10.65L62.1,10.86L65.86,12.77L66.61,13.33L71.12,17.84L71.87,18.78L77.12,26.73L77.88,28.05L84.64,41.57L85.39,43.23L96.66,70.46L97.41,72.36L113.93,112.4L114.68,114.05L123.7,132.09L124.45,133.43L132.71,146.64L133.46,147.7L141.73,157.85L142.48,158.65L150.74,166.26L151.49,166.86L161.26,173.49L162.01,173.93L173.27,179.59L174.03,179.92L188.3,185.43L189.05,185.69L207.83,191.18L208.58,191.36L225.1,194.59L225.86,194.71L243.88,196.62L244.64,196.67L268.67,197.54L269.42,197.55L301.72,197.25L302.48,197.22L323.51,195.93L324.26,195.86L349.8,192.4L350.55,192.27L383.6,187.57L384.35,187.52L398.62,187.32L399.38,187.35L403.88,187.62" style="vector-effect: non-scaling-stroke; fill: none; stroke: rgb(255, 127, 14); stroke-opacity: 1; stroke-width: 2px; opacity: 1;"/></g><g class="points"/><g class="text"/></g></g></g><g class="overplot"/><path class="xlines-above crisp" d="M0,0" style="fill: none;"/><path class="ylines-above crisp" d="M80.5,100v208" style="fill: none; stroke-width: 1px; stroke: rgb(36, 36, 36); stroke-opacity: 1;"/><g class="overlines-above"/><g class="xaxislayer-above"/><g class="yaxislayer-above"><path class="ytick ticks crisp" d="M80,0h-5" transform="translate(0,297.78)" style="stroke: rgb(68, 68, 68); stroke-opacity: 1; stroke-width: 1px;"/><path class="ytick ticks crisp" d="M80,0h-5" transform="translate(0,261.11)" style="stroke: rgb(68, 68, 68); stroke-opacity: 1; stroke-width: 1px;"/><path class="ytick ticks crisp" d="M80,0h-5" transform="translate(0,224.44)" style="stroke: rgb(68, 68, 68); stroke-opacity: 1; stroke-width: 1px;"/><path class="ytick ticks crisp" d="M80,0h-5" transform="translate(0,187.76999999999998)" style="stroke: rgb(68, 68, 68); stroke-opacity: 1; stroke-width: 1px;"/><path class="ytick ticks crisp" d="M80,0h-5" transform="translate(0,151.09)" style="stroke: rgb(68, 68, 68); stroke-opacity: 1; stroke-width: 1px;"/><path class="ytick ticks crisp" d="M80,0h-5" transform="translate(0,114.42)" style="stroke: rgb(68, 68, 68); stroke-opacity: 1; stroke-width: 1px;"/><g class="ytick"><text text-anchor="end" x="72.6" y="4.199999999999999" transform="translate(0,297.78)" style="font-family: 'Open Sans', verdana, arial, sans-serif; font-size: 12px; fill: rgb(36, 36, 36); fill-opacity: 1; white-space: pre; opacity: 1;">0</text></g><g class="ytick"><text text-anchor="end" x="72.6" y="4.199999999999999" style="font-family: 'Open Sans', verdana, arial, sans-serif; font-size: 12px; fill: rgb(36, 36, 36); fill-opacity: 1; white-space: pre; opacity: 1;" transform="translate(0,261.11)">0.2</text></g><g class="ytick"><text text-anchor="end" x="72.6" y="4.199999999999999" style="font-family: 'Open Sans', verdana, arial, sans-serif; font-size: 12px; fill: rgb(36, 36, 36); fill-opacity: 1; white-space: pre; opacity: 1;" transform="translate(0,224.44)">0.4</text></g><g class="ytick"><text text-anchor="end" x="72.6" y="4.199999999999999" style="font-family: 'Open Sans', verdana, arial, sans-serif; font-size: 12px; fill: rgb(36, 36, 36); fill-opacity: 1; white-space: pre; opacity: 1;" transform="translate(0,187.76999999999998)">0.6</text></g><g class="ytick"><text text-anchor="end" x="72.6" y="4.199999999999999" style="font-family: 'Open Sans', verdana, arial, sans-serif; font-size: 12px; fill: rgb(36, 36, 36); fill-opacity: 1; white-space: pre; opacity: 1;" transform="translate(0,151.09)">0.8</text></g><g class="ytick"><text text-anchor="end" x="72.6" y="4.199999999999999" style="font-family: 'Open Sans', verdana, arial, sans-serif; font-size: 12px; fill: rgb(36, 36, 36); fill-opacity: 1; white-space: pre; opacity: 1;" transform="translate(0,114.42)">1</text></g></g><g class="overaxes-above"/></g><g class="subplot xy2"><g class="layer-subplot"><g class="shapelayer"/><g class="imagelayer"/></g><g class="gridlayer"><g class="x"/><g class="y2"/></g><g class="zerolinelayer"/><path class="xlines-below"/><path class="ylines-below"/><g class="overlines-below"/><g class="xaxislayer-below"/><g class="yaxislayer-below"/><g class="overaxes-below"/><g class="plot" transform="translate(80,340)" clip-path="url(#clip23a82bxy2plot)"><g class="scatterlayer mlayer"><g class="trace scatter trace6d192e" style="stroke-miterlimit: 2; opacity: 1;"><g class="fills"/><g class="errorbars"/><g class="lines"/><g class="points"><path class="point" transform="translate(406.33,72.25)" d="M0,4.2V-4.2" style="opacity: 1; stroke: rgb(31, 119, 180); stroke-opacity: 1; stroke-width: 1px; fill: none;"/><path class="point" transform="translate(407.99,72.25)" d="M0,4.2V-4.2" style="opacity: 1; stroke: rgb(31, 119, 180); stroke-opacity: 1; stroke-width: 1px; fill: none;"/><path class="point" transform="translate(146,72.25)" d="M0,4.2V-4.2" style="opacity: 1; stroke: rgb(31, 119, 180); stroke-opacity: 1; stroke-width: 1px; fill: none;"/><path class="point" transform="translate(89.96,72.25)" d="M0,4.2V-4.2" style="opacity: 1; stroke: rgb(31, 119, 180); stroke-opacity: 1; stroke-width: 1px; fill: none;"/><path class="point" transform="translate(89.96,72.25)" d="M0,4.2V-4.2" style="opacity: 1; stroke: rgb(31, 119, 180); stroke-opacity: 1; stroke-width: 1px; fill: none;"/><path class="point" transform="translate(63.35,72.25)" d="M0,4.2V-4.2" style="opacity: 1; stroke: rgb(31, 119, 180); stroke-opacity: 1; stroke-width: 1px; fill: none;"/><path class="point" transform="translate(146,72.25)" d="M0,4.2V-4.2" style="opacity: 1; stroke: rgb(31, 119, 180); stroke-opacity: 1; stroke-width: 1px; fill: none;"/><path class="point" transform="translate(111.7,72.25)" d="M0,4.2V-4.2" style="opacity: 1; stroke: rgb(31, 119, 180); stroke-opacity: 1; stroke-width: 1px; fill: none;"/><path class="point" transform="translate(63.35,72.25)" d="M0,4.2V-4.2" style="opacity: 1; stroke: rgb(31, 119, 180); stroke-opacity: 1; stroke-width: 1px; fill: none;"/><path class="point" transform="translate(111.7,72.25)" d="M0,4.2V-4.2" style="opacity: 1; stroke: rgb(31, 119, 180); stroke-opacity: 1; stroke-width: 1px; fill: none;"/><path class="point" transform="translate(63.35,72.25)" d="M0,4.2V-4.2" style="opacity: 1; stroke: rgb(31, 119, 180); stroke-opacity: 1; stroke-width: 1px; fill: none;"/><path class="point" transform="translate(63.35,72.25)" d="M0,4.2V-4.2" style="opacity: 1; stroke: rgb(31, 119, 180); stroke-opacity: 1; stroke-width: 1px; fill: none;"/><path class="point" transform="translate(63.35,72.25)" d="M0,4.2V-4.2" style="opacity: 1; stroke: rgb(31, 119, 180); stroke-opacity: 1; stroke-width: 1px; fill: none;"/><path class="point" transform="translate(63.35,72.25)" d="M0,4.2V-4.2" style="opacity: 1; stroke: rgb(31, 119, 180); stroke-opacity: 1; stroke-width: 1px; fill: none;"/><path class="point" transform="translate(89.96,72.25)" d="M0,4.2V-4.2" style="opacity: 1; stroke: rgb(31, 119, 180); stroke-opacity: 1; stroke-width: 1px; fill: none;"/><path class="point" transform="translate(63.35,72.25)" d="M0,4.2V-4.2" style="opacity: 1; stroke: rgb(31, 119, 180); stroke-opacity: 1; stroke-width: 1px; fill: none;"/><path class="point" transform="translate(89.96,72.25)" d="M0,4.2V-4.2" style="opacity: 1; stroke: rgb(31, 119, 180); stroke-opacity: 1; stroke-width: 1px; fill: none;"/><path class="point" transform="translate(63.35,72.25)" d="M0,4.2V-4.2" style="opacity: 1; stroke: rgb(31, 119, 180); stroke-opacity: 1; stroke-width: 1px; fill: none;"/><path class="point" transform="translate(29.05,72.25)" d="M0,4.2V-4.2" style="opacity: 1; stroke: rgb(31, 119, 180); stroke-opacity: 1; stroke-width: 1px; fill: none;"/><path class="point" transform="translate(63.35,72.25)" d="M0,4.2V-4.2" style="opacity: 1; stroke: rgb(31, 119, 180); stroke-opacity: 1; stroke-width: 1px; fill: none;"/><path class="point" transform="translate(63.35,72.25)" d="M0,4.2V-4.2" style="opacity: 1; stroke: rgb(31, 119, 180); stroke-opacity: 1; stroke-width: 1px; fill: none;"/><path class="point" transform="translate(29.05,72.25)" d="M0,4.2V-4.2" style="opacity: 1; stroke: rgb(31, 119, 180); stroke-opacity: 1; stroke-width: 1px; fill: none;"/><path class="point" transform="translate(29.05,72.25)" d="M0,4.2V-4.2" style="opacity: 1; stroke: rgb(31, 119, 180); stroke-opacity: 1; stroke-width: 1px; fill: none;"/><path class="point" transform="translate(63.35,72.25)" d="M0,4.2V-4.2" style="opacity: 1; stroke: rgb(31, 119, 180); stroke-opacity: 1; stroke-width: 1px; fill: none;"/><path class="point" transform="translate(63.35,72.25)" d="M0,4.2V-4.2" style="opacity: 1; stroke: rgb(31, 119, 180); stroke-opacity: 1; stroke-width: 1px; fill: none;"/><path class="point" transform="translate(63.35,72.25)" d="M0,4.2V-4.2" style="opacity: 1; stroke: rgb(31, 119, 180); stroke-opacity: 1; stroke-width: 1px; fill: none;"/><path class="point" transform="translate(63.35,72.25)" d="M0,4.2V-4.2" style="opacity: 1; stroke: rgb(31, 119, 180); stroke-opacity: 1; stroke-width: 1px; fill: none;"/><path class="point" transform="translate(63.35,72.25)" d="M0,4.2V-4.2" style="opacity: 1; stroke: rgb(31, 119, 180); stroke-opacity: 1; stroke-width: 1px; fill: none;"/><path class="point" transform="translate(29.05,72.25)" d="M0,4.2V-4.2" style="opacity: 1; stroke: rgb(31, 119, 180); stroke-opacity: 1; stroke-width: 1px; fill: none;"/><path class="point" transform="translate(29.05,72.25)" d="M0,4.2V-4.2" style="opacity: 1; stroke: rgb(31, 119, 180); stroke-opacity: 1; stroke-width: 1px; fill: none;"/><path class="point" transform="translate(63.35,72.25)" d="M0,4.2V-4.2" style="opacity: 1; stroke: rgb(31, 119, 180); stroke-opacity: 1; stroke-width: 1px; fill: none;"/><path class="point" transform="translate(63.35,72.25)" d="M0,4.2V-4.2" style="opacity: 1; stroke: rgb(31, 119, 180); stroke-opacity: 1; stroke-width: 1px; fill: none;"/><path class="point" transform="translate(29.05,72.25)" d="M0,4.2V-4.2" style="opacity: 1; stroke: rgb(31, 119, 180); stroke-opacity: 1; stroke-width: 1px; fill: none;"/><path class="point" transform="translate(29.05,72.25)" d="M0,4.2V-4.2" style="opacity: 1; stroke: rgb(31, 119, 180); stroke-opacity: 1; stroke-width: 1px; fill: none;"/><path class="point" transform="translate(63.35,72.25)" d="M0,4.2V-4.2" style="opacity: 1; stroke: rgb(31, 119, 180); stroke-opacity: 1; stroke-width: 1px; fill: none;"/></g><g class="text"/></g><g class="trace scatter trace58eeff" style="stroke-miterlimit: 2; opacity: 1;"><g class="fills"/><g class="errorbars"/><g class="lines"/><g class="points"><path class="point" transform="translate(382.21,7.75)" d="M0,4.2V-4.2" style="opacity: 1; stroke: rgb(255, 127, 14); stroke-opacity: 1; stroke-width: 1px; fill: none;"/><path class="point" transform="translate(404.63,7.75)" d="M0,4.2V-4.2" style="opacity: 1; stroke: rgb(255, 127, 14); stroke-opacity: 1; stroke-width: 1px; fill: none;"/><path class="point" transform="translate(172.61,7.75)" d="M0,4.2V-4.2" style="opacity: 1; stroke: rgb(255, 127, 14); stroke-opacity: 1; stroke-width: 1px; fill: none;"/><path class="point" transform="translate(89.96,7.75)" d="M0,4.2V-4.2" style="opacity: 1; stroke: rgb(255, 127, 14); stroke-opacity: 1; stroke-width: 1px; fill: none;"/><path class="point" transform="translate(130.08,7.75)" d="M0,4.2V-4.2" style="opacity: 1; stroke: rgb(255, 127, 14); stroke-opacity: 1; stroke-width: 1px; fill: none;"/><path class="point" transform="translate(63.35,7.75)" d="M0,4.2V-4.2" style="opacity: 1; stroke: rgb(255, 127, 14); stroke-opacity: 1; stroke-width: 1px; fill: none;"/><path class="point" transform="translate(63.35,7.75)" d="M0,4.2V-4.2" style="opacity: 1; stroke: rgb(255, 127, 14); stroke-opacity: 1; stroke-width: 1px; fill: none;"/><path class="point" transform="translate(111.7,7.75)" d="M0,4.2V-4.2" style="opacity: 1; stroke: rgb(255, 127, 14); stroke-opacity: 1; stroke-width: 1px; fill: none;"/><path class="point" transform="translate(111.7,7.75)" d="M0,4.2V-4.2" style="opacity: 1; stroke: rgb(255, 127, 14); stroke-opacity: 1; stroke-width: 1px; fill: none;"/><path class="point" transform="translate(160.05,7.75)" d="M0,4.2V-4.2" style="opacity: 1; stroke: rgb(255, 127, 14); stroke-opacity: 1; stroke-width: 1px; fill: none;"/><path class="point" transform="translate(63.35,7.75)" d="M0,4.2V-4.2" style="opacity: 1; stroke: rgb(255, 127, 14); stroke-opacity: 1; stroke-width: 1px; fill: none;"/><path class="point" transform="translate(63.35,7.75)" d="M0,4.2V-4.2" style="opacity: 1; stroke: rgb(255, 127, 14); stroke-opacity: 1; stroke-width: 1px; fill: none;"/><path class="point" transform="translate(63.35,7.75)" d="M0,4.2V-4.2" style="opacity: 1; stroke: rgb(255, 127, 14); stroke-opacity: 1; stroke-width: 1px; fill: none;"/><path class="point" transform="translate(89.96,7.75)" d="M0,4.2V-4.2" style="opacity: 1; stroke: rgb(255, 127, 14); stroke-opacity: 1; stroke-width: 1px; fill: none;"/><path class="point" transform="translate(63.35,7.75)" d="M0,4.2V-4.2" style="opacity: 1; stroke: rgb(255, 127, 14); stroke-opacity: 1; stroke-width: 1px; fill: none;"/><path class="point" transform="translate(63.35,7.75)" d="M0,4.2V-4.2" style="opacity: 1; stroke: rgb(255, 127, 14); stroke-opacity: 1; stroke-width: 1px; fill: none;"/><path class="point" transform="translate(63.35,7.75)" d="M0,4.2V-4.2" style="opacity: 1; stroke: rgb(255, 127, 14); stroke-opacity: 1; stroke-width: 1px; fill: none;"/><path class="point" transform="translate(63.35,7.75)" d="M0,4.2V-4.2" style="opacity: 1; stroke: rgb(255, 127, 14); stroke-opacity: 1; stroke-width: 1px; fill: none;"/><path class="point" transform="translate(63.35,7.75)" d="M0,4.2V-4.2" style="opacity: 1; stroke: rgb(255, 127, 14); stroke-opacity: 1; stroke-width: 1px; fill: none;"/><path class="point" transform="translate(63.35,7.75)" d="M0,4.2V-4.2" style="opacity: 1; stroke: rgb(255, 127, 14); stroke-opacity: 1; stroke-width: 1px; fill: none;"/><path class="point" transform="translate(63.35,7.75)" d="M0,4.2V-4.2" style="opacity: 1; stroke: rgb(255, 127, 14); stroke-opacity: 1; stroke-width: 1px; fill: none;"/><path class="point" transform="translate(29.05,7.75)" d="M0,4.2V-4.2" style="opacity: 1; stroke: rgb(255, 127, 14); stroke-opacity: 1; stroke-width: 1px; fill: none;"/><path class="point" transform="translate(89.96,7.75)" d="M0,4.2V-4.2" style="opacity: 1; stroke: rgb(255, 127, 14); stroke-opacity: 1; stroke-width: 1px; fill: none;"/><path class="point" transform="translate(29.05,7.75)" d="M0,4.2V-4.2" style="opacity: 1; stroke: rgb(255, 127, 14); stroke-opacity: 1; stroke-width: 1px; fill: none;"/><path class="point" transform="translate(63.35,7.75)" d="M0,4.2V-4.2" style="opacity: 1; stroke: rgb(255, 127, 14); stroke-opacity: 1; stroke-width: 1px; fill: none;"/><path class="point" transform="translate(63.35,7.75)" d="M0,4.2V-4.2" style="opacity: 1; stroke: rgb(255, 127, 14); stroke-opacity: 1; stroke-width: 1px; fill: none;"/><path class="point" transform="translate(29.05,7.75)" d="M0,4.2V-4.2" style="opacity: 1; stroke: rgb(255, 127, 14); stroke-opacity: 1; stroke-width: 1px; fill: none;"/><path class="point" transform="translate(63.35,7.75)" d="M0,4.2V-4.2" style="opacity: 1; stroke: rgb(255, 127, 14); stroke-opacity: 1; stroke-width: 1px; fill: none;"/><path class="point" transform="translate(29.05,7.75)" d="M0,4.2V-4.2" style="opacity: 1; stroke: rgb(255, 127, 14); stroke-opacity: 1; stroke-width: 1px; fill: none;"/><path class="point" transform="translate(63.35,7.75)" d="M0,4.2V-4.2" style="opacity: 1; stroke: rgb(255, 127, 14); stroke-opacity: 1; stroke-width: 1px; fill: none;"/><path class="point" transform="translate(29.05,7.75)" d="M0,4.2V-4.2" style="opacity: 1; stroke: rgb(255, 127, 14); stroke-opacity: 1; stroke-width: 1px; fill: none;"/><path class="point" transform="translate(29.05,7.75)" d="M0,4.2V-4.2" style="opacity: 1; stroke: rgb(255, 127, 14); stroke-opacity: 1; stroke-width: 1px; fill: none;"/><path class="point" transform="translate(29.05,7.75)" d="M0,4.2V-4.2" style="opacity: 1; stroke: rgb(255, 127, 14); stroke-opacity: 1; stroke-width: 1px; fill: none;"/><path class="point" transform="translate(29.05,7.75)" d="M0,4.2V-4.2" style="opacity: 1; stroke: rgb(255, 127, 14); stroke-opacity: 1; stroke-width: 1px; fill: none;"/><path class="point" transform="translate(29.05,7.75)" d="M0,4.2V-4.2" style="opacity: 1; stroke: rgb(255, 127, 14); stroke-opacity: 1; stroke-width: 1px; fill: none;"/><path class="point" transform="translate(63.35,7.75)" d="M0,4.2V-4.2" style="opacity: 1; stroke: rgb(255, 127, 14); stroke-opacity: 1; stroke-width: 1px; fill: none;"/><path class="point" transform="translate(29.05,7.75)" d="M0,4.2V-4.2" style="opacity: 1; stroke: rgb(255, 127, 14); stroke-opacity: 1; stroke-width: 1px; fill: none;"/><path class="point" transform="translate(63.35,7.75)" d="M0,4.2V-4.2" style="opacity: 1; stroke: rgb(255, 127, 14); stroke-opacity: 1; stroke-width: 1px; fill: none;"/><path class="point" transform="translate(63.35,7.75)" d="M0,4.2V-4.2" style="opacity: 1; stroke: rgb(255, 127, 14); stroke-opacity: 1; stroke-width: 1px; fill: none;"/><path class="point" transform="translate(63.35,7.75)" d="M0,4.2V-4.2" style="opacity: 1; stroke: rgb(255, 127, 14); stroke-opacity: 1; stroke-width: 1px; fill: none;"/><path class="point" transform="translate(63.35,7.75)" d="M0,4.2V-4.2" style="opacity: 1; stroke: rgb(255, 127, 14); stroke-opacity: 1; stroke-width: 1px; fill: none;"/><path class="point" transform="translate(63.35,7.75)" d="M0,4.2V-4.2" style="opacity: 1; stroke: rgb(255, 127, 14); stroke-opacity: 1; stroke-width: 1px; fill: none;"/><path class="point" transform="translate(63.35,7.75)" d="M0,4.2V-4.2" style="opacity: 1; stroke: rgb(255, 127, 14); stroke-opacity: 1; stroke-width: 1px; fill: none;"/><path class="point" transform="translate(63.35,7.75)" d="M0,4.2V-4.2" style="opacity: 1; stroke: rgb(255, 127, 14); stroke-opacity: 1; stroke-width: 1px; fill: none;"/></g><g class="text"/></g></g></g><g class="overplot"/><path class="xlines-above crisp" d="M79,420.5H586" style="fill: none; stroke-width: 1px; stroke: rgb(36, 36, 36); stroke-opacity: 1;"/><path class="ylines-above crisp" d="M79.5,340V420" style="fill: none; stroke-width: 1px; stroke: rgb(36, 36, 36); stroke-opacity: 1;"/><g class="overlines-above"/><g class="xaxislayer-above"><path class="xtick ticks crisp" d="M0,421v5" transform="translate(109.05,0)" style="stroke: rgb(68, 68, 68); stroke-opacity: 1; stroke-width: 1px;"/><path class="xtick ticks crisp" d="M0,421v5" transform="translate(228.29,0)" style="stroke: rgb(68, 68, 68); stroke-opacity: 1; stroke-width: 1px;"/><path class="xtick ticks crisp" d="M0,421v5" transform="translate(347.52,0)" style="stroke: rgb(68, 68, 68); stroke-opacity: 1; stroke-width: 1px;"/><path class="xtick ticks crisp" d="M0,421v5" transform="translate(466.76,0)" style="stroke: rgb(68, 68, 68); stroke-opacity: 1; stroke-width: 1px;"/><path class="xtick ticks crisp" d="M0,421v5" transform="translate(586,0)" style="stroke: rgb(68, 68, 68); stroke-opacity: 1; stroke-width: 1px;"/><g class="xtick"><text text-anchor="middle" x="0" y="440.4" transform="translate(109.05,0)" style="font-family: 'Open Sans', verdana, arial, sans-serif; font-size: 12px; fill: rgb(36, 36, 36); fill-opacity: 1; white-space: pre; opacity: 1;">0</text></g><g class="xtick"><text text-anchor="middle" x="0" y="440.4" style="font-family: 'Open Sans', verdana, arial, sans-serif; font-size: 12px; fill: rgb(36, 36, 36); fill-opacity: 1; white-space: pre; opacity: 1;" transform="translate(228.29,0)">1</text></g><g class="xtick"><text text-anchor="middle" x="0" y="440.4" style="font-family: 'Open Sans', verdana, arial, sans-serif; font-size: 12px; fill: rgb(36, 36, 36); fill-opacity: 1; white-space: pre; opacity: 1;" transform="translate(347.52,0)">2</text></g><g class="xtick"><text text-anchor="middle" x="0" y="440.4" style="font-family: 'Open Sans', verdana, arial, sans-serif; font-size: 12px; fill: rgb(36, 36, 36); fill-opacity: 1; white-space: pre; opacity: 1;" transform="translate(466.76,0)">3</text></g><g class="xtick"><text text-anchor="middle" x="0" y="440.4" style="font-family: 'Open Sans', verdana, arial, sans-serif; font-size: 12px; fill: rgb(36, 36, 36); fill-opacity: 1; white-space: pre; opacity: 1;" transform="translate(586,0)">4</text></g></g><g class="yaxislayer-above"><path class="y2tick ticks crisp" d="M79,0h-5" transform="translate(0,412.25)" style="stroke: rgb(68, 68, 68); stroke-opacity: 1; stroke-width: 1px;"/><path class="y2tick ticks crisp" d="M79,0h-5" transform="translate(0,347.75)" style="stroke: rgb(68, 68, 68); stroke-opacity: 1; stroke-width: 1px;"/></g><g class="overaxes-above"/></g></g><g class="polarlayer"/><g class="ternarylayer"/><g class="geolayer"/><g class="funnelarealayer"/><g class="pielayer"/><g class="iciclelayer"/><g class="treemaplayer"/><g class="sunburstlayer"/><g class="glimages"/><defs id="topdefs-23a82b"><g class="clips"/><clipPath id="legend23a82b"><rect width="92" height="48" x="0" y="0"/></clipPath></defs><g class="layer-above"><g class="imagelayer"/><g class="shapelayer"/></g><g class="infolayer"><g class="legend" pointer-events="all" transform="translate(596.12,100)"><rect class="bg" shape-rendering="crispEdges" width="92" height="48" x="0" y="0" style="stroke: rgb(68, 68, 68); stroke-opacity: 1; fill: rgb(255, 255, 255); fill-opacity: 1; stroke-width: 0px;"/><g class="scrollbox" transform="" clip-path="url(#legend23a82b)"><g class="groups"><g class="traces" transform="translate(0,14.5)" style="opacity: 1;"><text class="legendtext" text-anchor="start" x="40" y="4.680000000000001" style="font-family: 'Open Sans', verdana, arial, sans-serif; font-size: 12px; fill: rgb(36, 36, 36); fill-opacity: 1; white-space: pre;">Treated</text><g class="layers" style="opacity: 0.7;"><g class="legendfill"/><g class="legendlines"/><g class="legendsymbols"><g class="legendpoints"><path class="legendundefined" d="M6,6H-6V-6H6Z" transform="translate(20,0)" style="stroke-width: 0.6px; fill: rgb(255, 127, 14); fill-opacity: 1; stroke: rgb(255, 255, 255); stroke-opacity: 1;"/></g></g></g><rect class="legendtoggle" x="0" y="-9.5" width="86.0625" height="19" style="fill: rgb(0, 0, 0); fill-opacity: 0;"/></g><g class="traces" transform="translate(0,33.5)" style="opacity: 1;"><text class="legendtext" text-anchor="start" x="40" y="4.680000000000001" style="font-family: 'Open Sans', verdana, arial, sans-serif; font-size: 12px; fill: rgb(36, 36, 36); fill-opacity: 1; white-space: pre;">Control</text><g class="layers" style="opacity: 0.7;"><g class="legendfill"/><g class="legendlines"/><g class="legendsymbols"><g class="legendpoints"><path class="legendundefined" d="M6,6H-6V-6H6Z" transform="translate(20,0)" style="stroke-width: 0.6px; fill: rgb(31, 119, 180); fill-opacity: 1; stroke: rgb(255, 255, 255); stroke-opacity: 1;"/></g></g></g><rect class="legendtoggle" x="0" y="-9.5" width="86.0625" height="19" style="fill: rgb(0, 0, 0); fill-opacity: 0;"/></g></g></g><rect class="scrollbar" rx="20" ry="3" width="0" height="0" x="0" y="0" style="fill: rgb(128, 139, 164); fill-opacity: 1;"/></g><g class="g-gtitle"><text class="gtitle" x="35" y="50" text-anchor="start" dy="0em" style="font-family: 'Open Sans', verdana, arial, sans-serif; font-size: 17px; fill: rgb(36, 36, 36); opacity: 1; font-weight: normal; white-space: pre;">Distribution of complex log abundances</text></g><g class="g-xtitle"/><g class="g-ytitle"/><g class="g-y2title"/></g></svg>