<svg class="main-svg" xmlns="http://www.w3.org/2000/svg" xmlns:xlink="http://www.w3.org/1999/xlink" width="700" height="500" style="" viewBox="0 0 700 500"><rect x="0" y="0" width="700" height="500" style="fill: rgb(255, 255, 255); fill-opacity: 1;"/><defs id="defs-f61705"><g class="clips"><clipPath id="clipf61705xyplot" class="plotclip"><rect width="506" height="320"/></clipPath><clipPath class="axesclip" id="clipf61705x"><rect x="80" y="0" width="506" height="500"/></clipPath><clipPath class="axesclip" id="clipf61705y"><rect x="0" y="100" width="700" height="320"/></clipPath><clipPath class="axesclip" id="clipf61705xy"><rect x="80" y="100" width="506" height="320"/></clipPath></g><g class="gradients"/><g class="patterns"/></defs><g class="bglayer"/><g class="layer-below"><g class="imagelayer"/><g class="shapelayer"/></g><g class="cartesianlayer"><g class="subplot xy"><g class="layer-subplot"><g class="shapelayer"/><g class="imagelayer"/></g><g class="gridlayer"><g class="x"/><g class="y"/></g><g class="zerolinelayer"/><path class="xlines-below"/><path class="ylines-below"/><g class="overlines-below"/><g class="xaxislayer-below"/><g class="yaxislayer-below"/><g class="overaxes-below"/><g class="plot" transform="translate(80,100)" clip-path="url(#clipf61705xyplot)"><g class="violinlayer mlayer"><g class="trace violins" style="opacity: 1;"><path class="violin" d="M129.73,304Q131.43,302.4 132.45,301.66C133.59,300.83 134.95,300.07 136.31,299.32C137.78,298.51 139.43,297.76 140.98,296.98C142.53,296.2 144.21,295.46 145.63,294.63C146.91,293.88 148.3,293.17 149.16,292.29C149.85,291.58 150.53,290.75 150.62,289.95C150.7,289.19 150.26,288.34 149.79,287.61C149.25,286.76 148.18,286.05 147.38,285.27C146.58,284.49 145.45,283.79 144.97,282.93C144.57,282.21 144.2,281.3 144.46,280.59C144.78,279.7 146.17,278.93 147.45,278.24C149.24,277.28 151.91,276.62 154.5,275.9C157.58,275.04 161.27,274.33 164.77,273.56C168.4,272.76 172.41,272.05 175.9,271.22C179.02,270.48 182.46,269.86 184.73,268.88C186.31,268.2 188.4,267.38 188.49,266.54C188.57,265.81 187.18,264.87 186.03,264.2C184.26,263.17 181.14,262.59 178.4,261.85C175.27,261.01 171.59,260.3 168.24,259.51C164.95,258.74 161.5,258.01 158.49,257.17C155.85,256.43 153.26,255.71 151.14,254.83C149.42,254.12 147.85,253.37 146.64,252.49C145.66,251.78 144.92,250.97 144.26,250.15C143.66,249.4 143.28,248.59 142.81,247.8C142.34,247.02 141.92,246.23 141.44,245.46C140.95,244.67 140.4,243.9 139.88,243.12C139.36,242.34 138.8,241.57 138.31,240.78C137.83,240.01 137.39,239.23 136.99,238.44C136.6,237.67 136.28,236.88 135.95,236.1C135.62,235.32 135.34,234.54 135.01,233.76C134.68,232.97 134.34,232.19 133.96,231.41C133.58,230.62 133.14,229.85 132.72,229.07C132.3,228.29 131.83,227.52 131.44,226.73C131.06,225.96 130.67,225.18 130.41,224.39C130.16,223.62 129.97,222.83 129.91,222.05C129.85,221.27 129.92,220.48 130.07,219.71C130.22,218.92 130.52,218.14 130.82,217.37C131.12,216.58 131.54,215.81 131.88,215.02C132.22,214.24 132.61,213.47 132.85,212.68C133.09,211.91 133.29,211.12 133.34,210.34C133.39,209.56 133.31,208.77 133.14,208C132.96,207.21 132.63,206.43 132.28,205.66C131.92,204.87 131.45,204.1 131.01,203.32C130.57,202.54 130.08,201.77 129.65,200.98C129.23,200.2 128.81,199.42 128.47,198.63C128.13,197.86 127.84,197.08 127.6,196.29C127.37,195.52 127.19,194.73 127.05,193.95C126.91,193.17 126.83,192.39 126.75,191.61C126.68,190.83 126.64,190.05 126.6,189.27C126.57,188.49 126.56,187.71 126.54,186.93C126.53,186.15 126.52,185.37 126.51,184.59C126.5,183.81 126.5,183.02 126.5,182.24C126.5,181.46 126.5,180.68 126.5,179.9C126.5,179.12 126.5,178.34 126.5,177.56C126.5,176.78 126.5,176 126.5,175.22C126.5,174.44 126.5,173.66 126.5,172.88C126.5,172.1 126.5,171.32 126.5,170.54C126.5,169.76 126.5,168.98 126.5,168.2C126.5,167.42 126.5,166.63 126.5,165.85C126.5,165.07 126.5,164.29 126.5,163.51C126.5,162.73 126.5,161.95 126.5,161.17C126.5,160.39 126.5,159.61 126.5,158.83C126.5,158.05 126.5,157.27 126.5,156.49C126.5,155.71 126.5,154.93 126.5,154.15C126.5,153.37 126.5,152.58 126.5,151.8C126.5,151.02 126.5,150.24 126.5,149.46C126.5,148.68 126.5,147.9 126.5,147.12C126.5,146.34 126.5,145.56 126.5,144.78C126.5,144 126.5,143.22 126.5,142.44C126.5,141.66 126.5,140.88 126.5,140.1C126.5,139.32 126.5,138.54 126.5,137.76C126.5,136.98 126.5,136.19 126.5,135.41C126.5,134.63 126.5,133.85 126.5,133.07C126.5,132.29 126.5,131.51 126.5,130.73C126.5,129.95 126.5,129.17 126.5,128.39C126.5,127.61 126.5,126.83 126.5,126.05C126.5,125.27 126.5,124.49 126.5,123.71C126.5,122.93 126.5,122.15 126.5,121.37C126.5,120.59 126.5,119.8 126.5,119.02C126.5,118.24 126.5,117.46 126.5,116.68C126.5,115.9 126.5,115.12 126.5,114.34C126.5,113.56 126.5,112.78 126.5,112C126.5,111.22 126.5,110.44 126.5,109.66C126.5,108.88 126.5,108.1 126.5,107.32C126.5,106.54 126.5,105.76 126.5,104.98C126.5,104.2 126.5,103.41 126.5,102.63C126.5,101.85 126.5,101.07 126.5,100.29C126.5,99.51 126.5,98.73 126.5,97.95C126.5,97.17 126.5,96.39 126.5,95.61C126.5,94.83 126.5,94.05 126.5,93.27C126.5,92.49 126.5,91.71 126.5,90.93C126.5,90.15 126.5,89.37 126.5,88.59C126.5,87.81 126.5,87.02 126.5,86.24C126.5,85.46 126.5,84.68 126.5,83.9C126.5,83.12 126.5,82.34 126.5,81.56C126.5,80.78 126.5,80 126.5,79.22C126.5,78.44 126.5,77.66 126.5,76.88C126.5,76.1 126.5,75.32 126.5,74.54C126.5,73.76 126.5,72.98 126.5,72.2C126.5,71.42 126.5,70.63 126.5,69.85C126.5,69.07 126.5,68.29 126.5,67.51C126.5,66.73 126.5,65.95 126.5,65.17C126.5,64.39 126.5,63.61 126.5,62.83C126.5,62.05 126.5,61.27 126.5,60.49C126.5,59.71 126.5,58.93 126.5,58.15C126.5,57.37 126.5,56.58 126.51,55.8C126.52,55.02 126.53,54.24 126.54,53.46C126.56,52.68 126.57,51.9 126.6,51.12C126.64,50.34 126.67,49.56 126.75,48.78C126.83,48 126.92,47.22 127.06,46.44C127.2,45.66 127.38,44.87 127.61,44.1C127.85,43.31 128.14,42.53 128.47,41.76C128.81,40.97 129.22,40.19 129.64,39.41C130.06,38.62 130.55,37.85 130.99,37.07C131.42,36.29 131.89,35.52 132.25,34.73C132.59,33.96 132.93,33.18 133.1,32.39C133.27,31.62 133.34,30.83 133.28,30.05C133.22,29.27 133,28.48 132.74,27.71C132.47,26.92 132.05,26.14 131.65,25.37C131.24,24.58 130.74,23.8 130.3,23.02C129.86,22.24 129.4,21.47 129.01,20.68C128.63,19.91 128.28,19.13 127.99,18.34Q127.71,17.57 127.29,16L125.71,16Q125.29,17.57 125.01,18.34C124.72,19.13 124.37,19.91 123.99,20.68C123.6,21.47 123.14,22.24 122.7,23.02C122.26,23.8 121.76,24.58 121.35,25.37C120.95,26.14 120.53,26.92 120.26,27.71C120,28.48 119.78,29.27 119.72,30.05C119.66,30.83 119.73,31.62 119.9,32.39C120.07,33.18 120.41,33.96 120.75,34.73C121.11,35.52 121.58,36.29 122.01,37.07C122.45,37.85 122.94,38.62 123.36,39.41C123.78,40.19 124.19,40.97 124.53,41.76C124.86,42.53 125.15,43.31 125.39,44.1C125.62,44.87 125.8,45.66 125.94,46.44C126.08,47.22 126.17,48 126.25,48.78C126.33,49.56 126.36,50.34 126.4,51.12C126.43,51.9 126.44,52.68 126.46,53.46C126.47,54.24 126.48,55.02 126.49,55.8C126.5,56.58 126.5,57.37 126.5,58.15C126.5,58.93 126.5,59.71 126.5,60.49C126.5,61.27 126.5,62.05 126.5,62.83C126.5,63.61 126.5,64.39 126.5,65.17C126.5,65.95 126.5,66.73 126.5,67.51C126.5,68.29 126.5,69.07 126.5,69.85C126.5,70.63 126.5,71.42 126.5,72.2C126.5,72.98 126.5,73.76 126.5,74.54C126.5,75.32 126.5,76.1 126.5,76.88C126.5,77.66 126.5,78.44 126.5,79.22C126.5,80 126.5,80.78 126.5,81.56C126.5,82.34 126.5,83.12 126.5,83.9C126.5,84.68 126.5,85.46 126.5,86.24C126.5,87.02 126.5,87.81 126.5,88.59C126.5,89.37 126.5,90.15 126.5,90.93C126.5,91.71 126.5,92.49 126.5,93.27C126.5,94.05 126.5,94.83 126.5,95.61C126.5,96.39 126.5,97.17 126.5,97.95C126.5,98.73 126.5,99.51 126.5,100.29C126.5,101.07 126.5,101.85 126.5,102.63C126.5,103.41 126.5,104.2 126.5,104.98C126.5,105.76 126.5,106.54 126.5,107.32C126.5,108.1 126.5,108.88 126.5,109.66C126.5,110.44 126.5,111.22 126.5,112C126.5,112.78 126.5,113.56 126.5,114.34C126.5,115.12 126.5,115.9 126.5,116.68C126.5,117.46 126.5,118.24 126.5,119.02C126.5,119.8 126.5,120.59 126.5,121.37C126.5,122.15 126.5,122.93 126.5,123.71C126.5,124.49 126.5,125.27 126.5,126.05C126.5,126.83 126.5,127.61 126.5,128.39C126.5,129.17 126.5,129.95 126.5,130.73C126.5,131.51 126.5,132.29 126.5,133.07C126.5,133.85 126.5,134.63 126.5,135.41C126.5,136.19 126.5,136.98 126.5,137.76C126.5,138.54 126.5,139.32 126.5,140.1C126.5,140.88 126.5,141.66 126.5,142.44C126.5,143.22 126.5,144 126.5,144.78C126.5,145.56 126.5,146.34 126.5,147.12C126.5,147.9 126.5,148.68 126.5,149.46C126.5,150.24 126.5,151.02 126.5,151.8C126.5,152.58 126.5,153.37 126.5,154.15C126.5,154.93 126.5,155.71 126.5,156.49C126.5,157.27 126.5,158.05 126.5,158.83C126.5,159.61 126.5,160.39 126.5,161.17C126.5,161.95 126.5,162.73 126.5,163.51C126.5,164.29 126.5,165.07 126.5,165.85C126.5,166.63 126.5,167.42 126.5,168.2C126.5,168.98 126.5,169.76 126.5,170.54C126.5,171.32 126.5,172.1 126.5,172.88C126.5,173.66 126.5,174.44 126.5,175.22C126.5,176 126.5,176.78 126.5,177.56C126.5,178.34 126.5,179.12 126.5,179.9C126.5,180.68 126.5,181.46 126.5,182.24C126.5,183.02 126.5,183.81 126.49,184.59C126.48,185.37 126.47,186.15 126.46,186.93C126.44,187.71 126.43,188.49 126.4,189.27C126.36,190.05 126.32,190.83 126.25,191.61C126.17,192.39 126.09,193.17 125.95,193.95C125.81,194.73 125.63,195.52 125.4,196.29C125.16,197.08 124.87,197.86 124.53,198.63C124.19,199.42 123.77,200.2 123.35,200.98C122.92,201.77 122.43,202.54 121.99,203.32C121.55,204.1 121.08,204.87 120.72,205.66C120.37,206.43 120.04,207.21 119.86,208C119.69,208.77 119.61,209.56 119.66,210.34C119.71,211.12 119.91,211.91 120.15,212.68C120.39,213.47 120.78,214.24 121.12,215.02C121.46,215.81 121.88,216.58 122.18,217.37C122.48,218.14 122.78,218.92 122.93,219.71C123.08,220.48 123.15,221.27 123.09,222.05C123.03,222.83 122.84,223.62 122.59,224.39C122.33,225.18 121.94,225.96 121.56,226.73C121.17,227.52 120.7,228.29 120.28,229.07C119.86,229.85 119.42,230.62 119.04,231.41C118.66,232.19 118.32,232.97 117.99,233.76C117.66,234.54 117.38,235.32 117.05,236.1C116.72,236.88 116.4,237.67 116.01,238.44C115.61,239.23 115.17,240.01 114.69,240.78C114.2,241.57 113.64,242.34 113.12,243.12C112.6,243.9 112.05,244.67 111.56,245.46C111.08,246.23 110.66,247.02 110.19,247.8C109.72,248.59 109.34,249.4 108.74,250.15C108.08,250.97 107.34,251.78 106.36,252.49C105.15,253.37 103.58,254.12 101.86,254.83C99.74,255.71 97.15,256.43 94.51,257.17C91.5,258.01 88.05,258.74 84.76,259.51C81.41,260.3 77.73,261.01 74.6,261.85C71.86,262.59 68.73,263.17 66.97,264.2C65.82,264.87 64.44,265.81 64.52,266.54C64.61,267.38 66.69,268.2 68.27,268.88C70.54,269.86 73.98,270.48 77.1,271.22C80.59,272.05 84.6,272.76 88.23,273.56C91.73,274.33 95.42,275.04 98.5,275.9C101.09,276.62 103.76,277.28 105.55,278.24C106.83,278.93 108.22,279.7 108.54,280.59C108.8,281.3 108.43,282.21 108.03,282.93C107.55,283.79 106.42,284.49 105.62,285.27C104.82,286.05 103.75,286.76 103.21,287.61C102.74,288.34 102.3,289.19 102.38,289.95C102.47,290.75 103.15,291.58 103.84,292.29C104.7,293.17 106.09,293.88 107.37,294.63C108.79,295.46 110.47,296.2 112.02,296.98C113.57,297.76 115.22,298.51 116.69,299.32C118.05,300.07 119.41,300.83 120.55,301.66Q121.57,302.4 123.27,304Z" style="vector-effect: non-scaling-stroke; stroke-width: 2px; stroke: rgb(31, 119, 180); stroke-opacity: 1; fill: rgb(31, 119, 180); fill-opacity: 0.5;"/><path class="box" d="M111,265.41H142M111,266.41H142V248.16H111ZM126.5,266.41V289.93M126.5,248.16V233.25" style="vector-effect: non-scaling-stroke; stroke-width: 2px; stroke: rgb(31, 119, 180); stroke-opacity: 1; fill: rgb(31, 119, 180); fill-opacity: 0.5;"/><path class="mean" d="M111,250.42H142" style="fill: none; vector-effect: non-scaling-stroke; stroke-width: 2px; stroke-dasharray: 4px, 2px; stroke: rgb(31, 119, 180); stroke-opacity: 1;"/><g class="points"><path class="point" transform="translate(126.5,209.73)" d="M3,0A3,3 0 1,1 0,-3A3,3 0 0,1 3,0Z" style="opacity: 1; stroke-width: 0px; fill: rgb(31, 119, 180); fill-opacity: 1;"/><path class="point" transform="translate(126.5,209.73)" d="M3,0A3,3 0 1,1 0,-3A3,3 0 0,1 3,0Z" style="opacity: 1; stroke-width: 0px; fill: rgb(31, 119, 180); fill-opacity: 1;"/><path class="point" transform="translate(126.5,31.22)" d="M3,0A3,3 0 1,1 0,-3A3,3 0 0,1 3,0Z" style="opacity: 1; stroke-width: 0px; fill: rgb(31, 119, 180); fill-opacity: 1;"/><path class="point" transform="translate(126.5,30.07)" d="M3,0A3,3 0 1,1 0,-3A3,3 0 0,1 3,0Z" style="opacity: 1; stroke-width: 0px; fill: rgb(31, 119, 180); fill-opacity: 1;"/></g></g><g class="trace violins" style="opacity: 1;"><path class="violin" d="M383.03,295.08Q384.92,294.49 386,294.22C387.28,293.91 388.74,293.63 390.21,293.36C391.82,293.06 393.61,292.79 395.3,292.5C396.99,292.22 398.8,291.96 400.36,291.65C401.72,291.38 403.22,291.17 404.15,290.79C404.76,290.54 405.55,290.22 405.55,289.93C405.55,289.64 404.76,289.32 404.15,289.07C403.22,288.69 401.72,288.48 400.36,288.21C398.8,287.9 396.99,287.64 395.3,287.35C393.61,287.06 391.82,286.79 390.21,286.49C388.74,286.22 387.28,285.95 386,285.64C384.92,285.37 383.89,285.1 383.03,284.78C382.34,284.52 381.7,284.25 381.21,283.92C380.81,283.66 380.48,283.37 380.24,283.06C380.03,282.79 379.9,282.49 379.79,282.2C379.69,281.92 379.64,281.63 379.6,281.34C379.56,281.05 379.54,280.77 379.53,280.48C379.52,280.2 379.51,279.91 379.51,279.63C379.5,279.34 379.5,279.06 379.5,278.77C379.5,278.48 379.5,278.2 379.5,277.91C379.5,277.62 379.5,277.34 379.51,277.05C379.52,276.76 379.53,276.48 379.55,276.19C379.57,275.9 379.58,275.61 379.65,275.33C379.72,275.04 379.8,274.75 379.96,274.48C380.14,274.18 380.4,273.88 380.74,273.62C381.18,273.29 381.79,273.02 382.49,272.76C383.43,272.42 384.63,272.16 385.94,271.9C387.65,271.56 389.71,271.3 391.9,271.04C394.58,270.72 397.68,270.45 400.86,270.18C404.47,269.87 408.51,269.6 412.44,269.32C416.53,269.03 420.94,268.77 424.94,268.47C428.64,268.2 432.59,267.95 435.61,267.61C437.86,267.35 441.27,267.3 441.48,266.75C441.57,266.51 441.21,266.13 440.78,265.89C439.69,265.29 436.34,265.29 433.71,265.03C430.39,264.7 426.27,264.45 422.41,264.17C418.35,263.88 413.95,263.6 409.9,263.31C406.08,263.03 402.21,262.77 398.77,262.46C395.79,262.19 392.9,261.92 390.43,261.6C388.44,261.34 386.58,261.08 385.05,260.74C383.89,260.48 382.84,260.22 382.02,259.88C381.42,259.63 380.9,259.35 380.53,259.02C380.24,258.76 380.03,258.46 379.88,258.16C379.74,257.89 379.69,257.59 379.64,257.3C379.59,257.02 379.58,256.73 379.58,256.45C379.58,256.16 379.59,255.88 379.63,255.59C379.67,255.3 379.71,255.01 379.8,254.73C379.89,254.44 380.01,254.15 380.17,253.87C380.34,253.57 380.56,253.28 380.82,253.01C381.11,252.71 381.47,252.42 381.85,252.15C382.26,251.85 382.74,251.58 383.22,251.3C383.72,251.01 384.28,250.73 384.79,250.44C385.28,250.16 385.8,249.89 386.21,249.58C386.57,249.31 386.96,249.04 387.13,248.72C387.27,248.46 387.33,248.13 387.26,247.86C387.18,247.55 386.86,247.27 386.57,247C386.22,246.68 385.72,246.42 385.26,246.14C384.77,245.85 384.21,245.58 383.7,245.29C383.2,245.01 382.69,244.73 382.24,244.43C381.83,244.15 381.43,243.87 381.1,243.57C380.81,243.3 380.54,243.01 380.34,242.71C380.15,242.43 380.01,242.14 379.91,241.85C379.81,241.57 379.75,241.28 379.72,240.99C379.69,240.71 379.69,240.41 379.71,240.13C379.73,239.84 379.78,239.56 379.86,239.28C379.94,238.99 380.05,238.7 380.2,238.42C380.36,238.12 380.56,237.84 380.79,237.56C381.03,237.26 381.33,236.98 381.63,236.7C381.94,236.41 382.3,236.13 382.64,235.84C382.98,235.55 383.35,235.28 383.66,234.98C383.94,234.71 384.24,234.43 384.42,234.13C384.58,233.86 384.71,233.56 384.71,233.27C384.71,232.98 384.59,232.68 384.44,232.41C384.27,232.1 383.97,231.83 383.69,231.55C383.39,231.25 383.02,230.98 382.68,230.69C382.34,230.4 381.98,230.12 381.66,229.83C381.36,229.55 381.07,229.27 380.83,228.97C380.61,228.7 380.4,228.41 380.25,228.12C380.11,227.84 380,227.55 379.94,227.26C379.88,226.98 379.86,226.69 379.87,226.4C379.88,226.11 379.92,225.82 379.99,225.54C380.06,225.25 380.17,224.96 380.29,224.68C380.41,224.39 380.57,224.1 380.73,223.82C380.89,223.53 381.07,223.25 381.24,222.96C381.4,222.68 381.59,222.4 381.72,222.11C381.85,221.83 381.98,221.54 382.04,221.25C382.1,220.97 382.12,220.67 382.09,220.39C382.06,220.1 381.97,219.81 381.87,219.53C381.76,219.24 381.6,218.95 381.44,218.67C381.28,218.38 381.09,218.1 380.92,217.81C380.75,217.52 380.58,217.24 380.43,216.95C380.29,216.67 380.16,216.39 380.05,216.1C379.94,215.82 379.86,215.53 379.79,215.24C379.72,214.96 379.67,214.67 379.63,214.38C379.59,214.09 379.58,213.81 379.56,213.52C379.54,213.23 379.53,212.95 379.52,212.66C379.51,212.37 379.51,212.09 379.51,211.8C379.51,211.52 379.5,211.23 379.5,210.95C379.5,210.66 379.5,210.38 379.5,210.09C379.5,209.8 379.51,209.52 379.51,209.23C379.51,208.94 379.52,208.66 379.52,208.37C379.53,208.08 379.53,207.8 379.54,207.51C379.55,207.22 379.57,206.94 379.6,206.65C379.63,206.36 379.67,206.07 379.73,205.79C379.79,205.5 379.86,205.22 379.95,204.94C380.04,204.65 380.16,204.36 380.29,204.08C380.42,203.79 380.59,203.5 380.75,203.22C380.91,202.93 381.1,202.65 381.27,202.36C381.44,202.07 381.62,201.79 381.75,201.5C381.88,201.22 381.99,200.93 382.05,200.64C382.11,200.36 382.13,200.06 382.1,199.78C382.07,199.49 381.99,199.21 381.89,198.93C381.79,198.64 381.64,198.36 381.51,198.07C381.38,197.78 381.22,197.5 381.11,197.21C381,196.93 380.89,196.64 380.84,196.35C380.79,196.07 380.77,195.77 380.8,195.49C380.83,195.2 380.92,194.91 381.01,194.63C381.11,194.34 381.25,194.06 381.38,193.78C381.51,193.49 381.68,193.21 381.79,192.92C381.9,192.64 382.01,192.35 382.06,192.06C382.11,191.78 382.13,191.48 382.1,191.2C382.07,190.91 381.97,190.62 381.86,190.34C381.75,190.05 381.59,189.76 381.43,189.48C381.27,189.19 381.08,188.91 380.91,188.62C380.74,188.34 380.57,188.06 380.42,187.77C380.28,187.49 380.15,187.2 380.04,186.91C379.93,186.63 379.85,186.34 379.78,186.05C379.71,185.77 379.67,185.48 379.63,185.19C379.59,184.9 379.58,184.62 379.56,184.33C379.54,184.04 379.53,183.76 379.52,183.47C379.51,183.18 379.51,182.9 379.51,182.61C379.51,182.33 379.5,182.04 379.5,181.76C379.5,181.47 379.5,181.19 379.5,180.9C379.5,180.61 379.5,180.33 379.5,180.04C379.5,179.75 379.5,179.47 379.5,179.18C379.5,178.89 379.5,178.61 379.5,178.32C379.5,178.03 379.5,177.75 379.5,177.46C379.5,177.17 379.5,176.89 379.5,176.6C379.5,176.32 379.5,176.03 379.5,175.75C379.5,175.46 379.5,175.18 379.5,174.89C379.5,174.6 379.5,174.32 379.5,174.03C379.5,173.74 379.5,173.46 379.5,173.17C379.5,172.88 379.5,172.6 379.5,172.31C379.5,172.02 379.5,171.74 379.5,171.45C379.5,171.17 379.5,170.88 379.5,170.6C379.5,170.31 379.5,170.03 379.5,169.74C379.5,169.45 379.5,169.17 379.5,168.88C379.5,168.59 379.5,168.31 379.5,168.02C379.5,167.73 379.5,167.45 379.5,167.16C379.5,166.87 379.5,166.59 379.5,166.3C379.5,166.01 379.5,165.73 379.5,165.44C379.5,165.16 379.5,164.87 379.5,164.59C379.5,164.3 379.5,164.02 379.5,163.73C379.5,163.44 379.5,163.16 379.5,162.87C379.5,162.58 379.5,162.3 379.5,162.01C379.5,161.72 379.5,161.44 379.5,161.15C379.5,160.86 379.5,160.58 379.5,160.29C379.5,160 379.5,159.72 379.5,159.43C379.5,159.15 379.5,158.86 379.5,158.58C379.5,158.29 379.5,158.01 379.5,157.72C379.5,157.43 379.5,157.15 379.5,156.86C379.5,156.57 379.5,156.29 379.5,156C379.5,155.71 379.5,155.43 379.5,155.14C379.5,154.85 379.5,154.57 379.5,154.28C379.5,154 379.5,153.71 379.5,153.43C379.5,153.14 379.5,152.86 379.5,152.57C379.5,152.28 379.5,152 379.5,151.71C379.5,151.42 379.5,151.14 379.5,150.85C379.5,150.56 379.5,150.28 379.5,149.99C379.5,149.7 379.5,149.42 379.5,149.13C379.5,148.84 379.5,148.56 379.5,148.27C379.5,147.99 379.5,147.7 379.5,147.42C379.5,147.13 379.5,146.85 379.5,146.56C379.5,146.27 379.5,145.99 379.5,145.7C379.5,145.41 379.5,145.13 379.5,144.84C379.5,144.55 379.5,144.27 379.5,143.98C379.5,143.69 379.5,143.41 379.5,143.12C379.5,142.83 379.5,142.55 379.5,142.26C379.5,141.98 379.5,141.69 379.5,141.41C379.5,141.12 379.5,140.84 379.5,140.55C379.5,140.26 379.5,139.98 379.5,139.69C379.5,139.4 379.5,139.12 379.5,138.83C379.5,138.54 379.5,138.26 379.5,137.97C379.5,137.68 379.5,137.4 379.5,137.11C379.5,136.82 379.5,136.54 379.5,136.25C379.5,135.97 379.5,135.68 379.5,135.4C379.5,135.11 379.5,134.83 379.5,134.54C379.5,134.25 379.5,133.97 379.5,133.68C379.5,133.39 379.5,133.11 379.5,132.82C379.5,132.53 379.5,132.25 379.5,131.96C379.5,131.67 379.5,131.39 379.5,131.1C379.5,130.82 379.5,130.53 379.5,130.25C379.5,129.96 379.5,129.68 379.5,129.39C379.5,129.1 379.5,128.82 379.5,128.53C379.5,128.24 379.5,127.96 379.5,127.67C379.5,127.38 379.5,127.1 379.5,126.81C379.5,126.52 379.5,126.24 379.5,125.95C379.5,125.66 379.5,125.38 379.5,125.09C379.5,124.81 379.5,124.52 379.5,124.24C379.5,123.95 379.5,123.67 379.5,123.38C379.5,123.09 379.5,122.81 379.5,122.52C379.5,122.23 379.5,121.95 379.5,121.66C379.5,121.37 379.5,121.09 379.5,120.8C379.5,120.51 379.5,120.23 379.5,119.94C379.5,119.65 379.5,119.37 379.5,119.08C379.5,118.8 379.5,118.51 379.5,118.23C379.5,117.94 379.5,117.66 379.5,117.37C379.5,117.08 379.5,116.8 379.5,116.51C379.5,116.22 379.5,115.94 379.5,115.65C379.5,115.36 379.5,115.08 379.5,114.79C379.5,114.5 379.5,114.22 379.5,113.93C379.5,113.65 379.5,113.36 379.5,113.08C379.5,112.79 379.5,112.51 379.5,112.22C379.5,111.93 379.5,111.65 379.5,111.36C379.5,111.07 379.5,110.79 379.5,110.5C379.5,110.21 379.5,109.93 379.5,109.64C379.5,109.35 379.5,109.07 379.5,108.78C379.5,108.49 379.5,108.21 379.5,107.92C379.5,107.64 379.5,107.35 379.5,107.07C379.5,106.78 379.5,106.5 379.5,106.21C379.5,105.92 379.5,105.64 379.5,105.35C379.5,105.06 379.5,104.78 379.5,104.49C379.5,104.2 379.5,103.92 379.5,103.63C379.5,103.34 379.5,103.06 379.5,102.77C379.5,102.48 379.5,102.2 379.5,101.91C379.5,101.63 379.5,101.34 379.5,101.06C379.5,100.77 379.5,100.49 379.5,100.2C379.5,99.91 379.5,99.63 379.5,99.34C379.5,99.05 379.5,98.77 379.5,98.48C379.5,98.19 379.5,97.91 379.5,97.62C379.5,97.33 379.5,97.05 379.5,96.76C379.5,96.47 379.5,96.19 379.5,95.9C379.5,95.62 379.5,95.33 379.5,95.05C379.5,94.76 379.5,94.48 379.5,94.19C379.5,93.9 379.5,93.62 379.5,93.33C379.5,93.04 379.5,92.76 379.5,92.47C379.5,92.18 379.5,91.9 379.5,91.61C379.5,91.32 379.5,91.04 379.5,90.75C379.5,90.47 379.5,90.18 379.5,89.9C379.5,89.61 379.5,89.33 379.5,89.04C379.5,88.75 379.5,88.47 379.5,88.18C379.5,87.89 379.5,87.61 379.5,87.32C379.5,87.03 379.5,86.75 379.5,86.46C379.5,86.17 379.5,85.89 379.5,85.6C379.5,85.31 379.5,85.03 379.5,84.74C379.5,84.46 379.5,84.17 379.5,83.89C379.5,83.6 379.5,83.32 379.5,83.03C379.5,82.74 379.5,82.46 379.5,82.17C379.5,81.88 379.5,81.6 379.5,81.31C379.5,81.02 379.5,80.74 379.5,80.45C379.5,80.16 379.5,79.88 379.5,79.59C379.5,79.3 379.5,79.02 379.5,78.73C379.5,78.45 379.5,78.16 379.5,77.88C379.5,77.59 379.5,77.31 379.5,77.02C379.5,76.73 379.5,76.45 379.5,76.16C379.5,75.87 379.5,75.59 379.5,75.3C379.5,75.01 379.5,74.73 379.5,74.44C379.5,74.15 379.5,73.87 379.5,73.58C379.5,73.3 379.5,73.01 379.5,72.73C379.5,72.44 379.5,72.16 379.5,71.87C379.5,71.58 379.5,71.3 379.5,71.01C379.5,70.72 379.5,70.44 379.5,70.15C379.5,69.86 379.5,69.58 379.5,69.29C379.5,69 379.5,68.72 379.5,68.43C379.5,68.14 379.5,67.86 379.5,67.57C379.5,67.29 379.5,67 379.5,66.72C379.5,66.43 379.5,66.15 379.5,65.86C379.5,65.57 379.5,65.29 379.5,65C379.5,64.71 379.5,64.43 379.5,64.14C379.5,63.85 379.5,63.57 379.5,63.28C379.5,62.99 379.5,62.71 379.5,62.42C379.5,62.13 379.5,61.85 379.5,61.56C379.5,61.28 379.5,60.99 379.5,60.71C379.5,60.42 379.5,60.14 379.5,59.85C379.5,59.56 379.5,59.28 379.5,58.99C379.5,58.7 379.5,58.42 379.5,58.13C379.5,57.84 379.5,57.56 379.5,57.27C379.5,56.98 379.51,56.7 379.51,56.41C379.52,56.12 379.52,55.84 379.53,55.55C379.54,55.27 379.55,54.98 379.57,54.7C379.59,54.41 379.62,54.13 379.66,53.84C379.7,53.55 379.75,53.26 379.83,52.98C379.91,52.69 380.01,52.4 380.12,52.12C380.24,51.83 380.38,51.54 380.53,51.26C380.68,50.97 380.86,50.69 381.03,50.4C381.2,50.12 381.39,49.84 381.54,49.55C381.69,49.27 381.85,48.98 381.94,48.69C382.03,48.41 382.09,48.12 382.1,47.83C382.11,47.54 382.07,47.25 381.99,46.97C381.91,46.68 381.77,46.39 381.63,46.11C381.49,45.82 381.3,45.54 381.13,45.25C380.96,44.96 380.77,44.68 380.61,44.39C380.45,44.11 380.3,43.83 380.18,43.54C380.06,43.26 379.96,42.97 379.88,42.68C379.8,42.4 379.74,42.11 379.69,41.82C379.64,41.53 379.61,41.25 379.59,40.96C379.57,40.67 379.56,40.39 379.56,40.1C379.56,39.81 379.57,39.53 379.59,39.24C379.61,38.95 379.63,38.66 379.67,38.38C379.71,38.09 379.77,37.81 379.85,37.53C379.93,37.24 380.03,36.95 380.15,36.67C380.27,36.38 380.42,36.09 380.57,35.81C380.73,35.52 380.91,35.24 381.08,34.95C381.25,34.66 381.44,34.38 381.59,34.09C381.73,33.81 381.87,33.52 381.96,33.23C382.04,32.95 382.11,32.66 382.11,32.38C382.11,32.09 382.04,31.8 381.96,31.52C381.87,31.23 381.73,30.94 381.59,30.66C381.44,30.37 381.25,30.09 381.08,29.8C380.91,29.51 380.73,29.23 380.57,28.94C380.42,28.66 380.27,28.37 380.15,28.08Q380.03,27.8 379.85,27.22L379.15,27.22Q378.97,27.8 378.85,28.08C378.73,28.37 378.58,28.66 378.43,28.94C378.27,29.23 378.09,29.51 377.92,29.8C377.75,30.09 377.56,30.37 377.41,30.66C377.27,30.94 377.13,31.23 377.04,31.52C376.96,31.8 376.89,32.09 376.89,32.38C376.89,32.66 376.96,32.95 377.04,33.23C377.13,33.52 377.27,33.81 377.41,34.09C377.56,34.38 377.75,34.66 377.92,34.95C378.09,35.24 378.27,35.52 378.43,35.81C378.58,36.09 378.73,36.38 378.85,36.67C378.97,36.95 379.07,37.24 379.15,37.53C379.23,37.81 379.29,38.09 379.33,38.38C379.37,38.66 379.39,38.95 379.41,39.24C379.43,39.53 379.44,39.81 379.44,40.1C379.44,40.39 379.43,40.67 379.41,40.96C379.39,41.25 379.36,41.53 379.31,41.82C379.26,42.11 379.2,42.4 379.12,42.68C379.04,42.97 378.94,43.26 378.82,43.54C378.7,43.83 378.55,44.11 378.39,44.39C378.23,44.68 378.04,44.96 377.87,45.25C377.7,45.54 377.51,45.82 377.37,46.11C377.23,46.39 377.09,46.68 377.01,46.97C376.93,47.25 376.89,47.54 376.9,47.83C376.91,48.12 376.97,48.41 377.06,48.69C377.15,48.98 377.31,49.27 377.46,49.55C377.61,49.84 377.8,50.12 377.97,50.4C378.14,50.69 378.32,50.97 378.47,51.26C378.62,51.54 378.76,51.83 378.88,52.12C378.99,52.4 379.09,52.69 379.17,52.98C379.25,53.26 379.3,53.55 379.34,53.84C379.38,54.13 379.41,54.41 379.43,54.7C379.45,54.98 379.46,55.27 379.47,55.55C379.48,55.84 379.48,56.12 379.49,56.41C379.49,56.7 379.5,56.98 379.5,57.27C379.5,57.56 379.5,57.84 379.5,58.13C379.5,58.42 379.5,58.7 379.5,58.99C379.5,59.28 379.5,59.56 379.5,59.85C379.5,60.14 379.5,60.42 379.5,60.71C379.5,60.99 379.5,61.28 379.5,61.56C379.5,61.85 379.5,62.13 379.5,62.42C379.5,62.71 379.5,62.99 379.5,63.28C379.5,63.57 379.5,63.85 379.5,64.14C379.5,64.43 379.5,64.71 379.5,65C379.5,65.29 379.5,65.57 379.5,65.86C379.5,66.15 379.5,66.43 379.5,66.72C379.5,67 379.5,67.29 379.5,67.57C379.5,67.86 379.5,68.14 379.5,68.43C379.5,68.72 379.5,69 379.5,69.29C379.5,69.58 379.5,69.86 379.5,70.15C379.5,70.44 379.5,70.72 379.5,71.01C379.5,71.3 379.5,71.58 379.5,71.87C379.5,72.16 379.5,72.44 379.5,72.73C379.5,73.01 379.5,73.3 379.5,73.58C379.5,73.87 379.5,74.15 379.5,74.44C379.5,74.73 379.5,75.01 379.5,75.3C379.5,75.59 379.5,75.87 379.5,76.16C379.5,76.45 379.5,76.73 379.5,77.02C379.5,77.31 379.5,77.59 379.5,77.88C379.5,78.16 379.5,78.45 379.5,78.73C379.5,79.02 379.5,79.3 379.5,79.59C379.5,79.88 379.5,80.16 379.5,80.45C379.5,80.74 379.5,81.02 379.5,81.31C379.5,81.6 379.5,81.88 379.5,82.17C379.5,82.46 379.5,82.74 379.5,83.03C379.5,83.32 379.5,83.6 379.5,83.89C379.5,84.17 379.5,84.46 379.5,84.74C379.5,85.03 379.5,85.31 379.5,85.6C379.5,85.89 379.5,86.17 379.5,86.46C379.5,86.75 379.5,87.03 379.5,87.32C379.5,87.61 379.5,87.89 379.5,88.18C379.5,88.47 379.5,88.75 379.5,89.04C379.5,89.33 379.5,89.61 379.5,89.9C379.5,90.18 379.5,90.47 379.5,90.75C379.5,91.04 379.5,91.32 379.5,91.61C379.5,91.9 379.5,92.18 379.5,92.47C379.5,92.76 379.5,93.04 379.5,93.33C379.5,93.62 379.5,93.9 379.5,94.19C379.5,94.48 379.5,94.76 379.5,95.05C379.5,95.33 379.5,95.62 379.5,95.9C379.5,96.19 379.5,96.47 379.5,96.76C379.5,97.05 379.5,97.33 379.5,97.62C379.5,97.91 379.5,98.19 379.5,98.48C379.5,98.77 379.5,99.05 379.5,99.34C379.5,99.63 379.5,99.91 379.5,100.2C379.5,100.49 379.5,100.77 379.5,101.06C379.5,101.34 379.5,101.63 379.5,101.91C379.5,102.2 379.5,102.48 379.5,102.77C379.5,103.06 379.5,103.34 379.5,103.63C379.5,103.92 379.5,104.2 379.5,104.49C379.5,104.78 379.5,105.06 379.5,105.35C379.5,105.64 379.5,105.92 379.5,106.21C379.5,106.5 379.5,106.78 379.5,107.07C379.5,107.35 379.5,107.64 379.5,107.92C379.5,108.21 379.5,108.49 379.5,108.78C379.5,109.07 379.5,109.35 379.5,109.64C379.5,109.93 379.5,110.21 379.5,110.5C379.5,110.79 379.5,111.07 379.5,111.36C379.5,111.65 379.5,111.93 379.5,112.22C379.5,112.51 379.5,112.79 379.5,113.08C379.5,113.36 379.5,113.65 379.5,113.93C379.5,114.22 379.5,114.5 379.5,114.79C379.5,115.08 379.5,115.36 379.5,115.65C379.5,115.94 379.5,116.22 379.5,116.51C379.5,116.8 379.5,117.08 379.5,117.37C379.5,117.66 379.5,117.94 379.5,118.23C379.5,118.51 379.5,118.8 379.5,119.08C379.5,119.37 379.5,119.65 379.5,119.94C379.5,120.23 379.5,120.51 379.5,120.8C379.5,121.09 379.5,121.37 379.5,121.66C379.5,121.95 379.5,122.23 379.5,122.52C379.5,122.81 379.5,123.09 379.5,123.38C379.5,123.67 379.5,123.95 379.5,124.24C379.5,124.52 379.5,124.81 379.5,125.09C379.5,125.38 379.5,125.66 379.5,125.95C379.5,126.24 379.5,126.52 379.5,126.81C379.5,127.1 379.5,127.38 379.5,127.67C379.5,127.96 379.5,128.24 379.5,128.53C379.5,128.82 379.5,129.1 379.5,129.39C379.5,129.68 379.5,129.96 379.5,130.25C379.5,130.53 379.5,130.82 379.5,131.1C379.5,131.39 379.5,131.67 379.5,131.96C379.5,132.25 379.5,132.53 379.5,132.82C379.5,133.11 379.5,133.39 379.5,133.68C379.5,133.97 379.5,134.25 379.5,134.54C379.5,134.83 379.5,135.11 379.5,135.4C379.5,135.68 379.5,135.97 379.5,136.25C379.5,136.54 379.5,136.82 379.5,137.11C379.5,137.4 379.5,137.68 379.5,137.97C379.5,138.26 379.5,138.54 379.5,138.83C379.5,139.12 379.5,139.4 379.5,139.69C379.5,139.98 379.5,140.26 379.5,140.55C379.5,140.84 379.5,141.12 379.5,141.41C379.5,141.69 379.5,141.98 379.5,142.26C379.5,142.55 379.5,142.83 379.5,143.12C379.5,143.41 379.5,143.69 379.5,143.98C379.5,144.27 379.5,144.55 379.5,144.84C379.5,145.13 379.5,145.41 379.5,145.7C379.5,145.99 379.5,146.27 379.5,146.56C379.5,146.85 379.5,147.13 379.5,147.42C379.5,147.7 379.5,147.99 379.5,148.27C379.5,148.56 379.5,148.84 379.5,149.13C379.5,149.42 379.5,149.7 379.5,149.99C379.5,150.28 379.5,150.56 379.5,150.85C379.5,151.14 379.5,151.42 379.5,151.71C379.5,152 379.5,152.28 379.5,152.57C379.5,152.86 379.5,153.14 379.5,153.43C379.5,153.71 379.5,154 379.5,154.28C379.5,154.57 379.5,154.85 379.5,155.14C379.5,155.43 379.5,155.71 379.5,156C379.5,156.29 379.5,156.57 379.5,156.86C379.5,157.15 379.5,157.43 379.5,157.72C379.5,158.01 379.5,158.29 379.5,158.58C379.5,158.86 379.5,159.15 379.5,159.43C379.5,159.72 379.5,160 379.5,160.29C379.5,160.58 379.5,160.86 379.5,161.15C379.5,161.44 379.5,161.72 379.5,162.01C379.5,162.3 379.5,162.58 379.5,162.87C379.5,163.16 379.5,163.44 379.5,163.73C379.5,164.02 379.5,164.3 379.5,164.59C379.5,164.87 379.5,165.16 379.5,165.44C379.5,165.73 379.5,166.01 379.5,166.3C379.5,166.59 379.5,166.87 379.5,167.16C379.5,167.45 379.5,167.73 379.5,168.02C379.5,168.31 379.5,168.59 379.5,168.88C379.5,169.17 379.5,169.45 379.5,169.74C379.5,170.03 379.5,170.31 379.5,170.6C379.5,170.88 379.5,171.17 379.5,171.45C379.5,171.74 379.5,172.02 379.5,172.31C379.5,172.6 379.5,172.88 379.5,173.17C379.5,173.46 379.5,173.74 379.5,174.03C379.5,174.32 379.5,174.6 379.5,174.89C379.5,175.18 379.5,175.46 379.5,175.75C379.5,176.03 379.5,176.32 379.5,176.6C379.5,176.89 379.5,177.17 379.5,177.46C379.5,177.75 379.5,178.03 379.5,178.32C379.5,178.61 379.5,178.89 379.5,179.18C379.5,179.47 379.5,179.75 379.5,180.04C379.5,180.33 379.5,180.61 379.5,180.9C379.5,181.19 379.5,181.47 379.5,181.76C379.5,182.04 379.49,182.33 379.49,182.61C379.49,182.9 379.49,183.18 379.48,183.47C379.47,183.76 379.46,184.04 379.44,184.33C379.42,184.62 379.41,184.9 379.37,185.19C379.33,185.48 379.29,185.77 379.22,186.05C379.15,186.34 379.07,186.63 378.96,186.91C378.85,187.2 378.72,187.49 378.58,187.77C378.43,188.06 378.26,188.34 378.09,188.62C377.92,188.91 377.73,189.19 377.57,189.48C377.41,189.76 377.25,190.05 377.14,190.34C377.03,190.62 376.93,190.91 376.9,191.2C376.87,191.48 376.89,191.78 376.94,192.06C376.99,192.35 377.1,192.64 377.21,192.92C377.32,193.21 377.49,193.49 377.62,193.78C377.75,194.06 377.89,194.34 377.99,194.63C378.08,194.91 378.17,195.2 378.2,195.49C378.23,195.77 378.21,196.07 378.16,196.35C378.11,196.64 378,196.93 377.89,197.21C377.78,197.5 377.62,197.78 377.49,198.07C377.36,198.36 377.21,198.64 377.11,198.93C377.01,199.21 376.93,199.49 376.9,199.78C376.87,200.06 376.89,200.36 376.95,200.64C377.01,200.93 377.12,201.22 377.25,201.5C377.38,201.79 377.56,202.07 377.73,202.36C377.9,202.65 378.09,202.93 378.25,203.22C378.41,203.5 378.58,203.79 378.71,204.08C378.84,204.36 378.96,204.65 379.05,204.94C379.14,205.22 379.21,205.5 379.27,205.79C379.33,206.07 379.37,206.36 379.4,206.65C379.43,206.94 379.45,207.22 379.46,207.51C379.47,207.8 379.47,208.08 379.48,208.37C379.48,208.66 379.49,208.94 379.49,209.23C379.49,209.52 379.5,209.8 379.5,210.09C379.5,210.38 379.5,210.66 379.5,210.95C379.5,211.23 379.49,211.52 379.49,211.8C379.49,212.09 379.49,212.37 379.48,212.66C379.47,212.95 379.46,213.23 379.44,213.52C379.42,213.81 379.41,214.09 379.37,214.38C379.33,214.67 379.28,214.96 379.21,215.24C379.14,215.53 379.06,215.82 378.95,216.1C378.84,216.39 378.71,216.67 378.57,216.95C378.42,217.24 378.25,217.52 378.08,217.81C377.91,218.1 377.72,218.38 377.56,218.67C377.4,218.95 377.24,219.24 377.13,219.53C377.03,219.81 376.94,220.1 376.91,220.39C376.88,220.67 376.9,220.97 376.96,221.25C377.02,221.54 377.15,221.83 377.28,222.11C377.41,222.4 377.6,222.68 377.76,222.96C377.93,223.25 378.11,223.53 378.27,223.82C378.43,224.1 378.59,224.39 378.71,224.68C378.83,224.96 378.94,225.25 379.01,225.54C379.08,225.82 379.12,226.11 379.13,226.4C379.14,226.69 379.12,226.98 379.06,227.26C379,227.55 378.89,227.84 378.75,228.12C378.6,228.41 378.39,228.7 378.17,228.97C377.93,229.27 377.64,229.55 377.34,229.83C377.02,230.12 376.66,230.4 376.32,230.69C375.98,230.98 375.61,231.25 375.31,231.55C375.03,231.83 374.73,232.1 374.56,232.41C374.41,232.68 374.29,232.98 374.29,233.27C374.29,233.56 374.42,233.86 374.58,234.13C374.76,234.43 375.06,234.71 375.34,234.98C375.65,235.28 376.02,235.55 376.36,235.84C376.7,236.13 377.06,236.41 377.37,236.7C377.67,236.98 377.97,237.26 378.21,237.56C378.44,237.84 378.64,238.12 378.8,238.42C378.95,238.7 379.06,238.99 379.14,239.28C379.22,239.56 379.27,239.84 379.29,240.13C379.31,240.41 379.31,240.71 379.28,240.99C379.25,241.28 379.19,241.57 379.09,241.85C378.99,242.14 378.85,242.43 378.66,242.71C378.46,243.01 378.19,243.3 377.9,243.57C377.57,243.87 377.17,244.15 376.76,244.43C376.31,244.73 375.8,245.01 375.3,245.29C374.79,245.58 374.23,245.85 373.74,246.14C373.28,246.42 372.78,246.68 372.43,247C372.14,247.27 371.82,247.55 371.74,247.86C371.67,248.13 371.73,248.46 371.87,248.72C372.04,249.04 372.43,249.31 372.79,249.58C373.2,249.89 373.72,250.16 374.21,250.44C374.72,250.73 375.28,251.01 375.78,251.3C376.26,251.58 376.74,251.85 377.15,252.15C377.53,252.42 377.89,252.71 378.18,253.01C378.44,253.28 378.66,253.57 378.83,253.87C378.99,254.15 379.11,254.44 379.2,254.73C379.29,255.01 379.33,255.3 379.37,255.59C379.41,255.88 379.42,256.16 379.42,256.45C379.42,256.73 379.41,257.02 379.36,257.3C379.31,257.59 379.26,257.89 379.12,258.16C378.97,258.46 378.76,258.76 378.47,259.02C378.1,259.35 377.58,259.63 376.98,259.88C376.16,260.22 375.11,260.48 373.95,260.74C372.42,261.08 370.56,261.34 368.57,261.6C366.1,261.92 363.21,262.19 360.23,262.46C356.79,262.77 352.92,263.03 349.1,263.31C345.05,263.6 340.65,263.88 336.59,264.17C332.73,264.45 328.61,264.7 325.29,265.03C322.66,265.29 319.31,265.29 318.22,265.89C317.79,266.13 317.43,266.51 317.52,266.75C317.73,267.3 321.14,267.35 323.39,267.61C326.41,267.95 330.36,268.2 334.06,268.47C338.06,268.77 342.47,269.03 346.56,269.32C350.49,269.6 354.53,269.87 358.14,270.18C361.32,270.45 364.42,270.72 367.1,271.04C369.29,271.3 371.35,271.56 373.06,271.9C374.37,272.16 375.57,272.42 376.51,272.76C377.21,273.02 377.82,273.29 378.26,273.62C378.6,273.88 378.86,274.18 379.04,274.48C379.2,274.75 379.28,275.04 379.35,275.33C379.42,275.61 379.43,275.9 379.45,276.19C379.47,276.48 379.48,276.76 379.49,277.05C379.5,277.34 379.5,277.62 379.5,277.91C379.5,278.2 379.5,278.48 379.5,278.77C379.5,279.06 379.5,279.34 379.49,279.63C379.49,279.91 379.48,280.2 379.47,280.48C379.46,280.77 379.44,281.05 379.4,281.34C379.36,281.63 379.31,281.92 379.21,282.2C379.1,282.49 378.97,282.79 378.76,283.06C378.52,283.37 378.19,283.66 377.79,283.92C377.3,284.25 376.66,284.52 375.97,284.78C375.11,285.1 374.08,285.37 373,285.64C371.72,285.95 370.26,286.22 368.79,286.49C367.18,286.79 365.39,287.06 363.7,287.35C362.01,287.64 360.2,287.9 358.64,288.21C357.28,288.48 355.78,288.69 354.85,289.07C354.24,289.32 353.45,289.64 353.45,289.93C353.45,290.22 354.24,290.54 354.85,290.79C355.78,291.17 357.28,291.38 358.64,291.65C360.2,291.96 362.01,292.22 363.7,292.5C365.39,292.79 367.18,293.06 368.79,293.36C370.26,293.63 371.72,293.91 373,294.22Q374.08,294.49 375.97,295.08Z" style="vector-effect: non-scaling-stroke; stroke-width: 2px; stroke: rgb(255, 127, 14); stroke-opacity: 1; fill: rgb(255, 127, 14); fill-opacity: 0.5;"/><path class="box" d="M364,266.41H395M364,266.41H395V266.41H364ZM379.5,266.41V266.41M379.5,266.41V266.41" style="vector-effect: non-scaling-stroke; stroke-width: 2px; stroke: rgb(255, 127, 14); stroke-opacity: 1; fill: rgb(255, 127, 14); fill-opacity: 0.5;"/><path class="mean" d="M364,254.46H395" style="fill: none; vector-effect: non-scaling-stroke; stroke-width: 2px; stroke-dasharray: 4px, 2px; stroke: rgb(255, 127, 14); stroke-opacity: 1;"/><g class="points"><path class="point" transform="translate(379.5,289.93)" d="M3,0A3,3 0 1,1 0,-3A3,3 0 0,1 3,0Z" style="opacity: 1; stroke-width: 0px; fill: rgb(255, 127, 14); fill-opacity: 1;"/><path class="point" transform="translate(379.5,289.93)" d="M3,0A3,3 0 1,1 0,-3A3,3 0 0,1 3,0Z" style="opacity: 1; stroke-width: 0px; fill: rgb(255, 127, 14); fill-opacity: 1;"/><path class="point" transform="translate(379.5,289.93)" d="M3,0A3,3 0 1,1 0,-3A3,3 0 0,1 3,0Z" style="opacity: 1; stroke-width: 0px; fill: rgb(255, 127, 14); fill-opacity: 1;"/><path class="point" transform="translate(379.5,289.93)" d="M3,0A3,3 0 1,1 0,-3A3,3 0 0,1 3,0Z" style="opacity: 1; stroke-width: 0px; fill: rgb(255, 127, 14); fill-opacity: 1;"/><path class="point" transform="translate(379.5,289.93)" d="M3,0A3,3 0 1,1 0,-3A3,3 0 0,1 3,0Z" style="opacity: 1; stroke-width: 0px; fill: rgb(255, 127, 14); fill-opacity: 1;"/><path class="point" transform="translate(379.5,289.93)" d="M3,0A3,3 0 1,1 0,-3A3,3 0 0,1 3,0Z" style="opacity: 1; stroke-width: 0px; fill: rgb(255, 127, 14); fill-opacity: 1;"/><path class="point" transform="translate(379.5,289.93)" d="M3,0A3,3 0 1,1 0,-3A3,3 0 0,1 3,0Z" style="opacity: 1; stroke-width: 0px; fill: rgb(255, 127, 14); fill-opacity: 1;"/><path class="point" transform="translate(379.5,289.93)" d="M3,0A3,3 0 1,1 0,-3A3,3 0 0,1 3,0Z" style="opacity: 1; stroke-width: 0px; fill: rgb(255, 127, 14); fill-opacity: 1;"/><path class="point" transform="translate(379.5,289.93)" d="M3,0A3,3 0 1,1 0,-3A3,3 0 0,1 3,0Z" style="opacity: 1; stroke-width: 0px; fill: rgb(255, 127, 14); fill-opacity: 1;"/><path class="point" transform="translate(379.5,289.93)" d="M3,0A3,3 0 1,1 0,-3A3,3 0 0,1 3,0Z" style="opacity: 1; stroke-width: 0px; fill: rgb(255, 127, 14); fill-opacity: 1;"/><path class="point" transform="translate(379.5,248.16)" d="M3,0A3,3 0 1,1 0,-3A3,3 0 0,1 3,0Z" style="opacity: 1; stroke-width: 0px; fill: rgb(255, 127, 14); fill-opacity: 1;"/><path class="point" transform="translate(379.5,248.16)" d="M3,0A3,3 0 1,1 0,-3A3,3 0 0,1 3,0Z" style="opacity: 1; stroke-width: 0px; fill: rgb(255, 127, 14); fill-opacity: 1;"/><path class="point" transform="translate(379.5,248.16)" d="M3,0A3,3 0 1,1 0,-3A3,3 0 0,1 3,0Z" style="opacity: 1; stroke-width: 0px; fill: rgb(255, 127, 14); fill-opacity: 1;"/><path class="point" transform="translate(379.5,233.25)" d="M3,0A3,3 0 1,1 0,-3A3,3 0 0,1 3,0Z" style="opacity: 1; stroke-width: 0px; fill: rgb(255, 127, 14); fill-opacity: 1;"/><path class="point" transform="translate(379.5,233.25)" d="M3,0A3,3 0 1,1 0,-3A3,3 0 0,1 3,0Z" style="opacity: 1; stroke-width: 0px; fill: rgb(255, 127, 14); fill-opacity: 1;"/><path class="point" transform="translate(379.5,220.65)" d="M3,0A3,3 0 1,1 0,-3A3,3 0 0,1 3,0Z" style="opacity: 1; stroke-width: 0px; fill: rgb(255, 127, 14); fill-opacity: 1;"/><path class="point" transform="translate(379.5,200.1)" d="M3,0A3,3 0 1,1 0,-3A3,3 0 0,1 3,0Z" style="opacity: 1; stroke-width: 0px; fill: rgb(255, 127, 14); fill-opacity: 1;"/><path class="point" transform="translate(379.5,191.49)" d="M3,0A3,3 0 1,1 0,-3A3,3 0 0,1 3,0Z" style="opacity: 1; stroke-width: 0px; fill: rgb(255, 127, 14); fill-opacity: 1;"/><path class="point" transform="translate(379.5,47.75)" d="M3,0A3,3 0 1,1 0,-3A3,3 0 0,1 3,0Z" style="opacity: 1; stroke-width: 0px; fill: rgb(255, 127, 14); fill-opacity: 1;"/><path class="point" transform="translate(379.5,32.38)" d="M3,0A3,3 0 1,1 0,-3A3,3 0 0,1 3,0Z" style="opacity: 1; stroke-width: 0px; fill: rgb(255, 127, 14); fill-opacity: 1;"/></g></g></g></g><g class="overplot"/><path class="xlines-above crisp" d="M79,420.5H586" style="fill: none; stroke-width: 1px; stroke: rgb(36, 36, 36); stroke-opacity: 1;"/><path class="ylines-above crisp" d="M79.5,100V420" style="fill: none; stroke-width: 1px; stroke: rgb(36, 36, 36); stroke-opacity: 1;"/><g class="overlines-above"/><g class="xaxislayer-above"><path class="xtick ticks crisp" d="M0,421v5" transform="translate(206.5,0)" style="stroke: rgb(68, 68, 68); stroke-opacity: 1; stroke-width: 1px;"/><path class="xtick ticks crisp" d="M0,421v5" transform="translate(459.5,0)" style="stroke: rgb(68, 68, 68); stroke-opacity: 1; stroke-width: 1px;"/><g class="xtick"><text text-anchor="middle" x="0" y="440.4" transform="translate(206.5,0)" style="font-family: 'Open Sans', verdana, arial, sans-serif; font-size: 12px; fill: rgb(36, 36, 36); fill-opacity: 1; white-space: pre; opacity: 1;">Control</text></g><g class="xtick"><text text-anchor="middle" x="0" y="440.4" transform="translate(459.5,0)" style="font-family: 'Open Sans', verdana, arial, sans-serif; font-size: 12px; fill: rgb(36, 36, 36); fill-opacity: 1; white-space: pre; opacity: 1;">Treated</text></g></g><g class="yaxislayer-above"><path class="ytick ticks crisp" d="M79,0h-5" transform="translate(0,389.93)" style="stroke: rgb(68, 68, 68); stroke-opacity: 1; stroke-width: 1px;"/><path class="ytick ticks crisp" d="M79,0h-5" transform="translate(0,349.05)" style="stroke: rgb(68, 68, 68); stroke-opacity: 1; stroke-width: 1px;"/><path class="ytick ticks crisp" d="M79,0h-5" transform="translate(0,308.15999999999997)" style="stroke: rgb(68, 68, 68); stroke-opacity: 1; stroke-width: 1px;"/><path class="ytick ticks crisp" d="M79,0h-5" transform="translate(0,267.28)" style="stroke: rgb(68, 68, 68); stroke-opacity: 1; stroke-width: 1px;"/><path class="ytick ticks crisp" d="M79,0h-5" transform="translate(0,226.4)" style="stroke: rgb(68, 68, 68); stroke-opacity: 1; stroke-width: 1px;"/><path class="ytick ticks crisp" d="M79,0h-5" transform="translate(0,185.51)" style="stroke: rgb(68, 68, 68); stroke-opacity: 1; stroke-width: 1px;"/><path class="ytick ticks crisp" d="M79,0h-5" transform="translate(0,144.63)" style="stroke: rgb(68, 68, 68); stroke-opacity: 1; stroke-width: 1px;"/><path class="ytick ticks crisp" d="M79,0h-5" transform="translate(0,103.75)" style="stroke: rgb(68, 68, 68); stroke-opacity: 1; stroke-width: 1px;"/><g class="ytick"><text text-anchor="end" x="71.6" y="4.199999999999999" transform="translate(0,389.93)" style="font-family: 'Open Sans', verdana, arial, sans-serif; font-size: 12px; fill: rgb(36, 36, 36); fill-opacity: 1; white-space: pre; opacity: 1;">0</text></g><g class="ytick"><text text-anchor="end" x="71.6" y="4.199999999999999" style="font-family: 'Open Sans', verdana, arial, sans-serif; font-size: 12px; fill: rgb(36, 36, 36); fill-opacity: 1; white-space: pre; opacity: 1;" transform="translate(0,349.05)">0.5</text></g><g class="ytick"><text text-anchor="end" x="71.6" y="4.199999999999999" style="font-family: 'Open Sans', verdana, arial, sans-serif; font-size: 12px; fill: rgb(36, 36, 36); fill-opacity: 1; white-space: pre; opacity: 1;" transform="translate(0,308.15999999999997)">1</text></g><g class="ytick"><text text-anchor="end" x="71.6" y="4.199999999999999" style="font-family: 'Open Sans', verdana, arial, sans-serif; font-size: 12px; fill: rgb(36, 36, 36); fill-opacity: 1; white-space: pre; opacity: 1;" transform="translate(0,267.28)">1.5</text></g><g class="ytick"><text text-anchor="end" x="71.6" y="4.199999999999999" style="font-family: 'Open Sans', verdana, arial, sans-serif; font-size: 12px; fill: rgb(36, 36, 36); fill-opacity: 1; white-space: pre; opacity: 1;" transform="translate(0,226.4)">2</text></g><g class="ytick"><text text-anchor="end" x="71.6" y="4.199999999999999" style="font-family: 'Open Sans', verdana, arial, sans-serif; font-size: 12px; fill: rgb(36, 36, 36); fill-opacity: 1; white-space: pre; opacity: 1;" transform="translate(0,185.51)">2.5</text></g><g class="ytick"><text text-anchor="end" x="71.6" y="4.199999999999999" style="font-family: 'Open Sans', verdana, arial, sans-serif; font-size: 12px; fill: rgb(36, 36, 36); fill-opacity: 1; white-space: pre; opacity: 1;" transform="translate(0,144.63)">3</text></g><g class="ytick"><text text-anchor="end" x="71.6" y="4.199999999999999" style="font-family: 'Open Sans', verdana, arial, sans-serif; font-size: 12px; fill: rgb(36, 36, 36); fill-opacity: 1; white-space: pre; opacity: 1;" transform="translate(0,103.75)">3.5</text></g></g><g class="overaxes-above"/></g></g><g class="polarlayer"/><g class="ternarylayer"/><g class="geolayer"/><g class="funnelarealayer"/><g class="pielayer"/><g class="iciclelayer"/><g class="treemaplayer"/><g class="sunburstlayer"/><g class="glimages"/><defs id="topdefs-f61705"><g class="clips"/><clipPath id="legendf61705"><rect width="92" height="48" x="0" y="0"/></clipPath></defs><g class="layer-above"><g class="imagelayer"/><g class="shapelayer"/></g><g class="infolayer"><g class="legend" pointer-events="all" transform="translate(596.12,100)"><rect class="bg" shape-rendering="crispEdges" width="92" height="48" x="0" y="0" style="stroke: rgb(68, 68, 68); stroke-opacity: 1; fill: rgb(255, 255, 255); fill-opacity: 1; stroke-width: 0px;"/><g class="scrollbox" transform="" clip-path="url(#legendf61705)"><g class="groups"><g class="traces" transform="translate(0,14.5)" style="opacity: 1;"><text class="legendtext" text-anchor="start" x="40" y="4.680000000000001" style="font-family: 'Open Sans', verdana, arial, sans-serif; font-size: 12px; fill: rgb(36, 36, 36); fill-opacity: 1; white-space: pre;">Control</text><g class="layers" style="opacity: 1;"><g class="legendfill"/><g class="legendlines"/><g class="legendsymbols"><g class="legendpoints"><path class="legendbox" d="M6,6H-6V-6H6Z" transform="translate(20,0)" style="stroke-width: 2px; fill: rgb(31, 119, 180); fill-opacity: 0.5; stroke: rgb(31, 119, 180); stroke-opacity: 1;"/></g></g></g><rect class="legendtoggle" x="0" y="-9.5" width="86.0625" height="19" style="fill: rgb(0, 0, 0); fill-opacity: 0;"/></g><g class="traces" transform="translate(0,33.5)" style="opacity: 1;"><text class="legendtext" text-anchor="start" x="40" y="4.680000000000001" style="font-family: 'Open Sans', verdana, arial, sans-serif; font-size: 12px; fill: rgb(36, 36, 36); fill-opacity: 1; white-space: pre;">Treated</text><g class="layers" style="opacity: 1;"><g class="legendfill"/><g class="legendlines"/><g class="legendsymbols"><g class="legendpoints"><path class="legendbox" d="M6,6H-6V-6H6Z" transform="translate(20,0)" style="stroke-width: 2px; fill: rgb(255, 127, 14); fill-opacity: 0.5; stroke: rgb(255, 127, 14); stroke-opacity: 1;"/></g></g></g><rect class="legendtoggle" x="0" y="-9.5" width="86.0625" height="19" style="fill: rgb(0, 0, 0); fill-opacity: 0;"/></g></g></g><rect class="scrollbar" rx="20" ry="3" width="0" height="0" x="0" y="0" style="fill: rgb(128, 139, 164); fill-opacity: 1;"/></g><g class="g-gtitle"><text class="gtitle" x="35" y="50" text-anchor="start" dy="0em" style="font-family: 'Open Sans', verdana, arial, sans-serif; font-size: 17px; fill: rgb(36, 36, 36); opacity: 1; font-weight: normal; white-space: pre;">Distribution of complex log abundances</text></g><g class="g-xtitle"/><g class="g-ytitle"/></g></svg>