<svg class="main-svg" xmlns="http://www.w3.org/2000/svg" xmlns:xlink="http://www.w3.org/1999/xlink" width="700" height="500" style="" viewBox="0 0 700 500"><rect x="0" y="0" width="700" height="500" style="fill: rgb(255, 255, 255); fill-opacity: 1;"/><defs id="defs-344c3d"><g class="clips"><clipPath id="clip344c3dxyplot" class="plotclip"><rect width="520" height="320"/></clipPath><clipPath class="axesclip" id="clip344c3dx"><rect x="80" y="0" width="520" height="500"/></clipPath><clipPath class="axesclip" id="clip344c3dy"><rect x="0" y="100" width="700" height="320"/></clipPath><clipPath class="axesclip" id="clip344c3dxy"><rect x="80" y="100" width="520" height="320"/></clipPath></g><g class="gradients"/><g class="patterns"/></defs><g class="bglayer"/><g class="layer-below"><g class="imagelayer"/><g class="shapelayer"/></g><g class="cartesianlayer"><g class="subplot xy"><g class="layer-subplot"><g class="shapelayer"/><g class="imagelayer"/></g><g class="gridlayer"><g class="x"/><g class="y"/></g><g class="zerolinelayer"/><path class="xlines-below"/><path class="ylines-below"/><g class="overlines-below"/><g class="xaxislayer-below"/><g class="yaxislayer-below"/><g class="overaxes-below"/><g class="plot" transform="translate(80,100)" clip-path="url(#clip344c3dxyplot)"><g class="violinlayer mlayer"><g class="trace violins" style="opacity: 1;"><path class="violin" d="M130.39,303.53Q130.58,302.01 130.71,301.25C130.84,300.49 131,299.73 131.17,298.97C131.34,298.21 131.54,297.44 131.73,296.68C131.91,295.92 132.12,295.16 132.28,294.4C132.44,293.64 132.59,292.88 132.69,292.12C132.78,291.36 132.85,290.6 132.85,289.84C132.85,289.08 132.79,288.32 132.7,287.56C132.61,286.79 132.45,286.03 132.29,285.27C132.13,284.51 131.92,283.75 131.74,282.99C131.55,282.23 131.35,281.47 131.18,280.71C131.01,279.95 130.85,279.19 130.72,278.43C130.59,277.67 130.48,276.91 130.39,276.15C130.3,275.39 130.24,274.62 130.19,273.86C130.14,273.1 130.11,272.34 130.09,271.58C130.07,270.82 130.05,270.06 130.05,269.3C130.05,268.54 130.05,267.78 130.06,267.02C130.07,266.26 130.1,265.5 130.12,264.74C130.15,263.98 130.17,263.21 130.21,262.45C130.25,261.69 130.3,260.93 130.35,260.17C130.41,259.41 130.48,258.65 130.54,257.89C130.6,257.13 130.66,256.37 130.72,255.61C130.77,254.85 130.83,254.09 130.87,253.33C130.91,252.57 130.94,251.8 130.95,251.04C130.96,250.28 130.94,249.52 130.92,248.76C130.9,248 130.85,247.24 130.8,246.48C130.75,245.72 130.68,244.96 130.62,244.2C130.56,243.44 130.49,242.68 130.43,241.92C130.37,241.16 130.32,240.39 130.28,239.63C130.24,238.87 130.2,238.11 130.18,237.35C130.16,236.59 130.14,235.83 130.14,235.07C130.14,234.31 130.15,233.55 130.17,232.79C130.19,232.03 130.22,231.27 130.26,230.51C130.3,229.75 130.35,228.98 130.41,228.22C130.46,227.46 130.53,226.7 130.59,225.94C130.65,225.18 130.73,224.42 130.78,223.66C130.83,222.9 130.88,222.14 130.91,221.38C130.94,220.62 130.95,219.86 130.95,219.1C130.95,218.34 130.92,217.57 130.89,216.81C130.86,216.05 130.8,215.29 130.75,214.53C130.69,213.77 130.62,213.01 130.56,212.25C130.5,211.49 130.44,210.73 130.38,209.97C130.33,209.21 130.27,208.45 130.23,207.69C130.19,206.93 130.15,206.16 130.12,205.4C130.09,204.64 130.08,203.88 130.06,203.12C130.05,202.36 130.04,201.6 130.03,200.84C130.02,200.08 130.02,199.32 130.01,198.56C130.01,197.8 130,197.04 130,196.28C130,195.52 130,194.75 130,193.99C130,193.23 130.01,192.47 130.01,191.71C130.01,190.95 130.01,190.19 130.01,189.43C130.01,188.67 130.03,187.91 130.04,187.15C130.05,186.39 130.06,185.63 130.08,184.87C130.1,184.11 130.14,183.34 130.18,182.58C130.22,181.82 130.27,181.06 130.34,180.3C130.41,179.54 130.49,178.78 130.59,178.02C130.69,177.26 130.82,176.5 130.96,175.74C131.11,174.98 131.27,174.22 131.46,173.46C131.65,172.7 131.86,171.93 132.09,171.17C132.32,170.41 132.58,169.65 132.86,168.89C133.14,168.13 133.43,167.37 133.75,166.61C134.07,165.85 134.41,165.09 134.76,164.33C135.11,163.57 135.49,162.81 135.86,162.05C136.23,161.29 136.61,160.52 136.99,159.76C137.36,159 137.74,158.24 138.11,157.48C138.48,156.72 138.84,155.96 139.2,155.2C139.56,154.44 139.91,153.68 140.28,152.92C140.65,152.16 141.01,151.4 141.41,150.64C141.81,149.87 142.23,149.1 142.69,148.35C143.16,147.58 143.67,146.82 144.23,146.07C144.81,145.29 145.45,144.53 146.14,143.79C146.87,143.01 147.66,142.25 148.5,141.51C149.38,140.73 150.33,139.97 151.32,139.23C152.35,138.45 153.45,137.69 154.57,136.94C155.73,136.16 156.95,135.41 158.18,134.66C159.44,133.89 160.74,133.13 162.05,132.38C163.38,131.61 164.74,130.86 166.11,130.1C167.5,129.33 168.9,128.58 170.31,127.82C171.74,127.05 173.19,126.29 174.64,125.53C176.1,124.77 177.59,124.01 179.06,123.25C180.52,122.49 182.01,121.74 183.43,120.97C184.81,120.22 186.2,119.48 187.47,118.69C188.65,117.95 189.85,117.22 190.81,116.41C191.66,115.69 192.51,114.95 192.99,114.13C193.41,113.41 193.73,112.6 193.7,111.84C193.67,111.07 193.26,110.27 192.76,109.56C192.17,108.73 191.19,107.99 190.21,107.28C189.08,106.46 187.69,105.73 186.29,105C184.76,104.2 183.06,103.47 181.37,102.72C179.61,101.94 177.75,101.19 175.92,100.43C174.08,99.67 172.19,98.92 170.37,98.15C168.58,97.4 166.8,96.65 165.09,95.87C163.45,95.13 161.85,94.37 160.32,93.59C158.88,92.85 157.48,92.09 156.16,91.31C154.9,90.57 153.71,89.8 152.56,89.02C151.47,88.28 150.43,87.51 149.42,86.74C148.45,85.99 147.52,85.23 146.61,84.46C145.72,83.71 144.85,82.95 144,82.18C143.17,81.43 142.35,80.67 141.56,79.9C140.79,79.15 140.02,78.38 139.31,77.61C138.62,76.86 137.95,76.11 137.34,75.33C136.76,74.58 136.21,73.83 135.73,73.05C135.27,72.3 134.87,71.54 134.53,70.77C134.2,70.02 133.94,69.26 133.72,68.49C133.5,67.73 133.35,66.97 133.22,66.2C133.09,65.44 133.01,64.68 132.94,63.92C132.87,63.16 132.84,62.4 132.81,61.64C132.78,60.88 132.76,60.12 132.74,59.36C132.72,58.6 132.71,57.84 132.68,57.08C132.65,56.32 132.62,55.55 132.58,54.79C132.54,54.03 132.49,53.27 132.43,52.51C132.37,51.75 132.3,50.99 132.23,50.23C132.16,49.47 132.07,48.71 132,47.95C131.93,47.19 131.85,46.43 131.79,45.67C131.72,44.91 131.67,44.14 131.61,43.38C131.56,42.62 131.5,41.86 131.46,41.1C131.42,40.34 131.38,39.58 131.35,38.82C131.32,38.06 131.3,37.3 131.28,36.54C131.26,35.78 131.25,35.02 131.24,34.26C131.22,33.5 131.21,32.73 131.19,31.97C131.17,31.21 131.14,30.45 131.11,29.69C131.07,28.93 131.03,28.17 130.98,27.41C130.93,26.65 130.86,25.89 130.8,25.13C130.73,24.37 130.66,23.61 130.59,22.85C130.52,22.09 130.46,21.32 130.4,20.56C130.34,19.8 130.29,19.04 130.24,18.28Q130.2,17.52 130.13,16L129.87,16Q129.8,17.52 129.76,18.28C129.71,19.04 129.66,19.8 129.6,20.56C129.54,21.32 129.48,22.09 129.41,22.85C129.34,23.61 129.27,24.37 129.2,25.13C129.14,25.89 129.07,26.65 129.02,27.41C128.97,28.17 128.93,28.93 128.89,29.69C128.86,30.45 128.83,31.21 128.81,31.97C128.79,32.73 128.78,33.5 128.76,34.26C128.75,35.02 128.74,35.78 128.72,36.54C128.7,37.3 128.68,38.06 128.65,38.82C128.62,39.58 128.58,40.34 128.54,41.1C128.5,41.86 128.44,42.62 128.39,43.38C128.33,44.14 128.28,44.91 128.21,45.67C128.15,46.43 128.07,47.19 128,47.95C127.93,48.71 127.84,49.47 127.77,50.23C127.7,50.99 127.63,51.75 127.57,52.51C127.51,53.27 127.46,54.03 127.42,54.79C127.38,55.55 127.35,56.32 127.32,57.08C127.29,57.84 127.28,58.6 127.26,59.36C127.24,60.12 127.22,60.88 127.19,61.64C127.16,62.4 127.13,63.16 127.06,63.92C126.99,64.68 126.91,65.44 126.78,66.2C126.65,66.97 126.5,67.73 126.28,68.49C126.06,69.26 125.8,70.02 125.47,70.77C125.13,71.54 124.73,72.3 124.27,73.05C123.79,73.83 123.24,74.58 122.66,75.33C122.05,76.11 121.38,76.86 120.69,77.61C119.98,78.38 119.21,79.15 118.44,79.9C117.65,80.67 116.83,81.43 116,82.18C115.15,82.95 114.28,83.71 113.39,84.46C112.48,85.23 111.55,85.99 110.58,86.74C109.57,87.51 108.53,88.28 107.44,89.02C106.29,89.8 105.1,90.57 103.84,91.31C102.52,92.09 101.12,92.85 99.68,93.59C98.15,94.37 96.55,95.13 94.91,95.87C93.2,96.65 91.42,97.4 89.63,98.15C87.81,98.92 85.92,99.67 84.08,100.43C82.25,101.19 80.39,101.94 78.63,102.72C76.94,103.47 75.24,104.2 73.71,105C72.31,105.73 70.92,106.46 69.79,107.28C68.81,107.99 67.83,108.73 67.24,109.56C66.74,110.27 66.33,111.07 66.3,111.84C66.27,112.6 66.59,113.41 67.01,114.13C67.49,114.95 68.34,115.69 69.19,116.41C70.15,117.22 71.35,117.95 72.53,118.69C73.8,119.48 75.19,120.22 76.57,120.97C77.99,121.74 79.48,122.49 80.94,123.25C82.41,124.01 83.9,124.77 85.36,125.53C86.81,126.29 88.26,127.05 89.69,127.82C91.1,128.58 92.5,129.33 93.89,130.1C95.26,130.86 96.62,131.61 97.95,132.38C99.26,133.13 100.56,133.89 101.82,134.66C103.05,135.41 104.27,136.16 105.43,136.94C106.55,137.69 107.65,138.45 108.68,139.23C109.67,139.97 110.62,140.73 111.5,141.51C112.34,142.25 113.13,143.01 113.86,143.79C114.55,144.53 115.19,145.29 115.77,146.07C116.33,146.82 116.84,147.58 117.31,148.35C117.77,149.1 118.19,149.87 118.59,150.64C118.99,151.4 119.35,152.16 119.72,152.92C120.09,153.68 120.44,154.44 120.8,155.2C121.16,155.96 121.52,156.72 121.89,157.48C122.26,158.24 122.64,159 123.01,159.76C123.39,160.52 123.77,161.29 124.14,162.05C124.51,162.81 124.89,163.57 125.24,164.33C125.59,165.09 125.93,165.85 126.25,166.61C126.57,167.37 126.86,168.13 127.14,168.89C127.42,169.65 127.68,170.41 127.91,171.17C128.14,171.93 128.35,172.7 128.54,173.46C128.73,174.22 128.89,174.98 129.04,175.74C129.18,176.5 129.31,177.26 129.41,178.02C129.51,178.78 129.59,179.54 129.66,180.3C129.73,181.06 129.78,181.82 129.82,182.58C129.86,183.34 129.9,184.11 129.92,184.87C129.94,185.63 129.95,186.39 129.96,187.15C129.97,187.91 129.99,188.67 129.99,189.43C129.99,190.19 129.99,190.95 129.99,191.71C129.99,192.47 130,193.23 130,193.99C130,194.75 130,195.52 130,196.28C130,197.04 129.99,197.8 129.99,198.56C129.98,199.32 129.98,200.08 129.97,200.84C129.96,201.6 129.95,202.36 129.94,203.12C129.92,203.88 129.91,204.64 129.88,205.4C129.85,206.16 129.81,206.93 129.77,207.69C129.73,208.45 129.67,209.21 129.62,209.97C129.56,210.73 129.5,211.49 129.44,212.25C129.38,213.01 129.31,213.77 129.25,214.53C129.2,215.29 129.14,216.05 129.11,216.81C129.08,217.57 129.05,218.34 129.05,219.1C129.05,219.86 129.06,220.62 129.09,221.38C129.12,222.14 129.17,222.9 129.22,223.66C129.27,224.42 129.35,225.18 129.41,225.94C129.47,226.7 129.54,227.46 129.59,228.22C129.65,228.98 129.7,229.75 129.74,230.51C129.78,231.27 129.81,232.03 129.83,232.79C129.85,233.55 129.86,234.31 129.86,235.07C129.86,235.83 129.84,236.59 129.82,237.35C129.8,238.11 129.76,238.87 129.72,239.63C129.68,240.39 129.63,241.16 129.57,241.92C129.51,242.68 129.44,243.44 129.38,244.2C129.32,244.96 129.25,245.72 129.2,246.48C129.15,247.24 129.1,248 129.08,248.76C129.06,249.52 129.04,250.28 129.05,251.04C129.06,251.8 129.09,252.57 129.13,253.33C129.17,254.09 129.23,254.85 129.28,255.61C129.34,256.37 129.4,257.13 129.46,257.89C129.52,258.65 129.59,259.41 129.65,260.17C129.7,260.93 129.75,261.69 129.79,262.45C129.83,263.21 129.85,263.98 129.88,264.74C129.9,265.5 129.93,266.26 129.94,267.02C129.95,267.78 129.95,268.54 129.95,269.3C129.95,270.06 129.93,270.82 129.91,271.58C129.89,272.34 129.86,273.1 129.81,273.86C129.76,274.62 129.7,275.39 129.61,276.15C129.52,276.91 129.41,277.67 129.28,278.43C129.15,279.19 128.99,279.95 128.82,280.71C128.65,281.47 128.45,282.23 128.26,282.99C128.08,283.75 127.87,284.51 127.71,285.27C127.55,286.03 127.39,286.79 127.3,287.56C127.21,288.32 127.15,289.08 127.15,289.84C127.15,290.6 127.22,291.36 127.31,292.12C127.41,292.88 127.56,293.64 127.72,294.4C127.88,295.16 128.09,295.92 128.27,296.68C128.46,297.44 128.66,298.21 128.83,298.97C129,299.73 129.16,300.49 129.29,301.25Q129.42,302.01 129.61,303.53Z" style="vector-effect: non-scaling-stroke; stroke-width: 2px; stroke: rgb(31, 119, 180); stroke-opacity: 1; fill: rgb(31, 119, 180); fill-opacity: 0.5;"/><path class="box" d="M114.08,113.91H145.93M114.08,127.35H145.93V102.62H114.08ZM130,127.35V163.65M130,102.62V68.45" style="vector-effect: non-scaling-stroke; stroke-width: 2px; stroke: rgb(31, 119, 180); stroke-opacity: 1; fill: rgb(31, 119, 180); fill-opacity: 0.5;"/><path class="mean" d="M114.08,117.49H145.93" style="fill: none; vector-effect: non-scaling-stroke; stroke-width: 2px; stroke-dasharray: 4px, 2px; stroke: rgb(31, 119, 180); stroke-opacity: 1;"/><g class="points"><path class="point" transform="translate(130,289.82)" d="M3,0A3,3 0 1,1 0,-3A3,3 0 0,1 3,0Z" style="opacity: 1; stroke-width: 0px; fill: rgb(31, 119, 180); fill-opacity: 1;"/><path class="point" transform="translate(130,289.82)" d="M3,0A3,3 0 1,1 0,-3A3,3 0 0,1 3,0Z" style="opacity: 1; stroke-width: 0px; fill: rgb(31, 119, 180); fill-opacity: 1;"/><path class="point" transform="translate(130,289.82)" d="M3,0A3,3 0 1,1 0,-3A3,3 0 0,1 3,0Z" style="opacity: 1; stroke-width: 0px; fill: rgb(31, 119, 180); fill-opacity: 1;"/><path class="point" transform="translate(130,250.54)" d="M3,0A3,3 0 1,1 0,-3A3,3 0 0,1 3,0Z" style="opacity: 1; stroke-width: 0px; fill: rgb(31, 119, 180); fill-opacity: 1;"/><path class="point" transform="translate(130,219.29)" d="M3,0A3,3 0 1,1 0,-3A3,3 0 0,1 3,0Z" style="opacity: 1; stroke-width: 0px; fill: rgb(31, 119, 180); fill-opacity: 1;"/><path class="point" transform="translate(130,169.4)" d="M3,0A3,3 0 1,1 0,-3A3,3 0 0,1 3,0Z" style="opacity: 1; stroke-width: 0px; fill: rgb(31, 119, 180); fill-opacity: 1;"/><path class="point" transform="translate(130,64.26)" d="M3,0A3,3 0 1,1 0,-3A3,3 0 0,1 3,0Z" style="opacity: 1; stroke-width: 0px; fill: rgb(31, 119, 180); fill-opacity: 1;"/><path class="point" transform="translate(130,55.56)" d="M3,0A3,3 0 1,1 0,-3A3,3 0 0,1 3,0Z" style="opacity: 1; stroke-width: 0px; fill: rgb(31, 119, 180); fill-opacity: 1;"/><path class="point" transform="translate(130,53.45)" d="M3,0A3,3 0 1,1 0,-3A3,3 0 0,1 3,0Z" style="opacity: 1; stroke-width: 0px; fill: rgb(31, 119, 180); fill-opacity: 1;"/><path class="point" transform="translate(130,42.68)" d="M3,0A3,3 0 1,1 0,-3A3,3 0 0,1 3,0Z" style="opacity: 1; stroke-width: 0px; fill: rgb(31, 119, 180); fill-opacity: 1;"/><path class="point" transform="translate(130,29.71)" d="M3,0A3,3 0 1,1 0,-3A3,3 0 0,1 3,0Z" style="opacity: 1; stroke-width: 0px; fill: rgb(31, 119, 180); fill-opacity: 1;"/></g></g><g class="trace violins" style="opacity: 1;"><path class="violin" d="M390.38,304Q390.57,302.43 390.7,301.64C390.83,300.85 390.98,300.06 391.15,299.27C391.32,298.48 391.52,297.7 391.7,296.91C391.88,296.12 392.09,295.34 392.25,294.55C392.41,293.76 392.57,292.97 392.66,292.18C392.75,291.39 392.81,290.61 392.81,289.82C392.81,289.03 392.75,288.24 392.66,287.45C392.57,286.66 392.41,285.87 392.25,285.09C392.09,284.3 391.88,283.52 391.7,282.73C391.52,281.94 391.32,281.15 391.15,280.36C390.98,279.57 390.83,278.79 390.7,278C390.57,277.22 390.47,276.43 390.38,275.64C390.3,274.85 390.24,274.06 390.19,273.27C390.14,272.48 390.12,271.7 390.1,270.91C390.08,270.12 390.07,269.33 390.07,268.54C390.07,267.75 390.07,266.97 390.09,266.18C390.11,265.39 390.14,264.61 390.17,263.82C390.2,263.03 390.24,262.24 390.29,261.45C390.34,260.66 390.39,259.88 390.45,259.09C390.51,258.3 390.58,257.52 390.64,256.73C390.7,255.94 390.76,255.15 390.81,254.36C390.86,253.57 390.9,252.79 390.92,252C390.94,251.21 390.94,250.42 390.93,249.63C390.92,248.84 390.88,248.06 390.84,247.27C390.8,246.48 390.74,245.7 390.68,244.91C390.62,244.12 390.56,243.33 390.5,242.54C390.44,241.75 390.38,240.97 390.33,240.18C390.28,239.39 390.25,238.61 390.22,237.82C390.19,237.03 390.17,236.24 390.17,235.45C390.17,234.66 390.17,233.88 390.19,233.09C390.21,232.3 390.23,231.52 390.27,230.73C390.31,229.94 390.36,229.15 390.42,228.36C390.47,227.57 390.54,226.79 390.6,226C390.66,225.21 390.73,224.42 390.78,223.63C390.83,222.84 390.88,222.06 390.9,221.27C390.92,220.48 390.93,219.7 390.93,218.91C390.93,218.12 390.91,217.33 390.87,216.54C390.84,215.75 390.77,214.97 390.72,214.18C390.66,213.39 390.6,212.61 390.54,211.82C390.48,211.03 390.42,210.24 390.36,209.45C390.31,208.66 390.25,207.88 390.21,207.09C390.17,206.3 390.14,205.51 390.11,204.72C390.08,203.93 390.07,203.15 390.05,202.36C390.04,201.57 390.03,200.79 390.02,200C390.01,199.21 390.01,198.42 390.01,197.63C390.01,196.84 390,196.06 390,195.27C390,194.48 390,193.7 390,192.91C390,192.12 390,191.33 390.01,190.54C390.01,189.75 390.02,188.97 390.03,188.18C390.04,187.39 390.05,186.6 390.07,185.81C390.09,185.02 390.12,184.24 390.16,183.45C390.2,182.66 390.25,181.88 390.31,181.09C390.38,180.3 390.45,179.51 390.55,178.72C390.65,177.93 390.77,177.14 390.91,176.36C391.05,175.57 391.21,174.78 391.4,174C391.59,173.21 391.8,172.42 392.03,171.63C392.27,170.84 392.53,170.05 392.81,169.27C393.1,168.48 393.41,167.69 393.74,166.9C394.07,166.11 394.42,165.32 394.78,164.54C395.14,163.75 395.53,162.97 395.92,162.18C396.31,161.39 396.71,160.6 397.1,159.81C397.49,159.02 397.88,158.24 398.27,157.45C398.66,156.66 399.04,155.88 399.43,155.09C399.82,154.3 400.2,153.51 400.6,152.72C401,151.93 401.39,151.14 401.83,150.36C402.27,149.57 402.74,148.78 403.25,148C403.78,147.2 404.34,146.4 404.97,145.63C405.62,144.83 406.33,144.04 407.09,143.27C407.89,142.46 408.77,141.67 409.68,140.9C410.64,140.09 411.66,139.31 412.72,138.54C413.82,137.74 414.98,136.96 416.16,136.18C417.38,135.38 418.64,134.59 419.91,133.81C421.2,133.01 422.53,132.23 423.86,131.45C425.21,130.66 426.58,129.87 427.96,129.09C429.36,128.3 430.76,127.5 432.19,126.72C433.63,125.93 435.1,125.15 436.57,124.36C438.04,123.57 439.54,122.78 441.01,121.99C442.46,121.21 443.93,120.44 445.31,119.63C446.63,118.86 447.95,118.1 449.11,117.27C450.17,116.51 451.23,115.75 452.01,114.9C452.69,114.16 453.35,113.37 453.62,112.54C453.87,111.79 453.91,110.94 453.7,110.18C453.47,109.35 452.85,108.55 452.19,107.81C451.42,106.95 450.33,106.2 449.22,105.45C447.98,104.61 446.52,103.84 445.06,103.08C443.49,102.26 441.78,101.49 440.07,100.72C438.3,99.92 436.45,99.15 434.63,98.36C432.79,97.57 430.92,96.78 429.09,95.99C427.29,95.21 425.48,94.43 423.74,93.63C422.05,92.86 420.39,92.08 418.8,91.27C417.29,90.5 415.81,89.71 414.42,88.9C413.11,88.13 411.85,87.35 410.66,86.54C409.54,85.77 408.47,84.99 407.46,84.18C406.49,83.41 405.59,82.61 404.71,81.81C403.85,81.03 403.03,80.25 402.23,79.45C401.44,78.67 400.67,77.88 399.92,77.08C399.19,76.3 398.46,75.52 397.78,74.72C397.12,73.94 396.46,73.16 395.88,72.36C395.32,71.58 394.78,70.8 394.34,69.99C393.92,69.22 393.54,68.43 393.26,67.63C392.99,66.86 392.78,66.06 392.65,65.27C392.52,64.49 392.48,63.69 392.47,62.9C392.46,62.11 392.53,61.33 392.58,60.54C392.63,59.75 392.73,58.96 392.78,58.17C392.83,57.38 392.88,56.6 392.88,55.81C392.88,55.02 392.85,54.24 392.78,53.45C392.71,52.66 392.57,51.87 392.43,51.08C392.29,50.29 392.1,49.51 391.92,48.72C391.74,47.93 391.55,47.15 391.37,46.36C391.2,45.57 391.02,44.78 390.87,43.99C390.73,43.2 390.6,42.42 390.5,41.63Q390.4,40.84 390.26,39.26L389.74,39.26Q389.6,40.84 389.5,41.63C389.4,42.42 389.27,43.2 389.13,43.99C388.98,44.78 388.8,45.57 388.63,46.36C388.45,47.15 388.26,47.93 388.08,48.72C387.9,49.51 387.71,50.29 387.57,51.08C387.43,51.87 387.29,52.66 387.22,53.45C387.15,54.24 387.12,55.02 387.12,55.81C387.12,56.6 387.17,57.38 387.22,58.17C387.27,58.96 387.37,59.75 387.42,60.54C387.47,61.33 387.54,62.11 387.53,62.9C387.52,63.69 387.48,64.49 387.35,65.27C387.22,66.06 387.01,66.86 386.74,67.63C386.46,68.43 386.08,69.22 385.66,69.99C385.22,70.8 384.68,71.58 384.12,72.36C383.54,73.16 382.88,73.94 382.22,74.72C381.54,75.52 380.81,76.3 380.08,77.08C379.33,77.88 378.56,78.67 377.77,79.45C376.97,80.25 376.15,81.03 375.29,81.81C374.41,82.61 373.51,83.41 372.54,84.18C371.53,84.99 370.46,85.77 369.34,86.54C368.15,87.35 366.89,88.13 365.58,88.9C364.19,89.71 362.71,90.5 361.2,91.27C359.61,92.08 357.95,92.86 356.26,93.63C354.52,94.43 352.71,95.21 350.91,95.99C349.08,96.78 347.21,97.57 345.37,98.36C343.55,99.15 341.7,99.92 339.93,100.72C338.22,101.49 336.51,102.26 334.94,103.08C333.48,103.84 332.02,104.61 330.78,105.45C329.67,106.2 328.58,106.95 327.81,107.81C327.15,108.55 326.53,109.35 326.3,110.18C326.09,110.94 326.13,111.79 326.38,112.54C326.65,113.37 327.31,114.16 327.99,114.9C328.77,115.75 329.83,116.51 330.89,117.27C332.05,118.1 333.37,118.86 334.69,119.63C336.07,120.44 337.54,121.21 338.99,121.99C340.46,122.78 341.96,123.57 343.43,124.36C344.9,125.15 346.37,125.93 347.81,126.72C349.24,127.5 350.64,128.3 352.04,129.09C353.42,129.87 354.79,130.66 356.14,131.45C357.47,132.23 358.8,133.01 360.09,133.81C361.36,134.59 362.62,135.38 363.84,136.18C365.02,136.96 366.18,137.74 367.28,138.54C368.34,139.31 369.36,140.09 370.32,140.9C371.23,141.67 372.11,142.46 372.91,143.27C373.67,144.04 374.38,144.83 375.03,145.63C375.66,146.4 376.22,147.2 376.75,148C377.26,148.78 377.73,149.57 378.17,150.36C378.61,151.14 379,151.93 379.4,152.72C379.8,153.51 380.18,154.3 380.57,155.09C380.96,155.88 381.34,156.66 381.73,157.45C382.12,158.24 382.51,159.02 382.9,159.81C383.29,160.6 383.69,161.39 384.08,162.18C384.47,162.97 384.86,163.75 385.22,164.54C385.58,165.32 385.93,166.11 386.26,166.9C386.59,167.69 386.9,168.48 387.19,169.27C387.47,170.05 387.73,170.84 387.97,171.63C388.2,172.42 388.41,173.21 388.6,174C388.79,174.78 388.95,175.57 389.09,176.36C389.23,177.14 389.35,177.93 389.45,178.72C389.55,179.51 389.62,180.3 389.69,181.09C389.75,181.88 389.8,182.66 389.84,183.45C389.88,184.24 389.91,185.02 389.93,185.81C389.95,186.6 389.96,187.39 389.97,188.18C389.98,188.97 389.99,189.75 389.99,190.54C390,191.33 390,192.12 390,192.91C390,193.7 390,194.48 390,195.27C390,196.06 389.99,196.84 389.99,197.63C389.99,198.42 389.99,199.21 389.98,200C389.97,200.79 389.96,201.57 389.95,202.36C389.93,203.15 389.92,203.93 389.89,204.72C389.86,205.51 389.83,206.3 389.79,207.09C389.75,207.88 389.69,208.66 389.64,209.45C389.58,210.24 389.52,211.03 389.46,211.82C389.4,212.61 389.34,213.39 389.28,214.18C389.23,214.97 389.16,215.75 389.13,216.54C389.09,217.33 389.07,218.12 389.07,218.91C389.07,219.7 389.08,220.48 389.1,221.27C389.12,222.06 389.17,222.84 389.22,223.63C389.27,224.42 389.34,225.21 389.4,226C389.46,226.79 389.53,227.57 389.58,228.36C389.64,229.15 389.69,229.94 389.73,230.73C389.77,231.52 389.79,232.3 389.81,233.09C389.83,233.88 389.83,234.66 389.83,235.45C389.83,236.24 389.81,237.03 389.78,237.82C389.75,238.61 389.72,239.39 389.67,240.18C389.62,240.97 389.56,241.75 389.5,242.54C389.44,243.33 389.38,244.12 389.32,244.91C389.26,245.7 389.2,246.48 389.16,247.27C389.12,248.06 389.08,248.84 389.07,249.63C389.06,250.42 389.06,251.21 389.08,252C389.1,252.79 389.14,253.57 389.19,254.36C389.24,255.15 389.3,255.94 389.36,256.73C389.42,257.52 389.49,258.3 389.55,259.09C389.61,259.88 389.66,260.66 389.71,261.45C389.76,262.24 389.8,263.03 389.83,263.82C389.86,264.61 389.89,265.39 389.91,266.18C389.93,266.97 389.93,267.75 389.93,268.54C389.93,269.33 389.92,270.12 389.9,270.91C389.88,271.7 389.86,272.48 389.81,273.27C389.76,274.06 389.7,274.85 389.62,275.64C389.53,276.43 389.43,277.22 389.3,278C389.17,278.79 389.02,279.57 388.85,280.36C388.68,281.15 388.48,281.94 388.3,282.73C388.12,283.52 387.91,284.3 387.75,285.09C387.59,285.87 387.43,286.66 387.34,287.45C387.25,288.24 387.19,289.03 387.19,289.82C387.19,290.61 387.25,291.39 387.34,292.18C387.43,292.97 387.59,293.76 387.75,294.55C387.91,295.34 388.12,296.12 388.3,296.91C388.48,297.7 388.68,298.48 388.85,299.27C389.02,300.06 389.17,300.85 389.3,301.64Q389.43,302.43 389.62,304Z" style="vector-effect: non-scaling-stroke; stroke-width: 2px; stroke: rgb(255, 127, 14); stroke-opacity: 1; fill: rgb(255, 127, 14); fill-opacity: 0.5;"/><path class="box" d="M374.08,113.37H405.93M374.08,127.35H405.93V101.77H374.08ZM390,127.35V163.65M390,101.77V70.98" style="vector-effect: non-scaling-stroke; stroke-width: 2px; stroke: rgb(255, 127, 14); stroke-opacity: 1; fill: rgb(255, 127, 14); fill-opacity: 0.5;"/><path class="mean" d="M374.08,117.82H405.93" style="fill: none; vector-effect: non-scaling-stroke; stroke-width: 2px; stroke-dasharray: 4px, 2px; stroke: rgb(255, 127, 14); stroke-opacity: 1;"/><g class="points"><path class="point" transform="translate(390,289.82)" d="M3,0A3,3 0 1,1 0,-3A3,3 0 0,1 3,0Z" style="opacity: 1; stroke-width: 0px; fill: rgb(255, 127, 14); fill-opacity: 1;"/><path class="point" transform="translate(390,289.82)" d="M3,0A3,3 0 1,1 0,-3A3,3 0 0,1 3,0Z" style="opacity: 1; stroke-width: 0px; fill: rgb(255, 127, 14); fill-opacity: 1;"/><path class="point" transform="translate(390,289.82)" d="M3,0A3,3 0 1,1 0,-3A3,3 0 0,1 3,0Z" style="opacity: 1; stroke-width: 0px; fill: rgb(255, 127, 14); fill-opacity: 1;"/><path class="point" transform="translate(390,250.54)" d="M3,0A3,3 0 1,1 0,-3A3,3 0 0,1 3,0Z" style="opacity: 1; stroke-width: 0px; fill: rgb(255, 127, 14); fill-opacity: 1;"/><path class="point" transform="translate(390,219.29)" d="M3,0A3,3 0 1,1 0,-3A3,3 0 0,1 3,0Z" style="opacity: 1; stroke-width: 0px; fill: rgb(255, 127, 14); fill-opacity: 1;"/><path class="point" transform="translate(390,169.4)" d="M3,0A3,3 0 1,1 0,-3A3,3 0 0,1 3,0Z" style="opacity: 1; stroke-width: 0px; fill: rgb(255, 127, 14); fill-opacity: 1;"/><path class="point" transform="translate(390,55.72)" d="M3,0A3,3 0 1,1 0,-3A3,3 0 0,1 3,0Z" style="opacity: 1; stroke-width: 0px; fill: rgb(255, 127, 14); fill-opacity: 1;"/><path class="point" transform="translate(390,55.56)" d="M3,0A3,3 0 1,1 0,-3A3,3 0 0,1 3,0Z" style="opacity: 1; stroke-width: 0px; fill: rgb(255, 127, 14); fill-opacity: 1;"/><path class="point" transform="translate(390,53.45)" d="M3,0A3,3 0 1,1 0,-3A3,3 0 0,1 3,0Z" style="opacity: 1; stroke-width: 0px; fill: rgb(255, 127, 14); fill-opacity: 1;"/></g></g></g></g><g class="overplot"/><path class="xlines-above crisp" d="M79,420.5H600" style="fill: none; stroke-width: 1px; stroke: rgb(36, 36, 36); stroke-opacity: 1;"/><path class="ylines-above crisp" d="M79.5,100V420" style="fill: none; stroke-width: 1px; stroke: rgb(36, 36, 36); stroke-opacity: 1;"/><g class="overlines-above"/><g class="xaxislayer-above"><path class="xtick ticks crisp" d="M0,421v5" transform="translate(210,0)" style="stroke: rgb(68, 68, 68); stroke-opacity: 1; stroke-width: 1px;"/><path class="xtick ticks crisp" d="M0,421v5" transform="translate(470,0)" style="stroke: rgb(68, 68, 68); stroke-opacity: 1; stroke-width: 1px;"/><g class="xtick"><text text-anchor="middle" x="0" y="440.4" transform="translate(210,0)" style="font-family: 'Open Sans', verdana, arial, sans-serif; font-size: 12px; fill: rgb(36, 36, 36); fill-opacity: 1; white-space: pre; opacity: 1;">Ab24</text></g><g class="xtick"><text text-anchor="middle" x="0" y="440.4" transform="translate(470,0)" style="font-family: 'Open Sans', verdana, arial, sans-serif; font-size: 12px; fill: rgb(36, 36, 36); fill-opacity: 1; white-space: pre; opacity: 1;">Ab6</text></g></g><g class="yaxislayer-above"><path class="ytick ticks crisp" d="M79,0h-5" transform="translate(0,389.82)" style="stroke: rgb(68, 68, 68); stroke-opacity: 1; stroke-width: 1px;"/><path class="ytick ticks crisp" d="M79,0h-5" transform="translate(0,341.01)" style="stroke: rgb(68, 68, 68); stroke-opacity: 1; stroke-width: 1px;"/><path class="ytick ticks crisp" d="M79,0h-5" transform="translate(0,292.21000000000004)" style="stroke: rgb(68, 68, 68); stroke-opacity: 1; stroke-width: 1px;"/><path class="ytick ticks crisp" d="M79,0h-5" transform="translate(0,243.4)" style="stroke: rgb(68, 68, 68); stroke-opacity: 1; stroke-width: 1px;"/><path class="ytick ticks crisp" d="M79,0h-5" transform="translate(0,194.6)" style="stroke: rgb(68, 68, 68); stroke-opacity: 1; stroke-width: 1px;"/><path class="ytick ticks crisp" d="M79,0h-5" transform="translate(0,145.79)" style="stroke: rgb(68, 68, 68); stroke-opacity: 1; stroke-width: 1px;"/><g class="ytick"><text text-anchor="end" x="71.6" y="4.199999999999999" transform="translate(0,389.82)" style="font-family: 'Open Sans', verdana, arial, sans-serif; font-size: 12px; fill: rgb(36, 36, 36); fill-opacity: 1; white-space: pre; opacity: 1;">0</text></g><g class="ytick"><text text-anchor="end" x="71.6" y="4.199999999999999" style="font-family: 'Open Sans', verdana, arial, sans-serif; font-size: 12px; fill: rgb(36, 36, 36); fill-opacity: 1; white-space: pre; opacity: 1;" transform="translate(0,341.01)">2</text></g><g class="ytick"><text text-anchor="end" x="71.6" y="4.199999999999999" style="font-family: 'Open Sans', verdana, arial, sans-serif; font-size: 12px; fill: rgb(36, 36, 36); fill-opacity: 1; white-space: pre; opacity: 1;" transform="translate(0,292.21000000000004)">4</text></g><g class="ytick"><text text-anchor="end" x="71.6" y="4.199999999999999" style="font-family: 'Open Sans', verdana, arial, sans-serif; font-size: 12px; fill: rgb(36, 36, 36); fill-opacity: 1; white-space: pre; opacity: 1;" transform="translate(0,243.4)">6</text></g><g class="ytick"><text text-anchor="end" x="71.6" y="4.199999999999999" style="font-family: 'Open Sans', verdana, arial, sans-serif; font-size: 12px; fill: rgb(36, 36, 36); fill-opacity: 1; white-space: pre; opacity: 1;" transform="translate(0,194.6)">8</text></g><g class="ytick"><text text-anchor="end" x="71.6" y="4.199999999999999" style="font-family: 'Open Sans', verdana, arial, sans-serif; font-size: 12px; fill: rgb(36, 36, 36); fill-opacity: 1; white-space: pre; opacity: 1;" transform="translate(0,145.79)">10</text></g></g><g class="overaxes-above"/></g></g><g class="polarlayer"/><g class="ternarylayer"/><g class="geolayer"/><g class="funnelarealayer"/><g class="pielayer"/><g class="iciclelayer"/><g class="treemaplayer"/><g class="sunburstlayer"/><g class="glimages"/><defs id="topdefs-344c3d"><g class="clips"/><clipPath id="legend344c3d"><rect width="78" height="48" x="0" y="0"/></clipPath></defs><g class="layer-above"><g class="imagelayer"/><g class="shapelayer"/></g><g class="infolayer"><g class="legend" pointer-events="all" transform="translate(610.4,100)"><rect class="bg" shape-rendering="crispEdges" width="78" height="48" x="0" y="0" style="stroke: rgb(68, 68, 68); stroke-opacity: 1; fill: rgb(255, 255, 255); fill-opacity: 1; stroke-width: 0px;"/><g class="scrollbox" transform="" clip-path="url(#legend344c3d)"><g class="groups"><g class="traces" transform="translate(0,14.5)" style="opacity: 1;"><text class="legendtext" text-anchor="start" x="40" y="4.680000000000001" style="font-family: 'Open Sans', verdana, arial, sans-serif; font-size: 12px; fill: rgb(36, 36, 36); fill-opacity: 1; white-space: pre;">Ab24</text><g class="layers" style="opacity: 1;"><g class="legendfill"/><g class="legendlines"/><g class="legendsymbols"><g class="legendpoints"><path class="legendbox" d="M6,6H-6V-6H6Z" transform="translate(20,0)" style="stroke-width: 2px; fill: rgb(31, 119, 180); fill-opacity: 0.5; stroke: rgb(31, 119, 180); stroke-opacity: 1;"/></g></g></g><rect class="legendtoggle" x="0" y="-9.5" width="72.3125" height="19" style="fill: rgb(0, 0, 0); fill-opacity: 0;"/></g><g class="traces" transform="translate(0,33.5)" style="opacity: 1;"><text class="legendtext" text-anchor="start" x="40" y="4.680000000000001" style="font-family: 'Open Sans', verdana, arial, sans-serif; font-size: 12px; fill: rgb(36, 36, 36); fill-opacity: 1; white-space: pre;">Ab6</text><g class="layers" style="opacity: 1;"><g class="legendfill"/><g class="legendlines"/><g class="legendsymbols"><g class="legendpoints"><path class="legendbox" d="M6,6H-6V-6H6Z" transform="translate(20,0)" style="stroke-width: 2px; fill: rgb(255, 127, 14); fill-opacity: 0.5; stroke: rgb(255, 127, 14); stroke-opacity: 1;"/></g></g></g><rect class="legendtoggle" x="0" y="-9.5" width="72.3125" height="19" style="fill: rgb(0, 0, 0); fill-opacity: 0;"/></g></g></g><rect class="scrollbar" rx="20" ry="3" width="0" height="0" x="0" y="0" style="fill: rgb(128, 139, 164); fill-opacity: 1;"/></g><g class="g-gtitle"><text class="gtitle" x="35" y="50" text-anchor="start" dy="0em" style="font-family: 'Open Sans', verdana, arial, sans-serif; font-size: 17px; fill: rgb(36, 36, 36); opacity: 1; font-weight: normal; white-space: pre;">Distribution of protein log abundances</text></g><g class="g-xtitle"/><g class="g-ytitle"/></g></svg>