<svg class="main-svg" xmlns="http://www.w3.org/2000/svg" xmlns:xlink="http://www.w3.org/1999/xlink" width="700" height="500" style="" viewBox="0 0 700 500"><rect x="0" y="0" width="700" height="500" style="fill: rgb(17, 17, 17); fill-opacity: 1;"/><defs id="defs-7ec377"><g class="clips"><clipPath id="clip7ec377xyplot" class="plotclip"><rect width="520" height="320"/></clipPath><clipPath class="axesclip" id="clip7ec377x"><rect x="80" y="0" width="520" height="500"/></clipPath><clipPath class="axesclip" id="clip7ec377y"><rect x="0" y="100" width="700" height="320"/></clipPath><clipPath class="axesclip" id="clip7ec377xy"><rect x="80" y="100" width="520" height="320"/></clipPath></g><g class="gradients"/><g class="patterns"/></defs><g class="bglayer"/><g class="layer-below"><g class="imagelayer"/><g class="shapelayer"/></g><g class="cartesianlayer"><g class="subplot xy"><g class="layer-subplot"><g class="shapelayer"/><g class="imagelayer"/></g><g class="gridlayer"><g class="x"/><g class="y"><path class="ygrid crisp" transform="translate(0,382.32)" d="M80,0h520" style="stroke: rgb(40, 52, 66); stroke-opacity: 1; stroke-width: 1px;"/><path class="ygrid crisp" transform="translate(0,342.94)" d="M80,0h520" style="stroke: rgb(40, 52, 66); stroke-opacity: 1; stroke-width: 1px;"/><path class="ygrid crisp" transform="translate(0,303.56)" d="M80,0h520" style="stroke: rgb(40, 52, 66); stroke-opacity: 1; stroke-width: 1px;"/><path class="ygrid crisp" transform="translate(0,264.18)" d="M80,0h520" style="stroke: rgb(40, 52, 66); stroke-opacity: 1; stroke-width: 1px;"/><path class="ygrid crisp" transform="translate(0,224.81)" d="M80,0h520" style="stroke: rgb(40, 52, 66); stroke-opacity: 1; stroke-width: 1px;"/><path class="ygrid crisp" transform="translate(0,185.43)" d="M80,0h520" style="stroke: rgb(40, 52, 66); stroke-opacity: 1; stroke-width: 1px;"/><path class="ygrid crisp" transform="translate(0,146.05)" d="M80,0h520" style="stroke: rgb(40, 52, 66); stroke-opacity: 1; stroke-width: 1px;"/><path class="ygrid crisp" transform="translate(0,106.67)" d="M80,0h520" style="stroke: rgb(40, 52, 66); stroke-opacity: 1; stroke-width: 1px;"/></g></g><g class="zerolinelayer"/><path class="xlines-below"/><path class="ylines-below"/><g class="overlines-below"/><g class="xaxislayer-below"/><g class="yaxislayer-below"/><g class="overaxes-below"/><g class="plot" transform="translate(80,100)" clip-path="url(#clip7ec377xyplot)"><g class="violinlayer mlayer"><g class="trace violins" style="opacity: 1;"><path class="violin" d="M134.15,304Q136.32,299.1 137.77,296.74C139.3,294.25 141.17,291.84 143.19,289.49C145.34,286.99 147.84,284.6 150.37,282.23C153,279.76 155.92,277.39 158.71,274.98C161.52,272.56 164.49,270.18 167.18,267.72C169.78,265.34 172.39,262.97 174.61,260.47C176.7,258.12 178.64,255.71 180.2,253.21C181.67,250.86 182.84,248.41 183.81,245.95C184.74,243.57 185.33,241.13 185.94,238.7C186.54,236.29 186.93,233.86 187.44,231.44C187.95,229.02 188.43,226.6 188.99,224.19C189.55,221.77 190.2,219.35 190.8,216.93C191.39,214.51 192.08,212.11 192.56,209.68C193.04,207.27 193.51,204.85 193.7,202.42C193.89,200.01 193.91,197.58 193.69,195.17C193.47,192.74 192.98,190.31 192.37,187.91C191.75,185.47 190.86,183.05 189.97,180.65C189.07,178.22 188,175.82 187.02,173.4C186.04,170.98 185,168.57 184.07,166.14C183.15,163.73 182.27,161.32 181.45,158.89C180.64,156.48 179.92,154.05 179.18,151.63C178.44,149.21 177.77,146.79 177,144.38C176.22,141.95 175.44,139.52 174.52,137.12C173.58,134.68 172.56,132.26 171.41,129.86C170.24,127.42 168.93,125.01 167.55,122.61C166.14,120.17 164.6,117.76 163.05,115.35C161.48,112.92 159.82,110.52 158.19,108.1C156.56,105.68 154.88,103.27 153.29,100.84C151.71,98.43 150.14,96.03 148.68,93.59C147.24,91.19 145.84,88.77 144.56,86.33C143.3,83.93 142.11,81.52 141.03,79.08C139.96,76.68 138.98,74.25 138.09,71.82C137.21,69.41 136.41,66.99 135.7,64.56C134.99,62.15 134.38,59.74 133.83,57.31C133.29,54.9 132.82,52.47 132.42,50.05C132.02,47.64 131.7,45.22 131.43,42.8C131.16,40.38 130.95,37.96 130.78,35.54Q130.61,33.12 130.4,28.29L129.6,28.29Q129.39,33.12 129.22,35.54C129.05,37.96 128.84,40.38 128.57,42.8C128.3,45.22 127.98,47.64 127.58,50.05C127.18,52.47 126.71,54.9 126.17,57.31C125.62,59.74 125.01,62.15 124.3,64.56C123.59,66.99 122.79,69.41 121.91,71.82C121.02,74.25 120.04,76.68 118.97,79.08C117.89,81.52 116.7,83.93 115.44,86.33C114.16,88.77 112.76,91.19 111.32,93.59C109.86,96.03 108.29,98.43 106.71,100.84C105.12,103.27 103.44,105.68 101.81,108.1C100.18,110.52 98.52,112.92 96.95,115.35C95.4,117.76 93.86,120.17 92.45,122.61C91.07,125.01 89.76,127.42 88.59,129.86C87.44,132.26 86.42,134.68 85.48,137.12C84.56,139.52 83.78,141.95 83,144.38C82.23,146.79 81.56,149.21 80.82,151.63C80.08,154.05 79.36,156.48 78.55,158.89C77.73,161.32 76.85,163.73 75.93,166.14C75,168.57 73.96,170.98 72.98,173.4C72,175.82 70.93,178.22 70.03,180.65C69.14,183.05 68.25,185.47 67.63,187.91C67.02,190.31 66.53,192.74 66.31,195.17C66.09,197.58 66.11,200.01 66.3,202.42C66.49,204.85 66.96,207.27 67.44,209.68C67.92,212.11 68.61,214.51 69.2,216.93C69.8,219.35 70.45,221.77 71.01,224.19C71.57,226.6 72.05,229.02 72.56,231.44C73.07,233.86 73.46,236.29 74.06,238.7C74.67,241.13 75.26,243.57 76.19,245.95C77.16,248.41 78.33,250.86 79.8,253.21C81.36,255.71 83.3,258.12 85.39,260.47C87.61,262.97 90.22,265.34 92.82,267.72C95.51,270.18 98.48,272.56 101.29,274.98C104.08,277.39 107,279.76 109.63,282.23C112.16,284.6 114.66,286.99 116.81,289.49C118.83,291.84 120.7,294.25 122.23,296.74Q123.68,299.1 125.85,304Z" style="vector-effect: non-scaling-stroke; stroke-width: 2px; stroke: rgb(99, 110, 250); stroke-opacity: 1; fill: rgb(99, 110, 250); fill-opacity: 0.5;"/><path class="box" d="M114.08,195.8H145.93M114.08,231.32H145.93V149.29H114.08ZM130,231.32V259.66M130,149.29V72.62" style="vector-effect: non-scaling-stroke; stroke-width: 2px; stroke: rgb(99, 110, 250); stroke-opacity: 1; fill: rgb(99, 110, 250); fill-opacity: 0.5;"/><path class="mean" d="M114.08,190.3H145.93" style="fill: none; vector-effect: non-scaling-stroke; stroke-width: 2px; stroke-dasharray: 4px, 2px; stroke: rgb(99, 110, 250); stroke-opacity: 1;"/><g class="points"/></g><g class="trace violins" style="opacity: 1;"><path class="violin" d="M393.42,302.85Q395.22,298.02 396.44,295.68C397.71,293.24 399.27,290.85 400.96,288.51C402.74,286.06 404.81,283.68 406.91,281.33C409.08,278.9 411.49,276.55 413.79,274.16C416.1,271.77 418.54,269.42 420.75,266.99C422.9,264.63 425.03,262.27 426.88,259.82C428.65,257.48 430.27,255.09 431.65,252.65C432.98,250.31 434.06,247.9 435.05,245.48C436.02,243.12 436.75,240.71 437.53,238.31C438.3,235.93 438.96,233.53 439.7,231.14C440.45,228.74 441.19,226.35 442,223.96C442.81,221.56 443.69,219.18 444.57,216.79C445.45,214.4 446.39,212.01 447.28,209.62C448.16,207.23 449.09,204.85 449.88,202.45C450.67,200.07 451.43,197.68 452.02,195.28C452.6,192.9 453.11,190.51 453.39,188.11C453.67,185.73 453.8,183.33 453.7,180.94C453.6,178.55 453.29,176.14 452.81,173.77C452.32,171.36 451.6,168.97 450.78,166.6C449.94,164.18 448.9,161.79 447.83,159.42C446.74,157.01 445.51,154.63 444.29,152.25C443.06,149.85 441.76,147.47 440.46,145.08C439.16,142.69 437.84,140.3 436.5,137.91C435.15,135.51 433.8,133.12 432.4,130.74C430.99,128.34 429.56,125.95 428.06,123.57C426.55,121.17 424.98,118.78 423.37,116.4C421.74,114 420.02,111.61 418.31,109.23C416.59,106.83 414.79,104.45 413.06,102.05C411.34,99.66 409.58,97.29 407.96,94.88C406.37,92.51 404.8,90.13 403.41,87.71C402.05,85.35 400.79,82.96 399.7,80.54C398.64,78.18 397.72,75.78 396.94,73.37C396.17,71 395.56,68.6 395.02,66.2C394.49,63.82 394.09,61.42 393.72,59.03C393.35,56.64 393.07,54.25 392.79,51.86C392.51,49.47 392.28,47.07 392.05,44.68C391.82,42.29 391.62,39.9 391.43,37.51C391.24,35.12 391.08,32.73 390.93,30.34C390.78,27.95 390.66,25.56 390.55,23.17Q390.44,20.78 390.29,16L389.71,16Q389.56,20.78 389.45,23.17C389.34,25.56 389.22,27.95 389.07,30.34C388.92,32.73 388.76,35.12 388.57,37.51C388.38,39.9 388.18,42.29 387.95,44.68C387.72,47.07 387.49,49.47 387.21,51.86C386.93,54.25 386.65,56.64 386.28,59.03C385.91,61.42 385.51,63.82 384.98,66.2C384.44,68.6 383.83,71 383.06,73.37C382.28,75.78 381.36,78.18 380.3,80.54C379.21,82.96 377.95,85.35 376.59,87.71C375.2,90.13 373.63,92.51 372.04,94.88C370.42,97.29 368.66,99.66 366.94,102.05C365.21,104.45 363.41,106.83 361.69,109.23C359.98,111.61 358.26,114 356.63,116.4C355.02,118.78 353.45,121.17 351.94,123.57C350.44,125.95 349.01,128.34 347.6,130.74C346.2,133.12 344.85,135.51 343.5,137.91C342.16,140.3 340.84,142.69 339.54,145.08C338.24,147.47 336.94,149.85 335.71,152.25C334.49,154.63 333.26,157.01 332.17,159.42C331.1,161.79 330.06,164.18 329.22,166.6C328.4,168.97 327.68,171.36 327.19,173.77C326.71,176.14 326.4,178.55 326.3,180.94C326.2,183.33 326.33,185.73 326.61,188.11C326.89,190.51 327.4,192.9 327.98,195.28C328.57,197.68 329.33,200.07 330.12,202.45C330.91,204.85 331.84,207.23 332.72,209.62C333.61,212.01 334.55,214.4 335.43,216.79C336.31,219.18 337.19,221.56 338,223.96C338.81,226.35 339.55,228.74 340.3,231.14C341.04,233.53 341.7,235.93 342.47,238.31C343.25,240.71 343.98,243.12 344.95,245.48C345.94,247.9 347.02,250.31 348.35,252.65C349.73,255.09 351.35,257.48 353.12,259.82C354.97,262.27 357.1,264.63 359.25,266.99C361.46,269.42 363.9,271.77 366.21,274.16C368.51,276.55 370.92,278.9 373.09,281.33C375.19,283.68 377.26,286.06 379.04,288.51C380.73,290.85 382.29,293.24 383.56,295.68Q384.78,298.02 386.58,302.85Z" style="vector-effect: non-scaling-stroke; stroke-width: 2px; stroke: rgb(239, 85, 59); stroke-opacity: 1; fill: rgb(239, 85, 59); fill-opacity: 0.5;"/><path class="box" d="M374.08,183.74H405.93M374.08,227.73H405.93V150.48H374.08ZM390,227.73V259.66M390,150.48V59.19" style="vector-effect: non-scaling-stroke; stroke-width: 2px; stroke: rgb(239, 85, 59); stroke-opacity: 1; fill: rgb(239, 85, 59); fill-opacity: 0.5;"/><path class="mean" d="M374.08,186.2H405.93" style="fill: none; vector-effect: non-scaling-stroke; stroke-width: 2px; stroke-dasharray: 4px, 2px; stroke: rgb(239, 85, 59); stroke-opacity: 1;"/><g class="points"/></g></g></g><g class="overplot"/><path class="xlines-above crisp" d="M0,0" style="fill: none;"/><path class="ylines-above crisp" d="M0,0" style="fill: none;"/><g class="overlines-above"/><g class="xaxislayer-above"><g class="xtick"><text text-anchor="middle" x="0" y="433" transform="translate(210,0)" style="font-family: 'Open Sans', verdana, arial, sans-serif; font-size: 12px; fill: rgb(242, 245, 250); fill-opacity: 1; white-space: pre; opacity: 1;">Ab24</text></g><g class="xtick"><text text-anchor="middle" x="0" y="433" transform="translate(470,0)" style="font-family: 'Open Sans', verdana, arial, sans-serif; font-size: 12px; fill: rgb(242, 245, 250); fill-opacity: 1; white-space: pre; opacity: 1;">Ab6</text></g></g><g class="yaxislayer-above"><g class="ytick"><text text-anchor="end" x="79" y="4.199999999999999" transform="translate(0,382.32)" style="font-family: 'Open Sans', verdana, arial, sans-serif; font-size: 12px; fill: rgb(242, 245, 250); fill-opacity: 1; white-space: pre; opacity: 1;">0</text></g><g class="ytick"><text text-anchor="end" x="79" y="4.199999999999999" style="font-family: 'Open Sans', verdana, arial, sans-serif; font-size: 12px; fill: rgb(242, 245, 250); fill-opacity: 1; white-space: pre; opacity: 1;" transform="translate(0,342.94)">0.5</text></g><g class="ytick"><text text-anchor="end" x="79" y="4.199999999999999" style="font-family: 'Open Sans', verdana, arial, sans-serif; font-size: 12px; fill: rgb(242, 245, 250); fill-opacity: 1; white-space: pre; opacity: 1;" transform="translate(0,303.56)">1</text></g><g class="ytick"><text text-anchor="end" x="79" y="4.199999999999999" style="font-family: 'Open Sans', verdana, arial, sans-serif; font-size: 12px; fill: rgb(242, 245, 250); fill-opacity: 1; white-space: pre; opacity: 1;" transform="translate(0,264.18)">1.5</text></g><g class="ytick"><text text-anchor="end" x="79" y="4.199999999999999" style="font-family: 'Open Sans', verdana, arial, sans-serif; font-size: 12px; fill: rgb(242, 245, 250); fill-opacity: 1; white-space: pre; opacity: 1;" transform="translate(0,224.81)">2</text></g><g class="ytick"><text text-anchor="end" x="79" y="4.199999999999999" style="font-family: 'Open Sans', verdana, arial, sans-serif; font-size: 12px; fill: rgb(242, 245, 250); fill-opacity: 1; white-space: pre; opacity: 1;" transform="translate(0,185.43)">2.5</text></g><g class="ytick"><text text-anchor="end" x="79" y="4.199999999999999" style="font-family: 'Open Sans', verdana, arial, sans-serif; font-size: 12px; fill: rgb(242, 245, 250); fill-opacity: 1; white-space: pre; opacity: 1;" transform="translate(0,146.05)">3</text></g><g class="ytick"><text text-anchor="end" x="79" y="4.199999999999999" style="font-family: 'Open Sans', verdana, arial, sans-serif; font-size: 12px; fill: rgb(242, 245, 250); fill-opacity: 1; white-space: pre; opacity: 1;" transform="translate(0,106.67)">3.5</text></g></g><g class="overaxes-above"/></g></g><g class="polarlayer"/><g class="ternarylayer"/><g class="geolayer"/><g class="funnelarealayer"/><g class="pielayer"/><g class="iciclelayer"/><g class="treemaplayer"/><g class="sunburstlayer"/><g class="glimages"/><defs id="topdefs-7ec377"><g class="clips"/><clipPath id="legend7ec377"><rect width="78" height="48" x="0" y="0"/></clipPath></defs><g class="layer-above"><g class="imagelayer"/><g class="shapelayer"/></g><g class="infolayer"><g class="legend" pointer-events="all" transform="translate(610.4,100)"><rect class="bg" shape-rendering="crispEdges" width="78" height="48" x="0" y="0" style="stroke: rgb(68, 68, 68); stroke-opacity: 1; fill: rgb(17, 17, 17); fill-opacity: 1; stroke-width: 0px;"/><g class="scrollbox" transform="" clip-path="url(#legend7ec377)"><g class="groups"><g class="traces" transform="translate(0,14.5)" style="opacity: 1;"><text class="legendtext" text-anchor="start" x="40" y="4.680000000000001" style="font-family: 'Open Sans', verdana, arial, sans-serif; font-size: 12px; fill: rgb(242, 245, 250); fill-opacity: 1; white-space: pre;">Ab24</text><g class="layers" style="opacity: 1;"><g class="legendfill"/><g class="legendlines"/><g class="legendsymbols"><g class="legendpoints"><path class="legendbox" d="M6,6H-6V-6H6Z" transform="translate(20,0)" style="stroke-width: 2px; fill: rgb(99, 110, 250); fill-opacity: 0.5; stroke: rgb(99, 110, 250); stroke-opacity: 1;"/></g></g></g><rect class="legendtoggle" x="0" y="-9.5" width="72.3125" height="19" style="fill: rgb(0, 0, 0); fill-opacity: 0;"/></g><g class="traces" transform="translate(0,33.5)" style="opacity: 1;"><text class="legendtext" text-anchor="start" x="40" y="4.680000000000001" style="font-family: 'Open Sans', verdana, arial, sans-serif; font-size: 12px; fill: rgb(242, 245, 250); fill-opacity: 1; white-space: pre;">Ab6</text><g class="layers" style="opacity: 1;"><g class="legendfill"/><g class="legendlines"/><g class="legendsymbols"><g class="legendpoints"><path class="legendbox" d="M6,6H-6V-6H6Z" transform="translate(20,0)" style="stroke-width: 2px; fill: rgb(239, 85, 59); fill-opacity: 0.5; stroke: rgb(239, 85, 59); stroke-opacity: 1;"/></g></g></g><rect class="legendtoggle" x="0" y="-9.5" width="72.3125" height="19" style="fill: rgb(0, 0, 0); fill-opacity: 0;"/></g></g></g><rect class="scrollbar" rx="20" ry="3" width="0" height="0" x="0" y="0" style="fill: rgb(128, 139, 164); fill-opacity: 1;"/></g><g class="g-gtitle"><text class="gtitle" x="35" y="50" text-anchor="start" dy="0em" style="font-family: 'Open Sans', verdana, arial, sans-serif; font-size: 17px; fill: rgb(242, 245, 250); opacity: 1; font-weight: normal; white-space: pre;">Distribution of complex log abundances</text></g><g class="g-xtitle"/><g class="g-ytitle"/></g></svg>