<svg class="main-svg" xmlns="http://www.w3.org/2000/svg" xmlns:xlink="http://www.w3.org/1999/xlink" width="700" height="500" style="" viewBox="0 0 700 500"><rect x="0" y="0" width="700" height="500" style="fill: rgb(17, 17, 17); fill-opacity: 1;"/><defs id="defs-aed94c"><g class="clips"><clipPath id="clipaed94cxyplot" class="plotclip"><rect width="520" height="208"/></clipPath><clipPath id="clipaed94cxy2plot" class="plotclip"><rect width="520" height="80"/></clipPath><clipPath class="axesclip" id="clipaed94cx"><rect x="80" y="0" width="520" height="500"/></clipPath><clipPath class="axesclip" id="clipaed94cy"><rect x="0" y="100" width="700" height="208"/></clipPath><clipPath class="axesclip" id="clipaed94cxy"><rect x="80" y="100" width="520" height="208"/></clipPath><clipPath class="axesclip" id="clipaed94cy2"><rect x="0" y="340" width="700" height="80"/></clipPath><clipPath class="axesclip" id="clipaed94cxy2"><rect x="80" y="340" width="520" height="80"/></clipPath></g><g class="gradients"/><g class="patterns"/></defs><g class="bglayer"/><g class="layer-below"><g class="imagelayer"/><g class="shapelayer"/></g><g class="cartesianlayer"><g class="subplot xy"><g class="layer-subplot"><g class="shapelayer"/><g class="imagelayer"/></g><g class="gridlayer"><g class="x"/><g class="y"><path class="ygrid crisp" transform="translate(0,273.21000000000004)" d="M80,0h520" style="stroke: rgb(40, 52, 66); stroke-opacity: 1; stroke-width: 1px;"/><path class="ygrid crisp" transform="translate(0,238.41)" d="M80,0h520" style="stroke: rgb(40, 52, 66); stroke-opacity: 1; stroke-width: 1px;"/><path class="ygrid crisp" transform="translate(0,203.62)" d="M80,0h520" style="stroke: rgb(40, 52, 66); stroke-opacity: 1; stroke-width: 1px;"/><path class="ygrid crisp" transform="translate(0,168.82)" d="M80,0h520" style="stroke: rgb(40, 52, 66); stroke-opacity: 1; stroke-width: 1px;"/><path class="ygrid crisp" transform="translate(0,134.03)" d="M80,0h520" style="stroke: rgb(40, 52, 66); stroke-opacity: 1; stroke-width: 1px;"/></g></g><g class="zerolinelayer"><path class="yzl zl crisp" transform="translate(0,308)" d="M80,0h520" style="stroke: rgb(40, 52, 66); stroke-opacity: 1; stroke-width: 2px;"/></g><path class="xlines-below"/><path class="ylines-below"/><g class="overlines-below"/><g class="xaxislayer-below"/><g class="yaxislayer-below"/><g class="overaxes-below"/><g class="plot" transform="translate(80,100)" clip-path="url(#clipaed94cxyplot)"><g class="barlayer mlayer"><g class="trace bars" shape-rendering="crispEdges" style="opacity: 0.7;"><g class="points"><g class="point"><path d="M29.75,208V34.03H193.17V208Z" style="vector-effect: non-scaling-stroke; opacity: 1; stroke-width: 0px; fill: rgb(31, 119, 180); fill-opacity: 1;"/></g><g class="point"><path d="M193.17,208V47.07H356.58V208Z" style="vector-effect: non-scaling-stroke; opacity: 1; stroke-width: 0px; fill: rgb(31, 119, 180); fill-opacity: 1;"/></g><g class="point"><path d="M356.58,208V194.95H520V208Z" style="vector-effect: non-scaling-stroke; opacity: 1; stroke-width: 0px; fill: rgb(31, 119, 180); fill-opacity: 1;"/></g></g></g><g class="trace bars" shape-rendering="crispEdges" style="opacity: 0.7;"><g class="points"><g class="point"><path d="M29.75,208V10.4H193.17V208Z" style="vector-effect: non-scaling-stroke; opacity: 1; stroke-width: 0px; fill: rgb(255, 127, 14); fill-opacity: 1;"/></g><g class="point"><path d="M193.17,208V70.54H356.58V208Z" style="vector-effect: non-scaling-stroke; opacity: 1; stroke-width: 0px; fill: rgb(255, 127, 14); fill-opacity: 1;"/></g><g class="point"><path d="M356.58,208V195.11H520V208Z" style="vector-effect: non-scaling-stroke; opacity: 1; stroke-width: 0px; fill: rgb(255, 127, 14); fill-opacity: 1;"/></g></g></g></g><g class="scatterlayer mlayer"><g class="trace scatter trace431cd3" style="stroke-miterlimit: 2; opacity: 1;"><g class="fills"/><g class="errorbars"/><g class="lines"><path class="js-line" d="M29.75,96.21L38.9,87.01L39.73,86.27L49.72,78.68L50.55,78.15L61.36,72.26L62.2,71.88L77.17,65.84L78,65.53L98.8,57.06L99.64,56.68L117.94,47.27L118.77,46.81L156.21,26.4L157.04,26.02L169.52,21.13L170.35,20.87L181.17,18.34L182,18.22L191.98,17.65L192.82,17.68L201.97,18.83L202.8,19L212.78,22.08L213.62,22.41L225.26,28.13L226.1,28.61L239.41,37.24L240.24,37.83L260.21,52.89L261.04,53.54L308.46,91.58L309.29,92.3L328.43,110.03L329.26,110.85L350.06,132.66L350.89,133.56L378.35,162.27L379.18,163.06L391.66,173.85L392.49,174.5L404.14,182.48L404.97,182.98L416.62,188.9L417.45,189.26L430.76,193.91L431.59,194.14L444.9,197.25" style="vector-effect: non-scaling-stroke; fill: none; stroke: rgb(31, 119, 180); stroke-opacity: 1; stroke-width: 2px; opacity: 1;"/></g><g class="points"/><g class="text"/></g><g class="trace scatter tracedc1029" style="stroke-miterlimit: 2; opacity: 1;"><g class="fills"/><g class="errorbars"/><g class="lines"><path class="js-line" d="M29.75,77.41L39.06,67.21L39.84,66.48L48.38,59.69L49.16,59.18L57.69,54.61L58.47,54.28L68.56,50.95L69.34,50.75L90.29,46.35L91.07,46.17L105.04,42.19L105.82,41.92L124.45,34.61L125.22,34.29L141.52,28.53L142.3,28.32L152.39,26.53L153.17,26.47L161.7,26.54L162.48,26.62L171.02,28.28L171.8,28.5L181.11,31.96L181.89,32.32L192.75,37.99L193.53,38.44L232.34,60.97L233.12,61.34L249.42,68.18L250.19,68.47L282.79,81.21L283.57,81.58L295.99,88.4L296.76,88.88L309.18,97.49L309.96,98.08L323.93,109.71L324.71,110.41L347.22,131.56L347.99,132.3L373.61,155.6L374.39,156.25L389.91,168.27L390.69,168.82L404.66,177.94L405.43,178.4L417.08,184.81" style="vector-effect: non-scaling-stroke; fill: none; stroke: rgb(255, 127, 14); stroke-opacity: 1; stroke-width: 2px; opacity: 1;"/></g><g class="points"/><g class="text"/></g></g></g><g class="overplot"/><path class="xlines-above crisp" d="M0,0" style="fill: none;"/><path class="ylines-above crisp" d="M0,0" style="fill: none;"/><g class="overlines-above"/><g class="xaxislayer-above"/><g class="yaxislayer-above"><g class="ytick"><text text-anchor="end" x="80" y="4.199999999999999" transform="translate(0,308)" style="font-family: 'Open Sans', verdana, arial, sans-serif; font-size: 12px; fill: rgb(242, 245, 250); fill-opacity: 1; white-space: pre; opacity: 1;">0</text></g><g class="ytick"><text text-anchor="end" x="80" y="4.199999999999999" style="font-family: 'Open Sans', verdana, arial, sans-serif; font-size: 12px; fill: rgb(242, 245, 250); fill-opacity: 1; white-space: pre; opacity: 1;" transform="translate(0,273.21000000000004)">0.1</text></g><g class="ytick"><text text-anchor="end" x="80" y="4.199999999999999" style="font-family: 'Open Sans', verdana, arial, sans-serif; font-size: 12px; fill: rgb(242, 245, 250); fill-opacity: 1; white-space: pre; opacity: 1;" transform="translate(0,238.41)">0.2</text></g><g class="ytick"><text text-anchor="end" x="80" y="4.199999999999999" style="font-family: 'Open Sans', verdana, arial, sans-serif; font-size: 12px; fill: rgb(242, 245, 250); fill-opacity: 1; white-space: pre; opacity: 1;" transform="translate(0,203.62)">0.3</text></g><g class="ytick"><text text-anchor="end" x="80" y="4.199999999999999" style="font-family: 'Open Sans', verdana, arial, sans-serif; font-size: 12px; fill: rgb(242, 245, 250); fill-opacity: 1; white-space: pre; opacity: 1;" transform="translate(0,168.82)">0.4</text></g><g class="ytick"><text text-anchor="end" x="80" y="4.199999999999999" style="font-family: 'Open Sans', verdana, arial, sans-serif; font-size: 12px; fill: rgb(242, 245, 250); fill-opacity: 1; white-space: pre; opacity: 1;" transform="translate(0,134.03)">0.5</text></g></g><g class="overaxes-above"/></g><g class="subplot xy2"><g class="layer-subplot"><g class="shapelayer"/><g class="imagelayer"/></g><g class="gridlayer"><g class="x"/><g class="y2"><path class="y2grid crisp" transform="translate(0,412.25)" d="M80,0h520" style="stroke: rgb(40, 52, 66); stroke-opacity: 1; stroke-width: 1px;"/><path class="y2grid crisp" transform="translate(0,347.75)" d="M80,0h520" style="stroke: rgb(40, 52, 66); stroke-opacity: 1; stroke-width: 1px;"/></g></g><g class="zerolinelayer"/><path class="xlines-below"/><path class="ylines-below"/><g class="overlines-below"/><g class="xaxislayer-below"/><g class="yaxislayer-below"/><g class="overaxes-below"/><g class="plot" transform="translate(80,340)" clip-path="url(#clipaed94cxy2plot)"><g class="scatterlayer mlayer"><g class="trace scatter tracebe82fe" style="stroke-miterlimit: 2; opacity: 1;"><g class="fills"/><g class="errorbars"/><g class="lines"/><g class="points"><path class="point" transform="translate(322.56,72.25)" d="M0,4.2V-4.2" style="opacity: 1; stroke: rgb(31, 119, 180); stroke-opacity: 1; stroke-width: 1px; fill: none;"/><path class="point" transform="translate(234.48,72.25)" d="M0,4.2V-4.2" style="opacity: 1; stroke: rgb(31, 119, 180); stroke-opacity: 1; stroke-width: 1px; fill: none;"/><path class="point" transform="translate(284.38,72.25)" d="M0,4.2V-4.2" style="opacity: 1; stroke: rgb(31, 119, 180); stroke-opacity: 1; stroke-width: 1px; fill: none;"/><path class="point" transform="translate(292.76,72.25)" d="M0,4.2V-4.2" style="opacity: 1; stroke: rgb(31, 119, 180); stroke-opacity: 1; stroke-width: 1px; fill: none;"/><path class="point" transform="translate(256.3,72.25)" d="M0,4.2V-4.2" style="opacity: 1; stroke: rgb(31, 119, 180); stroke-opacity: 1; stroke-width: 1px; fill: none;"/><path class="point" transform="translate(335.64,72.25)" d="M0,4.2V-4.2" style="opacity: 1; stroke: rgb(31, 119, 180); stroke-opacity: 1; stroke-width: 1px; fill: none;"/><path class="point" transform="translate(162.27,72.25)" d="M0,4.2V-4.2" style="opacity: 1; stroke: rgb(31, 119, 180); stroke-opacity: 1; stroke-width: 1px; fill: none;"/><path class="point" transform="translate(209.29,72.25)" d="M0,4.2V-4.2" style="opacity: 1; stroke: rgb(31, 119, 180); stroke-opacity: 1; stroke-width: 1px; fill: none;"/><path class="point" transform="translate(195.07,72.25)" d="M0,4.2V-4.2" style="opacity: 1; stroke: rgb(31, 119, 180); stroke-opacity: 1; stroke-width: 1px; fill: none;"/><path class="point" transform="translate(179.49,72.25)" d="M0,4.2V-4.2" style="opacity: 1; stroke: rgb(31, 119, 180); stroke-opacity: 1; stroke-width: 1px; fill: none;"/><path class="point" transform="translate(96.01,72.25)" d="M0,4.2V-4.2" style="opacity: 1; stroke: rgb(31, 119, 180); stroke-opacity: 1; stroke-width: 1px; fill: none;"/><path class="point" transform="translate(209.29,72.25)" d="M0,4.2V-4.2" style="opacity: 1; stroke: rgb(31, 119, 180); stroke-opacity: 1; stroke-width: 1px; fill: none;"/><path class="point" transform="translate(195.07,72.25)" d="M0,4.2V-4.2" style="opacity: 1; stroke: rgb(31, 119, 180); stroke-opacity: 1; stroke-width: 1px; fill: none;"/><path class="point" transform="translate(29.75,72.25)" d="M0,4.2V-4.2" style="opacity: 1; stroke: rgb(31, 119, 180); stroke-opacity: 1; stroke-width: 1px; fill: none;"/><path class="point" transform="translate(347.75,72.25)" d="M0,4.2V-4.2" style="opacity: 1; stroke: rgb(31, 119, 180); stroke-opacity: 1; stroke-width: 1px; fill: none;"/><path class="point" transform="translate(374.6,72.25)" d="M0,4.2V-4.2" style="opacity: 1; stroke: rgb(31, 119, 180); stroke-opacity: 1; stroke-width: 1px; fill: none;"/><path class="point" transform="translate(275.55,72.25)" d="M0,4.2V-4.2" style="opacity: 1; stroke: rgb(31, 119, 180); stroke-opacity: 1; stroke-width: 1px; fill: none;"/><path class="point" transform="translate(121.2,72.25)" d="M0,4.2V-4.2" style="opacity: 1; stroke: rgb(31, 119, 180); stroke-opacity: 1; stroke-width: 1px; fill: none;"/><path class="point" transform="translate(209.29,72.25)" d="M0,4.2V-4.2" style="opacity: 1; stroke: rgb(31, 119, 180); stroke-opacity: 1; stroke-width: 1px; fill: none;"/><path class="point" transform="translate(445.74,72.25)" d="M0,4.2V-4.2" style="opacity: 1; stroke: rgb(31, 119, 180); stroke-opacity: 1; stroke-width: 1px; fill: none;"/><path class="point" transform="translate(162.27,72.25)" d="M0,4.2V-4.2" style="opacity: 1; stroke: rgb(31, 119, 180); stroke-opacity: 1; stroke-width: 1px; fill: none;"/><path class="point" transform="translate(292.76,72.25)" d="M0,4.2V-4.2" style="opacity: 1; stroke: rgb(31, 119, 180); stroke-opacity: 1; stroke-width: 1px; fill: none;"/><path class="point" transform="translate(209.29,72.25)" d="M0,4.2V-4.2" style="opacity: 1; stroke: rgb(31, 119, 180); stroke-opacity: 1; stroke-width: 1px; fill: none;"/><path class="point" transform="translate(162.27,72.25)" d="M0,4.2V-4.2" style="opacity: 1; stroke: rgb(31, 119, 180); stroke-opacity: 1; stroke-width: 1px; fill: none;"/><path class="point" transform="translate(234.48,72.25)" d="M0,4.2V-4.2" style="opacity: 1; stroke: rgb(31, 119, 180); stroke-opacity: 1; stroke-width: 1px; fill: none;"/><path class="point" transform="translate(195.07,72.25)" d="M0,4.2V-4.2" style="opacity: 1; stroke: rgb(31, 119, 180); stroke-opacity: 1; stroke-width: 1px; fill: none;"/><path class="point" transform="translate(359.02,72.25)" d="M0,4.2V-4.2" style="opacity: 1; stroke: rgb(31, 119, 180); stroke-opacity: 1; stroke-width: 1px; fill: none;"/><path class="point" transform="translate(284.38,72.25)" d="M0,4.2V-4.2" style="opacity: 1; stroke: rgb(31, 119, 180); stroke-opacity: 1; stroke-width: 1px; fill: none;"/><path class="point" transform="translate(143.03,72.25)" d="M0,4.2V-4.2" style="opacity: 1; stroke: rgb(31, 119, 180); stroke-opacity: 1; stroke-width: 1px; fill: none;"/><path class="point" transform="translate(234.48,72.25)" d="M0,4.2V-4.2" style="opacity: 1; stroke: rgb(31, 119, 180); stroke-opacity: 1; stroke-width: 1px; fill: none;"/><path class="point" transform="translate(143.03,72.25)" d="M0,4.2V-4.2" style="opacity: 1; stroke: rgb(31, 119, 180); stroke-opacity: 1; stroke-width: 1px; fill: none;"/><path class="point" transform="translate(162.27,72.25)" d="M0,4.2V-4.2" style="opacity: 1; stroke: rgb(31, 119, 180); stroke-opacity: 1; stroke-width: 1px; fill: none;"/><path class="point" transform="translate(29.75,72.25)" d="M0,4.2V-4.2" style="opacity: 1; stroke: rgb(31, 119, 180); stroke-opacity: 1; stroke-width: 1px; fill: none;"/><path class="point" transform="translate(209.29,72.25)" d="M0,4.2V-4.2" style="opacity: 1; stroke: rgb(31, 119, 180); stroke-opacity: 1; stroke-width: 1px; fill: none;"/><path class="point" transform="translate(245.75,72.25)" d="M0,4.2V-4.2" style="opacity: 1; stroke: rgb(31, 119, 180); stroke-opacity: 1; stroke-width: 1px; fill: none;"/><path class="point" transform="translate(256.3,72.25)" d="M0,4.2V-4.2" style="opacity: 1; stroke: rgb(31, 119, 180); stroke-opacity: 1; stroke-width: 1px; fill: none;"/><path class="point" transform="translate(329.23,72.25)" d="M0,4.2V-4.2" style="opacity: 1; stroke: rgb(31, 119, 180); stroke-opacity: 1; stroke-width: 1px; fill: none;"/><path class="point" transform="translate(179.49,72.25)" d="M0,4.2V-4.2" style="opacity: 1; stroke: rgb(31, 119, 180); stroke-opacity: 1; stroke-width: 1px; fill: none;"/><path class="point" transform="translate(256.3,72.25)" d="M0,4.2V-4.2" style="opacity: 1; stroke: rgb(31, 119, 180); stroke-opacity: 1; stroke-width: 1px; fill: none;"/><path class="point" transform="translate(256.3,72.25)" d="M0,4.2V-4.2" style="opacity: 1; stroke: rgb(31, 119, 180); stroke-opacity: 1; stroke-width: 1px; fill: none;"/><path class="point" transform="translate(195.07,72.25)" d="M0,4.2V-4.2" style="opacity: 1; stroke: rgb(31, 119, 180); stroke-opacity: 1; stroke-width: 1px; fill: none;"/><path class="point" transform="translate(292.76,72.25)" d="M0,4.2V-4.2" style="opacity: 1; stroke: rgb(31, 119, 180); stroke-opacity: 1; stroke-width: 1px; fill: none;"/><path class="point" transform="translate(66.22,72.25)" d="M0,4.2V-4.2" style="opacity: 1; stroke: rgb(31, 119, 180); stroke-opacity: 1; stroke-width: 1px; fill: none;"/><path class="point" transform="translate(256.3,72.25)" d="M0,4.2V-4.2" style="opacity: 1; stroke: rgb(31, 119, 180); stroke-opacity: 1; stroke-width: 1px; fill: none;"/><path class="point" transform="translate(96.01,72.25)" d="M0,4.2V-4.2" style="opacity: 1; stroke: rgb(31, 119, 180); stroke-opacity: 1; stroke-width: 1px; fill: none;"/><path class="point" transform="translate(222.36,72.25)" d="M0,4.2V-4.2" style="opacity: 1; stroke: rgb(31, 119, 180); stroke-opacity: 1; stroke-width: 1px; fill: none;"/><path class="point" transform="translate(300.74,72.25)" d="M0,4.2V-4.2" style="opacity: 1; stroke: rgb(31, 119, 180); stroke-opacity: 1; stroke-width: 1px; fill: none;"/><path class="point" transform="translate(209.29,72.25)" d="M0,4.2V-4.2" style="opacity: 1; stroke: rgb(31, 119, 180); stroke-opacity: 1; stroke-width: 1px; fill: none;"/><path class="point" transform="translate(329.23,72.25)" d="M0,4.2V-4.2" style="opacity: 1; stroke: rgb(31, 119, 180); stroke-opacity: 1; stroke-width: 1px; fill: none;"/><path class="point" transform="translate(245.75,72.25)" d="M0,4.2V-4.2" style="opacity: 1; stroke: rgb(31, 119, 180); stroke-opacity: 1; stroke-width: 1px; fill: none;"/><path class="point" transform="translate(162.27,72.25)" d="M0,4.2V-4.2" style="opacity: 1; stroke: rgb(31, 119, 180); stroke-opacity: 1; stroke-width: 1px; fill: none;"/><path class="point" transform="translate(143.03,72.25)" d="M0,4.2V-4.2" style="opacity: 1; stroke: rgb(31, 119, 180); stroke-opacity: 1; stroke-width: 1px; fill: none;"/><path class="point" transform="translate(195.07,72.25)" d="M0,4.2V-4.2" style="opacity: 1; stroke: rgb(31, 119, 180); stroke-opacity: 1; stroke-width: 1px; fill: none;"/><path class="point" transform="translate(335.64,72.25)" d="M0,4.2V-4.2" style="opacity: 1; stroke: rgb(31, 119, 180); stroke-opacity: 1; stroke-width: 1px; fill: none;"/><path class="point" transform="translate(315.6,72.25)" d="M0,4.2V-4.2" style="opacity: 1; stroke: rgb(31, 119, 180); stroke-opacity: 1; stroke-width: 1px; fill: none;"/><path class="point" transform="translate(121.2,72.25)" d="M0,4.2V-4.2" style="opacity: 1; stroke: rgb(31, 119, 180); stroke-opacity: 1; stroke-width: 1px; fill: none;"/><path class="point" transform="translate(121.2,72.25)" d="M0,4.2V-4.2" style="opacity: 1; stroke: rgb(31, 119, 180); stroke-opacity: 1; stroke-width: 1px; fill: none;"/><path class="point" transform="translate(29.75,72.25)" d="M0,4.2V-4.2" style="opacity: 1; stroke: rgb(31, 119, 180); stroke-opacity: 1; stroke-width: 1px; fill: none;"/><path class="point" transform="translate(121.2,72.25)" d="M0,4.2V-4.2" style="opacity: 1; stroke: rgb(31, 119, 180); stroke-opacity: 1; stroke-width: 1px; fill: none;"/><path class="point" transform="translate(179.49,72.25)" d="M0,4.2V-4.2" style="opacity: 1; stroke: rgb(31, 119, 180); stroke-opacity: 1; stroke-width: 1px; fill: none;"/><path class="point" transform="translate(96.01,72.25)" d="M0,4.2V-4.2" style="opacity: 1; stroke: rgb(31, 119, 180); stroke-opacity: 1; stroke-width: 1px; fill: none;"/><path class="point" transform="translate(96.01,72.25)" d="M0,4.2V-4.2" style="opacity: 1; stroke: rgb(31, 119, 180); stroke-opacity: 1; stroke-width: 1px; fill: none;"/><path class="point" transform="translate(96.01,72.25)" d="M0,4.2V-4.2" style="opacity: 1; stroke: rgb(31, 119, 180); stroke-opacity: 1; stroke-width: 1px; fill: none;"/><path class="point" transform="translate(195.07,72.25)" d="M0,4.2V-4.2" style="opacity: 1; stroke: rgb(31, 119, 180); stroke-opacity: 1; stroke-width: 1px; fill: none;"/><path class="point" transform="translate(143.03,72.25)" d="M0,4.2V-4.2" style="opacity: 1; stroke: rgb(31, 119, 180); stroke-opacity: 1; stroke-width: 1px; fill: none;"/><path class="point" transform="translate(66.22,72.25)" d="M0,4.2V-4.2" style="opacity: 1; stroke: rgb(31, 119, 180); stroke-opacity: 1; stroke-width: 1px; fill: none;"/><path class="point" transform="translate(121.2,72.25)" d="M0,4.2V-4.2" style="opacity: 1; stroke: rgb(31, 119, 180); stroke-opacity: 1; stroke-width: 1px; fill: none;"/><path class="point" transform="translate(143.03,72.25)" d="M0,4.2V-4.2" style="opacity: 1; stroke: rgb(31, 119, 180); stroke-opacity: 1; stroke-width: 1px; fill: none;"/><path class="point" transform="translate(29.75,72.25)" d="M0,4.2V-4.2" style="opacity: 1; stroke: rgb(31, 119, 180); stroke-opacity: 1; stroke-width: 1px; fill: none;"/><path class="point" transform="translate(29.75,72.25)" d="M0,4.2V-4.2" style="opacity: 1; stroke: rgb(31, 119, 180); stroke-opacity: 1; stroke-width: 1px; fill: none;"/><path class="point" transform="translate(66.22,72.25)" d="M0,4.2V-4.2" style="opacity: 1; stroke: rgb(31, 119, 180); stroke-opacity: 1; stroke-width: 1px; fill: none;"/><path class="point" transform="translate(29.75,72.25)" d="M0,4.2V-4.2" style="opacity: 1; stroke: rgb(31, 119, 180); stroke-opacity: 1; stroke-width: 1px; fill: none;"/><path class="point" transform="translate(29.75,72.25)" d="M0,4.2V-4.2" style="opacity: 1; stroke: rgb(31, 119, 180); stroke-opacity: 1; stroke-width: 1px; fill: none;"/><path class="point" transform="translate(29.75,72.25)" d="M0,4.2V-4.2" style="opacity: 1; stroke: rgb(31, 119, 180); stroke-opacity: 1; stroke-width: 1px; fill: none;"/><path class="point" transform="translate(66.22,72.25)" d="M0,4.2V-4.2" style="opacity: 1; stroke: rgb(31, 119, 180); stroke-opacity: 1; stroke-width: 1px; fill: none;"/><path class="point" transform="translate(121.2,72.25)" d="M0,4.2V-4.2" style="opacity: 1; stroke: rgb(31, 119, 180); stroke-opacity: 1; stroke-width: 1px; fill: none;"/><path class="point" transform="translate(29.75,72.25)" d="M0,4.2V-4.2" style="opacity: 1; stroke: rgb(31, 119, 180); stroke-opacity: 1; stroke-width: 1px; fill: none;"/><path class="point" transform="translate(66.22,72.25)" d="M0,4.2V-4.2" style="opacity: 1; stroke: rgb(31, 119, 180); stroke-opacity: 1; stroke-width: 1px; fill: none;"/><path class="point" transform="translate(29.75,72.25)" d="M0,4.2V-4.2" style="opacity: 1; stroke: rgb(31, 119, 180); stroke-opacity: 1; stroke-width: 1px; fill: none;"/><path class="point" transform="translate(29.75,72.25)" d="M0,4.2V-4.2" style="opacity: 1; stroke: rgb(31, 119, 180); stroke-opacity: 1; stroke-width: 1px; fill: none;"/></g><g class="text"/></g><g class="trace scatter trace1b7bf3" style="stroke-miterlimit: 2; opacity: 1;"><g class="fills"/><g class="errorbars"/><g class="lines"/><g class="points"><path class="point" transform="translate(245.75,7.75)" d="M0,4.2V-4.2" style="opacity: 1; stroke: rgb(255, 127, 14); stroke-opacity: 1; stroke-width: 1px; fill: none;"/><path class="point" transform="translate(300.74,7.75)" d="M0,4.2V-4.2" style="opacity: 1; stroke: rgb(255, 127, 14); stroke-opacity: 1; stroke-width: 1px; fill: none;"/><path class="point" transform="translate(96.01,7.75)" d="M0,4.2V-4.2" style="opacity: 1; stroke: rgb(255, 127, 14); stroke-opacity: 1; stroke-width: 1px; fill: none;"/><path class="point" transform="translate(266.21,7.75)" d="M0,4.2V-4.2" style="opacity: 1; stroke: rgb(255, 127, 14); stroke-opacity: 1; stroke-width: 1px; fill: none;"/><path class="point" transform="translate(234.48,7.75)" d="M0,4.2V-4.2" style="opacity: 1; stroke: rgb(255, 127, 14); stroke-opacity: 1; stroke-width: 1px; fill: none;"/><path class="point" transform="translate(322.56,7.75)" d="M0,4.2V-4.2" style="opacity: 1; stroke: rgb(255, 127, 14); stroke-opacity: 1; stroke-width: 1px; fill: none;"/><path class="point" transform="translate(379.48,7.75)" d="M0,4.2V-4.2" style="opacity: 1; stroke: rgb(255, 127, 14); stroke-opacity: 1; stroke-width: 1px; fill: none;"/><path class="point" transform="translate(209.29,7.75)" d="M0,4.2V-4.2" style="opacity: 1; stroke: rgb(255, 127, 14); stroke-opacity: 1; stroke-width: 1px; fill: none;"/><path class="point" transform="translate(143.03,7.75)" d="M0,4.2V-4.2" style="opacity: 1; stroke: rgb(255, 127, 14); stroke-opacity: 1; stroke-width: 1px; fill: none;"/><path class="point" transform="translate(66.22,7.75)" d="M0,4.2V-4.2" style="opacity: 1; stroke: rgb(255, 127, 14); stroke-opacity: 1; stroke-width: 1px; fill: none;"/><path class="point" transform="translate(266.21,7.75)" d="M0,4.2V-4.2" style="opacity: 1; stroke: rgb(255, 127, 14); stroke-opacity: 1; stroke-width: 1px; fill: none;"/><path class="point" transform="translate(329.23,7.75)" d="M0,4.2V-4.2" style="opacity: 1; stroke: rgb(255, 127, 14); stroke-opacity: 1; stroke-width: 1px; fill: none;"/><path class="point" transform="translate(179.49,7.75)" d="M0,4.2V-4.2" style="opacity: 1; stroke: rgb(255, 127, 14); stroke-opacity: 1; stroke-width: 1px; fill: none;"/><path class="point" transform="translate(195.07,7.75)" d="M0,4.2V-4.2" style="opacity: 1; stroke: rgb(255, 127, 14); stroke-opacity: 1; stroke-width: 1px; fill: none;"/><path class="point" transform="translate(66.22,7.75)" d="M0,4.2V-4.2" style="opacity: 1; stroke: rgb(255, 127, 14); stroke-opacity: 1; stroke-width: 1px; fill: none;"/><path class="point" transform="translate(335.64,7.75)" d="M0,4.2V-4.2" style="opacity: 1; stroke: rgb(255, 127, 14); stroke-opacity: 1; stroke-width: 1px; fill: none;"/><path class="point" transform="translate(384.21,7.75)" d="M0,4.2V-4.2" style="opacity: 1; stroke: rgb(255, 127, 14); stroke-opacity: 1; stroke-width: 1px; fill: none;"/><path class="point" transform="translate(66.22,7.75)" d="M0,4.2V-4.2" style="opacity: 1; stroke: rgb(255, 127, 14); stroke-opacity: 1; stroke-width: 1px; fill: none;"/><path class="point" transform="translate(245.75,7.75)" d="M0,4.2V-4.2" style="opacity: 1; stroke: rgb(255, 127, 14); stroke-opacity: 1; stroke-width: 1px; fill: none;"/><path class="point" transform="translate(143.03,7.75)" d="M0,4.2V-4.2" style="opacity: 1; stroke: rgb(255, 127, 14); stroke-opacity: 1; stroke-width: 1px; fill: none;"/><path class="point" transform="translate(417.85,7.75)" d="M0,4.2V-4.2" style="opacity: 1; stroke: rgb(255, 127, 14); stroke-opacity: 1; stroke-width: 1px; fill: none;"/><path class="point" transform="translate(209.29,7.75)" d="M0,4.2V-4.2" style="opacity: 1; stroke: rgb(255, 127, 14); stroke-opacity: 1; stroke-width: 1px; fill: none;"/><path class="point" transform="translate(143.03,7.75)" d="M0,4.2V-4.2" style="opacity: 1; stroke: rgb(255, 127, 14); stroke-opacity: 1; stroke-width: 1px; fill: none;"/><path class="point" transform="translate(143.03,7.75)" d="M0,4.2V-4.2" style="opacity: 1; stroke: rgb(255, 127, 14); stroke-opacity: 1; stroke-width: 1px; fill: none;"/><path class="point" transform="translate(143.03,7.75)" d="M0,4.2V-4.2" style="opacity: 1; stroke: rgb(255, 127, 14); stroke-opacity: 1; stroke-width: 1px; fill: none;"/><path class="point" transform="translate(266.21,7.75)" d="M0,4.2V-4.2" style="opacity: 1; stroke: rgb(255, 127, 14); stroke-opacity: 1; stroke-width: 1px; fill: none;"/><path class="point" transform="translate(162.27,7.75)" d="M0,4.2V-4.2" style="opacity: 1; stroke: rgb(255, 127, 14); stroke-opacity: 1; stroke-width: 1px; fill: none;"/><path class="point" transform="translate(347.75,7.75)" d="M0,4.2V-4.2" style="opacity: 1; stroke: rgb(255, 127, 14); stroke-opacity: 1; stroke-width: 1px; fill: none;"/><path class="point" transform="translate(222.36,7.75)" d="M0,4.2V-4.2" style="opacity: 1; stroke: rgb(255, 127, 14); stroke-opacity: 1; stroke-width: 1px; fill: none;"/><path class="point" transform="translate(121.2,7.75)" d="M0,4.2V-4.2" style="opacity: 1; stroke: rgb(255, 127, 14); stroke-opacity: 1; stroke-width: 1px; fill: none;"/><path class="point" transform="translate(96.01,7.75)" d="M0,4.2V-4.2" style="opacity: 1; stroke: rgb(255, 127, 14); stroke-opacity: 1; stroke-width: 1px; fill: none;"/><path class="point" transform="translate(96.01,7.75)" d="M0,4.2V-4.2" style="opacity: 1; stroke: rgb(255, 127, 14); stroke-opacity: 1; stroke-width: 1px; fill: none;"/><path class="point" transform="translate(143.03,7.75)" d="M0,4.2V-4.2" style="opacity: 1; stroke: rgb(255, 127, 14); stroke-opacity: 1; stroke-width: 1px; fill: none;"/><path class="point" transform="translate(209.29,7.75)" d="M0,4.2V-4.2" style="opacity: 1; stroke: rgb(255, 127, 14); stroke-opacity: 1; stroke-width: 1px; fill: none;"/><path class="point" transform="translate(143.03,7.75)" d="M0,4.2V-4.2" style="opacity: 1; stroke: rgb(255, 127, 14); stroke-opacity: 1; stroke-width: 1px; fill: none;"/><path class="point" transform="translate(195.07,7.75)" d="M0,4.2V-4.2" style="opacity: 1; stroke: rgb(255, 127, 14); stroke-opacity: 1; stroke-width: 1px; fill: none;"/><path class="point" transform="translate(284.38,7.75)" d="M0,4.2V-4.2" style="opacity: 1; stroke: rgb(255, 127, 14); stroke-opacity: 1; stroke-width: 1px; fill: none;"/><path class="point" transform="translate(322.56,7.75)" d="M0,4.2V-4.2" style="opacity: 1; stroke: rgb(255, 127, 14); stroke-opacity: 1; stroke-width: 1px; fill: none;"/><path class="point" transform="translate(143.03,7.75)" d="M0,4.2V-4.2" style="opacity: 1; stroke: rgb(255, 127, 14); stroke-opacity: 1; stroke-width: 1px; fill: none;"/><path class="point" transform="translate(300.74,7.75)" d="M0,4.2V-4.2" style="opacity: 1; stroke: rgb(255, 127, 14); stroke-opacity: 1; stroke-width: 1px; fill: none;"/><path class="point" transform="translate(256.3,7.75)" d="M0,4.2V-4.2" style="opacity: 1; stroke: rgb(255, 127, 14); stroke-opacity: 1; stroke-width: 1px; fill: none;"/><path class="point" transform="translate(256.3,7.75)" d="M0,4.2V-4.2" style="opacity: 1; stroke: rgb(255, 127, 14); stroke-opacity: 1; stroke-width: 1px; fill: none;"/><path class="point" transform="translate(341.81,7.75)" d="M0,4.2V-4.2" style="opacity: 1; stroke: rgb(255, 127, 14); stroke-opacity: 1; stroke-width: 1px; fill: none;"/><path class="point" transform="translate(284.38,7.75)" d="M0,4.2V-4.2" style="opacity: 1; stroke: rgb(255, 127, 14); stroke-opacity: 1; stroke-width: 1px; fill: none;"/><path class="point" transform="translate(66.22,7.75)" d="M0,4.2V-4.2" style="opacity: 1; stroke: rgb(255, 127, 14); stroke-opacity: 1; stroke-width: 1px; fill: none;"/><path class="point" transform="translate(162.27,7.75)" d="M0,4.2V-4.2" style="opacity: 1; stroke: rgb(255, 127, 14); stroke-opacity: 1; stroke-width: 1px; fill: none;"/><path class="point" transform="translate(179.49,7.75)" d="M0,4.2V-4.2" style="opacity: 1; stroke: rgb(255, 127, 14); stroke-opacity: 1; stroke-width: 1px; fill: none;"/><path class="point" transform="translate(308.34,7.75)" d="M0,4.2V-4.2" style="opacity: 1; stroke: rgb(255, 127, 14); stroke-opacity: 1; stroke-width: 1px; fill: none;"/><path class="point" transform="translate(275.55,7.75)" d="M0,4.2V-4.2" style="opacity: 1; stroke: rgb(255, 127, 14); stroke-opacity: 1; stroke-width: 1px; fill: none;"/><path class="point" transform="translate(300.74,7.75)" d="M0,4.2V-4.2" style="opacity: 1; stroke: rgb(255, 127, 14); stroke-opacity: 1; stroke-width: 1px; fill: none;"/><path class="point" transform="translate(222.36,7.75)" d="M0,4.2V-4.2" style="opacity: 1; stroke: rgb(255, 127, 14); stroke-opacity: 1; stroke-width: 1px; fill: none;"/><path class="point" transform="translate(162.27,7.75)" d="M0,4.2V-4.2" style="opacity: 1; stroke: rgb(255, 127, 14); stroke-opacity: 1; stroke-width: 1px; fill: none;"/><path class="point" transform="translate(162.27,7.75)" d="M0,4.2V-4.2" style="opacity: 1; stroke: rgb(255, 127, 14); stroke-opacity: 1; stroke-width: 1px; fill: none;"/><path class="point" transform="translate(179.49,7.75)" d="M0,4.2V-4.2" style="opacity: 1; stroke: rgb(255, 127, 14); stroke-opacity: 1; stroke-width: 1px; fill: none;"/><path class="point" transform="translate(195.07,7.75)" d="M0,4.2V-4.2" style="opacity: 1; stroke: rgb(255, 127, 14); stroke-opacity: 1; stroke-width: 1px; fill: none;"/><path class="point" transform="translate(195.07,7.75)" d="M0,4.2V-4.2" style="opacity: 1; stroke: rgb(255, 127, 14); stroke-opacity: 1; stroke-width: 1px; fill: none;"/><path class="point" transform="translate(275.55,7.75)" d="M0,4.2V-4.2" style="opacity: 1; stroke: rgb(255, 127, 14); stroke-opacity: 1; stroke-width: 1px; fill: none;"/><path class="point" transform="translate(195.07,7.75)" d="M0,4.2V-4.2" style="opacity: 1; stroke: rgb(255, 127, 14); stroke-opacity: 1; stroke-width: 1px; fill: none;"/><path class="point" transform="translate(66.22,7.75)" d="M0,4.2V-4.2" style="opacity: 1; stroke: rgb(255, 127, 14); stroke-opacity: 1; stroke-width: 1px; fill: none;"/><path class="point" transform="translate(121.2,7.75)" d="M0,4.2V-4.2" style="opacity: 1; stroke: rgb(255, 127, 14); stroke-opacity: 1; stroke-width: 1px; fill: none;"/><path class="point" transform="translate(29.75,7.75)" d="M0,4.2V-4.2" style="opacity: 1; stroke: rgb(255, 127, 14); stroke-opacity: 1; stroke-width: 1px; fill: none;"/><path class="point" transform="translate(29.75,7.75)" d="M0,4.2V-4.2" style="opacity: 1; stroke: rgb(255, 127, 14); stroke-opacity: 1; stroke-width: 1px; fill: none;"/><path class="point" transform="translate(29.75,7.75)" d="M0,4.2V-4.2" style="opacity: 1; stroke: rgb(255, 127, 14); stroke-opacity: 1; stroke-width: 1px; fill: none;"/><path class="point" transform="translate(29.75,7.75)" d="M0,4.2V-4.2" style="opacity: 1; stroke: rgb(255, 127, 14); stroke-opacity: 1; stroke-width: 1px; fill: none;"/><path class="point" transform="translate(29.75,7.75)" d="M0,4.2V-4.2" style="opacity: 1; stroke: rgb(255, 127, 14); stroke-opacity: 1; stroke-width: 1px; fill: none;"/><path class="point" transform="translate(29.75,7.75)" d="M0,4.2V-4.2" style="opacity: 1; stroke: rgb(255, 127, 14); stroke-opacity: 1; stroke-width: 1px; fill: none;"/><path class="point" transform="translate(29.75,7.75)" d="M0,4.2V-4.2" style="opacity: 1; stroke: rgb(255, 127, 14); stroke-opacity: 1; stroke-width: 1px; fill: none;"/><path class="point" transform="translate(66.22,7.75)" d="M0,4.2V-4.2" style="opacity: 1; stroke: rgb(255, 127, 14); stroke-opacity: 1; stroke-width: 1px; fill: none;"/><path class="point" transform="translate(66.22,7.75)" d="M0,4.2V-4.2" style="opacity: 1; stroke: rgb(255, 127, 14); stroke-opacity: 1; stroke-width: 1px; fill: none;"/><path class="point" transform="translate(121.2,7.75)" d="M0,4.2V-4.2" style="opacity: 1; stroke: rgb(255, 127, 14); stroke-opacity: 1; stroke-width: 1px; fill: none;"/><path class="point" transform="translate(162.27,7.75)" d="M0,4.2V-4.2" style="opacity: 1; stroke: rgb(255, 127, 14); stroke-opacity: 1; stroke-width: 1px; fill: none;"/><path class="point" transform="translate(29.75,7.75)" d="M0,4.2V-4.2" style="opacity: 1; stroke: rgb(255, 127, 14); stroke-opacity: 1; stroke-width: 1px; fill: none;"/><path class="point" transform="translate(96.01,7.75)" d="M0,4.2V-4.2" style="opacity: 1; stroke: rgb(255, 127, 14); stroke-opacity: 1; stroke-width: 1px; fill: none;"/><path class="point" transform="translate(162.27,7.75)" d="M0,4.2V-4.2" style="opacity: 1; stroke: rgb(255, 127, 14); stroke-opacity: 1; stroke-width: 1px; fill: none;"/><path class="point" transform="translate(96.01,7.75)" d="M0,4.2V-4.2" style="opacity: 1; stroke: rgb(255, 127, 14); stroke-opacity: 1; stroke-width: 1px; fill: none;"/><path class="point" transform="translate(121.2,7.75)" d="M0,4.2V-4.2" style="opacity: 1; stroke: rgb(255, 127, 14); stroke-opacity: 1; stroke-width: 1px; fill: none;"/><path class="point" transform="translate(29.75,7.75)" d="M0,4.2V-4.2" style="opacity: 1; stroke: rgb(255, 127, 14); stroke-opacity: 1; stroke-width: 1px; fill: none;"/><path class="point" transform="translate(29.75,7.75)" d="M0,4.2V-4.2" style="opacity: 1; stroke: rgb(255, 127, 14); stroke-opacity: 1; stroke-width: 1px; fill: none;"/><path class="point" transform="translate(29.75,7.75)" d="M0,4.2V-4.2" style="opacity: 1; stroke: rgb(255, 127, 14); stroke-opacity: 1; stroke-width: 1px; fill: none;"/><path class="point" transform="translate(29.75,7.75)" d="M0,4.2V-4.2" style="opacity: 1; stroke: rgb(255, 127, 14); stroke-opacity: 1; stroke-width: 1px; fill: none;"/><path class="point" transform="translate(29.75,7.75)" d="M0,4.2V-4.2" style="opacity: 1; stroke: rgb(255, 127, 14); stroke-opacity: 1; stroke-width: 1px; fill: none;"/></g><g class="text"/></g></g></g><g class="overplot"/><path class="xlines-above crisp" d="M0,0" style="fill: none;"/><path class="ylines-above crisp" d="M0,0" style="fill: none;"/><g class="overlines-above"/><g class="xaxislayer-above"><g class="xtick"><text text-anchor="middle" x="0" y="433" transform="translate(144.45,0)" style="font-family: 'Open Sans', verdana, arial, sans-serif; font-size: 12px; fill: rgb(242, 245, 250); fill-opacity: 1; white-space: pre; opacity: 1;">0.5</text></g><g class="xtick"><text text-anchor="middle" x="0" y="433" style="font-family: 'Open Sans', verdana, arial, sans-serif; font-size: 12px; fill: rgb(242, 245, 250); fill-opacity: 1; white-space: pre; opacity: 1;" transform="translate(226.16,0)">1</text></g><g class="xtick"><text text-anchor="middle" x="0" y="433" style="font-family: 'Open Sans', verdana, arial, sans-serif; font-size: 12px; fill: rgb(242, 245, 250); fill-opacity: 1; white-space: pre; opacity: 1;" transform="translate(307.87,0)">1.5</text></g><g class="xtick"><text text-anchor="middle" x="0" y="433" style="font-family: 'Open Sans', verdana, arial, sans-serif; font-size: 12px; fill: rgb(242, 245, 250); fill-opacity: 1; white-space: pre; opacity: 1;" transform="translate(389.58,0)">2</text></g><g class="xtick"><text text-anchor="middle" x="0" y="433" style="font-family: 'Open Sans', verdana, arial, sans-serif; font-size: 12px; fill: rgb(242, 245, 250); fill-opacity: 1; white-space: pre; opacity: 1;" transform="translate(471.28,0)">2.5</text></g><g class="xtick"><text text-anchor="middle" x="0" y="433" style="font-family: 'Open Sans', verdana, arial, sans-serif; font-size: 12px; fill: rgb(242, 245, 250); fill-opacity: 1; white-space: pre; opacity: 1;" transform="translate(552.99,0)">3</text></g></g><g class="yaxislayer-above"/><g class="overaxes-above"/></g></g><g class="polarlayer"/><g class="ternarylayer"/><g class="geolayer"/><g class="funnelarealayer"/><g class="pielayer"/><g class="iciclelayer"/><g class="treemaplayer"/><g class="sunburstlayer"/><g class="glimages"/><defs id="topdefs-aed94c"><g class="clips"/><clipPath id="legendaed94c"><rect width="78" height="48" x="0" y="0"/></clipPath></defs><g class="layer-above"><g class="imagelayer"/><g class="shapelayer"/></g><g class="infolayer"><g class="legend" pointer-events="all" transform="translate(610.4,100)"><rect class="bg" shape-rendering="crispEdges" width="78" height="48" x="0" y="0" style="stroke: rgb(68, 68, 68); stroke-opacity: 1; fill: rgb(17, 17, 17); fill-opacity: 1; stroke-width: 0px;"/><g class="scrollbox" transform="" clip-path="url(#legendaed94c)"><g class="groups"><g class="traces" transform="translate(0,14.5)" style="opacity: 1;"><text class="legendtext" text-anchor="start" x="40" y="4.680000000000001" style="font-family: 'Open Sans', verdana, arial, sans-serif; font-size: 12px; fill: rgb(242, 245, 250); fill-opacity: 1; white-space: pre;">Ab24</text><g class="layers" style="opacity: 0.7;"><g class="legendfill"/><g class="legendlines"/><g class="legendsymbols"><g class="legendpoints"><path class="legendundefined" d="M6,6H-6V-6H6Z" transform="translate(20,0)" style="stroke-width: 0px; fill: rgb(255, 127, 14); fill-opacity: 1;"/></g></g></g><rect class="legendtoggle" x="0" y="-9.5" width="72.3125" height="19" style="fill: rgb(0, 0, 0); fill-opacity: 0;"/></g><g class="traces" transform="translate(0,33.5)" style="opacity: 1;"><text class="legendtext" text-anchor="start" x="40" y="4.680000000000001" style="font-family: 'Open Sans', verdana, arial, sans-serif; font-size: 12px; fill: rgb(242, 245, 250); fill-opacity: 1; white-space: pre;">Ab6</text><g class="layers" style="opacity: 0.7;"><g class="legendfill"/><g class="legendlines"/><g class="legendsymbols"><g class="legendpoints"><path class="legendundefined" d="M6,6H-6V-6H6Z" transform="translate(20,0)" style="stroke-width: 0px; fill: rgb(31, 119, 180); fill-opacity: 1;"/></g></g></g><rect class="legendtoggle" x="0" y="-9.5" width="72.3125" height="19" style="fill: rgb(0, 0, 0); fill-opacity: 0;"/></g></g></g><rect class="scrollbar" rx="20" ry="3" width="0" height="0" x="0" y="0" style="fill: rgb(128, 139, 164); fill-opacity: 1;"/></g><g class="g-gtitle"><text class="gtitle" x="35" y="50" text-anchor="start" dy="0em" style="font-family: 'Open Sans', verdana, arial, sans-serif; font-size: 17px; fill: rgb(242, 245, 250); opacity: 1; font-weight: normal; white-space: pre;">Distribution of complex log abundances</text></g><g class="g-xtitle"/><g class="g-ytitle"/><g class="g-y2title"/></g></svg>