<svg class="main-svg" xmlns="http://www.w3.org/2000/svg" xmlns:xlink="http://www.w3.org/1999/xlink" width="700" height="500" style="" viewBox="0 0 700 500"><rect x="0" y="0" width="700" height="500" style="fill: rgb(17, 17, 17); fill-opacity: 1;"/><defs id="defs-52a46f"><g class="clips"><clipPath id="clip52a46fxyplot" class="plotclip"><rect width="520" height="320"/></clipPath><clipPath class="axesclip" id="clip52a46fx"><rect x="80" y="0" width="520" height="500"/></clipPath><clipPath class="axesclip" id="clip52a46fy"><rect x="0" y="100" width="700" height="320"/></clipPath><clipPath class="axesclip" id="clip52a46fxy"><rect x="80" y="100" width="520" height="320"/></clipPath></g><g class="gradients"/><g class="patterns"/></defs><g class="bglayer"/><g class="layer-below"><g class="imagelayer"/><g class="shapelayer"/></g><g class="cartesianlayer"><g class="subplot xy"><g class="layer-subplot"><g class="shapelayer"/><g class="imagelayer"/></g><g class="gridlayer"><g class="x"/><g class="y"><path class="ygrid crisp" transform="translate(0,390.04)" d="M80,0h520" style="stroke: rgb(40, 52, 66); stroke-opacity: 1; stroke-width: 1px;"/><path class="ygrid crisp" transform="translate(0,337.56)" d="M80,0h520" style="stroke: rgb(40, 52, 66); stroke-opacity: 1; stroke-width: 1px;"/><path class="ygrid crisp" transform="translate(0,285.08000000000004)" d="M80,0h520" style="stroke: rgb(40, 52, 66); stroke-opacity: 1; stroke-width: 1px;"/><path class="ygrid crisp" transform="translate(0,232.6)" d="M80,0h520" style="stroke: rgb(40, 52, 66); stroke-opacity: 1; stroke-width: 1px;"/><path class="ygrid crisp" transform="translate(0,180.12)" d="M80,0h520" style="stroke: rgb(40, 52, 66); stroke-opacity: 1; stroke-width: 1px;"/><path class="ygrid crisp" transform="translate(0,127.64)" d="M80,0h520" style="stroke: rgb(40, 52, 66); stroke-opacity: 1; stroke-width: 1px;"/></g></g><g class="zerolinelayer"/><path class="xlines-below"/><path class="ylines-below"/><g class="overlines-below"/><g class="xaxislayer-below"/><g class="yaxislayer-below"/><g class="overaxes-below"/><g class="plot" transform="translate(80,100)" clip-path="url(#clip52a46fxyplot)"><g class="violinlayer mlayer"><g class="trace violins" style="opacity: 1;"><path class="violin" d="M138.62,301.29Q143.23,300 145.87,299.42C148.99,298.74 152.56,298.15 156.15,297.55C160.09,296.89 164.44,296.3 168.57,295.67C172.69,295.05 177.11,294.47 180.93,293.8C184.25,293.21 187.89,292.76 190.2,291.93C191.69,291.39 193.69,290.69 193.7,290.06C193.71,289.44 191.79,288.73 190.34,288.19C188.08,287.35 184.46,286.9 181.17,286.31C177.37,285.63 172.96,285.06 168.84,284.44C164.7,283.82 160.34,283.22 156.39,282.57C152.78,281.97 149.19,281.39 146.05,280.7C143.39,280.12 140.86,279.53 138.74,278.82C137.04,278.25 135.49,277.67 134.27,276.95C133.31,276.38 132.48,275.77 131.89,275.08C131.39,274.5 131.04,273.86 130.82,273.21C130.61,272.6 130.54,271.96 130.55,271.33C130.56,270.71 130.65,270.06 130.87,269.46C131.1,268.82 131.46,268.17 131.94,267.59C132.5,266.91 133.26,266.29 134.14,265.72C135.21,265.02 136.54,264.43 137.97,263.85C139.68,263.16 141.7,262.56 143.77,261.97C146.11,261.3 148.74,260.71 151.31,260.1C153.98,259.46 156.88,258.88 159.5,258.23C161.95,257.63 164.57,257.09 166.57,256.36C168.12,255.8 170.14,255.3 170.58,254.48C170.87,253.94 170.72,253.14 170.31,252.61C169.65,251.76 167.55,251.31 165.86,250.74C163.76,250.03 161.09,249.48 158.6,248.87C155.98,248.23 153.12,247.64 150.51,247C148.05,246.39 145.54,245.8 143.37,245.12C141.5,244.54 139.66,243.96 138.21,243.25C137.05,242.68 135.94,242.1 135.23,241.38C134.67,240.81 134.25,240.16 134.07,239.51C133.9,238.91 133.99,238.25 134.08,237.63C134.17,237 134.43,236.38 134.61,235.76C134.78,235.14 135.02,234.52 135.13,233.89C135.24,233.27 135.31,232.64 135.28,232.02C135.25,231.39 135.12,230.77 134.96,230.15C134.79,229.52 134.52,228.89 134.28,228.27C134.03,227.64 133.73,227.03 133.49,226.4C133.25,225.78 133.02,225.16 132.84,224.53C132.67,223.91 132.53,223.29 132.44,222.66C132.35,222.04 132.32,221.41 132.3,220.78C132.28,220.16 132.29,219.53 132.29,218.91C132.29,218.29 132.3,217.66 132.3,217.04C132.3,216.42 132.28,215.79 132.26,215.17C132.24,214.55 132.19,213.92 132.16,213.3C132.13,212.67 132.09,212.05 132.06,211.42C132.03,210.8 132,210.17 131.99,209.55C131.98,208.93 131.98,208.3 131.97,207.68C131.96,207.06 131.96,206.43 131.95,205.81C131.94,205.18 131.92,204.56 131.9,203.93C131.88,203.31 131.85,202.68 131.82,202.06C131.79,201.44 131.75,200.81 131.72,200.19C131.68,199.57 131.64,198.94 131.61,198.32C131.58,197.7 131.55,197.07 131.52,196.45C131.49,195.82 131.46,195.2 131.43,194.57C131.4,193.95 131.38,193.32 131.35,192.7C131.32,192.08 131.29,191.45 131.26,190.83C131.23,190.21 131.2,189.58 131.17,188.96C131.14,188.33 131.11,187.71 131.08,187.08C131.05,186.46 131.01,185.83 130.98,185.21C130.95,184.59 130.92,183.96 130.89,183.34C130.86,182.72 130.83,182.09 130.8,181.47C130.77,180.85 130.74,180.22 130.72,179.6C130.7,178.97 130.68,178.35 130.67,177.72C130.66,177.1 130.65,176.47 130.64,175.85C130.63,175.23 130.63,174.6 130.63,173.98C130.63,173.36 130.63,172.73 130.63,172.11C130.63,171.48 130.64,170.86 130.65,170.23C130.66,169.61 130.66,168.98 130.67,168.36C130.68,167.74 130.68,167.11 130.69,166.49C130.69,165.87 130.7,165.24 130.7,164.62C130.7,164 130.69,163.37 130.69,162.75C130.69,162.12 130.69,161.5 130.68,160.87C130.67,160.25 130.66,159.62 130.65,159C130.64,158.38 130.63,157.75 130.62,157.13C130.61,156.51 130.59,155.88 130.58,155.26C130.57,154.63 130.55,154.01 130.54,153.38C130.53,152.76 130.51,152.13 130.5,151.51C130.49,150.89 130.47,150.26 130.46,149.64C130.45,149.02 130.43,148.39 130.42,147.77C130.41,147.14 130.4,146.52 130.39,145.89C130.38,145.27 130.37,144.64 130.36,144.02C130.35,143.4 130.34,142.77 130.33,142.15C130.32,141.53 130.32,140.9 130.31,140.28C130.31,139.66 130.3,139.03 130.3,138.41C130.3,137.78 130.3,137.16 130.3,136.53C130.3,135.91 130.29,135.28 130.29,134.66C130.29,134.04 130.28,133.41 130.28,132.79C130.27,132.17 130.27,131.54 130.26,130.92C130.25,130.29 130.25,129.67 130.24,129.04C130.23,128.42 130.22,127.79 130.21,127.17C130.2,126.55 130.19,125.92 130.18,125.3C130.17,124.68 130.15,124.05 130.14,123.43C130.13,122.81 130.12,122.18 130.11,121.56C130.1,120.93 130.09,120.31 130.08,119.68C130.07,119.06 130.07,118.43 130.06,117.81C130.06,117.19 130.05,116.56 130.05,115.94C130.05,115.32 130.06,114.69 130.06,114.07C130.06,113.44 130.06,112.82 130.07,112.19C130.07,111.57 130.08,110.94 130.09,110.32C130.1,109.7 130.1,109.07 130.11,108.45C130.12,107.83 130.12,107.2 130.13,106.58C130.13,105.96 130.14,105.33 130.14,104.71C130.14,104.08 130.15,103.46 130.15,102.83C130.15,102.21 130.14,101.58 130.14,100.96C130.13,100.34 130.13,99.71 130.12,99.09C130.11,98.47 130.11,97.84 130.1,97.22C130.09,96.59 130.09,95.97 130.08,95.34C130.07,94.72 130.07,94.09 130.06,93.47C130.06,92.85 130.05,92.22 130.05,91.6C130.05,90.98 130.04,90.35 130.04,89.73C130.04,89.11 130.05,88.48 130.05,87.86C130.06,87.23 130.06,86.61 130.07,85.98C130.08,85.36 130.09,84.73 130.1,84.11C130.11,83.49 130.12,82.86 130.13,82.24C130.14,81.62 130.15,80.99 130.15,80.37C130.16,79.74 130.16,79.12 130.16,78.49C130.16,77.87 130.16,77.24 130.16,76.62C130.16,76 130.15,75.37 130.14,74.75C130.13,74.13 130.12,73.5 130.11,72.88C130.1,72.26 130.09,71.63 130.08,71.01C130.07,70.38 130.07,69.76 130.06,69.13C130.05,68.51 130.05,67.88 130.04,67.26C130.04,66.64 130.03,66.01 130.03,65.39C130.03,64.77 130.04,64.14 130.04,63.52C130.04,62.89 130.04,62.27 130.04,61.64C130.04,61.02 130.05,60.39 130.06,59.77C130.06,59.15 130.07,58.52 130.07,57.9C130.07,57.28 130.07,56.65 130.07,56.03C130.07,55.41 130.07,54.78 130.07,54.16C130.07,53.53 130.07,52.91 130.07,52.28C130.07,51.66 130.07,51.03 130.07,50.41C130.07,49.79 130.06,49.16 130.06,48.54C130.06,47.92 130.05,47.29 130.05,46.67C130.05,46.04 130.05,45.42 130.05,44.79C130.05,44.17 130.04,43.54 130.04,42.92C130.04,42.3 130.03,41.67 130.03,41.05C130.03,40.43 130.02,39.8 130.02,39.18C130.02,38.56 130.01,37.93 130.01,37.31C130.01,36.68 130.01,36.06 130.01,35.43Q130.01,34.81 130,33.56L130,33.56Q129.99,34.81 129.99,35.43C129.99,36.06 129.99,36.68 129.99,37.31C129.99,37.93 129.98,38.56 129.98,39.18C129.98,39.8 129.97,40.43 129.97,41.05C129.97,41.67 129.96,42.3 129.96,42.92C129.96,43.54 129.95,44.17 129.95,44.79C129.95,45.42 129.95,46.04 129.95,46.67C129.95,47.29 129.94,47.92 129.94,48.54C129.94,49.16 129.93,49.79 129.93,50.41C129.93,51.03 129.93,51.66 129.93,52.28C129.93,52.91 129.93,53.53 129.93,54.16C129.93,54.78 129.93,55.41 129.93,56.03C129.93,56.65 129.93,57.28 129.93,57.9C129.93,58.52 129.94,59.15 129.94,59.77C129.95,60.39 129.96,61.02 129.96,61.64C129.96,62.27 129.96,62.89 129.96,63.52C129.96,64.14 129.97,64.77 129.97,65.39C129.97,66.01 129.96,66.64 129.96,67.26C129.95,67.88 129.95,68.51 129.94,69.13C129.93,69.76 129.93,70.38 129.92,71.01C129.91,71.63 129.9,72.26 129.89,72.88C129.88,73.5 129.87,74.13 129.86,74.75C129.85,75.37 129.84,76 129.84,76.62C129.84,77.24 129.84,77.87 129.84,78.49C129.84,79.12 129.84,79.74 129.85,80.37C129.85,80.99 129.86,81.62 129.87,82.24C129.88,82.86 129.89,83.49 129.9,84.11C129.91,84.73 129.92,85.36 129.93,85.98C129.94,86.61 129.94,87.23 129.95,87.86C129.95,88.48 129.96,89.11 129.96,89.73C129.96,90.35 129.95,90.98 129.95,91.6C129.95,92.22 129.94,92.85 129.94,93.47C129.93,94.09 129.93,94.72 129.92,95.34C129.91,95.97 129.91,96.59 129.9,97.22C129.89,97.84 129.89,98.47 129.88,99.09C129.87,99.71 129.87,100.34 129.86,100.96C129.86,101.58 129.85,102.21 129.85,102.83C129.85,103.46 129.86,104.08 129.86,104.71C129.86,105.33 129.87,105.96 129.87,106.58C129.88,107.2 129.88,107.83 129.89,108.45C129.9,109.07 129.9,109.7 129.91,110.32C129.92,110.94 129.93,111.57 129.93,112.19C129.94,112.82 129.94,113.44 129.94,114.07C129.94,114.69 129.95,115.32 129.95,115.94C129.95,116.56 129.94,117.19 129.94,117.81C129.93,118.43 129.93,119.06 129.92,119.68C129.91,120.31 129.9,120.93 129.89,121.56C129.88,122.18 129.87,122.81 129.86,123.43C129.85,124.05 129.83,124.68 129.82,125.3C129.81,125.92 129.8,126.55 129.79,127.17C129.78,127.79 129.77,128.42 129.76,129.04C129.75,129.67 129.75,130.29 129.74,130.92C129.73,131.54 129.73,132.17 129.72,132.79C129.72,133.41 129.71,134.04 129.71,134.66C129.71,135.28 129.7,135.91 129.7,136.53C129.7,137.16 129.7,137.78 129.7,138.41C129.7,139.03 129.69,139.66 129.69,140.28C129.68,140.9 129.68,141.53 129.67,142.15C129.66,142.77 129.65,143.4 129.64,144.02C129.63,144.64 129.62,145.27 129.61,145.89C129.6,146.52 129.59,147.14 129.58,147.77C129.57,148.39 129.55,149.02 129.54,149.64C129.53,150.26 129.51,150.89 129.5,151.51C129.49,152.13 129.47,152.76 129.46,153.38C129.45,154.01 129.43,154.63 129.42,155.26C129.41,155.88 129.39,156.51 129.38,157.13C129.37,157.75 129.36,158.38 129.35,159C129.34,159.62 129.33,160.25 129.32,160.87C129.31,161.5 129.31,162.12 129.31,162.75C129.31,163.37 129.3,164 129.3,164.62C129.3,165.24 129.31,165.87 129.31,166.49C129.32,167.11 129.32,167.74 129.33,168.36C129.34,168.98 129.34,169.61 129.35,170.23C129.36,170.86 129.37,171.48 129.37,172.11C129.37,172.73 129.37,173.36 129.37,173.98C129.37,174.6 129.37,175.23 129.36,175.85C129.35,176.47 129.34,177.1 129.33,177.72C129.32,178.35 129.3,178.97 129.28,179.6C129.26,180.22 129.23,180.85 129.2,181.47C129.17,182.09 129.14,182.72 129.11,183.34C129.08,183.96 129.05,184.59 129.02,185.21C128.99,185.83 128.95,186.46 128.92,187.08C128.89,187.71 128.86,188.33 128.83,188.96C128.8,189.58 128.77,190.21 128.74,190.83C128.71,191.45 128.68,192.08 128.65,192.7C128.62,193.32 128.6,193.95 128.57,194.57C128.54,195.2 128.51,195.82 128.48,196.45C128.45,197.07 128.42,197.7 128.39,198.32C128.36,198.94 128.32,199.57 128.28,200.19C128.25,200.81 128.21,201.44 128.18,202.06C128.15,202.68 128.12,203.31 128.1,203.93C128.08,204.56 128.06,205.18 128.05,205.81C128.04,206.43 128.04,207.06 128.03,207.68C128.02,208.3 128.02,208.93 128.01,209.55C128,210.17 127.97,210.8 127.94,211.42C127.91,212.05 127.87,212.67 127.84,213.3C127.81,213.92 127.76,214.55 127.74,215.17C127.72,215.79 127.7,216.42 127.7,217.04C127.7,217.66 127.71,218.29 127.71,218.91C127.71,219.53 127.72,220.16 127.7,220.78C127.68,221.41 127.65,222.04 127.56,222.66C127.47,223.29 127.33,223.91 127.16,224.53C126.98,225.16 126.75,225.78 126.51,226.4C126.27,227.03 125.97,227.64 125.72,228.27C125.48,228.89 125.21,229.52 125.04,230.15C124.88,230.77 124.75,231.39 124.72,232.02C124.69,232.64 124.76,233.27 124.87,233.89C124.98,234.52 125.22,235.14 125.39,235.76C125.57,236.38 125.83,237 125.92,237.63C126.01,238.25 126.1,238.91 125.93,239.51C125.75,240.16 125.33,240.81 124.77,241.38C124.06,242.1 122.95,242.68 121.79,243.25C120.34,243.96 118.5,244.54 116.63,245.12C114.46,245.8 111.95,246.39 109.49,247C106.88,247.64 104.02,248.23 101.4,248.87C98.91,249.48 96.24,250.03 94.14,250.74C92.45,251.31 90.35,251.76 89.69,252.61C89.28,253.14 89.13,253.94 89.42,254.48C89.86,255.3 91.88,255.8 93.43,256.36C95.43,257.09 98.05,257.63 100.5,258.23C103.12,258.88 106.02,259.46 108.69,260.1C111.26,260.71 113.89,261.3 116.23,261.97C118.3,262.56 120.32,263.16 122.03,263.85C123.46,264.43 124.79,265.02 125.86,265.72C126.74,266.29 127.5,266.91 128.06,267.59C128.54,268.17 128.9,268.82 129.13,269.46C129.35,270.06 129.44,270.71 129.45,271.33C129.46,271.96 129.39,272.6 129.18,273.21C128.96,273.86 128.61,274.5 128.11,275.08C127.52,275.77 126.69,276.38 125.73,276.95C124.51,277.67 122.96,278.25 121.26,278.82C119.14,279.53 116.61,280.12 113.95,280.7C110.81,281.39 107.22,281.97 103.61,282.57C99.66,283.22 95.3,283.82 91.16,284.44C87.04,285.06 82.63,285.63 78.83,286.31C75.54,286.9 71.92,287.35 69.66,288.19C68.21,288.73 66.29,289.44 66.3,290.06C66.31,290.69 68.31,291.39 69.8,291.93C72.11,292.76 75.75,293.21 79.07,293.8C82.89,294.47 87.31,295.05 91.43,295.67C95.56,296.3 99.91,296.89 103.85,297.55C107.44,298.15 111.01,298.74 114.13,299.42Q116.77,300 121.38,301.29Z" style="vector-effect: non-scaling-stroke; stroke-width: 2px; stroke: rgb(99, 110, 250); stroke-opacity: 1; fill: rgb(99, 110, 250); fill-opacity: 0.5;"/><path class="box" d="M114.08,289.04H145.93M114.08,290.04H145.93V253.66H114.08ZM130,290.04V290.04M130,253.66V205.58" style="vector-effect: non-scaling-stroke; stroke-width: 2px; stroke: rgb(99, 110, 250); stroke-opacity: 1; fill: rgb(99, 110, 250); fill-opacity: 0.5;"/><path class="mean" d="M114.08,268.03H145.93" style="fill: none; vector-effect: non-scaling-stroke; stroke-width: 2px; stroke-dasharray: 4px, 2px; stroke: rgb(99, 110, 250); stroke-opacity: 1;"/><g class="points"><path class="point" transform="translate(130,196.01)" d="M3,0A3,3 0 1,1 0,-3A3,3 0 0,1 3,0Z" style="opacity: 1; stroke-width: 0px; fill: rgb(99, 110, 250); fill-opacity: 1;"/><path class="point" transform="translate(130,196.01)" d="M3,0A3,3 0 1,1 0,-3A3,3 0 0,1 3,0Z" style="opacity: 1; stroke-width: 0px; fill: rgb(99, 110, 250); fill-opacity: 1;"/><path class="point" transform="translate(130,196.01)" d="M3,0A3,3 0 1,1 0,-3A3,3 0 0,1 3,0Z" style="opacity: 1; stroke-width: 0px; fill: rgb(99, 110, 250); fill-opacity: 1;"/><path class="point" transform="translate(130,196.01)" d="M3,0A3,3 0 1,1 0,-3A3,3 0 0,1 3,0Z" style="opacity: 1; stroke-width: 0px; fill: rgb(99, 110, 250); fill-opacity: 1;"/><path class="point" transform="translate(130,196.01)" d="M3,0A3,3 0 1,1 0,-3A3,3 0 0,1 3,0Z" style="opacity: 1; stroke-width: 0px; fill: rgb(99, 110, 250); fill-opacity: 1;"/><path class="point" transform="translate(130,196.01)" d="M3,0A3,3 0 1,1 0,-3A3,3 0 0,1 3,0Z" style="opacity: 1; stroke-width: 0px; fill: rgb(99, 110, 250); fill-opacity: 1;"/><path class="point" transform="translate(130,196.01)" d="M3,0A3,3 0 1,1 0,-3A3,3 0 0,1 3,0Z" style="opacity: 1; stroke-width: 0px; fill: rgb(99, 110, 250); fill-opacity: 1;"/><path class="point" transform="translate(130,196.01)" d="M3,0A3,3 0 1,1 0,-3A3,3 0 0,1 3,0Z" style="opacity: 1; stroke-width: 0px; fill: rgb(99, 110, 250); fill-opacity: 1;"/><path class="point" transform="translate(130,196.01)" d="M3,0A3,3 0 1,1 0,-3A3,3 0 0,1 3,0Z" style="opacity: 1; stroke-width: 0px; fill: rgb(99, 110, 250); fill-opacity: 1;"/><path class="point" transform="translate(130,196.01)" d="M3,0A3,3 0 1,1 0,-3A3,3 0 0,1 3,0Z" style="opacity: 1; stroke-width: 0px; fill: rgb(99, 110, 250); fill-opacity: 1;"/><path class="point" transform="translate(130,196.01)" d="M3,0A3,3 0 1,1 0,-3A3,3 0 0,1 3,0Z" style="opacity: 1; stroke-width: 0px; fill: rgb(99, 110, 250); fill-opacity: 1;"/><path class="point" transform="translate(130,196.01)" d="M3,0A3,3 0 1,1 0,-3A3,3 0 0,1 3,0Z" style="opacity: 1; stroke-width: 0px; fill: rgb(99, 110, 250); fill-opacity: 1;"/><path class="point" transform="translate(130,196.01)" d="M3,0A3,3 0 1,1 0,-3A3,3 0 0,1 3,0Z" style="opacity: 1; stroke-width: 0px; fill: rgb(99, 110, 250); fill-opacity: 1;"/><path class="point" transform="translate(130,196.01)" d="M3,0A3,3 0 1,1 0,-3A3,3 0 0,1 3,0Z" style="opacity: 1; stroke-width: 0px; fill: rgb(99, 110, 250); fill-opacity: 1;"/><path class="point" transform="translate(130,196.01)" d="M3,0A3,3 0 1,1 0,-3A3,3 0 0,1 3,0Z" style="opacity: 1; stroke-width: 0px; fill: rgb(99, 110, 250); fill-opacity: 1;"/><path class="point" transform="translate(130,196.01)" d="M3,0A3,3 0 1,1 0,-3A3,3 0 0,1 3,0Z" style="opacity: 1; stroke-width: 0px; fill: rgb(99, 110, 250); fill-opacity: 1;"/><path class="point" transform="translate(130,196.01)" d="M3,0A3,3 0 1,1 0,-3A3,3 0 0,1 3,0Z" style="opacity: 1; stroke-width: 0px; fill: rgb(99, 110, 250); fill-opacity: 1;"/><path class="point" transform="translate(130,196.01)" d="M3,0A3,3 0 1,1 0,-3A3,3 0 0,1 3,0Z" style="opacity: 1; stroke-width: 0px; fill: rgb(99, 110, 250); fill-opacity: 1;"/><path class="point" transform="translate(130,196.01)" d="M3,0A3,3 0 1,1 0,-3A3,3 0 0,1 3,0Z" style="opacity: 1; stroke-width: 0px; fill: rgb(99, 110, 250); fill-opacity: 1;"/><path class="point" transform="translate(130,196.01)" d="M3,0A3,3 0 1,1 0,-3A3,3 0 0,1 3,0Z" style="opacity: 1; stroke-width: 0px; fill: rgb(99, 110, 250); fill-opacity: 1;"/><path class="point" transform="translate(130,196.01)" d="M3,0A3,3 0 1,1 0,-3A3,3 0 0,1 3,0Z" style="opacity: 1; stroke-width: 0px; fill: rgb(99, 110, 250); fill-opacity: 1;"/><path class="point" transform="translate(130,196.01)" d="M3,0A3,3 0 1,1 0,-3A3,3 0 0,1 3,0Z" style="opacity: 1; stroke-width: 0px; fill: rgb(99, 110, 250); fill-opacity: 1;"/><path class="point" transform="translate(130,196.01)" d="M3,0A3,3 0 1,1 0,-3A3,3 0 0,1 3,0Z" style="opacity: 1; stroke-width: 0px; fill: rgb(99, 110, 250); fill-opacity: 1;"/><path class="point" transform="translate(130,196.01)" d="M3,0A3,3 0 1,1 0,-3A3,3 0 0,1 3,0Z" style="opacity: 1; stroke-width: 0px; fill: rgb(99, 110, 250); fill-opacity: 1;"/><path class="point" transform="translate(130,196.01)" d="M3,0A3,3 0 1,1 0,-3A3,3 0 0,1 3,0Z" style="opacity: 1; stroke-width: 0px; fill: rgb(99, 110, 250); fill-opacity: 1;"/><path class="point" transform="translate(130,196.01)" d="M3,0A3,3 0 1,1 0,-3A3,3 0 0,1 3,0Z" style="opacity: 1; stroke-width: 0px; fill: rgb(99, 110, 250); fill-opacity: 1;"/><path class="point" transform="translate(130,187.92)" d="M3,0A3,3 0 1,1 0,-3A3,3 0 0,1 3,0Z" style="opacity: 1; stroke-width: 0px; fill: rgb(99, 110, 250); fill-opacity: 1;"/><path class="point" transform="translate(130,187.92)" d="M3,0A3,3 0 1,1 0,-3A3,3 0 0,1 3,0Z" style="opacity: 1; stroke-width: 0px; fill: rgb(99, 110, 250); fill-opacity: 1;"/><path class="point" transform="translate(130,187.92)" d="M3,0A3,3 0 1,1 0,-3A3,3 0 0,1 3,0Z" style="opacity: 1; stroke-width: 0px; fill: rgb(99, 110, 250); fill-opacity: 1;"/><path class="point" transform="translate(130,187.92)" d="M3,0A3,3 0 1,1 0,-3A3,3 0 0,1 3,0Z" style="opacity: 1; stroke-width: 0px; fill: rgb(99, 110, 250); fill-opacity: 1;"/><path class="point" transform="translate(130,187.92)" d="M3,0A3,3 0 1,1 0,-3A3,3 0 0,1 3,0Z" style="opacity: 1; stroke-width: 0px; fill: rgb(99, 110, 250); fill-opacity: 1;"/><path class="point" transform="translate(130,187.92)" d="M3,0A3,3 0 1,1 0,-3A3,3 0 0,1 3,0Z" style="opacity: 1; stroke-width: 0px; fill: rgb(99, 110, 250); fill-opacity: 1;"/><path class="point" transform="translate(130,187.92)" d="M3,0A3,3 0 1,1 0,-3A3,3 0 0,1 3,0Z" style="opacity: 1; stroke-width: 0px; fill: rgb(99, 110, 250); fill-opacity: 1;"/><path class="point" transform="translate(130,187.92)" d="M3,0A3,3 0 1,1 0,-3A3,3 0 0,1 3,0Z" style="opacity: 1; stroke-width: 0px; fill: rgb(99, 110, 250); fill-opacity: 1;"/><path class="point" transform="translate(130,187.92)" d="M3,0A3,3 0 1,1 0,-3A3,3 0 0,1 3,0Z" style="opacity: 1; stroke-width: 0px; fill: rgb(99, 110, 250); fill-opacity: 1;"/><path class="point" transform="translate(130,187.92)" d="M3,0A3,3 0 1,1 0,-3A3,3 0 0,1 3,0Z" style="opacity: 1; stroke-width: 0px; fill: rgb(99, 110, 250); fill-opacity: 1;"/><path class="point" transform="translate(130,187.92)" d="M3,0A3,3 0 1,1 0,-3A3,3 0 0,1 3,0Z" style="opacity: 1; stroke-width: 0px; fill: rgb(99, 110, 250); fill-opacity: 1;"/><path class="point" transform="translate(130,187.92)" d="M3,0A3,3 0 1,1 0,-3A3,3 0 0,1 3,0Z" style="opacity: 1; stroke-width: 0px; fill: rgb(99, 110, 250); fill-opacity: 1;"/><path class="point" transform="translate(130,187.92)" d="M3,0A3,3 0 1,1 0,-3A3,3 0 0,1 3,0Z" style="opacity: 1; stroke-width: 0px; fill: rgb(99, 110, 250); fill-opacity: 1;"/><path class="point" transform="translate(130,187.92)" d="M3,0A3,3 0 1,1 0,-3A3,3 0 0,1 3,0Z" style="opacity: 1; stroke-width: 0px; fill: rgb(99, 110, 250); fill-opacity: 1;"/><path class="point" transform="translate(130,187.92)" d="M3,0A3,3 0 1,1 0,-3A3,3 0 0,1 3,0Z" style="opacity: 1; stroke-width: 0px; fill: rgb(99, 110, 250); fill-opacity: 1;"/><path class="point" transform="translate(130,187.92)" d="M3,0A3,3 0 1,1 0,-3A3,3 0 0,1 3,0Z" style="opacity: 1; stroke-width: 0px; fill: rgb(99, 110, 250); fill-opacity: 1;"/><path class="point" transform="translate(130,187.92)" d="M3,0A3,3 0 1,1 0,-3A3,3 0 0,1 3,0Z" style="opacity: 1; stroke-width: 0px; fill: rgb(99, 110, 250); fill-opacity: 1;"/><path class="point" transform="translate(130,187.92)" d="M3,0A3,3 0 1,1 0,-3A3,3 0 0,1 3,0Z" style="opacity: 1; stroke-width: 0px; fill: rgb(99, 110, 250); fill-opacity: 1;"/><path class="point" transform="translate(130,180.91)" d="M3,0A3,3 0 1,1 0,-3A3,3 0 0,1 3,0Z" style="opacity: 1; stroke-width: 0px; fill: rgb(99, 110, 250); fill-opacity: 1;"/><path class="point" transform="translate(130,180.91)" d="M3,0A3,3 0 1,1 0,-3A3,3 0 0,1 3,0Z" style="opacity: 1; stroke-width: 0px; fill: rgb(99, 110, 250); fill-opacity: 1;"/><path class="point" transform="translate(130,180.91)" d="M3,0A3,3 0 1,1 0,-3A3,3 0 0,1 3,0Z" style="opacity: 1; stroke-width: 0px; fill: rgb(99, 110, 250); fill-opacity: 1;"/><path class="point" transform="translate(130,180.91)" d="M3,0A3,3 0 1,1 0,-3A3,3 0 0,1 3,0Z" style="opacity: 1; stroke-width: 0px; fill: rgb(99, 110, 250); fill-opacity: 1;"/><path class="point" transform="translate(130,180.91)" d="M3,0A3,3 0 1,1 0,-3A3,3 0 0,1 3,0Z" style="opacity: 1; stroke-width: 0px; fill: rgb(99, 110, 250); fill-opacity: 1;"/><path class="point" transform="translate(130,180.91)" d="M3,0A3,3 0 1,1 0,-3A3,3 0 0,1 3,0Z" style="opacity: 1; stroke-width: 0px; fill: rgb(99, 110, 250); fill-opacity: 1;"/><path class="point" transform="translate(130,180.91)" d="M3,0A3,3 0 1,1 0,-3A3,3 0 0,1 3,0Z" style="opacity: 1; stroke-width: 0px; fill: rgb(99, 110, 250); fill-opacity: 1;"/><path class="point" transform="translate(130,180.91)" d="M3,0A3,3 0 1,1 0,-3A3,3 0 0,1 3,0Z" style="opacity: 1; stroke-width: 0px; fill: rgb(99, 110, 250); fill-opacity: 1;"/><path class="point" transform="translate(130,180.91)" d="M3,0A3,3 0 1,1 0,-3A3,3 0 0,1 3,0Z" style="opacity: 1; stroke-width: 0px; fill: rgb(99, 110, 250); fill-opacity: 1;"/><path class="point" transform="translate(130,174.73)" d="M3,0A3,3 0 1,1 0,-3A3,3 0 0,1 3,0Z" style="opacity: 1; stroke-width: 0px; fill: rgb(99, 110, 250); fill-opacity: 1;"/><path class="point" transform="translate(130,174.73)" d="M3,0A3,3 0 1,1 0,-3A3,3 0 0,1 3,0Z" style="opacity: 1; stroke-width: 0px; fill: rgb(99, 110, 250); fill-opacity: 1;"/><path class="point" transform="translate(130,174.73)" d="M3,0A3,3 0 1,1 0,-3A3,3 0 0,1 3,0Z" style="opacity: 1; stroke-width: 0px; fill: rgb(99, 110, 250); fill-opacity: 1;"/><path class="point" transform="translate(130,174.73)" d="M3,0A3,3 0 1,1 0,-3A3,3 0 0,1 3,0Z" style="opacity: 1; stroke-width: 0px; fill: rgb(99, 110, 250); fill-opacity: 1;"/><path class="point" transform="translate(130,174.73)" d="M3,0A3,3 0 1,1 0,-3A3,3 0 0,1 3,0Z" style="opacity: 1; stroke-width: 0px; fill: rgb(99, 110, 250); fill-opacity: 1;"/><path class="point" transform="translate(130,174.73)" d="M3,0A3,3 0 1,1 0,-3A3,3 0 0,1 3,0Z" style="opacity: 1; stroke-width: 0px; fill: rgb(99, 110, 250); fill-opacity: 1;"/><path class="point" transform="translate(130,169.2)" d="M3,0A3,3 0 1,1 0,-3A3,3 0 0,1 3,0Z" style="opacity: 1; stroke-width: 0px; fill: rgb(99, 110, 250); fill-opacity: 1;"/><path class="point" transform="translate(130,169.2)" d="M3,0A3,3 0 1,1 0,-3A3,3 0 0,1 3,0Z" style="opacity: 1; stroke-width: 0px; fill: rgb(99, 110, 250); fill-opacity: 1;"/><path class="point" transform="translate(130,169.2)" d="M3,0A3,3 0 1,1 0,-3A3,3 0 0,1 3,0Z" style="opacity: 1; stroke-width: 0px; fill: rgb(99, 110, 250); fill-opacity: 1;"/><path class="point" transform="translate(130,169.2)" d="M3,0A3,3 0 1,1 0,-3A3,3 0 0,1 3,0Z" style="opacity: 1; stroke-width: 0px; fill: rgb(99, 110, 250); fill-opacity: 1;"/><path class="point" transform="translate(130,169.2)" d="M3,0A3,3 0 1,1 0,-3A3,3 0 0,1 3,0Z" style="opacity: 1; stroke-width: 0px; fill: rgb(99, 110, 250); fill-opacity: 1;"/><path class="point" transform="translate(130,169.2)" d="M3,0A3,3 0 1,1 0,-3A3,3 0 0,1 3,0Z" style="opacity: 1; stroke-width: 0px; fill: rgb(99, 110, 250); fill-opacity: 1;"/><path class="point" transform="translate(130,169.2)" d="M3,0A3,3 0 1,1 0,-3A3,3 0 0,1 3,0Z" style="opacity: 1; stroke-width: 0px; fill: rgb(99, 110, 250); fill-opacity: 1;"/><path class="point" transform="translate(130,164.2)" d="M3,0A3,3 0 1,1 0,-3A3,3 0 0,1 3,0Z" style="opacity: 1; stroke-width: 0px; fill: rgb(99, 110, 250); fill-opacity: 1;"/><path class="point" transform="translate(130,164.2)" d="M3,0A3,3 0 1,1 0,-3A3,3 0 0,1 3,0Z" style="opacity: 1; stroke-width: 0px; fill: rgb(99, 110, 250); fill-opacity: 1;"/><path class="point" transform="translate(130,164.2)" d="M3,0A3,3 0 1,1 0,-3A3,3 0 0,1 3,0Z" style="opacity: 1; stroke-width: 0px; fill: rgb(99, 110, 250); fill-opacity: 1;"/><path class="point" transform="translate(130,164.2)" d="M3,0A3,3 0 1,1 0,-3A3,3 0 0,1 3,0Z" style="opacity: 1; stroke-width: 0px; fill: rgb(99, 110, 250); fill-opacity: 1;"/><path class="point" transform="translate(130,164.2)" d="M3,0A3,3 0 1,1 0,-3A3,3 0 0,1 3,0Z" style="opacity: 1; stroke-width: 0px; fill: rgb(99, 110, 250); fill-opacity: 1;"/><path class="point" transform="translate(130,164.2)" d="M3,0A3,3 0 1,1 0,-3A3,3 0 0,1 3,0Z" style="opacity: 1; stroke-width: 0px; fill: rgb(99, 110, 250); fill-opacity: 1;"/><path class="point" transform="translate(130,164.2)" d="M3,0A3,3 0 1,1 0,-3A3,3 0 0,1 3,0Z" style="opacity: 1; stroke-width: 0px; fill: rgb(99, 110, 250); fill-opacity: 1;"/><path class="point" transform="translate(130,164.2)" d="M3,0A3,3 0 1,1 0,-3A3,3 0 0,1 3,0Z" style="opacity: 1; stroke-width: 0px; fill: rgb(99, 110, 250); fill-opacity: 1;"/><path class="point" transform="translate(130,159.63)" d="M3,0A3,3 0 1,1 0,-3A3,3 0 0,1 3,0Z" style="opacity: 1; stroke-width: 0px; fill: rgb(99, 110, 250); fill-opacity: 1;"/><path class="point" transform="translate(130,159.63)" d="M3,0A3,3 0 1,1 0,-3A3,3 0 0,1 3,0Z" style="opacity: 1; stroke-width: 0px; fill: rgb(99, 110, 250); fill-opacity: 1;"/><path class="point" transform="translate(130,159.63)" d="M3,0A3,3 0 1,1 0,-3A3,3 0 0,1 3,0Z" style="opacity: 1; stroke-width: 0px; fill: rgb(99, 110, 250); fill-opacity: 1;"/><path class="point" transform="translate(130,159.63)" d="M3,0A3,3 0 1,1 0,-3A3,3 0 0,1 3,0Z" style="opacity: 1; stroke-width: 0px; fill: rgb(99, 110, 250); fill-opacity: 1;"/><path class="point" transform="translate(130,159.63)" d="M3,0A3,3 0 1,1 0,-3A3,3 0 0,1 3,0Z" style="opacity: 1; stroke-width: 0px; fill: rgb(99, 110, 250); fill-opacity: 1;"/><path class="point" transform="translate(130,159.63)" d="M3,0A3,3 0 1,1 0,-3A3,3 0 0,1 3,0Z" style="opacity: 1; stroke-width: 0px; fill: rgb(99, 110, 250); fill-opacity: 1;"/><path class="point" transform="translate(130,155.43)" d="M3,0A3,3 0 1,1 0,-3A3,3 0 0,1 3,0Z" style="opacity: 1; stroke-width: 0px; fill: rgb(99, 110, 250); fill-opacity: 1;"/><path class="point" transform="translate(130,155.43)" d="M3,0A3,3 0 1,1 0,-3A3,3 0 0,1 3,0Z" style="opacity: 1; stroke-width: 0px; fill: rgb(99, 110, 250); fill-opacity: 1;"/><path class="point" transform="translate(130,155.43)" d="M3,0A3,3 0 1,1 0,-3A3,3 0 0,1 3,0Z" style="opacity: 1; stroke-width: 0px; fill: rgb(99, 110, 250); fill-opacity: 1;"/><path class="point" transform="translate(130,155.43)" d="M3,0A3,3 0 1,1 0,-3A3,3 0 0,1 3,0Z" style="opacity: 1; stroke-width: 0px; fill: rgb(99, 110, 250); fill-opacity: 1;"/><path class="point" transform="translate(130,155.43)" d="M3,0A3,3 0 1,1 0,-3A3,3 0 0,1 3,0Z" style="opacity: 1; stroke-width: 0px; fill: rgb(99, 110, 250); fill-opacity: 1;"/><path class="point" transform="translate(130,151.54)" d="M3,0A3,3 0 1,1 0,-3A3,3 0 0,1 3,0Z" style="opacity: 1; stroke-width: 0px; fill: rgb(99, 110, 250); fill-opacity: 1;"/><path class="point" transform="translate(130,151.54)" d="M3,0A3,3 0 1,1 0,-3A3,3 0 0,1 3,0Z" style="opacity: 1; stroke-width: 0px; fill: rgb(99, 110, 250); fill-opacity: 1;"/><path class="point" transform="translate(130,151.54)" d="M3,0A3,3 0 1,1 0,-3A3,3 0 0,1 3,0Z" style="opacity: 1; stroke-width: 0px; fill: rgb(99, 110, 250); fill-opacity: 1;"/><path class="point" transform="translate(130,147.92)" d="M3,0A3,3 0 1,1 0,-3A3,3 0 0,1 3,0Z" style="opacity: 1; stroke-width: 0px; fill: rgb(99, 110, 250); fill-opacity: 1;"/><path class="point" transform="translate(130,147.92)" d="M3,0A3,3 0 1,1 0,-3A3,3 0 0,1 3,0Z" style="opacity: 1; stroke-width: 0px; fill: rgb(99, 110, 250); fill-opacity: 1;"/><path class="point" transform="translate(130,147.92)" d="M3,0A3,3 0 1,1 0,-3A3,3 0 0,1 3,0Z" style="opacity: 1; stroke-width: 0px; fill: rgb(99, 110, 250); fill-opacity: 1;"/><path class="point" transform="translate(130,147.92)" d="M3,0A3,3 0 1,1 0,-3A3,3 0 0,1 3,0Z" style="opacity: 1; stroke-width: 0px; fill: rgb(99, 110, 250); fill-opacity: 1;"/><path class="point" transform="translate(130,144.54)" d="M3,0A3,3 0 1,1 0,-3A3,3 0 0,1 3,0Z" style="opacity: 1; stroke-width: 0px; fill: rgb(99, 110, 250); fill-opacity: 1;"/><path class="point" transform="translate(130,144.54)" d="M3,0A3,3 0 1,1 0,-3A3,3 0 0,1 3,0Z" style="opacity: 1; stroke-width: 0px; fill: rgb(99, 110, 250); fill-opacity: 1;"/><path class="point" transform="translate(130,141.35)" d="M3,0A3,3 0 1,1 0,-3A3,3 0 0,1 3,0Z" style="opacity: 1; stroke-width: 0px; fill: rgb(99, 110, 250); fill-opacity: 1;"/><path class="point" transform="translate(130,138.35)" d="M3,0A3,3 0 1,1 0,-3A3,3 0 0,1 3,0Z" style="opacity: 1; stroke-width: 0px; fill: rgb(99, 110, 250); fill-opacity: 1;"/><path class="point" transform="translate(130,138.35)" d="M3,0A3,3 0 1,1 0,-3A3,3 0 0,1 3,0Z" style="opacity: 1; stroke-width: 0px; fill: rgb(99, 110, 250); fill-opacity: 1;"/><path class="point" transform="translate(130,135.52)" d="M3,0A3,3 0 1,1 0,-3A3,3 0 0,1 3,0Z" style="opacity: 1; stroke-width: 0px; fill: rgb(99, 110, 250); fill-opacity: 1;"/><path class="point" transform="translate(130,135.52)" d="M3,0A3,3 0 1,1 0,-3A3,3 0 0,1 3,0Z" style="opacity: 1; stroke-width: 0px; fill: rgb(99, 110, 250); fill-opacity: 1;"/><path class="point" transform="translate(130,132.83)" d="M3,0A3,3 0 1,1 0,-3A3,3 0 0,1 3,0Z" style="opacity: 1; stroke-width: 0px; fill: rgb(99, 110, 250); fill-opacity: 1;"/><path class="point" transform="translate(130,132.83)" d="M3,0A3,3 0 1,1 0,-3A3,3 0 0,1 3,0Z" style="opacity: 1; stroke-width: 0px; fill: rgb(99, 110, 250); fill-opacity: 1;"/><path class="point" transform="translate(130,127.82)" d="M3,0A3,3 0 1,1 0,-3A3,3 0 0,1 3,0Z" style="opacity: 1; stroke-width: 0px; fill: rgb(99, 110, 250); fill-opacity: 1;"/><path class="point" transform="translate(130,127.82)" d="M3,0A3,3 0 1,1 0,-3A3,3 0 0,1 3,0Z" style="opacity: 1; stroke-width: 0px; fill: rgb(99, 110, 250); fill-opacity: 1;"/><path class="point" transform="translate(130,127.82)" d="M3,0A3,3 0 1,1 0,-3A3,3 0 0,1 3,0Z" style="opacity: 1; stroke-width: 0px; fill: rgb(99, 110, 250); fill-opacity: 1;"/><path class="point" transform="translate(130,123.26)" d="M3,0A3,3 0 1,1 0,-3A3,3 0 0,1 3,0Z" style="opacity: 1; stroke-width: 0px; fill: rgb(99, 110, 250); fill-opacity: 1;"/><path class="point" transform="translate(130,108.16)" d="M3,0A3,3 0 1,1 0,-3A3,3 0 0,1 3,0Z" style="opacity: 1; stroke-width: 0px; fill: rgb(99, 110, 250); fill-opacity: 1;"/><path class="point" transform="translate(130,106.55)" d="M3,0A3,3 0 1,1 0,-3A3,3 0 0,1 3,0Z" style="opacity: 1; stroke-width: 0px; fill: rgb(99, 110, 250); fill-opacity: 1;"/><path class="point" transform="translate(130,101.98)" d="M3,0A3,3 0 1,1 0,-3A3,3 0 0,1 3,0Z" style="opacity: 1; stroke-width: 0px; fill: rgb(99, 110, 250); fill-opacity: 1;"/><path class="point" transform="translate(130,100.54)" d="M3,0A3,3 0 1,1 0,-3A3,3 0 0,1 3,0Z" style="opacity: 1; stroke-width: 0px; fill: rgb(99, 110, 250); fill-opacity: 1;"/><path class="point" transform="translate(130,99.14)" d="M3,0A3,3 0 1,1 0,-3A3,3 0 0,1 3,0Z" style="opacity: 1; stroke-width: 0px; fill: rgb(99, 110, 250); fill-opacity: 1;"/><path class="point" transform="translate(130,81.68)" d="M3,0A3,3 0 1,1 0,-3A3,3 0 0,1 3,0Z" style="opacity: 1; stroke-width: 0px; fill: rgb(99, 110, 250); fill-opacity: 1;"/><path class="point" transform="translate(130,79.74)" d="M3,0A3,3 0 1,1 0,-3A3,3 0 0,1 3,0Z" style="opacity: 1; stroke-width: 0px; fill: rgb(99, 110, 250); fill-opacity: 1;"/><path class="point" transform="translate(130,76.95)" d="M3,0A3,3 0 1,1 0,-3A3,3 0 0,1 3,0Z" style="opacity: 1; stroke-width: 0px; fill: rgb(99, 110, 250); fill-opacity: 1;"/><path class="point" transform="translate(130,76.05)" d="M3,0A3,3 0 1,1 0,-3A3,3 0 0,1 3,0Z" style="opacity: 1; stroke-width: 0px; fill: rgb(99, 110, 250); fill-opacity: 1;"/><path class="point" transform="translate(130,76.05)" d="M3,0A3,3 0 1,1 0,-3A3,3 0 0,1 3,0Z" style="opacity: 1; stroke-width: 0px; fill: rgb(99, 110, 250); fill-opacity: 1;"/><path class="point" transform="translate(130,56.89)" d="M3,0A3,3 0 1,1 0,-3A3,3 0 0,1 3,0Z" style="opacity: 1; stroke-width: 0px; fill: rgb(99, 110, 250); fill-opacity: 1;"/><path class="point" transform="translate(130,54.48)" d="M3,0A3,3 0 1,1 0,-3A3,3 0 0,1 3,0Z" style="opacity: 1; stroke-width: 0px; fill: rgb(99, 110, 250); fill-opacity: 1;"/><path class="point" transform="translate(130,44.81)" d="M3,0A3,3 0 1,1 0,-3A3,3 0 0,1 3,0Z" style="opacity: 1; stroke-width: 0px; fill: rgb(99, 110, 250); fill-opacity: 1;"/></g></g><g class="trace violins" style="opacity: 1;"><path class="violin" d="M398.62,304Q403.23,302.4 405.87,301.68C408.98,300.83 412.55,300.09 416.14,299.35C420.08,298.54 424.43,297.8 428.56,297.03C432.69,296.26 437.11,295.54 440.92,294.71C444.24,293.98 447.9,293.4 450.19,292.39C451.71,291.72 453.69,290.84 453.7,290.06C453.71,289.29 451.82,288.41 450.35,287.74C448.11,286.72 444.47,286.15 441.18,285.42C437.39,284.58 432.98,283.87 428.87,283.1C424.74,282.32 420.38,281.58 416.44,280.77C412.84,280.03 409.25,279.3 406.15,278.45C403.53,277.73 401,277.02 398.99,276.13C397.4,275.43 395.87,274.72 394.92,273.81C394.2,273.11 393.56,272.28 393.47,271.48C393.39,270.73 393.78,269.87 394.29,269.16C394.93,268.28 396.11,267.55 397.3,266.84C398.77,265.97 400.65,265.25 402.57,264.52C404.78,263.68 407.33,262.94 409.85,262.19C412.52,261.39 415.46,260.66 418.17,259.87C420.78,259.11 423.58,258.41 425.83,257.55C427.7,256.84 429.9,256.23 430.82,255.23C431.44,254.56 431.9,253.6 431.67,252.9C431.37,251.99 429.57,251.28 428.17,250.58C426.35,249.68 423.83,249.01 421.51,248.26C419.02,247.46 416.22,246.74 413.69,245.94C411.29,245.18 408.81,244.45 406.69,243.61C404.86,242.88 403.06,242.16 401.68,241.29C400.56,240.58 399.56,239.82 398.89,238.97C398.33,238.25 398,237.44 397.76,236.65C397.53,235.89 397.55,235.1 397.46,234.32C397.37,233.55 397.36,232.77 397.24,232C397.11,231.22 396.94,230.45 396.71,229.68C396.48,228.9 396.15,228.12 395.84,227.35C395.53,226.57 395.15,225.81 394.83,225.03C394.51,224.26 394.18,223.49 393.92,222.71C393.66,221.94 393.44,221.17 393.26,220.39C393.09,219.62 392.97,218.84 392.87,218.06C392.77,217.29 392.72,216.51 392.67,215.74C392.62,214.97 392.6,214.19 392.58,213.42C392.56,212.65 392.56,211.87 392.56,211.1C392.56,210.32 392.56,209.55 392.56,208.77C392.56,208 392.57,207.22 392.56,206.45C392.55,205.68 392.54,204.9 392.52,204.13C392.5,203.36 392.48,202.58 392.46,201.81C392.43,201.03 392.4,200.26 392.37,199.48C392.34,198.71 392.31,197.93 392.29,197.16C392.27,196.39 392.25,195.61 392.23,194.84C392.21,194.07 392.2,193.29 392.19,192.52C392.18,191.74 392.17,190.97 392.15,190.19C392.13,189.42 392.11,188.64 392.08,187.87C392.05,187.1 392.01,186.32 391.96,185.55C391.91,184.78 391.85,184 391.78,183.23C391.71,182.45 391.64,181.68 391.56,180.9C391.49,180.13 391.4,179.35 391.33,178.58C391.26,177.81 391.18,177.03 391.13,176.26C391.08,175.49 391.03,174.71 391.01,173.94C390.99,173.16 390.98,172.39 390.99,171.61C391,170.84 391.01,170.06 391.04,169.29C391.07,168.52 391.11,167.74 391.15,166.97C391.19,166.2 391.23,165.42 391.26,164.65C391.29,163.87 391.31,163.1 391.32,162.32C391.33,161.55 391.34,160.77 391.33,160C391.32,159.23 391.29,158.45 391.27,157.68C391.24,156.9 391.21,156.13 391.18,155.35C391.15,154.58 391.11,153.8 391.07,153.03C391.03,152.26 390.99,151.48 390.96,150.71C390.93,149.94 390.91,149.16 390.89,148.39C390.87,147.61 390.85,146.84 390.84,146.06C390.83,145.29 390.82,144.51 390.82,143.74C390.82,142.97 390.82,142.19 390.82,141.42C390.82,140.65 390.82,139.87 390.82,139.1C390.82,138.32 390.81,137.55 390.8,136.77C390.79,136 390.78,135.22 390.76,134.45C390.74,133.68 390.72,132.9 390.7,132.13C390.68,131.36 390.65,130.58 390.63,129.81C390.61,129.03 390.59,128.26 390.57,127.48C390.55,126.71 390.53,125.93 390.52,125.16C390.51,124.39 390.5,123.61 390.49,122.84C390.48,122.07 390.48,121.29 390.48,120.52C390.48,119.74 390.48,118.97 390.48,118.19C390.48,117.42 390.49,116.64 390.5,115.87C390.5,115.1 390.51,114.32 390.51,113.55C390.51,112.78 390.51,112 390.51,111.23C390.51,110.45 390.49,109.68 390.48,108.9C390.47,108.13 390.45,107.35 390.43,106.58C390.41,105.81 390.38,105.03 390.36,104.26C390.33,103.49 390.3,102.71 390.28,101.94C390.25,101.16 390.23,100.39 390.21,99.61C390.19,98.84 390.17,98.06 390.15,97.29C390.13,96.52 390.11,95.74 390.09,94.97C390.08,94.2 390.07,93.42 390.06,92.65C390.05,91.87 390.04,91.1 390.03,90.32C390.02,89.55 390.02,88.77 390.02,88C390.02,87.23 390.02,86.45 390.02,85.68C390.02,84.9 390.02,84.13 390.02,83.35C390.02,82.58 390.03,81.8 390.04,81.03C390.05,80.26 390.05,79.48 390.06,78.71C390.07,77.94 390.08,77.16 390.09,76.39C390.1,75.61 390.12,74.84 390.13,74.06C390.14,73.29 390.16,72.51 390.17,71.74C390.18,70.97 390.2,70.19 390.21,69.42C390.22,68.65 390.23,67.87 390.24,67.1C390.25,66.32 390.25,65.55 390.25,64.77C390.25,64 390.25,63.22 390.25,62.45C390.25,61.68 390.25,60.9 390.24,60.13C390.23,59.36 390.22,58.58 390.21,57.81C390.2,57.03 390.19,56.26 390.17,55.48C390.16,54.71 390.13,53.93 390.12,53.16C390.11,52.39 390.1,51.61 390.09,50.84C390.08,50.07 390.07,49.29 390.06,48.52C390.05,47.74 390.05,46.97 390.04,46.19C390.04,45.42 390.03,44.64 390.03,43.87C390.03,43.1 390.03,42.32 390.03,41.55C390.03,40.78 390.04,40 390.05,39.23C390.06,38.45 390.06,37.68 390.07,36.9C390.08,36.13 390.08,35.35 390.09,34.58C390.09,33.81 390.1,33.03 390.1,32.26C390.1,31.49 390.11,30.71 390.11,29.94C390.11,29.16 390.1,28.39 390.1,27.61C390.1,26.84 390.1,26.06 390.09,25.29C390.08,24.52 390.07,23.74 390.06,22.97C390.05,22.2 390.04,21.42 390.04,20.65C390.03,19.87 390.04,19.1 390.03,18.32Q390.03,17.55 390.01,16L389.99,16Q389.97,17.55 389.97,18.32C389.96,19.1 389.97,19.87 389.96,20.65C389.96,21.42 389.95,22.2 389.94,22.97C389.93,23.74 389.92,24.52 389.91,25.29C389.9,26.06 389.9,26.84 389.9,27.61C389.9,28.39 389.89,29.16 389.89,29.94C389.89,30.71 389.9,31.49 389.9,32.26C389.9,33.03 389.91,33.81 389.91,34.58C389.92,35.35 389.92,36.13 389.93,36.9C389.94,37.68 389.94,38.45 389.95,39.23C389.96,40 389.97,40.78 389.97,41.55C389.97,42.32 389.97,43.1 389.97,43.87C389.97,44.64 389.96,45.42 389.96,46.19C389.95,46.97 389.95,47.74 389.94,48.52C389.93,49.29 389.92,50.07 389.91,50.84C389.9,51.61 389.89,52.39 389.88,53.16C389.87,53.93 389.84,54.71 389.83,55.48C389.81,56.26 389.8,57.03 389.79,57.81C389.78,58.58 389.77,59.36 389.76,60.13C389.75,60.9 389.75,61.68 389.75,62.45C389.75,63.22 389.75,64 389.75,64.77C389.75,65.55 389.75,66.32 389.76,67.1C389.77,67.87 389.78,68.65 389.79,69.42C389.8,70.19 389.82,70.97 389.83,71.74C389.84,72.51 389.86,73.29 389.87,74.06C389.88,74.84 389.9,75.61 389.91,76.39C389.92,77.16 389.93,77.94 389.94,78.71C389.95,79.48 389.95,80.26 389.96,81.03C389.97,81.8 389.98,82.58 389.98,83.35C389.98,84.13 389.98,84.9 389.98,85.68C389.98,86.45 389.98,87.23 389.98,88C389.98,88.77 389.98,89.55 389.97,90.32C389.96,91.1 389.95,91.87 389.94,92.65C389.93,93.42 389.92,94.2 389.91,94.97C389.89,95.74 389.87,96.52 389.85,97.29C389.83,98.06 389.81,98.84 389.79,99.61C389.77,100.39 389.75,101.16 389.72,101.94C389.7,102.71 389.67,103.49 389.64,104.26C389.62,105.03 389.59,105.81 389.57,106.58C389.55,107.35 389.53,108.13 389.52,108.9C389.51,109.68 389.49,110.45 389.49,111.23C389.49,112 389.49,112.78 389.49,113.55C389.49,114.32 389.5,115.1 389.5,115.87C389.51,116.64 389.52,117.42 389.52,118.19C389.52,118.97 389.52,119.74 389.52,120.52C389.52,121.29 389.52,122.07 389.51,122.84C389.5,123.61 389.49,124.39 389.48,125.16C389.47,125.93 389.45,126.71 389.43,127.48C389.41,128.26 389.39,129.03 389.37,129.81C389.35,130.58 389.32,131.36 389.3,132.13C389.28,132.9 389.26,133.68 389.24,134.45C389.22,135.22 389.21,136 389.2,136.77C389.19,137.55 389.18,138.32 389.18,139.1C389.18,139.87 389.18,140.65 389.18,141.42C389.18,142.19 389.18,142.97 389.18,143.74C389.18,144.51 389.17,145.29 389.16,146.06C389.15,146.84 389.13,147.61 389.11,148.39C389.09,149.16 389.07,149.94 389.04,150.71C389.01,151.48 388.97,152.26 388.93,153.03C388.89,153.8 388.85,154.58 388.82,155.35C388.79,156.13 388.76,156.9 388.73,157.68C388.71,158.45 388.68,159.23 388.67,160C388.66,160.77 388.67,161.55 388.68,162.32C388.69,163.1 388.71,163.87 388.74,164.65C388.77,165.42 388.81,166.2 388.85,166.97C388.89,167.74 388.93,168.52 388.96,169.29C388.99,170.06 389,170.84 389.01,171.61C389.02,172.39 389.01,173.16 388.99,173.94C388.97,174.71 388.92,175.49 388.87,176.26C388.82,177.03 388.74,177.81 388.67,178.58C388.6,179.35 388.51,180.13 388.44,180.9C388.36,181.68 388.29,182.45 388.22,183.23C388.15,184 388.09,184.78 388.04,185.55C387.99,186.32 387.95,187.1 387.92,187.87C387.89,188.64 387.87,189.42 387.85,190.19C387.83,190.97 387.82,191.74 387.81,192.52C387.8,193.29 387.79,194.07 387.77,194.84C387.75,195.61 387.73,196.39 387.71,197.16C387.69,197.93 387.66,198.71 387.63,199.48C387.6,200.26 387.57,201.03 387.54,201.81C387.52,202.58 387.5,203.36 387.48,204.13C387.46,204.9 387.45,205.68 387.44,206.45C387.43,207.22 387.44,208 387.44,208.77C387.44,209.55 387.44,210.32 387.44,211.1C387.44,211.87 387.44,212.65 387.42,213.42C387.4,214.19 387.38,214.97 387.33,215.74C387.28,216.51 387.23,217.29 387.13,218.06C387.03,218.84 386.91,219.62 386.74,220.39C386.56,221.17 386.34,221.94 386.08,222.71C385.82,223.49 385.49,224.26 385.17,225.03C384.85,225.81 384.47,226.57 384.16,227.35C383.85,228.12 383.52,228.9 383.29,229.68C383.06,230.45 382.89,231.22 382.76,232C382.64,232.77 382.63,233.55 382.54,234.32C382.45,235.1 382.47,235.89 382.24,236.65C382,237.44 381.67,238.25 381.11,238.97C380.44,239.82 379.44,240.58 378.32,241.29C376.94,242.16 375.14,242.88 373.31,243.61C371.19,244.45 368.71,245.18 366.31,245.94C363.78,246.74 360.98,247.46 358.49,248.26C356.17,249.01 353.65,249.68 351.83,250.58C350.43,251.28 348.63,251.99 348.33,252.9C348.1,253.6 348.56,254.56 349.18,255.23C350.1,256.23 352.3,256.84 354.17,257.55C356.42,258.41 359.22,259.11 361.83,259.87C364.54,260.66 367.48,261.39 370.15,262.19C372.67,262.94 375.22,263.68 377.43,264.52C379.35,265.25 381.23,265.97 382.7,266.84C383.89,267.55 385.07,268.28 385.71,269.16C386.22,269.87 386.61,270.73 386.53,271.48C386.44,272.28 385.8,273.11 385.08,273.81C384.13,274.72 382.6,275.43 381.01,276.13C379,277.02 376.47,277.73 373.85,278.45C370.75,279.3 367.16,280.03 363.56,280.77C359.62,281.58 355.26,282.32 351.13,283.1C347.02,283.87 342.61,284.58 338.82,285.42C335.53,286.15 331.89,286.72 329.65,287.74C328.18,288.41 326.29,289.29 326.3,290.06C326.31,290.84 328.29,291.72 329.81,292.39C332.1,293.4 335.76,293.98 339.08,294.71C342.89,295.54 347.31,296.26 351.44,297.03C355.57,297.8 359.92,298.54 363.86,299.35C367.45,300.09 371.02,300.83 374.13,301.68Q376.77,302.4 381.38,304Z" style="vector-effect: non-scaling-stroke; stroke-width: 2px; stroke: rgb(239, 85, 59); stroke-opacity: 1; fill: rgb(239, 85, 59); fill-opacity: 0.5;"/><path class="box" d="M374.08,289.04H405.93M374.08,290.04H405.93V253.66H374.08ZM390,290.04V290.04M390,253.66V205.58" style="vector-effect: non-scaling-stroke; stroke-width: 2px; stroke: rgb(239, 85, 59); stroke-opacity: 1; fill: rgb(239, 85, 59); fill-opacity: 0.5;"/><path class="mean" d="M374.08,265.13H405.93" style="fill: none; vector-effect: non-scaling-stroke; stroke-width: 2px; stroke-dasharray: 4px, 2px; stroke: rgb(239, 85, 59); stroke-opacity: 1;"/><g class="points"><path class="point" transform="translate(390,196.01)" d="M3,0A3,3 0 1,1 0,-3A3,3 0 0,1 3,0Z" style="opacity: 1; stroke-width: 0px; fill: rgb(239, 85, 59); fill-opacity: 1;"/><path class="point" transform="translate(390,196.01)" d="M3,0A3,3 0 1,1 0,-3A3,3 0 0,1 3,0Z" style="opacity: 1; stroke-width: 0px; fill: rgb(239, 85, 59); fill-opacity: 1;"/><path class="point" transform="translate(390,196.01)" d="M3,0A3,3 0 1,1 0,-3A3,3 0 0,1 3,0Z" style="opacity: 1; stroke-width: 0px; fill: rgb(239, 85, 59); fill-opacity: 1;"/><path class="point" transform="translate(390,196.01)" d="M3,0A3,3 0 1,1 0,-3A3,3 0 0,1 3,0Z" style="opacity: 1; stroke-width: 0px; fill: rgb(239, 85, 59); fill-opacity: 1;"/><path class="point" transform="translate(390,196.01)" d="M3,0A3,3 0 1,1 0,-3A3,3 0 0,1 3,0Z" style="opacity: 1; stroke-width: 0px; fill: rgb(239, 85, 59); fill-opacity: 1;"/><path class="point" transform="translate(390,196.01)" d="M3,0A3,3 0 1,1 0,-3A3,3 0 0,1 3,0Z" style="opacity: 1; stroke-width: 0px; fill: rgb(239, 85, 59); fill-opacity: 1;"/><path class="point" transform="translate(390,196.01)" d="M3,0A3,3 0 1,1 0,-3A3,3 0 0,1 3,0Z" style="opacity: 1; stroke-width: 0px; fill: rgb(239, 85, 59); fill-opacity: 1;"/><path class="point" transform="translate(390,196.01)" d="M3,0A3,3 0 1,1 0,-3A3,3 0 0,1 3,0Z" style="opacity: 1; stroke-width: 0px; fill: rgb(239, 85, 59); fill-opacity: 1;"/><path class="point" transform="translate(390,196.01)" d="M3,0A3,3 0 1,1 0,-3A3,3 0 0,1 3,0Z" style="opacity: 1; stroke-width: 0px; fill: rgb(239, 85, 59); fill-opacity: 1;"/><path class="point" transform="translate(390,187.92)" d="M3,0A3,3 0 1,1 0,-3A3,3 0 0,1 3,0Z" style="opacity: 1; stroke-width: 0px; fill: rgb(239, 85, 59); fill-opacity: 1;"/><path class="point" transform="translate(390,187.92)" d="M3,0A3,3 0 1,1 0,-3A3,3 0 0,1 3,0Z" style="opacity: 1; stroke-width: 0px; fill: rgb(239, 85, 59); fill-opacity: 1;"/><path class="point" transform="translate(390,187.92)" d="M3,0A3,3 0 1,1 0,-3A3,3 0 0,1 3,0Z" style="opacity: 1; stroke-width: 0px; fill: rgb(239, 85, 59); fill-opacity: 1;"/><path class="point" transform="translate(390,187.92)" d="M3,0A3,3 0 1,1 0,-3A3,3 0 0,1 3,0Z" style="opacity: 1; stroke-width: 0px; fill: rgb(239, 85, 59); fill-opacity: 1;"/><path class="point" transform="translate(390,187.92)" d="M3,0A3,3 0 1,1 0,-3A3,3 0 0,1 3,0Z" style="opacity: 1; stroke-width: 0px; fill: rgb(239, 85, 59); fill-opacity: 1;"/><path class="point" transform="translate(390,187.92)" d="M3,0A3,3 0 1,1 0,-3A3,3 0 0,1 3,0Z" style="opacity: 1; stroke-width: 0px; fill: rgb(239, 85, 59); fill-opacity: 1;"/><path class="point" transform="translate(390,187.92)" d="M3,0A3,3 0 1,1 0,-3A3,3 0 0,1 3,0Z" style="opacity: 1; stroke-width: 0px; fill: rgb(239, 85, 59); fill-opacity: 1;"/><path class="point" transform="translate(390,187.92)" d="M3,0A3,3 0 1,1 0,-3A3,3 0 0,1 3,0Z" style="opacity: 1; stroke-width: 0px; fill: rgb(239, 85, 59); fill-opacity: 1;"/><path class="point" transform="translate(390,187.92)" d="M3,0A3,3 0 1,1 0,-3A3,3 0 0,1 3,0Z" style="opacity: 1; stroke-width: 0px; fill: rgb(239, 85, 59); fill-opacity: 1;"/><path class="point" transform="translate(390,187.92)" d="M3,0A3,3 0 1,1 0,-3A3,3 0 0,1 3,0Z" style="opacity: 1; stroke-width: 0px; fill: rgb(239, 85, 59); fill-opacity: 1;"/><path class="point" transform="translate(390,180.91)" d="M3,0A3,3 0 1,1 0,-3A3,3 0 0,1 3,0Z" style="opacity: 1; stroke-width: 0px; fill: rgb(239, 85, 59); fill-opacity: 1;"/><path class="point" transform="translate(390,180.91)" d="M3,0A3,3 0 1,1 0,-3A3,3 0 0,1 3,0Z" style="opacity: 1; stroke-width: 0px; fill: rgb(239, 85, 59); fill-opacity: 1;"/><path class="point" transform="translate(390,180.91)" d="M3,0A3,3 0 1,1 0,-3A3,3 0 0,1 3,0Z" style="opacity: 1; stroke-width: 0px; fill: rgb(239, 85, 59); fill-opacity: 1;"/><path class="point" transform="translate(390,180.91)" d="M3,0A3,3 0 1,1 0,-3A3,3 0 0,1 3,0Z" style="opacity: 1; stroke-width: 0px; fill: rgb(239, 85, 59); fill-opacity: 1;"/><path class="point" transform="translate(390,180.91)" d="M3,0A3,3 0 1,1 0,-3A3,3 0 0,1 3,0Z" style="opacity: 1; stroke-width: 0px; fill: rgb(239, 85, 59); fill-opacity: 1;"/><path class="point" transform="translate(390,180.91)" d="M3,0A3,3 0 1,1 0,-3A3,3 0 0,1 3,0Z" style="opacity: 1; stroke-width: 0px; fill: rgb(239, 85, 59); fill-opacity: 1;"/><path class="point" transform="translate(390,180.91)" d="M3,0A3,3 0 1,1 0,-3A3,3 0 0,1 3,0Z" style="opacity: 1; stroke-width: 0px; fill: rgb(239, 85, 59); fill-opacity: 1;"/><path class="point" transform="translate(390,169.2)" d="M3,0A3,3 0 1,1 0,-3A3,3 0 0,1 3,0Z" style="opacity: 1; stroke-width: 0px; fill: rgb(239, 85, 59); fill-opacity: 1;"/><path class="point" transform="translate(390,164.2)" d="M3,0A3,3 0 1,1 0,-3A3,3 0 0,1 3,0Z" style="opacity: 1; stroke-width: 0px; fill: rgb(239, 85, 59); fill-opacity: 1;"/><path class="point" transform="translate(390,164.2)" d="M3,0A3,3 0 1,1 0,-3A3,3 0 0,1 3,0Z" style="opacity: 1; stroke-width: 0px; fill: rgb(239, 85, 59); fill-opacity: 1;"/><path class="point" transform="translate(390,164.2)" d="M3,0A3,3 0 1,1 0,-3A3,3 0 0,1 3,0Z" style="opacity: 1; stroke-width: 0px; fill: rgb(239, 85, 59); fill-opacity: 1;"/><path class="point" transform="translate(390,164.2)" d="M3,0A3,3 0 1,1 0,-3A3,3 0 0,1 3,0Z" style="opacity: 1; stroke-width: 0px; fill: rgb(239, 85, 59); fill-opacity: 1;"/><path class="point" transform="translate(390,164.2)" d="M3,0A3,3 0 1,1 0,-3A3,3 0 0,1 3,0Z" style="opacity: 1; stroke-width: 0px; fill: rgb(239, 85, 59); fill-opacity: 1;"/><path class="point" transform="translate(390,164.2)" d="M3,0A3,3 0 1,1 0,-3A3,3 0 0,1 3,0Z" style="opacity: 1; stroke-width: 0px; fill: rgb(239, 85, 59); fill-opacity: 1;"/><path class="point" transform="translate(390,164.2)" d="M3,0A3,3 0 1,1 0,-3A3,3 0 0,1 3,0Z" style="opacity: 1; stroke-width: 0px; fill: rgb(239, 85, 59); fill-opacity: 1;"/><path class="point" transform="translate(390,159.63)" d="M3,0A3,3 0 1,1 0,-3A3,3 0 0,1 3,0Z" style="opacity: 1; stroke-width: 0px; fill: rgb(239, 85, 59); fill-opacity: 1;"/><path class="point" transform="translate(390,159.63)" d="M3,0A3,3 0 1,1 0,-3A3,3 0 0,1 3,0Z" style="opacity: 1; stroke-width: 0px; fill: rgb(239, 85, 59); fill-opacity: 1;"/><path class="point" transform="translate(390,155.43)" d="M3,0A3,3 0 1,1 0,-3A3,3 0 0,1 3,0Z" style="opacity: 1; stroke-width: 0px; fill: rgb(239, 85, 59); fill-opacity: 1;"/><path class="point" transform="translate(390,155.43)" d="M3,0A3,3 0 1,1 0,-3A3,3 0 0,1 3,0Z" style="opacity: 1; stroke-width: 0px; fill: rgb(239, 85, 59); fill-opacity: 1;"/><path class="point" transform="translate(390,155.43)" d="M3,0A3,3 0 1,1 0,-3A3,3 0 0,1 3,0Z" style="opacity: 1; stroke-width: 0px; fill: rgb(239, 85, 59); fill-opacity: 1;"/><path class="point" transform="translate(390,155.43)" d="M3,0A3,3 0 1,1 0,-3A3,3 0 0,1 3,0Z" style="opacity: 1; stroke-width: 0px; fill: rgb(239, 85, 59); fill-opacity: 1;"/><path class="point" transform="translate(390,151.54)" d="M3,0A3,3 0 1,1 0,-3A3,3 0 0,1 3,0Z" style="opacity: 1; stroke-width: 0px; fill: rgb(239, 85, 59); fill-opacity: 1;"/><path class="point" transform="translate(390,147.92)" d="M3,0A3,3 0 1,1 0,-3A3,3 0 0,1 3,0Z" style="opacity: 1; stroke-width: 0px; fill: rgb(239, 85, 59); fill-opacity: 1;"/><path class="point" transform="translate(390,144.54)" d="M3,0A3,3 0 1,1 0,-3A3,3 0 0,1 3,0Z" style="opacity: 1; stroke-width: 0px; fill: rgb(239, 85, 59); fill-opacity: 1;"/><path class="point" transform="translate(390,141.35)" d="M3,0A3,3 0 1,1 0,-3A3,3 0 0,1 3,0Z" style="opacity: 1; stroke-width: 0px; fill: rgb(239, 85, 59); fill-opacity: 1;"/><path class="point" transform="translate(390,141.35)" d="M3,0A3,3 0 1,1 0,-3A3,3 0 0,1 3,0Z" style="opacity: 1; stroke-width: 0px; fill: rgb(239, 85, 59); fill-opacity: 1;"/><path class="point" transform="translate(390,138.35)" d="M3,0A3,3 0 1,1 0,-3A3,3 0 0,1 3,0Z" style="opacity: 1; stroke-width: 0px; fill: rgb(239, 85, 59); fill-opacity: 1;"/><path class="point" transform="translate(390,135.52)" d="M3,0A3,3 0 1,1 0,-3A3,3 0 0,1 3,0Z" style="opacity: 1; stroke-width: 0px; fill: rgb(239, 85, 59); fill-opacity: 1;"/><path class="point" transform="translate(390,135.52)" d="M3,0A3,3 0 1,1 0,-3A3,3 0 0,1 3,0Z" style="opacity: 1; stroke-width: 0px; fill: rgb(239, 85, 59); fill-opacity: 1;"/><path class="point" transform="translate(390,132.83)" d="M3,0A3,3 0 1,1 0,-3A3,3 0 0,1 3,0Z" style="opacity: 1; stroke-width: 0px; fill: rgb(239, 85, 59); fill-opacity: 1;"/><path class="point" transform="translate(390,130.27)" d="M3,0A3,3 0 1,1 0,-3A3,3 0 0,1 3,0Z" style="opacity: 1; stroke-width: 0px; fill: rgb(239, 85, 59); fill-opacity: 1;"/><path class="point" transform="translate(390,125.49)" d="M3,0A3,3 0 1,1 0,-3A3,3 0 0,1 3,0Z" style="opacity: 1; stroke-width: 0px; fill: rgb(239, 85, 59); fill-opacity: 1;"/><path class="point" transform="translate(390,121.12)" d="M3,0A3,3 0 1,1 0,-3A3,3 0 0,1 3,0Z" style="opacity: 1; stroke-width: 0px; fill: rgb(239, 85, 59); fill-opacity: 1;"/><path class="point" transform="translate(390,115.17)" d="M3,0A3,3 0 1,1 0,-3A3,3 0 0,1 3,0Z" style="opacity: 1; stroke-width: 0px; fill: rgb(239, 85, 59); fill-opacity: 1;"/><path class="point" transform="translate(390,111.55)" d="M3,0A3,3 0 1,1 0,-3A3,3 0 0,1 3,0Z" style="opacity: 1; stroke-width: 0px; fill: rgb(239, 85, 59); fill-opacity: 1;"/><path class="point" transform="translate(390,109.83)" d="M3,0A3,3 0 1,1 0,-3A3,3 0 0,1 3,0Z" style="opacity: 1; stroke-width: 0px; fill: rgb(239, 85, 59); fill-opacity: 1;"/><path class="point" transform="translate(390,109.83)" d="M3,0A3,3 0 1,1 0,-3A3,3 0 0,1 3,0Z" style="opacity: 1; stroke-width: 0px; fill: rgb(239, 85, 59); fill-opacity: 1;"/><path class="point" transform="translate(390,101.98)" d="M3,0A3,3 0 1,1 0,-3A3,3 0 0,1 3,0Z" style="opacity: 1; stroke-width: 0px; fill: rgb(239, 85, 59); fill-opacity: 1;"/><path class="point" transform="translate(390,70.17)" d="M3,0A3,3 0 1,1 0,-3A3,3 0 0,1 3,0Z" style="opacity: 1; stroke-width: 0px; fill: rgb(239, 85, 59); fill-opacity: 1;"/><path class="point" transform="translate(390,63.46)" d="M3,0A3,3 0 1,1 0,-3A3,3 0 0,1 3,0Z" style="opacity: 1; stroke-width: 0px; fill: rgb(239, 85, 59); fill-opacity: 1;"/><path class="point" transform="translate(390,58.14)" d="M3,0A3,3 0 1,1 0,-3A3,3 0 0,1 3,0Z" style="opacity: 1; stroke-width: 0px; fill: rgb(239, 85, 59); fill-opacity: 1;"/><path class="point" transform="translate(390,29.96)" d="M3,0A3,3 0 1,1 0,-3A3,3 0 0,1 3,0Z" style="opacity: 1; stroke-width: 0px; fill: rgb(239, 85, 59); fill-opacity: 1;"/></g></g></g></g><g class="overplot"/><path class="xlines-above crisp" d="M0,0" style="fill: none;"/><path class="ylines-above crisp" d="M0,0" style="fill: none;"/><g class="overlines-above"/><g class="xaxislayer-above"><g class="xtick"><text text-anchor="middle" x="0" y="433" transform="translate(210,0)" style="font-family: 'Open Sans', verdana, arial, sans-serif; font-size: 12px; fill: rgb(242, 245, 250); fill-opacity: 1; white-space: pre; opacity: 1;">Fetal</text></g><g class="xtick"><text text-anchor="middle" x="0" y="433" transform="translate(470,0)" style="font-family: 'Open Sans', verdana, arial, sans-serif; font-size: 12px; fill: rgb(242, 245, 250); fill-opacity: 1; white-space: pre; opacity: 1;">Adult</text></g></g><g class="yaxislayer-above"><g class="ytick"><text text-anchor="end" x="79" y="4.199999999999999" transform="translate(0,390.04)" style="font-family: 'Open Sans', verdana, arial, sans-serif; font-size: 12px; fill: rgb(242, 245, 250); fill-opacity: 1; white-space: pre; opacity: 1;">0</text></g><g class="ytick"><text text-anchor="end" x="79" y="4.199999999999999" style="font-family: 'Open Sans', verdana, arial, sans-serif; font-size: 12px; fill: rgb(242, 245, 250); fill-opacity: 1; white-space: pre; opacity: 1;" transform="translate(0,337.56)">1</text></g><g class="ytick"><text text-anchor="end" x="79" y="4.199999999999999" style="font-family: 'Open Sans', verdana, arial, sans-serif; font-size: 12px; fill: rgb(242, 245, 250); fill-opacity: 1; white-space: pre; opacity: 1;" transform="translate(0,285.08000000000004)">2</text></g><g class="ytick"><text text-anchor="end" x="79" y="4.199999999999999" style="font-family: 'Open Sans', verdana, arial, sans-serif; font-size: 12px; fill: rgb(242, 245, 250); fill-opacity: 1; white-space: pre; opacity: 1;" transform="translate(0,232.6)">3</text></g><g class="ytick"><text text-anchor="end" x="79" y="4.199999999999999" style="font-family: 'Open Sans', verdana, arial, sans-serif; font-size: 12px; fill: rgb(242, 245, 250); fill-opacity: 1; white-space: pre; opacity: 1;" transform="translate(0,180.12)">4</text></g><g class="ytick"><text text-anchor="end" x="79" y="4.199999999999999" style="font-family: 'Open Sans', verdana, arial, sans-serif; font-size: 12px; fill: rgb(242, 245, 250); fill-opacity: 1; white-space: pre; opacity: 1;" transform="translate(0,127.64)">5</text></g></g><g class="overaxes-above"/></g></g><g class="polarlayer"/><g class="ternarylayer"/><g class="geolayer"/><g class="funnelarealayer"/><g class="pielayer"/><g class="iciclelayer"/><g class="treemaplayer"/><g class="sunburstlayer"/><g class="glimages"/><defs id="topdefs-52a46f"><g class="clips"/><clipPath id="legend52a46f"><rect width="78" height="48" x="0" y="0"/></clipPath></defs><g class="layer-above"><g class="imagelayer"/><g class="shapelayer"/></g><g class="infolayer"><g class="legend" pointer-events="all" transform="translate(610.4,100)"><rect class="bg" shape-rendering="crispEdges" width="78" height="48" x="0" y="0" style="stroke: rgb(68, 68, 68); stroke-opacity: 1; fill: rgb(17, 17, 17); fill-opacity: 1; stroke-width: 0px;"/><g class="scrollbox" transform="" clip-path="url(#legend52a46f)"><g class="groups"><g class="traces" transform="translate(0,14.5)" style="opacity: 1;"><text class="legendtext" text-anchor="start" x="40" y="4.680000000000001" style="font-family: 'Open Sans', verdana, arial, sans-serif; font-size: 12px; fill: rgb(242, 245, 250); fill-opacity: 1; white-space: pre;">Fetal</text><g class="layers" style="opacity: 1;"><g class="legendfill"/><g class="legendlines"/><g class="legendsymbols"><g class="legendpoints"><path class="legendbox" d="M6,6H-6V-6H6Z" transform="translate(20,0)" style="stroke-width: 2px; fill: rgb(99, 110, 250); fill-opacity: 0.5; stroke: rgb(99, 110, 250); stroke-opacity: 1;"/></g></g></g><rect class="legendtoggle" x="0" y="-9.5" width="72.578125" height="19" style="fill: rgb(0, 0, 0); fill-opacity: 0;"/></g><g class="traces" transform="translate(0,33.5)" style="opacity: 1;"><text class="legendtext" text-anchor="start" x="40" y="4.680000000000001" style="font-family: 'Open Sans', verdana, arial, sans-serif; font-size: 12px; fill: rgb(242, 245, 250); fill-opacity: 1; white-space: pre;">Adult</text><g class="layers" style="opacity: 1;"><g class="legendfill"/><g class="legendlines"/><g class="legendsymbols"><g class="legendpoints"><path class="legendbox" d="M6,6H-6V-6H6Z" transform="translate(20,0)" style="stroke-width: 2px; fill: rgb(239, 85, 59); fill-opacity: 0.5; stroke: rgb(239, 85, 59); stroke-opacity: 1;"/></g></g></g><rect class="legendtoggle" x="0" y="-9.5" width="72.578125" height="19" style="fill: rgb(0, 0, 0); fill-opacity: 0;"/></g></g></g><rect class="scrollbar" rx="20" ry="3" width="0" height="0" x="0" y="0" style="fill: rgb(128, 139, 164); fill-opacity: 1;"/></g><g class="g-gtitle"><text class="gtitle" x="35" y="50" text-anchor="start" dy="0em" style="font-family: 'Open Sans', verdana, arial, sans-serif; font-size: 17px; fill: rgb(242, 245, 250); opacity: 1; font-weight: normal; white-space: pre;">Distribution of complex log abundances</text></g><g class="g-xtitle"/><g class="g-ytitle"/></g></svg>