<svg class="main-svg" xmlns="http://www.w3.org/2000/svg" xmlns:xlink="http://www.w3.org/1999/xlink" width="700" height="500" style="" viewBox="0 0 700 500"><rect x="0" y="0" width="700" height="500" style="fill: rgb(255, 255, 255); fill-opacity: 1;"/><defs id="defs-7a0b7d"><g class="clips"><clipPath id="clip7a0b7dxyplot" class="plotclip"><rect width="520" height="320"/></clipPath><clipPath class="axesclip" id="clip7a0b7dx"><rect x="80" y="0" width="520" height="500"/></clipPath><clipPath class="axesclip" id="clip7a0b7dy"><rect x="0" y="100" width="700" height="320"/></clipPath><clipPath class="axesclip" id="clip7a0b7dxy"><rect x="80" y="100" width="520" height="320"/></clipPath></g><g class="gradients"/><g class="patterns"/></defs><g class="bglayer"/><g class="layer-below"><g class="imagelayer"/><g class="shapelayer"/></g><g class="cartesianlayer"><g class="subplot xy"><g class="layer-subplot"><g class="shapelayer"/><g class="imagelayer"/></g><g class="gridlayer"><g class="x"/><g class="y"/></g><g class="zerolinelayer"/><path class="xlines-below"/><path class="ylines-below"/><g class="overlines-below"/><g class="xaxislayer-below"/><g class="yaxislayer-below"/><g class="overaxes-below"/><g class="plot" transform="translate(80,100)" clip-path="url(#clip7a0b7dxyplot)"><g class="violinlayer mlayer"><g class="trace violins" style="opacity: 1;"><path class="violin" d="M130.13,302.56Q130.22,299.79 130.29,298.41C130.37,297.03 130.45,295.64 130.58,294.26C130.71,292.87 130.87,291.48 131.09,290.1C131.32,288.71 131.58,287.32 131.93,285.95C132.29,284.56 132.71,283.17 133.24,281.8C133.79,280.4 134.43,279 135.19,277.64C135.98,276.23 136.89,274.84 137.91,273.49C138.99,272.07 140.22,270.69 141.54,269.34C142.94,267.91 144.48,266.53 146.1,265.18C147.81,263.76 149.66,262.39 151.56,261.03C153.53,259.62 155.62,258.25 157.72,256.88C159.87,255.48 162.12,254.11 164.33,252.73C166.55,251.34 168.83,249.97 171.03,248.57C173.19,247.2 175.37,245.83 177.42,244.42C179.39,243.06 181.33,241.7 183.09,240.27C184.74,238.93 186.33,237.55 187.69,236.11C188.94,234.77 190.11,233.4 191,231.96C191.83,230.62 192.5,229.22 192.95,227.81C193.38,226.45 193.6,225.04 193.7,223.65C193.8,222.27 193.68,220.88 193.54,219.5C193.4,218.11 193.11,216.73 192.86,215.35C192.6,213.96 192.28,212.58 192.01,211.19C191.74,209.81 191.48,208.42 191.23,207.04C190.99,205.66 190.77,204.27 190.54,202.89C190.31,201.51 190.12,200.12 189.84,198.74C189.56,197.35 189.27,195.96 188.87,194.58C188.47,193.19 188,191.8 187.44,190.43C186.87,189.03 186.19,187.65 185.46,186.28C184.72,184.88 183.87,183.5 183.02,182.12C182.15,180.72 181.22,179.35 180.3,177.97C179.37,176.58 178.42,175.2 177.47,173.82C176.51,172.43 175.55,171.04 174.57,169.66C173.58,168.27 172.58,166.89 171.55,165.51C170.51,164.12 169.44,162.74 168.36,161.36C167.27,159.97 166.15,158.59 165.06,157.2C163.97,155.82 162.85,154.45 161.82,153.05C160.81,151.68 159.81,150.3 158.92,148.9C158.06,147.54 157.24,146.16 156.55,144.75C155.88,143.38 155.3,141.99 154.8,140.59C154.31,139.22 153.93,137.83 153.58,136.44C153.23,135.06 152.97,133.68 152.7,132.29C152.43,130.91 152.2,129.51 151.94,128.13C151.68,126.74 151.42,125.36 151.12,123.98C150.82,122.59 150.49,121.21 150.13,119.83C149.76,118.44 149.36,117.05 148.92,115.67C148.47,114.28 147.98,112.9 147.45,111.52C146.92,110.13 146.34,108.75 145.73,107.37C145.12,105.98 144.46,104.59 143.78,103.21C143.1,101.82 142.36,100.44 141.64,99.06C140.92,97.67 140.16,96.3 139.44,94.91C138.72,93.53 138,92.15 137.33,90.76C136.67,89.38 136.02,88 135.45,86.6C134.89,85.23 134.36,83.84 133.91,82.45C133.46,81.08 133.07,79.69 132.74,78.3C132.41,76.92 132.15,75.53 131.91,74.14C131.68,72.76 131.49,71.38 131.33,69.99C131.17,68.61 131.05,67.23 130.95,65.84C130.85,64.46 130.78,63.07 130.71,61.68C130.65,60.3 130.6,58.91 130.56,57.53C130.52,56.15 130.51,54.76 130.49,53.38C130.47,51.99 130.46,50.61 130.45,49.22C130.44,47.84 130.44,46.45 130.44,45.07C130.43,43.69 130.43,42.3 130.42,40.92C130.41,39.54 130.39,38.15 130.37,36.77C130.35,35.38 130.33,34 130.31,32.61C130.29,31.23 130.26,29.84 130.23,28.46C130.2,27.08 130.17,25.69 130.15,24.31C130.13,22.92 130.11,21.54 130.09,20.15Q130.07,18.77 130.05,16L129.95,16Q129.93,18.77 129.91,20.15C129.89,21.54 129.87,22.92 129.85,24.31C129.83,25.69 129.8,27.08 129.77,28.46C129.74,29.84 129.71,31.23 129.69,32.61C129.67,34 129.65,35.38 129.63,36.77C129.61,38.15 129.59,39.54 129.58,40.92C129.57,42.3 129.57,43.69 129.56,45.07C129.56,46.45 129.56,47.84 129.55,49.22C129.54,50.61 129.53,51.99 129.51,53.38C129.49,54.76 129.48,56.15 129.44,57.53C129.4,58.91 129.35,60.3 129.29,61.68C129.22,63.07 129.15,64.46 129.05,65.84C128.95,67.23 128.83,68.61 128.67,69.99C128.51,71.38 128.32,72.76 128.09,74.14C127.85,75.53 127.59,76.92 127.26,78.3C126.93,79.69 126.54,81.08 126.09,82.45C125.64,83.84 125.11,85.23 124.55,86.6C123.98,88 123.33,89.38 122.67,90.76C122,92.15 121.28,93.53 120.56,94.91C119.84,96.3 119.08,97.67 118.36,99.06C117.64,100.44 116.9,101.82 116.22,103.21C115.54,104.59 114.88,105.98 114.27,107.37C113.66,108.75 113.08,110.13 112.55,111.52C112.02,112.9 111.53,114.28 111.08,115.67C110.64,117.05 110.24,118.44 109.87,119.83C109.51,121.21 109.18,122.59 108.88,123.98C108.58,125.36 108.32,126.74 108.06,128.13C107.8,129.51 107.57,130.91 107.3,132.29C107.03,133.68 106.77,135.06 106.42,136.44C106.07,137.83 105.69,139.22 105.2,140.59C104.7,141.99 104.12,143.38 103.45,144.75C102.76,146.16 101.94,147.54 101.08,148.9C100.19,150.3 99.19,151.68 98.18,153.05C97.15,154.45 96.03,155.82 94.94,157.2C93.85,158.59 92.73,159.97 91.64,161.36C90.56,162.74 89.49,164.12 88.45,165.51C87.42,166.89 86.42,168.27 85.43,169.66C84.45,171.04 83.49,172.43 82.53,173.82C81.58,175.2 80.63,176.58 79.7,177.97C78.78,179.35 77.85,180.72 76.98,182.12C76.13,183.5 75.28,184.88 74.54,186.28C73.81,187.65 73.13,189.03 72.56,190.43C72,191.8 71.53,193.19 71.13,194.58C70.73,195.96 70.44,197.35 70.16,198.74C69.88,200.12 69.69,201.51 69.46,202.89C69.23,204.27 69.01,205.66 68.77,207.04C68.52,208.42 68.26,209.81 67.99,211.19C67.72,212.58 67.4,213.96 67.14,215.35C66.89,216.73 66.6,218.11 66.46,219.5C66.32,220.88 66.2,222.27 66.3,223.65C66.4,225.04 66.62,226.45 67.05,227.81C67.5,229.22 68.17,230.62 69,231.96C69.89,233.4 71.06,234.77 72.31,236.11C73.67,237.55 75.26,238.93 76.91,240.27C78.67,241.7 80.61,243.06 82.58,244.42C84.63,245.83 86.81,247.2 88.97,248.57C91.17,249.97 93.45,251.34 95.67,252.73C97.88,254.11 100.13,255.48 102.28,256.88C104.38,258.25 106.47,259.62 108.44,261.03C110.34,262.39 112.19,263.76 113.9,265.18C115.52,266.53 117.06,267.91 118.46,269.34C119.78,270.69 121.01,272.07 122.09,273.49C123.11,274.84 124.02,276.23 124.81,277.64C125.57,279 126.21,280.4 126.76,281.8C127.29,283.17 127.71,284.56 128.07,285.95C128.42,287.32 128.68,288.71 128.91,290.1C129.13,291.48 129.29,292.87 129.42,294.26C129.55,295.64 129.63,297.03 129.71,298.41Q129.78,299.79 129.87,302.56Z" style="vector-effect: non-scaling-stroke; stroke-width: 2px; stroke: rgb(31, 119, 180); stroke-opacity: 1; fill: rgb(31, 119, 180); fill-opacity: 0.5;"/><path class="box" d="M114.08,198.49H145.93M114.08,227.17H145.93V165.38H114.08ZM130,227.17V277.44M130,165.38V80.49" style="vector-effect: non-scaling-stroke; stroke-width: 2px; stroke: rgb(31, 119, 180); stroke-opacity: 1; fill: rgb(31, 119, 180); fill-opacity: 0.5;"/><path class="mean" d="M114.08,193.66H145.93" style="fill: none; vector-effect: non-scaling-stroke; stroke-width: 2px; stroke-dasharray: 4px, 2px; stroke: rgb(31, 119, 180); stroke-opacity: 1;"/><g class="points"><path class="point" transform="translate(130,68.23)" d="M3,0A3,3 0 1,1 0,-3A3,3 0 0,1 3,0Z" style="opacity: 1; stroke-width: 0px; fill: rgb(31, 119, 180); fill-opacity: 1;"/><path class="point" transform="translate(130,41.12)" d="M3,0A3,3 0 1,1 0,-3A3,3 0 0,1 3,0Z" style="opacity: 1; stroke-width: 0px; fill: rgb(31, 119, 180); fill-opacity: 1;"/></g></g><g class="trace violins" style="opacity: 1;"><path class="violin" d="M390.31,304Q390.51,300.57 390.68,298.86C390.85,297.15 391.05,295.43 391.35,293.73C391.65,292.01 392.01,290.29 392.49,288.59C392.98,286.86 393.56,285.14 394.28,283.45C395.02,281.71 395.9,280 396.91,278.32C397.97,276.57 399.18,274.85 400.52,273.18C401.93,271.42 403.53,269.72 405.23,268.05C407.03,266.29 409,264.58 411.05,262.91C413.2,261.15 415.51,259.46 417.86,257.77C420.28,256.03 422.84,254.34 425.37,252.64C427.92,250.92 430.57,249.23 433.09,247.5C435.56,245.8 438.07,244.12 440.36,242.36C442.52,240.69 444.67,239.02 446.48,237.23C448.15,235.58 449.73,233.89 450.89,232.09C451.95,230.45 452.82,228.71 453.28,226.96C453.72,225.29 453.82,223.52 453.7,221.82C453.57,220.1 453.08,218.37 452.51,216.68C451.93,214.94 451.07,213.24 450.22,211.55C449.35,209.82 448.34,208.12 447.36,206.41C446.37,204.69 445.33,202.98 444.31,201.27C443.29,199.56 442.26,197.85 441.23,196.14C440.19,194.43 439.16,192.71 438.1,191C437.03,189.28 435.95,187.58 434.85,185.87C433.74,184.15 432.59,182.44 431.45,180.73C430.31,179.02 429.14,177.31 428.03,175.59C426.93,173.89 425.82,172.19 424.8,170.46C423.8,168.76 422.84,167.05 421.98,165.32C421.13,163.62 420.36,161.91 419.67,160.18C418.99,158.48 418.41,156.77 417.87,155.05C417.34,153.35 416.88,151.63 416.45,149.91C416.02,148.2 415.65,146.48 415.27,144.77C414.89,143.06 414.55,141.35 414.19,139.64C413.83,137.93 413.48,136.21 413.09,134.5C412.7,132.79 412.3,131.08 411.85,129.37C411.4,127.65 410.91,125.94 410.38,124.23C409.85,122.51 409.27,120.8 408.67,119.09C408.07,117.37 407.42,115.67 406.78,113.96C406.14,112.25 405.47,110.53 404.82,108.82C404.17,107.11 403.51,105.39 402.88,103.68C402.25,101.97 401.63,100.26 401.02,98.55C400.41,96.84 399.82,95.12 399.23,93.41C398.64,91.7 398.05,89.99 397.49,88.28C396.93,86.57 396.38,84.86 395.87,83.14C395.36,81.43 394.86,79.72 394.43,78C394,76.29 393.61,74.59 393.28,72.87C392.95,71.16 392.69,69.45 392.46,67.73C392.24,66.02 392.07,64.3 391.93,62.59C391.79,60.88 391.7,59.17 391.61,57.46C391.52,55.75 391.46,54.03 391.39,52.32C391.32,50.61 391.25,48.9 391.18,47.19C391.11,45.48 391.03,43.76 390.96,42.05C390.88,40.34 390.81,38.62 390.73,36.91C390.66,35.2 390.58,33.49 390.51,31.78C390.44,30.07 390.38,28.35 390.33,26.64C390.28,24.93 390.23,23.21 390.19,21.5Q390.15,19.79 390.1,16.37L389.9,16.37Q389.85,19.79 389.81,21.5C389.77,23.21 389.72,24.93 389.67,26.64C389.62,28.35 389.56,30.07 389.49,31.78C389.42,33.49 389.34,35.2 389.27,36.91C389.19,38.62 389.12,40.34 389.04,42.05C388.97,43.76 388.89,45.48 388.82,47.19C388.75,48.9 388.68,50.61 388.61,52.32C388.54,54.03 388.48,55.75 388.39,57.46C388.3,59.17 388.21,60.88 388.07,62.59C387.93,64.3 387.76,66.02 387.54,67.73C387.31,69.45 387.05,71.16 386.72,72.87C386.39,74.59 386,76.29 385.57,78C385.14,79.72 384.64,81.43 384.13,83.14C383.62,84.86 383.07,86.57 382.51,88.28C381.95,89.99 381.36,91.7 380.77,93.41C380.18,95.12 379.59,96.84 378.98,98.55C378.37,100.26 377.75,101.97 377.12,103.68C376.49,105.39 375.83,107.11 375.18,108.82C374.53,110.53 373.86,112.25 373.22,113.96C372.58,115.67 371.93,117.37 371.33,119.09C370.73,120.8 370.15,122.51 369.62,124.23C369.09,125.94 368.6,127.65 368.15,129.37C367.7,131.08 367.3,132.79 366.91,134.5C366.52,136.21 366.17,137.93 365.81,139.64C365.45,141.35 365.11,143.06 364.73,144.77C364.35,146.48 363.98,148.2 363.55,149.91C363.12,151.63 362.66,153.35 362.13,155.05C361.59,156.77 361.01,158.48 360.33,160.18C359.64,161.91 358.87,163.62 358.02,165.32C357.16,167.05 356.2,168.76 355.2,170.46C354.18,172.19 353.07,173.89 351.97,175.59C350.86,177.31 349.69,179.02 348.55,180.73C347.41,182.44 346.26,184.15 345.15,185.87C344.05,187.58 342.97,189.28 341.9,191C340.84,192.71 339.81,194.43 338.77,196.14C337.74,197.85 336.71,199.56 335.69,201.27C334.67,202.98 333.63,204.69 332.64,206.41C331.66,208.12 330.65,209.82 329.78,211.55C328.93,213.24 328.07,214.94 327.49,216.68C326.92,218.37 326.43,220.1 326.3,221.82C326.18,223.52 326.28,225.29 326.72,226.96C327.18,228.71 328.05,230.45 329.11,232.09C330.27,233.89 331.85,235.58 333.52,237.23C335.33,239.02 337.48,240.69 339.64,242.36C341.93,244.12 344.44,245.8 346.91,247.5C349.43,249.23 352.08,250.92 354.63,252.64C357.16,254.34 359.72,256.03 362.14,257.77C364.49,259.46 366.8,261.15 368.95,262.91C371,264.58 372.97,266.29 374.77,268.05C376.47,269.72 378.07,271.42 379.48,273.18C380.82,274.85 382.03,276.57 383.09,278.32C384.1,280 384.98,281.71 385.72,283.45C386.44,285.14 387.02,286.86 387.51,288.59C387.99,290.29 388.35,292.01 388.65,293.73C388.95,295.43 389.15,297.15 389.32,298.86Q389.49,300.57 389.69,304Z" style="vector-effect: non-scaling-stroke; stroke-width: 2px; stroke: rgb(255, 127, 14); stroke-opacity: 1; fill: rgb(255, 127, 14); fill-opacity: 0.5;"/><path class="box" d="M374.08,205.81H405.93M374.08,230.34H405.93V166.63H374.08ZM390,230.34V272.84M390,166.63V88.24" style="vector-effect: non-scaling-stroke; stroke-width: 2px; stroke: rgb(255, 127, 14); stroke-opacity: 1; fill: rgb(255, 127, 14); fill-opacity: 0.5;"/><path class="mean" d="M374.08,194.88H405.93" style="fill: none; vector-effect: non-scaling-stroke; stroke-width: 2px; stroke-dasharray: 4px, 2px; stroke: rgb(255, 127, 14); stroke-opacity: 1;"/><g class="points"><path class="point" transform="translate(390,59.93)" d="M3,0A3,3 0 1,1 0,-3A3,3 0 0,1 3,0Z" style="opacity: 1; stroke-width: 0px; fill: rgb(255, 127, 14); fill-opacity: 1;"/><path class="point" transform="translate(390,47.52)" d="M3,0A3,3 0 1,1 0,-3A3,3 0 0,1 3,0Z" style="opacity: 1; stroke-width: 0px; fill: rgb(255, 127, 14); fill-opacity: 1;"/></g></g></g></g><g class="overplot"/><path class="xlines-above crisp" d="M79,420.5H600" style="fill: none; stroke-width: 1px; stroke: rgb(36, 36, 36); stroke-opacity: 1;"/><path class="ylines-above crisp" d="M79.5,100V420" style="fill: none; stroke-width: 1px; stroke: rgb(36, 36, 36); stroke-opacity: 1;"/><g class="overlines-above"/><g class="xaxislayer-above"><path class="xtick ticks crisp" d="M0,421v5" transform="translate(210,0)" style="stroke: rgb(68, 68, 68); stroke-opacity: 1; stroke-width: 1px;"/><path class="xtick ticks crisp" d="M0,421v5" transform="translate(470,0)" style="stroke: rgb(68, 68, 68); stroke-opacity: 1; stroke-width: 1px;"/><g class="xtick"><text text-anchor="middle" x="0" y="440.4" transform="translate(210,0)" style="font-family: 'Open Sans', verdana, arial, sans-serif; font-size: 12px; fill: rgb(36, 36, 36); fill-opacity: 1; white-space: pre; opacity: 1;">Fetal</text></g><g class="xtick"><text text-anchor="middle" x="0" y="440.4" transform="translate(470,0)" style="font-family: 'Open Sans', verdana, arial, sans-serif; font-size: 12px; fill: rgb(36, 36, 36); fill-opacity: 1; white-space: pre; opacity: 1;">Adult</text></g></g><g class="yaxislayer-above"><path class="ytick ticks crisp" d="M79,0h-5" transform="translate(0,416.27)" style="stroke: rgb(68, 68, 68); stroke-opacity: 1; stroke-width: 1px;"/><path class="ytick ticks crisp" d="M79,0h-5" transform="translate(0,372.66)" style="stroke: rgb(68, 68, 68); stroke-opacity: 1; stroke-width: 1px;"/><path class="ytick ticks crisp" d="M79,0h-5" transform="translate(0,329.03999999999996)" style="stroke: rgb(68, 68, 68); stroke-opacity: 1; stroke-width: 1px;"/><path class="ytick ticks crisp" d="M79,0h-5" transform="translate(0,285.43)" style="stroke: rgb(68, 68, 68); stroke-opacity: 1; stroke-width: 1px;"/><path class="ytick ticks crisp" d="M79,0h-5" transform="translate(0,241.82)" style="stroke: rgb(68, 68, 68); stroke-opacity: 1; stroke-width: 1px;"/><path class="ytick ticks crisp" d="M79,0h-5" transform="translate(0,198.2)" style="stroke: rgb(68, 68, 68); stroke-opacity: 1; stroke-width: 1px;"/><path class="ytick ticks crisp" d="M79,0h-5" transform="translate(0,154.59)" style="stroke: rgb(68, 68, 68); stroke-opacity: 1; stroke-width: 1px;"/><path class="ytick ticks crisp" d="M79,0h-5" transform="translate(0,110.97)" style="stroke: rgb(68, 68, 68); stroke-opacity: 1; stroke-width: 1px;"/><g class="ytick"><text text-anchor="end" x="71.6" y="4.199999999999999" transform="translate(0,416.27)" style="font-family: 'Open Sans', verdana, arial, sans-serif; font-size: 12px; fill: rgb(36, 36, 36); fill-opacity: 1; white-space: pre; opacity: 1;">2</text></g><g class="ytick"><text text-anchor="end" x="71.6" y="4.199999999999999" style="font-family: 'Open Sans', verdana, arial, sans-serif; font-size: 12px; fill: rgb(36, 36, 36); fill-opacity: 1; white-space: pre; opacity: 1;" transform="translate(0,372.66)">3</text></g><g class="ytick"><text text-anchor="end" x="71.6" y="4.199999999999999" style="font-family: 'Open Sans', verdana, arial, sans-serif; font-size: 12px; fill: rgb(36, 36, 36); fill-opacity: 1; white-space: pre; opacity: 1;" transform="translate(0,329.03999999999996)">4</text></g><g class="ytick"><text text-anchor="end" x="71.6" y="4.199999999999999" style="font-family: 'Open Sans', verdana, arial, sans-serif; font-size: 12px; fill: rgb(36, 36, 36); fill-opacity: 1; white-space: pre; opacity: 1;" transform="translate(0,285.43)">5</text></g><g class="ytick"><text text-anchor="end" x="71.6" y="4.199999999999999" style="font-family: 'Open Sans', verdana, arial, sans-serif; font-size: 12px; fill: rgb(36, 36, 36); fill-opacity: 1; white-space: pre; opacity: 1;" transform="translate(0,241.82)">6</text></g><g class="ytick"><text text-anchor="end" x="71.6" y="4.199999999999999" style="font-family: 'Open Sans', verdana, arial, sans-serif; font-size: 12px; fill: rgb(36, 36, 36); fill-opacity: 1; white-space: pre; opacity: 1;" transform="translate(0,198.2)">7</text></g><g class="ytick"><text text-anchor="end" x="71.6" y="4.199999999999999" style="font-family: 'Open Sans', verdana, arial, sans-serif; font-size: 12px; fill: rgb(36, 36, 36); fill-opacity: 1; white-space: pre; opacity: 1;" transform="translate(0,154.59)">8</text></g><g class="ytick"><text text-anchor="end" x="71.6" y="4.199999999999999" style="font-family: 'Open Sans', verdana, arial, sans-serif; font-size: 12px; fill: rgb(36, 36, 36); fill-opacity: 1; white-space: pre; opacity: 1;" transform="translate(0,110.97)">9</text></g></g><g class="overaxes-above"/></g></g><g class="polarlayer"/><g class="ternarylayer"/><g class="geolayer"/><g class="funnelarealayer"/><g class="pielayer"/><g class="iciclelayer"/><g class="treemaplayer"/><g class="sunburstlayer"/><g class="glimages"/><defs id="topdefs-7a0b7d"><g class="clips"/><clipPath id="legend7a0b7d"><rect width="78" height="48" x="0" y="0"/></clipPath></defs><g class="layer-above"><g class="imagelayer"/><g class="shapelayer"/></g><g class="infolayer"><g class="legend" pointer-events="all" transform="translate(610.4,100)"><rect class="bg" shape-rendering="crispEdges" width="78" height="48" x="0" y="0" style="stroke: rgb(68, 68, 68); stroke-opacity: 1; fill: rgb(255, 255, 255); fill-opacity: 1; stroke-width: 0px;"/><g class="scrollbox" transform="" clip-path="url(#legend7a0b7d)"><g class="groups"><g class="traces" transform="translate(0,14.5)" style="opacity: 1;"><text class="legendtext" text-anchor="start" x="40" y="4.680000000000001" style="font-family: 'Open Sans', verdana, arial, sans-serif; font-size: 12px; fill: rgb(36, 36, 36); fill-opacity: 1; white-space: pre;">Fetal</text><g class="layers" style="opacity: 1;"><g class="legendfill"/><g class="legendlines"/><g class="legendsymbols"><g class="legendpoints"><path class="legendbox" d="M6,6H-6V-6H6Z" transform="translate(20,0)" style="stroke-width: 2px; fill: rgb(31, 119, 180); fill-opacity: 0.5; stroke: rgb(31, 119, 180); stroke-opacity: 1;"/></g></g></g><rect class="legendtoggle" x="0" y="-9.5" width="72.578125" height="19" style="fill: rgb(0, 0, 0); fill-opacity: 0;"/></g><g class="traces" transform="translate(0,33.5)" style="opacity: 1;"><text class="legendtext" text-anchor="start" x="40" y="4.680000000000001" style="font-family: 'Open Sans', verdana, arial, sans-serif; font-size: 12px; fill: rgb(36, 36, 36); fill-opacity: 1; white-space: pre;">Adult</text><g class="layers" style="opacity: 1;"><g class="legendfill"/><g class="legendlines"/><g class="legendsymbols"><g class="legendpoints"><path class="legendbox" d="M6,6H-6V-6H6Z" transform="translate(20,0)" style="stroke-width: 2px; fill: rgb(255, 127, 14); fill-opacity: 0.5; stroke: rgb(255, 127, 14); stroke-opacity: 1;"/></g></g></g><rect class="legendtoggle" x="0" y="-9.5" width="72.578125" height="19" style="fill: rgb(0, 0, 0); fill-opacity: 0;"/></g></g></g><rect class="scrollbar" rx="20" ry="3" width="0" height="0" x="0" y="0" style="fill: rgb(128, 139, 164); fill-opacity: 1;"/></g><g class="g-gtitle"><text class="gtitle" x="35" y="50" text-anchor="start" dy="0em" style="font-family: 'Open Sans', verdana, arial, sans-serif; font-size: 17px; fill: rgb(36, 36, 36); opacity: 1; font-weight: normal; white-space: pre;">Distribution of protein log abundances</text></g><g class="g-xtitle"/><g class="g-ytitle"/></g></svg>