<svg class="main-svg" xmlns="http://www.w3.org/2000/svg" xmlns:xlink="http://www.w3.org/1999/xlink" width="700" height="500" style="" viewBox="0 0 700 500"><rect x="0" y="0" width="700" height="500" style="fill: rgb(255, 255, 255); fill-opacity: 1;"/><defs id="defs-8c37b8"><g class="clips"><clipPath id="clip8c37b8xyplot" class="plotclip"><rect width="506" height="320"/></clipPath><clipPath class="axesclip" id="clip8c37b8x"><rect x="80" y="0" width="506" height="500"/></clipPath><clipPath class="axesclip" id="clip8c37b8y"><rect x="0" y="100" width="700" height="320"/></clipPath><clipPath class="axesclip" id="clip8c37b8xy"><rect x="80" y="100" width="506" height="320"/></clipPath></g><g class="gradients"/><g class="patterns"/></defs><g class="bglayer"/><g class="layer-below"><g class="imagelayer"/><g class="shapelayer"/></g><g class="cartesianlayer"><g class="subplot xy"><g class="layer-subplot"><g class="shapelayer"/><g class="imagelayer"/></g><g class="gridlayer"><g class="x"/><g class="y"/></g><g class="zerolinelayer"/><path class="xlines-below"/><path class="ylines-below"/><g class="overlines-below"/><g class="xaxislayer-below"/><g class="yaxislayer-below"/><g class="overaxes-below"/><g class="plot" transform="translate(80,100)" clip-path="url(#clip8c37b8xyplot)"><g class="violinlayer mlayer"><g class="trace violins" style="opacity: 1;"><path class="violin" d="M130.03,295.08Q131.92,294.49 133,294.22C134.28,293.91 135.74,293.63 137.21,293.36C138.82,293.06 140.61,292.79 142.3,292.5C143.99,292.22 145.8,291.96 147.36,291.65C148.72,291.38 150.22,291.17 151.15,290.79C151.76,290.54 152.55,290.22 152.55,289.93C152.55,289.64 151.76,289.32 151.15,289.07C150.22,288.69 148.72,288.48 147.36,288.21C145.8,287.9 143.99,287.64 142.3,287.35C140.61,287.06 138.82,286.79 137.21,286.49C135.74,286.22 134.28,285.95 133,285.64C131.92,285.37 130.89,285.1 130.03,284.78C129.34,284.52 128.7,284.25 128.21,283.92C127.81,283.66 127.48,283.37 127.24,283.06C127.03,282.79 126.9,282.49 126.79,282.2C126.69,281.92 126.64,281.63 126.6,281.34C126.56,281.05 126.54,280.77 126.53,280.48C126.52,280.2 126.51,279.91 126.51,279.63C126.5,279.34 126.5,279.06 126.5,278.77C126.5,278.48 126.5,278.2 126.5,277.91C126.5,277.62 126.5,277.34 126.51,277.05C126.52,276.76 126.53,276.48 126.55,276.19C126.57,275.9 126.58,275.61 126.65,275.33C126.72,275.04 126.8,274.75 126.96,274.48C127.14,274.18 127.4,273.88 127.74,273.62C128.18,273.29 128.79,273.02 129.49,272.76C130.43,272.42 131.63,272.16 132.94,271.9C134.65,271.56 136.71,271.3 138.9,271.04C141.58,270.72 144.68,270.45 147.86,270.18C151.47,269.87 155.51,269.6 159.44,269.32C163.53,269.03 167.94,268.77 171.94,268.47C175.64,268.2 179.58,267.95 182.61,267.61C184.86,267.35 188.28,267.3 188.49,266.75C188.58,266.51 188.21,266.13 187.78,265.89C186.68,265.29 183.34,265.29 180.71,265.03C177.39,264.7 173.27,264.45 169.41,264.17C165.35,263.88 160.95,263.6 156.9,263.31C153.08,263.03 149.21,262.77 145.77,262.46C142.79,262.19 139.9,261.92 137.43,261.6C135.44,261.34 133.58,261.08 132.05,260.74C130.89,260.48 129.84,260.22 129.02,259.88C128.42,259.63 127.9,259.35 127.53,259.02C127.24,258.76 127.03,258.46 126.88,258.16C126.74,257.89 126.69,257.59 126.64,257.3C126.59,257.02 126.58,256.73 126.58,256.45C126.58,256.16 126.59,255.88 126.63,255.59C126.67,255.3 126.71,255.01 126.8,254.73C126.89,254.44 127.01,254.15 127.17,253.87C127.34,253.57 127.56,253.28 127.82,253.01C128.11,252.71 128.47,252.42 128.85,252.15C129.26,251.85 129.74,251.58 130.22,251.3C130.72,251.01 131.28,250.73 131.79,250.44C132.28,250.16 132.8,249.89 133.21,249.58C133.57,249.31 133.96,249.04 134.13,248.72C134.27,248.46 134.33,248.13 134.26,247.86C134.18,247.55 133.86,247.27 133.57,247C133.22,246.68 132.72,246.42 132.26,246.14C131.77,245.85 131.21,245.58 130.7,245.29C130.2,245.01 129.69,244.73 129.24,244.43C128.83,244.15 128.43,243.87 128.1,243.57C127.81,243.3 127.54,243.01 127.34,242.71C127.15,242.43 127.01,242.14 126.91,241.85C126.81,241.57 126.75,241.28 126.72,240.99C126.69,240.71 126.69,240.41 126.71,240.13C126.73,239.84 126.78,239.56 126.86,239.28C126.94,238.99 127.05,238.7 127.2,238.42C127.36,238.12 127.56,237.84 127.79,237.56C128.03,237.26 128.33,236.98 128.63,236.7C128.94,236.41 129.3,236.13 129.64,235.84C129.98,235.55 130.35,235.28 130.66,234.98C130.94,234.71 131.24,234.43 131.42,234.13C131.58,233.86 131.71,233.56 131.71,233.27C131.71,232.98 131.59,232.68 131.44,232.41C131.27,232.1 130.97,231.83 130.69,231.55C130.39,231.25 130.02,230.98 129.68,230.69C129.34,230.4 128.98,230.12 128.66,229.83C128.36,229.55 128.07,229.27 127.83,228.97C127.61,228.7 127.4,228.41 127.25,228.12C127.11,227.84 127,227.55 126.94,227.26C126.88,226.98 126.86,226.69 126.87,226.4C126.88,226.11 126.92,225.82 126.99,225.54C127.06,225.25 127.17,224.96 127.29,224.68C127.41,224.39 127.57,224.1 127.73,223.82C127.89,223.53 128.07,223.25 128.24,222.96C128.4,222.68 128.59,222.4 128.72,222.11C128.85,221.83 128.98,221.54 129.04,221.25C129.1,220.97 129.12,220.67 129.09,220.39C129.06,220.1 128.97,219.81 128.87,219.53C128.76,219.24 128.6,218.95 128.44,218.67C128.28,218.38 128.09,218.1 127.92,217.81C127.75,217.52 127.58,217.24 127.43,216.95C127.29,216.67 127.16,216.39 127.05,216.1C126.94,215.82 126.86,215.53 126.79,215.24C126.72,214.96 126.67,214.67 126.63,214.38C126.59,214.09 126.58,213.81 126.56,213.52C126.54,213.23 126.53,212.95 126.52,212.66C126.51,212.37 126.51,212.09 126.51,211.8C126.51,211.52 126.5,211.23 126.5,210.95C126.5,210.66 126.5,210.38 126.5,210.09C126.5,209.8 126.51,209.52 126.51,209.23C126.51,208.94 126.52,208.66 126.52,208.37C126.53,208.08 126.53,207.8 126.54,207.51C126.55,207.22 126.57,206.94 126.6,206.65C126.63,206.36 126.67,206.07 126.73,205.79C126.79,205.5 126.86,205.22 126.95,204.94C127.04,204.65 127.16,204.36 127.29,204.08C127.42,203.79 127.59,203.5 127.75,203.22C127.91,202.93 128.1,202.65 128.27,202.36C128.44,202.07 128.62,201.79 128.75,201.5C128.88,201.22 128.99,200.93 129.05,200.64C129.11,200.36 129.13,200.06 129.1,199.78C129.07,199.49 128.99,199.21 128.89,198.93C128.79,198.64 128.64,198.36 128.51,198.07C128.38,197.78 128.22,197.5 128.11,197.21C128,196.93 127.89,196.64 127.84,196.35C127.79,196.07 127.77,195.77 127.8,195.49C127.83,195.2 127.92,194.91 128.01,194.63C128.11,194.34 128.25,194.06 128.38,193.78C128.51,193.49 128.68,193.21 128.79,192.92C128.9,192.64 129.01,192.35 129.06,192.06C129.11,191.78 129.13,191.48 129.1,191.2C129.07,190.91 128.97,190.62 128.86,190.34C128.75,190.05 128.59,189.76 128.43,189.48C128.27,189.19 128.08,188.91 127.91,188.62C127.74,188.34 127.57,188.06 127.42,187.77C127.28,187.49 127.15,187.2 127.04,186.91C126.93,186.63 126.85,186.34 126.78,186.05C126.71,185.77 126.67,185.48 126.63,185.19C126.59,184.9 126.58,184.62 126.56,184.33C126.54,184.04 126.53,183.76 126.52,183.47C126.51,183.18 126.51,182.9 126.51,182.61C126.51,182.33 126.5,182.04 126.5,181.76C126.5,181.47 126.5,181.19 126.5,180.9C126.5,180.61 126.5,180.33 126.5,180.04C126.5,179.75 126.5,179.47 126.5,179.18C126.5,178.89 126.5,178.61 126.5,178.32C126.5,178.03 126.5,177.75 126.5,177.46C126.5,177.17 126.5,176.89 126.5,176.6C126.5,176.32 126.5,176.03 126.5,175.75C126.5,175.46 126.5,175.18 126.5,174.89C126.5,174.6 126.5,174.32 126.5,174.03C126.5,173.74 126.5,173.46 126.5,173.17C126.5,172.88 126.5,172.6 126.5,172.31C126.5,172.02 126.5,171.74 126.5,171.45C126.5,171.17 126.5,170.88 126.5,170.6C126.5,170.31 126.5,170.03 126.5,169.74C126.5,169.45 126.5,169.17 126.5,168.88C126.5,168.59 126.5,168.31 126.5,168.02C126.5,167.73 126.5,167.45 126.5,167.16C126.5,166.87 126.5,166.59 126.5,166.3C126.5,166.01 126.5,165.73 126.5,165.44C126.5,165.16 126.5,164.87 126.5,164.59C126.5,164.3 126.5,164.02 126.5,163.73C126.5,163.44 126.5,163.16 126.5,162.87C126.5,162.58 126.5,162.3 126.5,162.01C126.5,161.72 126.5,161.44 126.5,161.15C126.5,160.86 126.5,160.58 126.5,160.29C126.5,160 126.5,159.72 126.5,159.43C126.5,159.15 126.5,158.86 126.5,158.58C126.5,158.29 126.5,158.01 126.5,157.72C126.5,157.43 126.5,157.15 126.5,156.86C126.5,156.57 126.5,156.29 126.5,156C126.5,155.71 126.5,155.43 126.5,155.14C126.5,154.85 126.5,154.57 126.5,154.28C126.5,154 126.5,153.71 126.5,153.43C126.5,153.14 126.5,152.86 126.5,152.57C126.5,152.28 126.5,152 126.5,151.71C126.5,151.42 126.5,151.14 126.5,150.85C126.5,150.56 126.5,150.28 126.5,149.99C126.5,149.7 126.5,149.42 126.5,149.13C126.5,148.84 126.5,148.56 126.5,148.27C126.5,147.99 126.5,147.7 126.5,147.42C126.5,147.13 126.5,146.85 126.5,146.56C126.5,146.27 126.5,145.99 126.5,145.7C126.5,145.41 126.5,145.13 126.5,144.84C126.5,144.55 126.5,144.27 126.5,143.98C126.5,143.69 126.5,143.41 126.5,143.12C126.5,142.83 126.5,142.55 126.5,142.26C126.5,141.98 126.5,141.69 126.5,141.41C126.5,141.12 126.5,140.84 126.5,140.55C126.5,140.26 126.5,139.98 126.5,139.69C126.5,139.4 126.5,139.12 126.5,138.83C126.5,138.54 126.5,138.26 126.5,137.97C126.5,137.68 126.5,137.4 126.5,137.11C126.5,136.82 126.5,136.54 126.5,136.25C126.5,135.97 126.5,135.68 126.5,135.4C126.5,135.11 126.5,134.83 126.5,134.54C126.5,134.25 126.5,133.97 126.5,133.68C126.5,133.39 126.5,133.11 126.5,132.82C126.5,132.53 126.5,132.25 126.5,131.96C126.5,131.67 126.5,131.39 126.5,131.1C126.5,130.82 126.5,130.53 126.5,130.25C126.5,129.96 126.5,129.68 126.5,129.39C126.5,129.1 126.5,128.82 126.5,128.53C126.5,128.24 126.5,127.96 126.5,127.67C126.5,127.38 126.5,127.1 126.5,126.81C126.5,126.52 126.5,126.24 126.5,125.95C126.5,125.66 126.5,125.38 126.5,125.09C126.5,124.81 126.5,124.52 126.5,124.24C126.5,123.95 126.5,123.67 126.5,123.38C126.5,123.09 126.5,122.81 126.5,122.52C126.5,122.23 126.5,121.95 126.5,121.66C126.5,121.37 126.5,121.09 126.5,120.8C126.5,120.51 126.5,120.23 126.5,119.94C126.5,119.65 126.5,119.37 126.5,119.08C126.5,118.8 126.5,118.51 126.5,118.23C126.5,117.94 126.5,117.66 126.5,117.37C126.5,117.08 126.5,116.8 126.5,116.51C126.5,116.22 126.5,115.94 126.5,115.65C126.5,115.36 126.5,115.08 126.5,114.79C126.5,114.5 126.5,114.22 126.5,113.93C126.5,113.65 126.5,113.36 126.5,113.08C126.5,112.79 126.5,112.51 126.5,112.22C126.5,111.93 126.5,111.65 126.5,111.36C126.5,111.07 126.5,110.79 126.5,110.5C126.5,110.21 126.5,109.93 126.5,109.64C126.5,109.35 126.5,109.07 126.5,108.78C126.5,108.49 126.5,108.21 126.5,107.92C126.5,107.64 126.5,107.35 126.5,107.07C126.5,106.78 126.5,106.5 126.5,106.21C126.5,105.92 126.5,105.64 126.5,105.35C126.5,105.06 126.5,104.78 126.5,104.49C126.5,104.2 126.5,103.92 126.5,103.63C126.5,103.34 126.5,103.06 126.5,102.77C126.5,102.48 126.5,102.2 126.5,101.91C126.5,101.63 126.5,101.34 126.5,101.06C126.5,100.77 126.5,100.49 126.5,100.2C126.5,99.91 126.5,99.63 126.5,99.34C126.5,99.05 126.5,98.77 126.5,98.48C126.5,98.19 126.5,97.91 126.5,97.62C126.5,97.33 126.5,97.05 126.5,96.76C126.5,96.47 126.5,96.19 126.5,95.9C126.5,95.62 126.5,95.33 126.5,95.05C126.5,94.76 126.5,94.48 126.5,94.19C126.5,93.9 126.5,93.62 126.5,93.33C126.5,93.04 126.5,92.76 126.5,92.47C126.5,92.18 126.5,91.9 126.5,91.61C126.5,91.32 126.5,91.04 126.5,90.75C126.5,90.47 126.5,90.18 126.5,89.9C126.5,89.61 126.5,89.33 126.5,89.04C126.5,88.75 126.5,88.47 126.5,88.18C126.5,87.89 126.5,87.61 126.5,87.32C126.5,87.03 126.5,86.75 126.5,86.46C126.5,86.17 126.5,85.89 126.5,85.6C126.5,85.31 126.5,85.03 126.5,84.74C126.5,84.46 126.5,84.17 126.5,83.89C126.5,83.6 126.5,83.32 126.5,83.03C126.5,82.74 126.5,82.46 126.5,82.17C126.5,81.88 126.5,81.6 126.5,81.31C126.5,81.02 126.5,80.74 126.5,80.45C126.5,80.16 126.5,79.88 126.5,79.59C126.5,79.3 126.5,79.02 126.5,78.73C126.5,78.45 126.5,78.16 126.5,77.88C126.5,77.59 126.5,77.31 126.5,77.02C126.5,76.73 126.5,76.45 126.5,76.16C126.5,75.87 126.5,75.59 126.5,75.3C126.5,75.01 126.5,74.73 126.5,74.44C126.5,74.15 126.5,73.87 126.5,73.58C126.5,73.3 126.5,73.01 126.5,72.73C126.5,72.44 126.5,72.16 126.5,71.87C126.5,71.58 126.5,71.3 126.5,71.01C126.5,70.72 126.5,70.44 126.5,70.15C126.5,69.86 126.5,69.58 126.5,69.29C126.5,69 126.5,68.72 126.5,68.43C126.5,68.14 126.5,67.86 126.5,67.57C126.5,67.29 126.5,67 126.5,66.72C126.5,66.43 126.5,66.15 126.5,65.86C126.5,65.57 126.5,65.29 126.5,65C126.5,64.71 126.5,64.43 126.5,64.14C126.5,63.85 126.5,63.57 126.5,63.28C126.5,62.99 126.5,62.71 126.5,62.42C126.5,62.13 126.5,61.85 126.5,61.56C126.5,61.28 126.5,60.99 126.5,60.71C126.5,60.42 126.5,60.14 126.5,59.85C126.5,59.56 126.5,59.28 126.5,58.99C126.5,58.7 126.5,58.42 126.5,58.13C126.5,57.84 126.5,57.56 126.5,57.27C126.5,56.98 126.51,56.7 126.51,56.41C126.52,56.12 126.52,55.84 126.53,55.55C126.54,55.27 126.55,54.98 126.57,54.7C126.59,54.41 126.62,54.13 126.66,53.84C126.7,53.55 126.75,53.26 126.83,52.98C126.91,52.69 127.01,52.4 127.12,52.12C127.24,51.83 127.38,51.54 127.53,51.26C127.68,50.97 127.86,50.69 128.03,50.4C128.2,50.12 128.39,49.84 128.54,49.55C128.69,49.27 128.85,48.98 128.94,48.69C129.03,48.41 129.09,48.12 129.1,47.83C129.11,47.54 129.07,47.25 128.99,46.97C128.91,46.68 128.77,46.39 128.63,46.11C128.49,45.82 128.3,45.54 128.13,45.25C127.96,44.96 127.77,44.68 127.61,44.39C127.45,44.11 127.3,43.83 127.18,43.54C127.06,43.26 126.96,42.97 126.88,42.68C126.8,42.4 126.74,42.11 126.69,41.82C126.64,41.53 126.61,41.25 126.59,40.96C126.57,40.67 126.56,40.39 126.56,40.1C126.56,39.81 126.57,39.53 126.59,39.24C126.61,38.95 126.63,38.66 126.67,38.38C126.71,38.09 126.77,37.81 126.85,37.53C126.93,37.24 127.03,36.95 127.15,36.67C127.27,36.38 127.42,36.09 127.57,35.81C127.73,35.52 127.91,35.24 128.08,34.95C128.25,34.66 128.44,34.38 128.59,34.09C128.73,33.81 128.87,33.52 128.96,33.23C129.04,32.95 129.11,32.66 129.11,32.38C129.11,32.09 129.04,31.8 128.96,31.52C128.87,31.23 128.73,30.94 128.59,30.66C128.44,30.37 128.25,30.09 128.08,29.8C127.91,29.51 127.73,29.23 127.57,28.94C127.42,28.66 127.27,28.37 127.15,28.08Q127.03,27.8 126.85,27.22L126.15,27.22Q125.97,27.8 125.85,28.08C125.73,28.37 125.58,28.66 125.43,28.94C125.27,29.23 125.09,29.51 124.92,29.8C124.75,30.09 124.56,30.37 124.41,30.66C124.27,30.94 124.13,31.23 124.04,31.52C123.96,31.8 123.89,32.09 123.89,32.38C123.89,32.66 123.96,32.95 124.04,33.23C124.13,33.52 124.27,33.81 124.41,34.09C124.56,34.38 124.75,34.66 124.92,34.95C125.09,35.24 125.27,35.52 125.43,35.81C125.58,36.09 125.73,36.38 125.85,36.67C125.97,36.95 126.07,37.24 126.15,37.53C126.23,37.81 126.29,38.09 126.33,38.38C126.37,38.66 126.39,38.95 126.41,39.24C126.43,39.53 126.44,39.81 126.44,40.1C126.44,40.39 126.43,40.67 126.41,40.96C126.39,41.25 126.36,41.53 126.31,41.82C126.26,42.11 126.2,42.4 126.12,42.68C126.04,42.97 125.94,43.26 125.82,43.54C125.7,43.83 125.55,44.11 125.39,44.39C125.23,44.68 125.04,44.96 124.87,45.25C124.7,45.54 124.51,45.82 124.37,46.11C124.23,46.39 124.09,46.68 124.01,46.97C123.93,47.25 123.89,47.54 123.9,47.83C123.91,48.12 123.97,48.41 124.06,48.69C124.15,48.98 124.31,49.27 124.46,49.55C124.61,49.84 124.8,50.12 124.97,50.4C125.14,50.69 125.32,50.97 125.47,51.26C125.62,51.54 125.76,51.83 125.88,52.12C125.99,52.4 126.09,52.69 126.17,52.98C126.25,53.26 126.3,53.55 126.34,53.84C126.38,54.13 126.41,54.41 126.43,54.7C126.45,54.98 126.46,55.27 126.47,55.55C126.48,55.84 126.48,56.12 126.49,56.41C126.49,56.7 126.5,56.98 126.5,57.27C126.5,57.56 126.5,57.84 126.5,58.13C126.5,58.42 126.5,58.7 126.5,58.99C126.5,59.28 126.5,59.56 126.5,59.85C126.5,60.14 126.5,60.42 126.5,60.71C126.5,60.99 126.5,61.28 126.5,61.56C126.5,61.85 126.5,62.13 126.5,62.42C126.5,62.71 126.5,62.99 126.5,63.28C126.5,63.57 126.5,63.85 126.5,64.14C126.5,64.43 126.5,64.71 126.5,65C126.5,65.29 126.5,65.57 126.5,65.86C126.5,66.15 126.5,66.43 126.5,66.72C126.5,67 126.5,67.29 126.5,67.57C126.5,67.86 126.5,68.14 126.5,68.43C126.5,68.72 126.5,69 126.5,69.29C126.5,69.58 126.5,69.86 126.5,70.15C126.5,70.44 126.5,70.72 126.5,71.01C126.5,71.3 126.5,71.58 126.5,71.87C126.5,72.16 126.5,72.44 126.5,72.73C126.5,73.01 126.5,73.3 126.5,73.58C126.5,73.87 126.5,74.15 126.5,74.44C126.5,74.73 126.5,75.01 126.5,75.3C126.5,75.59 126.5,75.87 126.5,76.16C126.5,76.45 126.5,76.73 126.5,77.02C126.5,77.31 126.5,77.59 126.5,77.88C126.5,78.16 126.5,78.45 126.5,78.73C126.5,79.02 126.5,79.3 126.5,79.59C126.5,79.88 126.5,80.16 126.5,80.45C126.5,80.74 126.5,81.02 126.5,81.31C126.5,81.6 126.5,81.88 126.5,82.17C126.5,82.46 126.5,82.74 126.5,83.03C126.5,83.32 126.5,83.6 126.5,83.89C126.5,84.17 126.5,84.46 126.5,84.74C126.5,85.03 126.5,85.31 126.5,85.6C126.5,85.89 126.5,86.17 126.5,86.46C126.5,86.75 126.5,87.03 126.5,87.32C126.5,87.61 126.5,87.89 126.5,88.18C126.5,88.47 126.5,88.75 126.5,89.04C126.5,89.33 126.5,89.61 126.5,89.9C126.5,90.18 126.5,90.47 126.5,90.75C126.5,91.04 126.5,91.32 126.5,91.61C126.5,91.9 126.5,92.18 126.5,92.47C126.5,92.76 126.5,93.04 126.5,93.33C126.5,93.62 126.5,93.9 126.5,94.19C126.5,94.48 126.5,94.76 126.5,95.05C126.5,95.33 126.5,95.62 126.5,95.9C126.5,96.19 126.5,96.47 126.5,96.76C126.5,97.05 126.5,97.33 126.5,97.62C126.5,97.91 126.5,98.19 126.5,98.48C126.5,98.77 126.5,99.05 126.5,99.34C126.5,99.63 126.5,99.91 126.5,100.2C126.5,100.49 126.5,100.77 126.5,101.06C126.5,101.34 126.5,101.63 126.5,101.91C126.5,102.2 126.5,102.48 126.5,102.77C126.5,103.06 126.5,103.34 126.5,103.63C126.5,103.92 126.5,104.2 126.5,104.49C126.5,104.78 126.5,105.06 126.5,105.35C126.5,105.64 126.5,105.92 126.5,106.21C126.5,106.5 126.5,106.78 126.5,107.07C126.5,107.35 126.5,107.64 126.5,107.92C126.5,108.21 126.5,108.49 126.5,108.78C126.5,109.07 126.5,109.35 126.5,109.64C126.5,109.93 126.5,110.21 126.5,110.5C126.5,110.79 126.5,111.07 126.5,111.36C126.5,111.65 126.5,111.93 126.5,112.22C126.5,112.51 126.5,112.79 126.5,113.08C126.5,113.36 126.5,113.65 126.5,113.93C126.5,114.22 126.5,114.5 126.5,114.79C126.5,115.08 126.5,115.36 126.5,115.65C126.5,115.94 126.5,116.22 126.5,116.51C126.5,116.8 126.5,117.08 126.5,117.37C126.5,117.66 126.5,117.94 126.5,118.23C126.5,118.51 126.5,118.8 126.5,119.08C126.5,119.37 126.5,119.65 126.5,119.94C126.5,120.23 126.5,120.51 126.5,120.8C126.5,121.09 126.5,121.37 126.5,121.66C126.5,121.95 126.5,122.23 126.5,122.52C126.5,122.81 126.5,123.09 126.5,123.38C126.5,123.67 126.5,123.95 126.5,124.24C126.5,124.52 126.5,124.81 126.5,125.09C126.5,125.38 126.5,125.66 126.5,125.95C126.5,126.24 126.5,126.52 126.5,126.81C126.5,127.1 126.5,127.38 126.5,127.67C126.5,127.96 126.5,128.24 126.5,128.53C126.5,128.82 126.5,129.1 126.5,129.39C126.5,129.68 126.5,129.96 126.5,130.25C126.5,130.53 126.5,130.82 126.5,131.1C126.5,131.39 126.5,131.67 126.5,131.96C126.5,132.25 126.5,132.53 126.5,132.82C126.5,133.11 126.5,133.39 126.5,133.68C126.5,133.97 126.5,134.25 126.5,134.54C126.5,134.83 126.5,135.11 126.5,135.4C126.5,135.68 126.5,135.97 126.5,136.25C126.5,136.54 126.5,136.82 126.5,137.11C126.5,137.4 126.5,137.68 126.5,137.97C126.5,138.26 126.5,138.54 126.5,138.83C126.5,139.12 126.5,139.4 126.5,139.69C126.5,139.98 126.5,140.26 126.5,140.55C126.5,140.84 126.5,141.12 126.5,141.41C126.5,141.69 126.5,141.98 126.5,142.26C126.5,142.55 126.5,142.83 126.5,143.12C126.5,143.41 126.5,143.69 126.5,143.98C126.5,144.27 126.5,144.55 126.5,144.84C126.5,145.13 126.5,145.41 126.5,145.7C126.5,145.99 126.5,146.27 126.5,146.56C126.5,146.85 126.5,147.13 126.5,147.42C126.5,147.7 126.5,147.99 126.5,148.27C126.5,148.56 126.5,148.84 126.5,149.13C126.5,149.42 126.5,149.7 126.5,149.99C126.5,150.28 126.5,150.56 126.5,150.85C126.5,151.14 126.5,151.42 126.5,151.71C126.5,152 126.5,152.28 126.5,152.57C126.5,152.86 126.5,153.14 126.5,153.43C126.5,153.71 126.5,154 126.5,154.28C126.5,154.57 126.5,154.85 126.5,155.14C126.5,155.43 126.5,155.71 126.5,156C126.5,156.29 126.5,156.57 126.5,156.86C126.5,157.15 126.5,157.43 126.5,157.72C126.5,158.01 126.5,158.29 126.5,158.58C126.5,158.86 126.5,159.15 126.5,159.43C126.5,159.72 126.5,160 126.5,160.29C126.5,160.58 126.5,160.86 126.5,161.15C126.5,161.44 126.5,161.72 126.5,162.01C126.5,162.3 126.5,162.58 126.5,162.87C126.5,163.16 126.5,163.44 126.5,163.73C126.5,164.02 126.5,164.3 126.5,164.59C126.5,164.87 126.5,165.16 126.5,165.44C126.5,165.73 126.5,166.01 126.5,166.3C126.5,166.59 126.5,166.87 126.5,167.16C126.5,167.45 126.5,167.73 126.5,168.02C126.5,168.31 126.5,168.59 126.5,168.88C126.5,169.17 126.5,169.45 126.5,169.74C126.5,170.03 126.5,170.31 126.5,170.6C126.5,170.88 126.5,171.17 126.5,171.45C126.5,171.74 126.5,172.02 126.5,172.31C126.5,172.6 126.5,172.88 126.5,173.17C126.5,173.46 126.5,173.74 126.5,174.03C126.5,174.32 126.5,174.6 126.5,174.89C126.5,175.18 126.5,175.46 126.5,175.75C126.5,176.03 126.5,176.32 126.5,176.6C126.5,176.89 126.5,177.17 126.5,177.46C126.5,177.75 126.5,178.03 126.5,178.32C126.5,178.61 126.5,178.89 126.5,179.18C126.5,179.47 126.5,179.75 126.5,180.04C126.5,180.33 126.5,180.61 126.5,180.9C126.5,181.19 126.5,181.47 126.5,181.76C126.5,182.04 126.49,182.33 126.49,182.61C126.49,182.9 126.49,183.18 126.48,183.47C126.47,183.76 126.46,184.04 126.44,184.33C126.42,184.62 126.41,184.9 126.37,185.19C126.33,185.48 126.29,185.77 126.22,186.05C126.15,186.34 126.07,186.63 125.96,186.91C125.85,187.2 125.72,187.49 125.58,187.77C125.43,188.06 125.26,188.34 125.09,188.62C124.92,188.91 124.73,189.19 124.57,189.48C124.41,189.76 124.25,190.05 124.14,190.34C124.03,190.62 123.93,190.91 123.9,191.2C123.87,191.48 123.89,191.78 123.94,192.06C123.99,192.35 124.1,192.64 124.21,192.92C124.32,193.21 124.49,193.49 124.62,193.78C124.75,194.06 124.89,194.34 124.99,194.63C125.08,194.91 125.17,195.2 125.2,195.49C125.23,195.77 125.21,196.07 125.16,196.35C125.11,196.64 125,196.93 124.89,197.21C124.78,197.5 124.62,197.78 124.49,198.07C124.36,198.36 124.21,198.64 124.11,198.93C124.01,199.21 123.93,199.49 123.9,199.78C123.87,200.06 123.89,200.36 123.95,200.64C124.01,200.93 124.12,201.22 124.25,201.5C124.38,201.79 124.56,202.07 124.73,202.36C124.9,202.65 125.09,202.93 125.25,203.22C125.41,203.5 125.58,203.79 125.71,204.08C125.84,204.36 125.96,204.65 126.05,204.94C126.14,205.22 126.21,205.5 126.27,205.79C126.33,206.07 126.37,206.36 126.4,206.65C126.43,206.94 126.45,207.22 126.46,207.51C126.47,207.8 126.47,208.08 126.48,208.37C126.48,208.66 126.49,208.94 126.49,209.23C126.49,209.52 126.5,209.8 126.5,210.09C126.5,210.38 126.5,210.66 126.5,210.95C126.5,211.23 126.49,211.52 126.49,211.8C126.49,212.09 126.49,212.37 126.48,212.66C126.47,212.95 126.46,213.23 126.44,213.52C126.42,213.81 126.41,214.09 126.37,214.38C126.33,214.67 126.28,214.96 126.21,215.24C126.14,215.53 126.06,215.82 125.95,216.1C125.84,216.39 125.71,216.67 125.57,216.95C125.42,217.24 125.25,217.52 125.08,217.81C124.91,218.1 124.72,218.38 124.56,218.67C124.4,218.95 124.24,219.24 124.13,219.53C124.03,219.81 123.94,220.1 123.91,220.39C123.88,220.67 123.9,220.97 123.96,221.25C124.02,221.54 124.15,221.83 124.28,222.11C124.41,222.4 124.6,222.68 124.76,222.96C124.93,223.25 125.11,223.53 125.27,223.82C125.43,224.1 125.59,224.39 125.71,224.68C125.83,224.96 125.94,225.25 126.01,225.54C126.08,225.82 126.12,226.11 126.13,226.4C126.14,226.69 126.12,226.98 126.06,227.26C126,227.55 125.89,227.84 125.75,228.12C125.6,228.41 125.39,228.7 125.17,228.97C124.93,229.27 124.64,229.55 124.34,229.83C124.02,230.12 123.66,230.4 123.32,230.69C122.98,230.98 122.61,231.25 122.31,231.55C122.03,231.83 121.73,232.1 121.56,232.41C121.41,232.68 121.29,232.98 121.29,233.27C121.29,233.56 121.42,233.86 121.58,234.13C121.76,234.43 122.06,234.71 122.34,234.98C122.65,235.28 123.02,235.55 123.36,235.84C123.7,236.13 124.06,236.41 124.37,236.7C124.67,236.98 124.97,237.26 125.21,237.56C125.44,237.84 125.64,238.12 125.8,238.42C125.95,238.7 126.06,238.99 126.14,239.28C126.22,239.56 126.27,239.84 126.29,240.13C126.31,240.41 126.31,240.71 126.28,240.99C126.25,241.28 126.19,241.57 126.09,241.85C125.99,242.14 125.85,242.43 125.66,242.71C125.46,243.01 125.19,243.3 124.9,243.57C124.57,243.87 124.17,244.15 123.76,244.43C123.31,244.73 122.8,245.01 122.3,245.29C121.79,245.58 121.23,245.85 120.74,246.14C120.28,246.42 119.78,246.68 119.43,247C119.14,247.27 118.82,247.55 118.74,247.86C118.67,248.13 118.73,248.46 118.87,248.72C119.04,249.04 119.43,249.31 119.79,249.58C120.2,249.89 120.72,250.16 121.21,250.44C121.72,250.73 122.28,251.01 122.78,251.3C123.26,251.58 123.74,251.85 124.15,252.15C124.53,252.42 124.89,252.71 125.18,253.01C125.44,253.28 125.66,253.57 125.83,253.87C125.99,254.15 126.11,254.44 126.2,254.73C126.29,255.01 126.33,255.3 126.37,255.59C126.41,255.88 126.42,256.16 126.42,256.45C126.42,256.73 126.41,257.02 126.36,257.3C126.31,257.59 126.26,257.89 126.12,258.16C125.97,258.46 125.76,258.76 125.47,259.02C125.1,259.35 124.58,259.63 123.98,259.88C123.16,260.22 122.11,260.48 120.95,260.74C119.42,261.08 117.56,261.34 115.57,261.6C113.1,261.92 110.21,262.19 107.23,262.46C103.79,262.77 99.92,263.03 96.1,263.31C92.05,263.6 87.65,263.88 83.59,264.17C79.73,264.45 75.61,264.7 72.29,265.03C69.66,265.29 66.31,265.29 65.22,265.89C64.79,266.13 64.43,266.51 64.52,266.75C64.73,267.3 68.14,267.35 70.39,267.61C73.41,267.95 77.36,268.2 81.06,268.47C85.06,268.77 89.47,269.03 93.56,269.32C97.49,269.6 101.53,269.87 105.14,270.18C108.32,270.45 111.42,270.72 114.1,271.04C116.29,271.3 118.35,271.56 120.06,271.9C121.37,272.16 122.57,272.42 123.51,272.76C124.21,273.02 124.82,273.29 125.26,273.62C125.6,273.88 125.86,274.18 126.04,274.48C126.2,274.75 126.28,275.04 126.35,275.33C126.42,275.61 126.43,275.9 126.45,276.19C126.47,276.48 126.48,276.76 126.49,277.05C126.5,277.34 126.5,277.62 126.5,277.91C126.5,278.2 126.5,278.48 126.5,278.77C126.5,279.06 126.5,279.34 126.49,279.63C126.49,279.91 126.48,280.2 126.47,280.48C126.46,280.77 126.44,281.05 126.4,281.34C126.36,281.63 126.31,281.92 126.21,282.2C126.1,282.49 125.97,282.79 125.76,283.06C125.52,283.37 125.19,283.66 124.79,283.92C124.3,284.25 123.66,284.52 122.97,284.78C122.11,285.1 121.08,285.37 120,285.64C118.72,285.95 117.26,286.22 115.79,286.49C114.18,286.79 112.39,287.06 110.7,287.35C109.01,287.64 107.2,287.9 105.64,288.21C104.28,288.48 102.78,288.69 101.85,289.07C101.24,289.32 100.45,289.64 100.45,289.93C100.45,290.22 101.24,290.54 101.85,290.79C102.78,291.17 104.28,291.38 105.64,291.65C107.2,291.96 109.01,292.22 110.7,292.5C112.39,292.79 114.18,293.06 115.79,293.36C117.26,293.63 118.72,293.91 120,294.22Q121.08,294.49 122.97,295.08Z" style="vector-effect: non-scaling-stroke; stroke-width: 2px; stroke: rgb(31, 119, 180); stroke-opacity: 1; fill: rgb(31, 119, 180); fill-opacity: 0.5;"/><path class="box" d="M111,266.41H142M111,266.41H142V266.41H111ZM126.5,266.41V266.41M126.5,266.41V266.41" style="vector-effect: non-scaling-stroke; stroke-width: 2px; stroke: rgb(31, 119, 180); stroke-opacity: 1; fill: rgb(31, 119, 180); fill-opacity: 0.5;"/><path class="mean" d="M111,254.46H142" style="fill: none; vector-effect: non-scaling-stroke; stroke-width: 2px; stroke-dasharray: 4px, 2px; stroke: rgb(31, 119, 180); stroke-opacity: 1;"/><g class="points"><path class="point" transform="translate(126.5,289.93)" d="M3,0A3,3 0 1,1 0,-3A3,3 0 0,1 3,0Z" style="opacity: 1; stroke-width: 0px; fill: rgb(31, 119, 180); fill-opacity: 1;"/><path class="point" transform="translate(126.5,289.93)" d="M3,0A3,3 0 1,1 0,-3A3,3 0 0,1 3,0Z" style="opacity: 1; stroke-width: 0px; fill: rgb(31, 119, 180); fill-opacity: 1;"/><path class="point" transform="translate(126.5,289.93)" d="M3,0A3,3 0 1,1 0,-3A3,3 0 0,1 3,0Z" style="opacity: 1; stroke-width: 0px; fill: rgb(31, 119, 180); fill-opacity: 1;"/><path class="point" transform="translate(126.5,289.93)" d="M3,0A3,3 0 1,1 0,-3A3,3 0 0,1 3,0Z" style="opacity: 1; stroke-width: 0px; fill: rgb(31, 119, 180); fill-opacity: 1;"/><path class="point" transform="translate(126.5,289.93)" d="M3,0A3,3 0 1,1 0,-3A3,3 0 0,1 3,0Z" style="opacity: 1; stroke-width: 0px; fill: rgb(31, 119, 180); fill-opacity: 1;"/><path class="point" transform="translate(126.5,289.93)" d="M3,0A3,3 0 1,1 0,-3A3,3 0 0,1 3,0Z" style="opacity: 1; stroke-width: 0px; fill: rgb(31, 119, 180); fill-opacity: 1;"/><path class="point" transform="translate(126.5,289.93)" d="M3,0A3,3 0 1,1 0,-3A3,3 0 0,1 3,0Z" style="opacity: 1; stroke-width: 0px; fill: rgb(31, 119, 180); fill-opacity: 1;"/><path class="point" transform="translate(126.5,289.93)" d="M3,0A3,3 0 1,1 0,-3A3,3 0 0,1 3,0Z" style="opacity: 1; stroke-width: 0px; fill: rgb(31, 119, 180); fill-opacity: 1;"/><path class="point" transform="translate(126.5,289.93)" d="M3,0A3,3 0 1,1 0,-3A3,3 0 0,1 3,0Z" style="opacity: 1; stroke-width: 0px; fill: rgb(31, 119, 180); fill-opacity: 1;"/><path class="point" transform="translate(126.5,289.93)" d="M3,0A3,3 0 1,1 0,-3A3,3 0 0,1 3,0Z" style="opacity: 1; stroke-width: 0px; fill: rgb(31, 119, 180); fill-opacity: 1;"/><path class="point" transform="translate(126.5,248.16)" d="M3,0A3,3 0 1,1 0,-3A3,3 0 0,1 3,0Z" style="opacity: 1; stroke-width: 0px; fill: rgb(31, 119, 180); fill-opacity: 1;"/><path class="point" transform="translate(126.5,248.16)" d="M3,0A3,3 0 1,1 0,-3A3,3 0 0,1 3,0Z" style="opacity: 1; stroke-width: 0px; fill: rgb(31, 119, 180); fill-opacity: 1;"/><path class="point" transform="translate(126.5,248.16)" d="M3,0A3,3 0 1,1 0,-3A3,3 0 0,1 3,0Z" style="opacity: 1; stroke-width: 0px; fill: rgb(31, 119, 180); fill-opacity: 1;"/><path class="point" transform="translate(126.5,233.25)" d="M3,0A3,3 0 1,1 0,-3A3,3 0 0,1 3,0Z" style="opacity: 1; stroke-width: 0px; fill: rgb(31, 119, 180); fill-opacity: 1;"/><path class="point" transform="translate(126.5,233.25)" d="M3,0A3,3 0 1,1 0,-3A3,3 0 0,1 3,0Z" style="opacity: 1; stroke-width: 0px; fill: rgb(31, 119, 180); fill-opacity: 1;"/><path class="point" transform="translate(126.5,220.65)" d="M3,0A3,3 0 1,1 0,-3A3,3 0 0,1 3,0Z" style="opacity: 1; stroke-width: 0px; fill: rgb(31, 119, 180); fill-opacity: 1;"/><path class="point" transform="translate(126.5,200.1)" d="M3,0A3,3 0 1,1 0,-3A3,3 0 0,1 3,0Z" style="opacity: 1; stroke-width: 0px; fill: rgb(31, 119, 180); fill-opacity: 1;"/><path class="point" transform="translate(126.5,191.49)" d="M3,0A3,3 0 1,1 0,-3A3,3 0 0,1 3,0Z" style="opacity: 1; stroke-width: 0px; fill: rgb(31, 119, 180); fill-opacity: 1;"/><path class="point" transform="translate(126.5,47.75)" d="M3,0A3,3 0 1,1 0,-3A3,3 0 0,1 3,0Z" style="opacity: 1; stroke-width: 0px; fill: rgb(31, 119, 180); fill-opacity: 1;"/><path class="point" transform="translate(126.5,32.38)" d="M3,0A3,3 0 1,1 0,-3A3,3 0 0,1 3,0Z" style="opacity: 1; stroke-width: 0px; fill: rgb(31, 119, 180); fill-opacity: 1;"/></g></g><g class="trace violins" style="opacity: 1;"><path class="violin" d="M382.73,304Q384.43,302.4 385.45,301.66C386.59,300.83 387.95,300.07 389.31,299.32C390.78,298.51 392.43,297.76 393.98,296.98C395.53,296.2 397.21,295.46 398.63,294.63C399.91,293.88 401.3,293.17 402.16,292.29C402.85,291.58 403.53,290.75 403.62,289.95C403.7,289.19 403.26,288.34 402.79,287.61C402.25,286.76 401.18,286.05 400.38,285.27C399.58,284.49 398.45,283.79 397.97,282.93C397.57,282.21 397.2,281.3 397.46,280.59C397.78,279.7 399.17,278.93 400.45,278.24C402.24,277.28 404.91,276.62 407.5,275.9C410.58,275.04 414.27,274.33 417.77,273.56C421.4,272.76 425.41,272.05 428.9,271.22C432.02,270.48 435.46,269.86 437.73,268.88C439.31,268.2 441.39,267.38 441.48,266.54C441.56,265.81 440.18,264.87 439.03,264.2C437.27,263.17 434.14,262.59 431.4,261.85C428.27,261.01 424.59,260.3 421.24,259.51C417.95,258.74 414.5,258.01 411.49,257.17C408.85,256.43 406.26,255.71 404.14,254.83C402.42,254.12 400.85,253.37 399.64,252.49C398.66,251.78 397.92,250.97 397.26,250.15C396.66,249.4 396.28,248.59 395.81,247.8C395.34,247.02 394.92,246.23 394.44,245.46C393.95,244.67 393.4,243.9 392.88,243.12C392.36,242.34 391.8,241.57 391.31,240.78C390.83,240.01 390.39,239.23 389.99,238.44C389.6,237.67 389.28,236.88 388.95,236.1C388.62,235.32 388.34,234.54 388.01,233.76C387.68,232.97 387.34,232.19 386.96,231.41C386.58,230.62 386.14,229.85 385.72,229.07C385.3,228.29 384.83,227.52 384.44,226.73C384.06,225.96 383.67,225.18 383.41,224.39C383.16,223.62 382.97,222.83 382.91,222.05C382.85,221.27 382.92,220.48 383.07,219.71C383.22,218.92 383.52,218.14 383.82,217.37C384.12,216.58 384.54,215.81 384.88,215.02C385.22,214.24 385.61,213.47 385.85,212.68C386.09,211.91 386.29,211.12 386.34,210.34C386.39,209.56 386.31,208.77 386.14,208C385.96,207.21 385.63,206.43 385.28,205.66C384.92,204.87 384.45,204.1 384.01,203.32C383.57,202.54 383.08,201.77 382.65,200.98C382.23,200.2 381.81,199.42 381.47,198.63C381.13,197.86 380.84,197.08 380.6,196.29C380.37,195.52 380.19,194.73 380.05,193.95C379.91,193.17 379.83,192.39 379.75,191.61C379.68,190.83 379.64,190.05 379.6,189.27C379.57,188.49 379.56,187.71 379.54,186.93C379.53,186.15 379.52,185.37 379.51,184.59C379.5,183.81 379.5,183.02 379.5,182.24C379.5,181.46 379.5,180.68 379.5,179.9C379.5,179.12 379.5,178.34 379.5,177.56C379.5,176.78 379.5,176 379.5,175.22C379.5,174.44 379.5,173.66 379.5,172.88C379.5,172.1 379.5,171.32 379.5,170.54C379.5,169.76 379.5,168.98 379.5,168.2C379.5,167.42 379.5,166.63 379.5,165.85C379.5,165.07 379.5,164.29 379.5,163.51C379.5,162.73 379.5,161.95 379.5,161.17C379.5,160.39 379.5,159.61 379.5,158.83C379.5,158.05 379.5,157.27 379.5,156.49C379.5,155.71 379.5,154.93 379.5,154.15C379.5,153.37 379.5,152.58 379.5,151.8C379.5,151.02 379.5,150.24 379.5,149.46C379.5,148.68 379.5,147.9 379.5,147.12C379.5,146.34 379.5,145.56 379.5,144.78C379.5,144 379.5,143.22 379.5,142.44C379.5,141.66 379.5,140.88 379.5,140.1C379.5,139.32 379.5,138.54 379.5,137.76C379.5,136.98 379.5,136.19 379.5,135.41C379.5,134.63 379.5,133.85 379.5,133.07C379.5,132.29 379.5,131.51 379.5,130.73C379.5,129.95 379.5,129.17 379.5,128.39C379.5,127.61 379.5,126.83 379.5,126.05C379.5,125.27 379.5,124.49 379.5,123.71C379.5,122.93 379.5,122.15 379.5,121.37C379.5,120.59 379.5,119.8 379.5,119.02C379.5,118.24 379.5,117.46 379.5,116.68C379.5,115.9 379.5,115.12 379.5,114.34C379.5,113.56 379.5,112.78 379.5,112C379.5,111.22 379.5,110.44 379.5,109.66C379.5,108.88 379.5,108.1 379.5,107.32C379.5,106.54 379.5,105.76 379.5,104.98C379.5,104.2 379.5,103.41 379.5,102.63C379.5,101.85 379.5,101.07 379.5,100.29C379.5,99.51 379.5,98.73 379.5,97.95C379.5,97.17 379.5,96.39 379.5,95.61C379.5,94.83 379.5,94.05 379.5,93.27C379.5,92.49 379.5,91.71 379.5,90.93C379.5,90.15 379.5,89.37 379.5,88.59C379.5,87.81 379.5,87.02 379.5,86.24C379.5,85.46 379.5,84.68 379.5,83.9C379.5,83.12 379.5,82.34 379.5,81.56C379.5,80.78 379.5,80 379.5,79.22C379.5,78.44 379.5,77.66 379.5,76.88C379.5,76.1 379.5,75.32 379.5,74.54C379.5,73.76 379.5,72.98 379.5,72.2C379.5,71.42 379.5,70.63 379.5,69.85C379.5,69.07 379.5,68.29 379.5,67.51C379.5,66.73 379.5,65.95 379.5,65.17C379.5,64.39 379.5,63.61 379.5,62.83C379.5,62.05 379.5,61.27 379.5,60.49C379.5,59.71 379.5,58.93 379.5,58.15C379.5,57.37 379.5,56.58 379.51,55.8C379.52,55.02 379.53,54.24 379.54,53.46C379.56,52.68 379.57,51.9 379.6,51.12C379.64,50.34 379.67,49.56 379.75,48.78C379.83,48 379.92,47.22 380.06,46.44C380.2,45.66 380.38,44.87 380.61,44.1C380.85,43.31 381.14,42.53 381.47,41.76C381.81,40.97 382.22,40.19 382.64,39.41C383.06,38.62 383.55,37.85 383.99,37.07C384.42,36.29 384.89,35.52 385.25,34.73C385.59,33.96 385.93,33.18 386.1,32.39C386.27,31.62 386.34,30.83 386.28,30.05C386.22,29.27 386,28.48 385.74,27.71C385.47,26.92 385.05,26.14 384.65,25.37C384.24,24.58 383.74,23.8 383.3,23.02C382.86,22.24 382.4,21.47 382.01,20.68C381.63,19.91 381.28,19.13 380.99,18.34Q380.71,17.57 380.29,16L378.71,16Q378.29,17.57 378.01,18.34C377.72,19.13 377.37,19.91 376.99,20.68C376.6,21.47 376.14,22.24 375.7,23.02C375.26,23.8 374.76,24.58 374.35,25.37C373.95,26.14 373.53,26.92 373.26,27.71C373,28.48 372.78,29.27 372.72,30.05C372.66,30.83 372.73,31.62 372.9,32.39C373.07,33.18 373.41,33.96 373.75,34.73C374.11,35.52 374.58,36.29 375.01,37.07C375.45,37.85 375.94,38.62 376.36,39.41C376.78,40.19 377.19,40.97 377.53,41.76C377.86,42.53 378.15,43.31 378.39,44.1C378.62,44.87 378.8,45.66 378.94,46.44C379.08,47.22 379.17,48 379.25,48.78C379.33,49.56 379.36,50.34 379.4,51.12C379.43,51.9 379.44,52.68 379.46,53.46C379.47,54.24 379.48,55.02 379.49,55.8C379.5,56.58 379.5,57.37 379.5,58.15C379.5,58.93 379.5,59.71 379.5,60.49C379.5,61.27 379.5,62.05 379.5,62.83C379.5,63.61 379.5,64.39 379.5,65.17C379.5,65.95 379.5,66.73 379.5,67.51C379.5,68.29 379.5,69.07 379.5,69.85C379.5,70.63 379.5,71.42 379.5,72.2C379.5,72.98 379.5,73.76 379.5,74.54C379.5,75.32 379.5,76.1 379.5,76.88C379.5,77.66 379.5,78.44 379.5,79.22C379.5,80 379.5,80.78 379.5,81.56C379.5,82.34 379.5,83.12 379.5,83.9C379.5,84.68 379.5,85.46 379.5,86.24C379.5,87.02 379.5,87.81 379.5,88.59C379.5,89.37 379.5,90.15 379.5,90.93C379.5,91.71 379.5,92.49 379.5,93.27C379.5,94.05 379.5,94.83 379.5,95.61C379.5,96.39 379.5,97.17 379.5,97.95C379.5,98.73 379.5,99.51 379.5,100.29C379.5,101.07 379.5,101.85 379.5,102.63C379.5,103.41 379.5,104.2 379.5,104.98C379.5,105.76 379.5,106.54 379.5,107.32C379.5,108.1 379.5,108.88 379.5,109.66C379.5,110.44 379.5,111.22 379.5,112C379.5,112.78 379.5,113.56 379.5,114.34C379.5,115.12 379.5,115.9 379.5,116.68C379.5,117.46 379.5,118.24 379.5,119.02C379.5,119.8 379.5,120.59 379.5,121.37C379.5,122.15 379.5,122.93 379.5,123.71C379.5,124.49 379.5,125.27 379.5,126.05C379.5,126.83 379.5,127.61 379.5,128.39C379.5,129.17 379.5,129.95 379.5,130.73C379.5,131.51 379.5,132.29 379.5,133.07C379.5,133.85 379.5,134.63 379.5,135.41C379.5,136.19 379.5,136.98 379.5,137.76C379.5,138.54 379.5,139.32 379.5,140.1C379.5,140.88 379.5,141.66 379.5,142.44C379.5,143.22 379.5,144 379.5,144.78C379.5,145.56 379.5,146.34 379.5,147.12C379.5,147.9 379.5,148.68 379.5,149.46C379.5,150.24 379.5,151.02 379.5,151.8C379.5,152.58 379.5,153.37 379.5,154.15C379.5,154.93 379.5,155.71 379.5,156.49C379.5,157.27 379.5,158.05 379.5,158.83C379.5,159.61 379.5,160.39 379.5,161.17C379.5,161.95 379.5,162.73 379.5,163.51C379.5,164.29 379.5,165.07 379.5,165.85C379.5,166.63 379.5,167.42 379.5,168.2C379.5,168.98 379.5,169.76 379.5,170.54C379.5,171.32 379.5,172.1 379.5,172.88C379.5,173.66 379.5,174.44 379.5,175.22C379.5,176 379.5,176.78 379.5,177.56C379.5,178.34 379.5,179.12 379.5,179.9C379.5,180.68 379.5,181.46 379.5,182.24C379.5,183.02 379.5,183.81 379.49,184.59C379.48,185.37 379.47,186.15 379.46,186.93C379.44,187.71 379.43,188.49 379.4,189.27C379.36,190.05 379.32,190.83 379.25,191.61C379.17,192.39 379.09,193.17 378.95,193.95C378.81,194.73 378.63,195.52 378.4,196.29C378.16,197.08 377.87,197.86 377.53,198.63C377.19,199.42 376.77,200.2 376.35,200.98C375.92,201.77 375.43,202.54 374.99,203.32C374.55,204.1 374.08,204.87 373.72,205.66C373.37,206.43 373.04,207.21 372.86,208C372.69,208.77 372.61,209.56 372.66,210.34C372.71,211.12 372.91,211.91 373.15,212.68C373.39,213.47 373.78,214.24 374.12,215.02C374.46,215.81 374.88,216.58 375.18,217.37C375.48,218.14 375.78,218.92 375.93,219.71C376.08,220.48 376.15,221.27 376.09,222.05C376.03,222.83 375.84,223.62 375.59,224.39C375.33,225.18 374.94,225.96 374.56,226.73C374.17,227.52 373.7,228.29 373.28,229.07C372.86,229.85 372.42,230.62 372.04,231.41C371.66,232.19 371.32,232.97 370.99,233.76C370.66,234.54 370.38,235.32 370.05,236.1C369.72,236.88 369.4,237.67 369.01,238.44C368.61,239.23 368.17,240.01 367.69,240.78C367.2,241.57 366.64,242.34 366.12,243.12C365.6,243.9 365.05,244.67 364.56,245.46C364.08,246.23 363.66,247.02 363.19,247.8C362.72,248.59 362.34,249.4 361.74,250.15C361.08,250.97 360.34,251.78 359.36,252.49C358.15,253.37 356.58,254.12 354.86,254.83C352.74,255.71 350.15,256.43 347.51,257.17C344.5,258.01 341.05,258.74 337.76,259.51C334.41,260.3 330.73,261.01 327.6,261.85C324.86,262.59 321.73,263.17 319.97,264.2C318.82,264.87 317.44,265.81 317.52,266.54C317.61,267.38 319.69,268.2 321.27,268.88C323.54,269.86 326.98,270.48 330.1,271.22C333.59,272.05 337.6,272.76 341.23,273.56C344.73,274.33 348.42,275.04 351.5,275.9C354.09,276.62 356.76,277.28 358.55,278.24C359.83,278.93 361.22,279.7 361.54,280.59C361.8,281.3 361.43,282.21 361.03,282.93C360.55,283.79 359.42,284.49 358.62,285.27C357.82,286.05 356.75,286.76 356.21,287.61C355.74,288.34 355.3,289.19 355.38,289.95C355.47,290.75 356.15,291.58 356.84,292.29C357.7,293.17 359.09,293.88 360.37,294.63C361.79,295.46 363.47,296.2 365.02,296.98C366.57,297.76 368.22,298.51 369.69,299.32C371.05,300.07 372.41,300.83 373.55,301.66Q374.57,302.4 376.27,304Z" style="vector-effect: non-scaling-stroke; stroke-width: 2px; stroke: rgb(255, 127, 14); stroke-opacity: 1; fill: rgb(255, 127, 14); fill-opacity: 0.5;"/><path class="box" d="M364,265.41H395M364,266.41H395V248.16H364ZM379.5,266.41V289.93M379.5,248.16V233.25" style="vector-effect: non-scaling-stroke; stroke-width: 2px; stroke: rgb(255, 127, 14); stroke-opacity: 1; fill: rgb(255, 127, 14); fill-opacity: 0.5;"/><path class="mean" d="M364,250.42H395" style="fill: none; vector-effect: non-scaling-stroke; stroke-width: 2px; stroke-dasharray: 4px, 2px; stroke: rgb(255, 127, 14); stroke-opacity: 1;"/><g class="points"><path class="point" transform="translate(379.5,209.73)" d="M3,0A3,3 0 1,1 0,-3A3,3 0 0,1 3,0Z" style="opacity: 1; stroke-width: 0px; fill: rgb(255, 127, 14); fill-opacity: 1;"/><path class="point" transform="translate(379.5,209.73)" d="M3,0A3,3 0 1,1 0,-3A3,3 0 0,1 3,0Z" style="opacity: 1; stroke-width: 0px; fill: rgb(255, 127, 14); fill-opacity: 1;"/><path class="point" transform="translate(379.5,31.22)" d="M3,0A3,3 0 1,1 0,-3A3,3 0 0,1 3,0Z" style="opacity: 1; stroke-width: 0px; fill: rgb(255, 127, 14); fill-opacity: 1;"/><path class="point" transform="translate(379.5,30.07)" d="M3,0A3,3 0 1,1 0,-3A3,3 0 0,1 3,0Z" style="opacity: 1; stroke-width: 0px; fill: rgb(255, 127, 14); fill-opacity: 1;"/></g></g></g></g><g class="overplot"/><path class="xlines-above crisp" d="M79,420.5H586" style="fill: none; stroke-width: 1px; stroke: rgb(36, 36, 36); stroke-opacity: 1;"/><path class="ylines-above crisp" d="M79.5,100V420" style="fill: none; stroke-width: 1px; stroke: rgb(36, 36, 36); stroke-opacity: 1;"/><g class="overlines-above"/><g class="xaxislayer-above"><path class="xtick ticks crisp" d="M0,421v5" transform="translate(206.5,0)" style="stroke: rgb(68, 68, 68); stroke-opacity: 1; stroke-width: 1px;"/><path class="xtick ticks crisp" d="M0,421v5" transform="translate(459.5,0)" style="stroke: rgb(68, 68, 68); stroke-opacity: 1; stroke-width: 1px;"/><g class="xtick"><text text-anchor="middle" x="0" y="440.4" transform="translate(206.5,0)" style="font-family: 'Open Sans', verdana, arial, sans-serif; font-size: 12px; fill: rgb(36, 36, 36); fill-opacity: 1; white-space: pre; opacity: 1;">Treated</text></g><g class="xtick"><text text-anchor="middle" x="0" y="440.4" transform="translate(459.5,0)" style="font-family: 'Open Sans', verdana, arial, sans-serif; font-size: 12px; fill: rgb(36, 36, 36); fill-opacity: 1; white-space: pre; opacity: 1;">Control</text></g></g><g class="yaxislayer-above"><path class="ytick ticks crisp" d="M79,0h-5" transform="translate(0,389.93)" style="stroke: rgb(68, 68, 68); stroke-opacity: 1; stroke-width: 1px;"/><path class="ytick ticks crisp" d="M79,0h-5" transform="translate(0,349.05)" style="stroke: rgb(68, 68, 68); stroke-opacity: 1; stroke-width: 1px;"/><path class="ytick ticks crisp" d="M79,0h-5" transform="translate(0,308.15999999999997)" style="stroke: rgb(68, 68, 68); stroke-opacity: 1; stroke-width: 1px;"/><path class="ytick ticks crisp" d="M79,0h-5" transform="translate(0,267.28)" style="stroke: rgb(68, 68, 68); stroke-opacity: 1; stroke-width: 1px;"/><path class="ytick ticks crisp" d="M79,0h-5" transform="translate(0,226.4)" style="stroke: rgb(68, 68, 68); stroke-opacity: 1; stroke-width: 1px;"/><path class="ytick ticks crisp" d="M79,0h-5" transform="translate(0,185.51)" style="stroke: rgb(68, 68, 68); stroke-opacity: 1; stroke-width: 1px;"/><path class="ytick ticks crisp" d="M79,0h-5" transform="translate(0,144.63)" style="stroke: rgb(68, 68, 68); stroke-opacity: 1; stroke-width: 1px;"/><path class="ytick ticks crisp" d="M79,0h-5" transform="translate(0,103.75)" style="stroke: rgb(68, 68, 68); stroke-opacity: 1; stroke-width: 1px;"/><g class="ytick"><text text-anchor="end" x="71.6" y="4.199999999999999" transform="translate(0,389.93)" style="font-family: 'Open Sans', verdana, arial, sans-serif; font-size: 12px; fill: rgb(36, 36, 36); fill-opacity: 1; white-space: pre; opacity: 1;">0</text></g><g class="ytick"><text text-anchor="end" x="71.6" y="4.199999999999999" style="font-family: 'Open Sans', verdana, arial, sans-serif; font-size: 12px; fill: rgb(36, 36, 36); fill-opacity: 1; white-space: pre; opacity: 1;" transform="translate(0,349.05)">0.5</text></g><g class="ytick"><text text-anchor="end" x="71.6" y="4.199999999999999" style="font-family: 'Open Sans', verdana, arial, sans-serif; font-size: 12px; fill: rgb(36, 36, 36); fill-opacity: 1; white-space: pre; opacity: 1;" transform="translate(0,308.15999999999997)">1</text></g><g class="ytick"><text text-anchor="end" x="71.6" y="4.199999999999999" style="font-family: 'Open Sans', verdana, arial, sans-serif; font-size: 12px; fill: rgb(36, 36, 36); fill-opacity: 1; white-space: pre; opacity: 1;" transform="translate(0,267.28)">1.5</text></g><g class="ytick"><text text-anchor="end" x="71.6" y="4.199999999999999" style="font-family: 'Open Sans', verdana, arial, sans-serif; font-size: 12px; fill: rgb(36, 36, 36); fill-opacity: 1; white-space: pre; opacity: 1;" transform="translate(0,226.4)">2</text></g><g class="ytick"><text text-anchor="end" x="71.6" y="4.199999999999999" style="font-family: 'Open Sans', verdana, arial, sans-serif; font-size: 12px; fill: rgb(36, 36, 36); fill-opacity: 1; white-space: pre; opacity: 1;" transform="translate(0,185.51)">2.5</text></g><g class="ytick"><text text-anchor="end" x="71.6" y="4.199999999999999" style="font-family: 'Open Sans', verdana, arial, sans-serif; font-size: 12px; fill: rgb(36, 36, 36); fill-opacity: 1; white-space: pre; opacity: 1;" transform="translate(0,144.63)">3</text></g><g class="ytick"><text text-anchor="end" x="71.6" y="4.199999999999999" style="font-family: 'Open Sans', verdana, arial, sans-serif; font-size: 12px; fill: rgb(36, 36, 36); fill-opacity: 1; white-space: pre; opacity: 1;" transform="translate(0,103.75)">3.5</text></g></g><g class="overaxes-above"/></g></g><g class="polarlayer"/><g class="ternarylayer"/><g class="geolayer"/><g class="funnelarealayer"/><g class="pielayer"/><g class="iciclelayer"/><g class="treemaplayer"/><g class="sunburstlayer"/><g class="glimages"/><defs id="topdefs-8c37b8"><g class="clips"/><clipPath id="legend8c37b8"><rect width="92" height="48" x="0" y="0"/></clipPath></defs><g class="layer-above"><g class="imagelayer"/><g class="shapelayer"/></g><g class="infolayer"><g class="legend" pointer-events="all" transform="translate(596.12,100)"><rect class="bg" shape-rendering="crispEdges" width="92" height="48" x="0" y="0" style="stroke: rgb(68, 68, 68); stroke-opacity: 1; fill: rgb(255, 255, 255); fill-opacity: 1; stroke-width: 0px;"/><g class="scrollbox" transform="" clip-path="url(#legend8c37b8)"><g class="groups"><g class="traces" transform="translate(0,14.5)" style="opacity: 1;"><text class="legendtext" text-anchor="start" x="40" y="4.680000000000001" style="font-family: 'Open Sans', verdana, arial, sans-serif; font-size: 12px; fill: rgb(36, 36, 36); fill-opacity: 1; white-space: pre;">Treated</text><g class="layers" style="opacity: 1;"><g class="legendfill"/><g class="legendlines"/><g class="legendsymbols"><g class="legendpoints"><path class="legendbox" d="M6,6H-6V-6H6Z" transform="translate(20,0)" style="stroke-width: 2px; fill: rgb(31, 119, 180); fill-opacity: 0.5; stroke: rgb(31, 119, 180); stroke-opacity: 1;"/></g></g></g><rect class="legendtoggle" x="0" y="-9.5" width="86.0625" height="19" style="fill: rgb(0, 0, 0); fill-opacity: 0;"/></g><g class="traces" transform="translate(0,33.5)" style="opacity: 1;"><text class="legendtext" text-anchor="start" x="40" y="4.680000000000001" style="font-family: 'Open Sans', verdana, arial, sans-serif; font-size: 12px; fill: rgb(36, 36, 36); fill-opacity: 1; white-space: pre;">Control</text><g class="layers" style="opacity: 1;"><g class="legendfill"/><g class="legendlines"/><g class="legendsymbols"><g class="legendpoints"><path class="legendbox" d="M6,6H-6V-6H6Z" transform="translate(20,0)" style="stroke-width: 2px; fill: rgb(255, 127, 14); fill-opacity: 0.5; stroke: rgb(255, 127, 14); stroke-opacity: 1;"/></g></g></g><rect class="legendtoggle" x="0" y="-9.5" width="86.0625" height="19" style="fill: rgb(0, 0, 0); fill-opacity: 0;"/></g></g></g><rect class="scrollbar" rx="20" ry="3" width="0" height="0" x="0" y="0" style="fill: rgb(128, 139, 164); fill-opacity: 1;"/></g><g class="g-gtitle"><text class="gtitle" x="35" y="50" text-anchor="start" dy="0em" style="font-family: 'Open Sans', verdana, arial, sans-serif; font-size: 17px; fill: rgb(36, 36, 36); opacity: 1; font-weight: normal; white-space: pre;">Distribution of complex log abundances</text></g><g class="g-xtitle"/><g class="g-ytitle"/></g></svg>